<svg width="90" height="91" viewBox="0 0 90 91" fill="none" xmlns="http://www.w3.org/2000/svg">
<circle opacity="0.2" cx="33" cy="33" r="20" fill="#81C7B5"/>
<path d="M64.9276 54.0592L68.1322 58.0854C68.4489 58.4833 68.4165 59.0556 68.0569 59.4152L58.7129 68.7592C58.3532 69.1189 57.781 69.1513 57.383 68.8345L53.3568 65.63M51.7348 67.2522L66.5471 52.4399C67.654 51.3331 67.5341 49.505 66.2923 48.5521L48.5319 34.924C44.4677 31.8055 38.7217 32.1821 35.0993 35.8044C31.477 39.4268 31.1004 45.1728 34.2189 49.2369L47.8471 66.9974C48.8 68.2392 50.628 68.359 51.7348 67.2522Z" stroke="black" stroke-width="1.5"/>
<circle cx="47.8287" cy="48.5332" r="4" transform="rotate(-45 47.8287 48.5332)" stroke="black" stroke-width="1.5"/>
<path d="M16.074 17.3594L19.9631 21.2485C21.9157 23.2011 21.9157 26.3669 19.9631 28.3195L15.2223 33.0593C13.2697 35.0119 13.2697 38.1777 15.2223 40.1303C17.1749 42.083 20.3407 42.083 22.2933 40.1303L27.327 35.0977C29.2796 33.1451 32.4455 33.1451 34.3981 35.0977L35.1052 35.8048" stroke="black" stroke-width="1.5" stroke-linecap="round"/>
<path d="M64.0921 69.7458C67.2163 69.7458 69.7489 67.2132 69.7489 64.089M64.0921 74.6956C70.0274 74.887 74.8901 70.0243 74.6987 64.089" stroke="black" stroke-width="1.5" stroke-linecap="round"/>
</svg>
