<svg width="64" height="64" viewBox="0 0 64 64" fill="none" xmlns="http://www.w3.org/2000/svg">
<circle opacity="0.2" cx="20" cy="20" r="20" fill="#81C7B5"/>
<path d="M49.4889 26.7055L28.321 56.7503C28.1697 56.9651 27.832 56.831 27.8691 56.571L30.5257 37.9746C30.5472 37.824 30.4304 37.6893 30.2782 37.6893H14.6929C14.4903 37.6893 14.3718 37.4609 14.4885 37.2953L35.6565 7.25047C35.8078 7.03572 36.1455 7.16976 36.1083 7.42981L33.4517 26.0261C33.4302 26.1768 33.5471 26.3115 33.6992 26.3115H49.2845C49.4871 26.3115 49.6056 26.5399 49.4889 26.7055Z" stroke="black" stroke-width="1.5"/>
<path d="M4.97656 32H10.381M59.021 32H53.6166" stroke="black" stroke-width="1.5" stroke-linecap="round"/>
<path d="M11.2109 11.2227L14.7797 14.7915M52.2522 52.264L48.6834 48.6951" stroke="black" stroke-width="1.5" stroke-linecap="round"/>
<path d="M11.2113 52.266L14.7883 48.6911M52.2591 11.2175L48.6891 14.7874" stroke="black" stroke-width="1.5" stroke-linecap="round"/>
</svg>
