<svg width="64" height="64" viewBox="0 0 64 64" fill="none" xmlns="http://www.w3.org/2000/svg">
<ellipse opacity="0.2" cx="11.4957" cy="15.1715" rx="11.4957" ry="15.1715" transform="matrix(0.5 -0.866025 -0.866025 -0.5 37.0234 40.6677)" fill="#81C7B5"/>
<path d="M48.3016 8.07812C50.3917 10.2557 54.8695 14.8696 56.0594 15.9043C57.5468 17.1977 56.1239 19.9141 53.6014 20.6903C51.079 21.4664 51.0039 24.4109 52.2463 25.9939C54.9703 29.4644 52.8931 30.4567 50.1119 32.5264" stroke="black" stroke-width="1.5" stroke-linecap="round"/>
<path d="M37 47C33.4639 46.612 22.6637 48.4641 18.9379 58.9161" stroke="black" stroke-width="1.5" stroke-linecap="round"/>
<path d="M5.5 25.5C5.80464 26.6043 6.25719 27.9871 6.77415 29.4633C9.2257 36.4641 15.2793 41.508 22.4833 43.2754C28.7978 44.8245 36.6212 46.7826 43 48.5C50 50 51.5 48.5 51 41.5C51 39 50.5 39.5 52.5 38C54.5 36.5 55 35 51.5 31.5" stroke="black" stroke-width="1.5" stroke-linecap="round"/>
</svg>
