<svg width="40" height="40" viewBox="0 0 40 40" fill="none" xmlns="http://www.w3.org/2000/svg">
<path d="M2.75 5.75C2.75 5.75 2.75 7.85672 2.75 9.70694C2.75 16.9747 7.4708 22.86 11.0075 26.2493C13.3416 28.4862 16.5452 29.4138 19.7782 29.4138V29.4138" stroke="black" stroke-width="1.5" stroke-linecap="round"/>
<path d="M8.75 23.9305V35.2539" stroke="black" stroke-width="1.5" stroke-linecap="round"/>
<path d="M37.25 5.75C37.25 5.75 37.25 6.83856 37.25 9.70695C37.25 16.9748 32.5292 22.86 28.9925 26.2493C26.6584 28.4862 23.4548 29.4138 20.2218 29.4138V29.4138H19.3278" stroke="black" stroke-width="1.5" stroke-linecap="round"/>
<path d="M31.25 23.7955V35.2539" stroke="black" stroke-width="1.5" stroke-linecap="round"/>
<path d="M16.4688 20.3843V20.3843C17.496 20.9621 18.6548 21.2656 19.8334 21.2656H20.1551C21.3337 21.2656 22.4924 20.9621 23.5197 20.3843V20.3843" stroke="black" stroke-width="1.5" stroke-linecap="round"/>
<path d="M14.7109 17.2995L16.5707 16.2367C17.3101 15.8142 18.2325 15.8861 18.8974 16.4181V16.4181C19.5624 16.9501 20.4848 17.022 21.2241 16.5995L21.5415 16.4181C22.4725 15.8861 23.6338 15.9767 24.4711 16.6465L25.2873 17.2995" stroke="black" stroke-width="1.5" stroke-linecap="round"/>
</svg>
