<svg width="40" height="42" viewBox="0 0 40 42" fill="none" xmlns="http://www.w3.org/2000/svg">
<path d="M16.8657 1.625C16.8365 2.81582 17.1282 3.45668 15.8442 4.51944C15.2612 5.00201 11.557 5.97425 9.25165 6.54578C8.07596 6.83724 7.07824 7.61688 6.65333 8.75118V8.75118C5.85621 10.8792 4.65132 14.8739 4.25 20.375" stroke="black" stroke-width="1.5" stroke-linecap="round"/>
<path d="M11.875 14.125C12.3568 15.2678 12.4916 17.8689 12.4996 26.9667C12.5001 27.5702 12.4317 28.1719 12.2964 28.76L9.625 40.375" stroke="black" stroke-width="1.5" stroke-linecap="round"/>
<path d="M23.7588 1.625C23.7863 2.81582 23.5117 3.45668 24.7202 4.51944C25.1292 4.87916 27.2007 5.51095 29.1421 6.04604C31.4423 6.68004 33.3927 8.24486 34.0598 10.5356C34.7251 12.8201 35.4602 16.1541 35.75 20.375" stroke="black" stroke-width="1.5" stroke-linecap="round"/>
<path d="M28.125 14.125C27.6432 15.2678 27.5084 17.8689 27.5004 26.9667C27.4999 27.5702 27.5683 28.1719 27.7036 28.76L30.375 40.375" stroke="black" stroke-width="1.5" stroke-linecap="round"/>
<path d="M20.8659 40.375L20 38.1819" stroke="black" stroke-width="1.5" stroke-linecap="round"/>
<path d="M19.1328 40.375L19.9987 38.1819" stroke="black" stroke-width="1.5" stroke-linecap="round"/>
</svg>
