<svg width="65" height="64" viewBox="0 0 65 64" fill="none" xmlns="http://www.w3.org/2000/svg">
<path opacity="0.2" d="M64.3687 27.3002C60.2048 45.3684 49.4413 25.6724 32.7303 22.7556C16.0193 19.8387 -0.821639 25.9585 0.833728 16.4747C2.48909 6.99091 19.7746 -1.77145 36.4856 1.14541C53.1967 4.06226 67.2773 10.6368 64.3687 27.3002Z" fill="#81C7B5"/>
<path d="M63.624 23.0623C65.1071 27.319 61.8443 30.9265 60.0615 30.9985C59.2316 31.032 58.3632 30.4809 57.6656 29.8483C57.1645 29.3939 56.7516 28.8975 56.5043 28.5457C40.4473 11.0143 12.7961 16.979 3.20301 19.1183C2.23915 19.3332 1.92508 18.494 2.7746 17.9905C31.0083 1.2553 61.2417 16.2246 63.624 23.0623Z" stroke="black" stroke-width="1.5" stroke-linecap="round"/>
<path d="M20.5 33.4999C33 27 49.0684 28.7071 57 37" stroke="black" stroke-width="1.5" stroke-linecap="round"/>
<path d="M58 43C56.1809 46.3333 50.0802 53 40.2305 53C27.9185 53 28.5 49 24.8957 47.9285C22.3742 47.1788 20.6957 46.9999 19 47.9285" stroke="black" stroke-width="1.5" stroke-linecap="round"/>
<path d="M20.8492 44.4796C19.4523 43.6842 15.9268 42.3486 13 43.3692" stroke="black" stroke-width="1.5" stroke-linecap="round"/>
<path d="M17 40C15.7549 39.1451 12.2117 37.5703 8 38.1102" stroke="black" stroke-width="1.5" stroke-linecap="round"/>
</svg>
