<svg width="57" height="56" viewBox="0 0 57 56" fill="none" xmlns="http://www.w3.org/2000/svg">
<path opacity="0.2" d="M55.7761 21.9947C52.4245 36.133 42.7298 20.4834 28.1077 17.9311C13.4855 15.3789 -1.10966 19.9281 0.187089 12.4988C1.48384 5.06955 16.4258 -1.55001 31.048 1.00225C45.6701 3.5545 58.0546 8.94112 55.7761 21.9947Z" fill="#81C7B5"/>
<path d="M54.796 20.1795C56.0937 23.9042 53.2388 27.0607 51.6789 27.1237C50.9526 27.1531 50.1928 26.6708 49.5824 26.1173C49.144 25.7197 48.7826 25.2854 48.5663 24.9775C34.7364 9.87784 11.077 14.6982 2.33356 16.6382C1.36947 16.8521 1.05685 16.0281 1.91053 15.5317C26.512 1.22468 52.7216 14.2254 54.796 20.1795Z" stroke="black" stroke-width="1.5" stroke-linecap="round"/>
<path d="M17.0625 29.3125C28 23.625 42.0599 25.1187 49 32.375" stroke="black" stroke-width="1.5" stroke-linecap="round"/>
<path d="M49.875 37.625C48.2833 40.5417 42.9452 46.375 34.3267 46.375C23.5537 46.375 24.0625 42.875 20.9087 41.9374C18.7025 41.2815 17.2338 41.1249 15.75 41.9374" stroke="black" stroke-width="1.5" stroke-linecap="round"/>
<path d="M17.3681 38.9196C16.1458 38.2237 13.061 37.055 10.5 37.948" stroke="black" stroke-width="1.5" stroke-linecap="round"/>
<path d="M14 35C12.9105 34.252 9.81027 32.874 6.125 33.3464" stroke="black" stroke-width="1.5" stroke-linecap="round"/>
</svg>
