<svg width="64" height="64" viewBox="0 0 64 64" fill="none" xmlns="http://www.w3.org/2000/svg">
<ellipse opacity="0.2" cx="28" cy="32" rx="24" ry="18" fill="#81C7B5"/>
<path d="M36.5 61.5C36.5 61.5 31.5578 52.5698 27.636 44.9456C22.2777 42.5498 19.6708 38.3996 19.6719 34.4294C19.6725 32.0781 20.941 28.7497 22.1928 26.0321" stroke="black" stroke-width="1.5" stroke-linecap="round"/>
<path d="M32 53.5V61.5" stroke="black" stroke-width="1.5" stroke-linecap="round"/>
<path d="M12.4961 61.5C11.9573 55.8346 11.9866 46.9334 11.494 43C3.30996 31.4892 11.0655 24.1422 15.6118 14.8422C16.5694 12.8834 17.9474 7.34567 18.4463 3" stroke="black" stroke-width="1.5" stroke-linecap="round"/>
<path d="M58.5039 61.5C55.4061 47.9582 47.2979 27.0016 46.623 25.267C46.5902 25.1827 46.5865 25.1027 46.601 25.0135C47.7459 17.9692 45.2999 14.7806 48.4769 5.90356" stroke="black" stroke-width="1.5" stroke-linecap="round"/>
</svg>
