<svg width="56" height="56" viewBox="0 0 56 56" fill="none" xmlns="http://www.w3.org/2000/svg">
<ellipse opacity="0.2" cx="24.5" cy="28" rx="21" ry="15.75" fill="#81C7B5"/>
<path d="M31.9434 53.8125C31.9434 53.8125 27.619 45.9985 24.1873 39.3274C19.4988 37.2311 17.2178 33.5997 17.2188 30.1257C17.2193 28.0683 18.3292 25.156 19.4246 22.7781" stroke="black" stroke-width="1.5" stroke-linecap="round"/>
<path d="M28 46.8125V53.8125" stroke="black" stroke-width="1.5" stroke-linecap="round"/>
<path d="M10.938 53.8125C10.4666 48.8553 10.4922 41.0667 10.0612 37.625C2.90012 27.5531 9.6862 21.1245 13.6642 12.987C14.5021 11.273 15.7079 6.42746 16.1444 2.625" stroke="black" stroke-width="1.5" stroke-linecap="round"/>
<path d="M51.1851 53.8125C48.4831 42.0011 41.4249 23.743 40.7951 22.1236C40.7623 22.0393 40.7584 21.9589 40.7728 21.8696C41.7678 15.7179 39.6341 12.9258 42.4115 5.16565" stroke="black" stroke-width="1.5" stroke-linecap="round"/>
</svg>
