<svg width="40" height="40" viewBox="0 0 40 40" fill="none" xmlns="http://www.w3.org/2000/svg">
<path d="M0.75 33.75C1.29296 26.1141 2.92311 20.5691 4.00157 17.6154V17.6154C4.58094 16.0286 5.91314 14.8868 7.50885 14.3324C9.82305 13.5284 13.0111 12.3523 13.7304 11.7414C15.4675 10.2663 15.0729 9.37671 15.1124 7.72377V5" stroke="black" stroke-width="1.5" stroke-linecap="round"/>
<path d="M13.75 2.64026C13.75 2.64026 16.4199 7.35974 20.0657 7.35974C23.7115 7.35974 26.25 2.64026 26.25 2.64026" stroke="black" stroke-width="1.5" stroke-linecap="round"/>
<path d="M8.75 25C9.40191 26.3742 10.3321 29.2562 10.625 38.125" stroke="black" stroke-width="1.5" stroke-linecap="round"/>
<path d="M39.25 33.75C38.7451 26.6486 37.2998 21.3557 36.2325 18.2736C35.5326 16.2527 33.8441 14.8126 31.8276 14.0999C29.607 13.3152 26.9222 12.2957 26.2696 11.7414C24.5325 10.2663 24.9271 9.37671 24.8876 7.72377V5" stroke="black" stroke-width="1.5" stroke-linecap="round"/>
<path d="M31.25 25C30.6065 26.3433 29.6953 29.1233 29.375 37.5" stroke="black" stroke-width="1.5" stroke-linecap="round"/>
</svg>
