<svg width="56" height="56" viewBox="0 0 56 56" fill="none" xmlns="http://www.w3.org/2000/svg">
<circle opacity="0.2" cx="28" cy="29.75" r="20.125" fill="#81C7B5"/>
<path d="M0.875 47.25C1.63514 36.5597 3.91735 28.7968 5.4272 24.6615C5.46867 24.548 5.50955 24.4371 5.54981 24.329C6.29624 22.3248 7.98016 20.88 10.0017 20.1817C13.2604 19.056 18.0052 17.3232 19.0476 16.438C21.4796 14.3728 20.927 13.1274 20.9823 10.8133V7" stroke="black" stroke-width="1.5" stroke-linecap="round"/>
<path d="M19.25 3.5C19.25 3.5 22.8958 11.375 28 11.375C33.1042 11.375 36.75 3.5 36.75 3.5" stroke="black" stroke-width="1.5" stroke-linecap="round"/>
<path d="M12.25 35C13.1627 36.9239 14.4649 40.9587 14.875 53.375" stroke="black" stroke-width="1.5" stroke-linecap="round"/>
<path d="M55.125 47.25C54.3437 36.2619 51.9543 28.3665 50.4484 24.3243C49.7018 22.3202 48.0198 20.88 45.9983 20.1817C42.7396 19.056 37.9948 17.3232 36.9524 16.438C34.5204 14.3728 35.073 13.1274 35.0177 10.8133V7" stroke="black" stroke-width="1.5" stroke-linecap="round"/>
<path d="M43.75 35C42.8491 36.8806 41.5735 40.7726 41.125 52.5" stroke="black" stroke-width="1.5" stroke-linecap="round"/>
</svg>
