<svg width="64" height="64" viewBox="0 0 64 64" fill="none" xmlns="http://www.w3.org/2000/svg">
<ellipse opacity="0.2" cx="7.87554" cy="12.5286" rx="7.87554" ry="12.5286" transform="matrix(-0.511382 -0.859353 -0.859353 0.511382 36.7969 40.2299)" fill="#81C7B5"/>
<path d="M13.8625 8.07812C11.7724 10.2557 7.29461 14.8696 6.10467 15.9043C4.61725 17.1977 6.04017 19.9141 8.56262 20.6903C11.0851 21.4664 11.1602 24.4109 9.91775 25.9939C7.19376 29.4644 9.27097 30.4567 12.0521 32.5264" stroke="black" stroke-width="1.5" stroke-linecap="round"/>
<path d="M25.1641 47C28.7002 46.612 39.5004 48.4641 43.2262 58.9161" stroke="black" stroke-width="1.5" stroke-linecap="round"/>
<path d="M56.6641 25.5C56.3594 26.6043 55.9069 27.9871 55.3899 29.4633C52.9384 36.4641 46.8848 41.508 39.6808 43.2754C33.3663 44.8245 25.5429 46.7826 19.1641 48.5C12.1641 50 10.6641 48.5 11.1641 41.5C11.1641 39 11.6641 39.5 9.66406 38C7.66406 36.5 7.16406 35 10.6641 31.5" stroke="black" stroke-width="1.5" stroke-linecap="round"/>
</svg>
