<svg width="40" height="40" viewBox="0 0 40 40" fill="none" xmlns="http://www.w3.org/2000/svg">
<path d="M8.71949 3.33472C7.34915 4.76241 4.41343 7.78738 3.63328 8.46575C2.65809 9.31371 3.59099 11.0947 5.24477 11.6036C6.89854 12.1124 6.94779 14.0429 6.13322 15.0807C4.34731 17.3561 5.70918 18.0066 7.53257 19.3636M16.1291 28.8529C18.4475 28.5985 25.5283 29.8128 27.971 36.6654M36.7812 14.7569C36.5815 15.4809 36.2848 16.3875 35.9459 17.3554C34.3386 21.9453 30.3697 25.2521 25.6466 26.4109C21.5066 27.4265 16.3774 28.7103 12.1953 29.8363C7.60596 30.8197 6.62253 29.8363 6.95034 25.2469C6.95034 23.6078 7.27815 23.9357 5.9669 22.9522C4.65565 21.9688 4.32784 20.9853 6.62253 18.6907" stroke="black" stroke-width="1.5" stroke-linecap="round"/>
</svg>
