<svg width="40" height="40" viewBox="0 0 40 40" fill="none" xmlns="http://www.w3.org/2000/svg">
<path d="M6.88281 15.4883C7.06641 11.0468 9.98862 2.164 20.2087 2.164C32.9838 2.164 33.2758 14.5392 33.2758 16.4738C33.2758 18.4083 32.3633 21.9489 30.9398 24.0295C29.8009 25.6939 25.3064 32.0476 23.2015 35.0163C22.4715 36.0748 20.2158 38.1481 17.0329 37.9729C13.0543 37.7539 8.49162 35.0163 8.34562 29.2491" stroke="black" stroke-width="1.5" stroke-linecap="round"/>
<path d="M28.5329 15.5613C28.423 12.6534 26.5683 6.83752 20.0284 6.83752C13.4886 6.83752 11.4877 12.6534 11.3047 15.5613V15.5613C11.3047 15.9154 11.6074 16.1927 11.9609 16.2136C13.0704 16.279 14.5165 16.7255 14.5165 18.1893C14.5165 20.4159 12.765 20.8539 11.3047 20.7809" stroke="black" stroke-width="1.5" stroke-linecap="round"/>
</svg>
