<svg width="56" height="56" viewBox="0 0 56 56" fill="none" xmlns="http://www.w3.org/2000/svg">
<circle opacity="0.2" cx="28" cy="29.75" r="24.5" fill="#81C7B5"/>
<path d="M10.2812 11.375C10.2812 11.375 10.2812 11.8125 10.2812 21C10.2812 27.8063 14.5102 33.6726 17.9074 37.287C20.4371 39.9785 24.0876 41.125 27.7812 41.125V41.125" stroke="black" stroke-width="1.5" stroke-linecap="round"/>
<path d="M6.78125 15.3604C6.78125 15.3604 6.78125 17.113 6.78125 20.1572C6.78125 22.2648 8.47976 24.1645 9.52498 25.134C10.0251 25.5979 10.6929 25.8122 11.375 25.8125V25.8125" stroke="black" stroke-width="1.5" stroke-linecap="round"/>
<path d="M15.5312 34.5625V52.0625" stroke="black" stroke-width="1.5" stroke-linecap="round"/>
<path d="M45.7188 11.375C45.7188 11.375 45.7187 12.25 45.7188 21C45.7188 27.8063 41.4898 33.6726 38.0926 37.287C35.5629 39.9785 31.9124 41.125 28.2188 41.125V41.125H27.3438" stroke="black" stroke-width="1.5" stroke-linecap="round"/>
<path d="M49.2188 15.3604C49.2188 15.3604 49.2188 17.113 49.2188 20.1572C49.2188 22.2648 47.5202 24.1645 46.475 25.134C45.9749 25.5979 45.3071 25.8122 44.625 25.8125V25.8125" stroke="black" stroke-width="1.5" stroke-linecap="round"/>
<path d="M40.4688 34.5625V52.0625" stroke="black" stroke-width="1.5" stroke-linecap="round"/>
<path d="M24.5 31.5V31.5C25.5198 32.0737 26.6702 32.375 27.8403 32.375H28.1597C29.3298 32.375 30.4802 32.0737 31.5 31.5V31.5" stroke="black" stroke-width="1.5" stroke-linecap="round"/>
<path d="M22.75 28.4375L24.5964 27.3824C25.3304 26.963 26.2461 27.0344 26.9062 27.5625V27.5625C27.5664 28.0906 28.4821 28.162 29.2161 27.7426L29.5312 27.5625C30.4555 27.0344 31.6085 27.1243 32.4397 27.7892L33.25 28.4375" stroke="black" stroke-width="1.5" stroke-linecap="round"/>
</svg>
