<svg width="56" height="56" viewBox="0 0 56 56" fill="none" xmlns="http://www.w3.org/2000/svg">
<ellipse opacity="0.2" cx="29.75" cy="39.8125" rx="26.25" ry="16.1875" fill="#81C7B5"/>
<path d="M4.375 5.25C7.01818 15.0222 10.2245 27.8033 9.92965 30.4119C9.46676 34.5076 5.76366 37.2381 7.61521 41.3339C9.46676 45.4297 12.707 44.9746 15.9472 44.9746C19.1874 44.9746 24.2792 43.1542 26.5936 43.1542C30.1875 43.1542 43.7204 47.25 46.4978 47.25C49.2751 47.25 52.9782 43.6093 51.1266 41.789C49.2751 40.4237 48.3493 41.789 45.1091 40.8788C41.8689 39.9686 25.2049 29.0466 24.2792 27.2263C23.7025 26.0924 22.9014 14.5857 22.3564 5.25" stroke="black" stroke-width="1.5" stroke-linecap="round"/>
</svg>
