<svg width="40" height="40" viewBox="0 0 40 40" fill="none" xmlns="http://www.w3.org/2000/svg">
<path d="M23.9421 13.6326C23.3744 19.4066 13.4849 19.9727 8.2446 22.7572C5.44407 24.2453 5.02369 28.6676 5.22679 32.5465C5.28392 33.6375 3.96858 34.054 3.62246 33.0177C2.82426 30.628 2.22413 27.3529 2.63087 23.1796C5.59371 -7.22098 44.3997 -0.0372314 36.4215 31.4708C36.1418 32.5755 34.5814 32.3044 34.5749 31.1649C34.5654 29.4965 34.522 27.6017 34.4227 25.5663C34.2388 21.7973 33.1247 18.7364 29.7626 18.0663" stroke="black" stroke-width="1.5" stroke-linecap="round"/>
<path d="M10 34.4643C10.6076 34.1667 12.0056 33.75 12.8646 33.75C14.6875 33.75 15.4687 34.6429 16.25 35" stroke="black" stroke-width="1.5" stroke-linecap="round"/>
<path d="M30 34.4643C29.3924 34.1667 27.9944 33.75 27.1354 33.75C25.3125 33.75 24.5313 34.6429 23.75 35" stroke="black" stroke-width="1.5" stroke-linecap="round"/>
</svg>
