<svg width="40" height="40" viewBox="0 0 40 40" fill="none" xmlns="http://www.w3.org/2000/svg">
<path d="M3.56864 27.6853C4.63991 26.6141 6.44296 24.3 7.26955 21.718C7.90939 19.7193 7.95855 17.5782 8.74113 15.631C9.79855 12.9999 11.1677 9.53735 10.5664 7.34136C10.5051 4.92292 13.9281 6.46035 14.1676 9.52832C14.2908 10.4335 14.4473 12.8642 14.2686 14.084C14.2171 14.4356 14.2867 14.8309 14.5357 15.0845C15.9688 16.5439 16.9505 17.8262 16.3615 20.6791" stroke="black" stroke-width="1.5" stroke-linecap="round"/>
<path d="M15.1013 14.8547L25.9458 4.01022C27.8268 2.39481 30.3902 4.95826 28.7748 6.83922M28.7748 6.83922L21.7023 13.9117M28.7748 6.83922L29.9088 5.6157C31.8099 4.00095 34.381 6.58104 32.7596 8.47649L32.5468 8.72521M32.5468 8.72521L24.5313 16.7407M32.5468 8.72521C34.4272 7.12336 36.9776 9.67377 35.3758 11.5542L32.7113 14.2187M32.7113 14.2187L27.3603 19.5697M32.7113 14.2187C34.5919 12.6133 37.1456 15.1671 35.5403 17.0477L23.8241 28.7639C23.0382 29.7069 20.9008 32.4416 16.7516 33.9504C15.812 34.2921 13.4868 35.0373 12.8125 35.625" stroke="black" stroke-width="1.5" stroke-linecap="round"/>
</svg>
