<svg width="40" height="40" viewBox="0 0 40 40" fill="none" xmlns="http://www.w3.org/2000/svg">
<path d="M31.2961 3.33472C32.6665 4.76241 35.6022 7.78738 36.3823 8.46575C37.3575 9.31371 36.4246 11.0947 34.7709 11.6036C33.1171 12.1124 33.0678 14.0429 33.8824 15.0807C35.6683 17.3561 34.3064 18.0066 32.4831 19.3636M23.8865 28.8529C21.5682 28.5985 14.4873 29.8128 12.0446 36.6654M3.23438 14.7569C3.4341 15.4809 3.73081 16.3875 4.06974 17.3554C5.67703 21.9453 9.64591 25.2521 14.369 26.4109C18.509 27.4265 23.6382 28.7103 27.8203 29.8363C32.4097 30.8197 33.3931 29.8363 33.0653 25.2469C33.0653 23.6078 32.7375 23.9357 34.0487 22.9522C35.36 21.9688 35.6878 20.9853 33.3931 18.6907" stroke="black" stroke-width="1.5" stroke-linecap="round"/>
</svg>
