<svg width="56" height="56" viewBox="0 0 56 56" fill="none" xmlns="http://www.w3.org/2000/svg">
<ellipse opacity="0.2" cx="25.3537" cy="31.4524" rx="20.3672" ry="12.1062" transform="rotate(13.4988 25.3537 31.4524)" fill="#81C7B5"/>
<path d="M25.9965 52.8066C25.9965 52.8066 24.9842 51.5017 25.0969 49.1826C25.2378 46.2838 26.6471 43.5167 33.4114 43.385C40.1757 43.2532 45.6614 38.135 45.6614 32.885C45.6614 28.4871 33.3254 15.6676 28.5392 9.00583C24.6104 3.53743 23.3472 1.82251 23.3472 1.82251M14.7736 23.6768C12.4989 27.6429 10.1616 36.3717 18.8278 35.5752C29.2832 34.6143 33.6605 31.9034 34.9719 33.7393C36.2832 35.5752 32.6047 38.0484 30.7603 36.1997" stroke="black" stroke-width="1.5" stroke-linecap="round"/>
</svg>
