<svg width="64" height="64" viewBox="0 0 64 64" fill="none" xmlns="http://www.w3.org/2000/svg">
<circle opacity="0.2" cx="42.2846" cy="28.5715" r="21.7143" fill="#81C7B5"/>
<path d="M11.0156 24.7812C11.3094 17.6749 15.9849 3.4624 32.3371 3.4624C52.7772 3.4624 53.2444 23.2628 53.2444 26.3581C53.2444 29.4533 51.7844 35.1183 49.5067 38.4472C47.6846 41.1103 40.4934 51.2761 37.1256 56.0261C35.9576 57.7197 32.3483 61.037 27.2557 60.7566C20.8899 60.4062 13.5897 56.0261 13.3561 46.7986" stroke="black" stroke-width="1.5" stroke-linecap="round"/>
<path d="M45.6511 24.8981C45.4753 20.2454 42.5077 10.9401 32.0439 10.9401C21.5802 10.9401 18.3787 20.2454 18.0859 24.8981V24.8981C18.0859 25.4646 18.5702 25.9084 19.1358 25.9417C20.9111 26.0464 23.2249 26.7609 23.2249 29.103C23.2249 32.6655 20.4224 33.3663 18.0859 33.2495" stroke="black" stroke-width="1.5" stroke-linecap="round"/>
</svg>
