<svg width="64" height="64" viewBox="0 0 64 64" fill="none" xmlns="http://www.w3.org/2000/svg">
<ellipse opacity="0.2" cx="32" cy="44.4245" rx="16.7734" ry="9.73763" fill="#81C7B5"/>
<path d="M31.9994 54.1622C10.0648 54.1622 6.08518 26.9327 6.83309 12.4507C6.86022 11.9255 7.29663 11.5265 7.82256 11.5265H8.71141C9.24757 11.5265 9.68852 11.9668 9.7161 12.5022C11.0296 38.0053 21.3344 38.7329 27.2556 36.7693C29.541 36.0114 29.1295 34.2353 31.9602 34.2353C34.791 34.2353 34.3789 36.0114 36.6644 36.7694C42.5855 38.733 52.8904 38.0053 54.2038 12.5023C54.2314 11.9669 54.6723 11.5266 55.2085 11.5265L56.1774 11.5265C56.7034 11.5265 57.1398 11.9255 57.1669 12.4507C57.9148 26.9328 53.9352 54.1622 32.0006 54.1622" stroke="black" stroke-width="1.5"/>
<path d="M28 27.2213V27.2213C29.1655 27.8769 30.4802 28.2213 31.8175 28.2213H32.1825C33.5198 28.2213 34.8345 27.8769 36 27.2213V27.2213" stroke="black" stroke-width="1.5" stroke-linecap="round"/>
<path d="M26 23.7213L28.1101 22.5155C28.949 22.0362 29.9955 22.1178 30.75 22.7213V22.7213C31.5045 23.3249 32.551 23.4065 33.3899 22.9271L33.75 22.7213C34.8062 22.1178 36.1239 22.2205 37.0739 22.9804L38 23.7213" stroke="black" stroke-width="1.5" stroke-linecap="round"/>
</svg>
