<svg width="40" height="40" viewBox="0 0 40 40" fill="none" xmlns="http://www.w3.org/2000/svg">
<path d="M14.5533 2.65381C14.5154 4.25165 14.8946 5.11155 13.2251 6.53756C12.5349 7.12713 9.47937 8.2614 7.25611 9.03855C5.716 9.57691 4.43169 10.6821 3.875 12.2157V12.2157C2.83852 15.071 1.27182 20.4311 0.75 27.8125" stroke="black" stroke-width="1.5" stroke-linecap="round"/>
<path d="M9.25 19.4479C9.875 21.0104 10.8203 24.6318 10.8203 37.6561" stroke="black" stroke-width="1.5" stroke-linecap="round"/>
<path d="M25.4467 2.65381C25.4846 4.25165 25.1054 5.11155 26.7749 6.53756C27.3901 7.06307 29.8845 8.02133 31.9938 8.77373C34.0098 9.49287 35.6976 10.9393 36.3887 12.9651C37.4104 15.96 38.7708 21.0339 39.25 27.8125" stroke="black" stroke-width="1.5" stroke-linecap="round"/>
<path d="M30.75 19.4479C30.125 21.0104 29.1797 24.6318 29.1797 37.6561" stroke="black" stroke-width="1.5" stroke-linecap="round"/>
<path d="M20 35.625V34.375" stroke="black" stroke-width="1.5" stroke-linecap="round"/>
</svg>
