<svg width="40" height="41" viewBox="0 0 40 41" fill="none" xmlns="http://www.w3.org/2000/svg">
<path d="M22.8145 30.786C22.8145 30.786 19.7256 25.2046 17.2744 20.4395C13.9255 18.9421 12.2962 16.3482 12.2969 13.8668C12.2973 12.3973 13.0901 10.317 13.8725 8.61853" stroke="black" stroke-width="1.5" stroke-linecap="round"/>
<path d="M21.0571 27.6458L20.1016 38.7448" stroke="black" stroke-width="1.5" stroke-linecap="round"/>
<path d="M9.75346 1.625C6.91201 7.4375 2.06482 12.0294 7.17986 19.2236C7.48775 21.682 7.46944 27.2452 7.80615 30.7861V38.9659" stroke="black" stroke-width="1.5" stroke-linecap="round"/>
<path d="M35.6883 38.7811C38.2093 38.107 37.9527 36.2839 37.9524 33.5984C37.9521 30.7344 34.2905 19.6362 31.6794 12.4134C30.6092 9.45293 30.009 6.33963 30.009 3.1917V3.1917M22.3172 29.8483L24.1584 33.2068C24.2806 33.4298 24.2159 33.7079 24.0196 33.8697C23.0293 34.6853 21.5364 36.3397 20.1844 38.7811" stroke="black" stroke-width="1.5" stroke-linecap="round"/>
</svg>
