<svg width="56" height="56" viewBox="0 0 56 56" fill="none" xmlns="http://www.w3.org/2000/svg">
<ellipse opacity="0.2" cx="27.9966" cy="33.388" rx="24.9888" ry="12.25" fill="#81C7B5"/>
<path d="M31.9355 41.7004C31.9355 41.7004 27.6111 33.8865 24.1795 27.2153C19.491 25.119 17.21 21.4876 17.2109 18.0136C17.2115 15.9563 18.3214 13.0439 19.4168 10.666" stroke="black" stroke-width="1.5" stroke-linecap="round"/>
<path d="M29.4861 37.3042L28.1484 52.8428" stroke="black" stroke-width="1.5" stroke-linecap="round"/>
<path d="M15.6118 1C11.0655 10.3 3.30996 17.647 11.494 29.1578C12.4911 37.1189 12.1116 45.0403 13.0071 53.0344" stroke="black" stroke-width="1.5" stroke-linecap="round"/>
<path d="M47.3213 52.8938C50.8506 51.95 51.7392 49.3974 51.7388 45.6377C51.7384 41.5311 46.3609 25.3314 42.6938 15.2539C41.3609 11.5912 40.6181 7.73703 40.6181 3.83927L40.6181 3.06842M31.2495 40.3876L33.9131 45.2461C34.0353 45.4691 33.971 45.7471 33.771 45.9043C32.3751 47.0021 30.1278 49.3584 28.1701 52.8936" stroke="black" stroke-width="1.5" stroke-linecap="round"/>
</svg>
