<svg width="64" height="64" viewBox="0 0 64 64" fill="none" xmlns="http://www.w3.org/2000/svg">
<ellipse opacity="0.2" cx="31.9961" cy="38.1577" rx="28.5586" ry="14" fill="#81C7B5"/>
<path d="M36.5 47.6576C36.5 47.6576 31.5578 38.7274 27.636 31.1032C22.2777 28.7074 19.6708 24.5572 19.6719 20.587C19.6725 18.2357 20.941 14.9073 22.1928 12.1897" stroke="black" stroke-width="1.5" stroke-linecap="round"/>
<path d="M33.6929 42.6333L32.1641 60.3916" stroke="black" stroke-width="1.5" stroke-linecap="round"/>
<path d="M15.6118 1C11.0655 10.3 3.30996 17.647 11.494 29.1578C12.6464 38.359 12.5324 51.2076 12.5324 60.4794" stroke="black" stroke-width="1.5" stroke-linecap="round"/>
<path d="M54.0793 60.45C58.1128 59.3714 59.1283 56.4541 59.1278 52.1574C59.1273 47.3554 52.6938 28.0856 48.5028 16.6447C47.1622 12.9848 46.4185 9.12817 46.4185 5.23041L46.4185 3.50671M35.7115 46.1572L38.7862 51.7657C38.9085 51.9887 38.8443 52.2666 38.6435 52.4227C37.0522 53.6598 34.4532 56.3669 32.1922 60.4498" stroke="black" stroke-width="1.5" stroke-linecap="round"/>
</svg>
