<svg width="40" height="40" viewBox="0 0 40 40" fill="none" xmlns="http://www.w3.org/2000/svg">
<path d="M19.9972 22.5278C23.7659 22.5278 25.6502 20.2197 28.6652 19.4856C31.6801 18.7516 35.9958 20.3917 39.2175 20.3917C39.8653 20.3917 32.6058 9.65 26.1244 10.3773C24.082 10.6065 21.8816 12.6012 20.3741 12.6012H19.9972" stroke="black" stroke-width="1.5" stroke-linecap="round"/>
<path d="M20.0005 22.5278C16.2318 22.5278 14.3475 20.2197 11.3325 19.4856C8.31761 18.7516 4.00187 20.3917 0.780268 20.3917C0.1523 20.3917 7.39189 9.65 13.8734 10.3773C15.9157 10.6065 18.1161 12.6012 19.6236 12.6012H20.0005" stroke="black" stroke-width="1.5" stroke-linecap="round"/>
<path d="M4.15625 23.9949V23.9949C12.3326 34.0295 27.6603 34.0295 35.8367 23.9949V23.9949" stroke="black" stroke-width="1.5" stroke-linecap="round"/>
</svg>
