<svg width="64" height="64" viewBox="0 0 64 64" fill="none" xmlns="http://www.w3.org/2000/svg">
<circle opacity="0.2" cx="32" cy="32" r="26" fill="#81C7B5"/>
<path d="M6.86356 50V48.464L19.5356 35.168C21.2316 33.408 22.5116 31.68 23.3756 29.984C24.2716 28.288 24.7196 26.512 24.7196 24.656C24.7196 22.384 24.0316 20.672 22.6556 19.52C21.2796 18.336 19.2796 17.744 16.6556 17.744C14.6716 17.744 12.8636 18.096 11.2316 18.8C9.63156 19.504 8.12756 20.576 6.71956 22.016L5.75956 20.288C6.97556 18.944 8.54356 17.856 10.4636 17.024C12.4156 16.192 14.4796 15.776 16.6556 15.776C19.8876 15.776 22.3836 16.544 24.1436 18.08C25.9356 19.616 26.8316 21.792 26.8316 24.608C26.8316 26.752 26.2876 28.816 25.1996 30.8C24.1116 32.784 22.6076 34.768 20.6876 36.752L8.97556 48.8V48.128H28.3196V50H6.86356ZM32.2848 50L45.4368 32.384V32.864L33.0048 16.16H35.4528L46.7808 31.424H46.2048L57.3408 16.16H59.7888L47.4048 32.864V32.384L60.5088 50H58.0608L45.9168 33.584H46.9248L34.7328 50H32.2848Z" fill="black"/>
</svg>
