<svg width="64" height="64" viewBox="0 0 64 64" fill="none" xmlns="http://www.w3.org/2000/svg">
<circle opacity="0.2" cx="32" cy="32" r="26" fill="#81C7B5"/>
<path d="M16.8956 50.384C14.6556 50.384 12.5276 50.032 10.5116 49.328C8.49556 48.592 6.75156 47.536 5.27956 46.16L6.28756 44.432C7.95156 45.84 9.63156 46.864 11.3276 47.504C13.0236 48.112 14.8796 48.416 16.8956 48.416C19.7436 48.416 21.9196 47.776 23.4236 46.496C24.9276 45.216 25.6796 43.376 25.6796 40.976C25.6796 38.608 24.8956 36.816 23.3276 35.6C21.7596 34.352 19.4556 33.728 16.4156 33.728H11.6636V31.856H16.3196C18.8796 31.856 20.9276 31.168 22.4636 29.792C23.9996 28.416 24.7676 26.56 24.7676 24.224C24.7676 22.144 24.0636 20.544 22.6556 19.424C21.2796 18.304 19.3276 17.744 16.7996 17.744C12.9276 17.744 9.61556 19.168 6.86356 22.016L5.90356 20.288C7.15156 18.88 8.73556 17.776 10.6556 16.976C12.6076 16.176 14.6556 15.776 16.7996 15.776C19.9356 15.776 22.3996 16.528 24.1916 18.032C25.9836 19.504 26.8796 21.568 26.8796 24.224C26.8796 26.368 26.2716 28.208 25.0556 29.744C23.8396 31.248 22.1916 32.272 20.1116 32.816V32.336C22.5756 32.752 24.4636 33.728 25.7756 35.264C27.1196 36.768 27.7916 38.672 27.7916 40.976C27.7916 43.888 26.8156 46.192 24.8636 47.888C22.9436 49.552 20.2876 50.384 16.8956 50.384ZM32.2848 50L45.4368 32.384V32.864L33.0048 16.16H35.4528L46.7808 31.424H46.2048L57.3408 16.16H59.7888L47.4048 32.864V32.384L60.5088 50H58.0608L45.9168 33.584H46.9248L34.7328 50H32.2848Z" fill="black"/>
</svg>
