<svg width="40" height="40" viewBox="0 0 40 40" fill="none" xmlns="http://www.w3.org/2000/svg">
<path d="M0.75 3.7547H27M39.2532 3.7547H32" stroke="black" stroke-width="1.5" stroke-linecap="round"/>
<path d="M0.75 36.25H8M39.2532 36.25H13" stroke="black" stroke-width="1.5" stroke-linecap="round"/>
<path d="M8.95508 23.5938V25H1.80664V23.7915L5.27832 20.0049C5.65918 19.5752 5.95947 19.2041 6.1792 18.8916C6.39893 18.5791 6.55273 18.2983 6.64062 18.0493C6.7334 17.7954 6.77979 17.5488 6.77979 17.3096C6.77979 16.9727 6.71631 16.6772 6.58936 16.4233C6.46729 16.1646 6.28662 15.9619 6.04736 15.8154C5.80811 15.6641 5.51758 15.5884 5.17578 15.5884C4.78027 15.5884 4.44824 15.6738 4.17969 15.8447C3.91113 16.0156 3.7085 16.2524 3.57178 16.5552C3.43506 16.853 3.3667 17.1948 3.3667 17.5806H1.60156C1.60156 16.9604 1.74316 16.394 2.02637 15.8813C2.30957 15.3638 2.71973 14.9536 3.25684 14.6509C3.79395 14.3433 4.44092 14.1895 5.19775 14.1895C5.91064 14.1895 6.51611 14.3091 7.01416 14.5483C7.51221 14.7876 7.89062 15.127 8.14941 15.5664C8.41309 16.0059 8.54492 16.5259 8.54492 17.1265C8.54492 17.4585 8.49121 17.7881 8.38379 18.1152C8.27637 18.4424 8.12256 18.7695 7.92236 19.0967C7.72705 19.4189 7.49512 19.7437 7.22656 20.0708C6.95801 20.3931 6.6626 20.7202 6.34033 21.0522L4.0332 23.5938H8.95508Z" fill="black"/>
<path d="M17.2827 18.7744V20.5176C17.2827 21.3525 17.1997 22.0654 17.0337 22.6562C16.8726 23.2422 16.6382 23.7183 16.3306 24.0845C16.0229 24.4507 15.6543 24.7192 15.2246 24.8901C14.7998 25.061 14.3237 25.1465 13.7964 25.1465C13.3765 25.1465 12.9858 25.0928 12.6245 24.9854C12.2681 24.8779 11.9458 24.7095 11.6577 24.48C11.3696 24.2505 11.123 23.9551 10.918 23.5938C10.7178 23.2275 10.5615 22.7905 10.4492 22.2827C10.3418 21.7749 10.2881 21.1865 10.2881 20.5176V18.7744C10.2881 17.9346 10.3711 17.2266 10.5371 16.6504C10.7031 16.0693 10.9399 15.5981 11.2476 15.2368C11.5552 14.8706 11.9214 14.6045 12.3462 14.4385C12.7759 14.2725 13.2544 14.1895 13.7817 14.1895C14.2065 14.1895 14.5972 14.2432 14.9536 14.3506C15.3149 14.4531 15.6372 14.6167 15.9204 14.8413C16.2085 15.0659 16.4526 15.3589 16.6528 15.7202C16.8579 16.0767 17.0142 16.5088 17.1216 17.0166C17.229 17.5195 17.2827 18.1055 17.2827 18.7744ZM15.5176 20.7666V18.5107C15.5176 18.0859 15.4932 17.7124 15.4443 17.3901C15.3955 17.063 15.3223 16.7871 15.2246 16.5625C15.1318 16.333 15.0146 16.1475 14.873 16.0059C14.7314 15.8594 14.5703 15.7544 14.3896 15.6909C14.209 15.6226 14.0063 15.5884 13.7817 15.5884C13.5083 15.5884 13.2642 15.6421 13.0493 15.7495C12.8345 15.8521 12.6538 16.0181 12.5073 16.2476C12.3608 16.4771 12.2485 16.7798 12.1704 17.1558C12.0972 17.5269 12.0605 17.9785 12.0605 18.5107V20.7666C12.0605 21.1963 12.085 21.5747 12.1338 21.9019C12.1826 22.229 12.2559 22.5098 12.3535 22.7441C12.4512 22.9736 12.5684 23.1641 12.7051 23.3154C12.8467 23.4619 13.0078 23.5693 13.1885 23.6377C13.374 23.7061 13.5767 23.7402 13.7964 23.7402C14.0747 23.7402 14.3213 23.6865 14.5361 23.5791C14.751 23.4717 14.9316 23.3008 15.0781 23.0664C15.2246 22.8271 15.3345 22.5171 15.4077 22.1362C15.481 21.7554 15.5176 21.2988 15.5176 20.7666Z" fill="black"/>
<path d="M22.5122 19.7412V21.1475H18.6377V19.7412H22.5122Z" fill="black"/>
<path d="M29.2871 14.27H29.5068V15.7129H29.3823C28.7524 15.7129 28.208 15.8105 27.749 16.0059C27.2949 16.2012 26.9214 16.4697 26.6284 16.8115C26.3354 17.1533 26.1157 17.5537 25.9692 18.0127C25.8276 18.4668 25.7568 18.9502 25.7568 19.4629V21.1401C25.7568 21.5649 25.8032 21.9409 25.896 22.2681C25.9888 22.5903 26.1182 22.8613 26.2842 23.0811C26.4551 23.2959 26.6504 23.4595 26.8701 23.5718C27.0898 23.6841 27.3267 23.7402 27.5806 23.7402C27.8442 23.7402 28.0835 23.6865 28.2983 23.5791C28.5132 23.4668 28.6963 23.313 28.8477 23.1177C28.999 22.9224 29.1138 22.6904 29.1919 22.4219C29.27 22.1533 29.3091 21.8604 29.3091 21.543C29.3091 21.2402 29.27 20.957 29.1919 20.6934C29.1187 20.4248 29.0088 20.1904 28.8623 19.9902C28.7158 19.7852 28.5327 19.6265 28.313 19.5142C28.0981 19.397 27.8491 19.3384 27.5659 19.3384C27.2144 19.3384 26.8945 19.4214 26.6064 19.5874C26.3232 19.7534 26.0938 19.9707 25.918 20.2393C25.7471 20.5029 25.6543 20.7837 25.6396 21.0815L24.9658 20.8618C25.0049 20.4077 25.105 20 25.2661 19.6387C25.4321 19.2773 25.6494 18.9697 25.918 18.7158C26.1865 18.4619 26.4966 18.269 26.8481 18.1372C27.2046 18.0005 27.5952 17.9321 28.02 17.9321C28.5376 17.9321 28.9868 18.0298 29.3677 18.2251C29.7485 18.4204 30.0635 18.6865 30.3125 19.0234C30.5664 19.3555 30.7544 19.7363 30.8765 20.166C31.0034 20.5908 31.0669 21.0352 31.0669 21.499C31.0669 22.0117 30.9888 22.4902 30.8325 22.9346C30.6763 23.374 30.4468 23.7598 30.144 24.0918C29.8462 24.4238 29.4824 24.6826 29.0527 24.8682C28.6279 25.0537 28.1445 25.1465 27.6025 25.1465C27.0312 25.1465 26.521 25.0366 26.0718 24.8169C25.6274 24.5972 25.249 24.2944 24.9365 23.9087C24.6289 23.5229 24.3945 23.0786 24.2334 22.5757C24.0723 22.0728 23.9917 21.5405 23.9917 20.979V20.2466C23.9917 19.436 24.0942 18.6719 24.2993 17.9541C24.5044 17.2314 24.8193 16.5942 25.2441 16.0425C25.6738 15.4907 26.2231 15.0586 26.8921 14.7461C27.561 14.4287 28.3594 14.27 29.2871 14.27Z" fill="black"/>
<path d="M39.8267 21.1987V22.605H32.1362L32.0776 21.543L36.6772 14.3359H38.0908L36.5601 16.958L33.916 21.1987H39.8267ZM38.4937 14.3359V25H36.7285V14.3359H38.4937Z" fill="black"/>
</svg>
