<svg width="40" height="40" viewBox="0 0 40 40" fill="none" xmlns="http://www.w3.org/2000/svg">
<path d="M7.75 3.75366C7.75 3.20138 8.19772 2.75366 8.75 2.75366H31.25C31.8023 2.75366 32.25 3.20138 32.25 3.75366V6.25366C32.25 6.80595 31.8023 7.25366 31.25 7.25366H8.75C8.19771 7.25366 7.75 6.80595 7.75 6.25366V3.75366Z" stroke="black" stroke-width="1.5"/>
<path d="M7.75 33.7537C7.75 33.2014 8.19772 32.7537 8.75 32.7537H31.25C31.8023 32.7537 32.25 33.2014 32.25 33.7537V36.2537C32.25 36.8059 31.8023 37.2537 31.25 37.2537H8.75C8.19771 37.2537 7.75 36.8059 7.75 36.2537V33.7537Z" stroke="black" stroke-width="1.5"/>
<path fill-rule="evenodd" clip-rule="evenodd" d="M11.25 7.69556C11.25 7.28134 10.9142 6.94556 10.5 6.94556C10.0858 6.94556 9.75 7.28134 9.75 7.69556L9.75 7.73588C9.74995 9.52536 9.7499 11.4218 10.6089 13.5296C11.4113 15.4988 12.9333 17.5893 15.7552 20C12.9333 22.4107 11.4113 24.5012 10.6089 26.4704C9.7499 28.5782 9.74995 30.4746 9.75 32.2641L9.75 32.3044C9.75 32.7187 10.0858 33.0544 10.5 33.0544C10.9142 33.0544 11.25 32.7187 11.25 32.3044C11.25 30.489 11.2566 28.8558 11.998 27.0364C12.7376 25.2214 14.2437 23.1475 17.3899 20.5905C17.4088 20.5756 17.4272 20.5598 17.4449 20.5429C17.5175 20.4737 17.5735 20.3929 17.6123 20.3057C17.6999 20.1097 17.6979 19.8866 17.6123 19.6943C17.5735 19.6071 17.5175 19.5263 17.4449 19.4571C17.4272 19.4402 17.4088 19.4244 17.3899 19.4095C14.2437 16.8525 12.7376 14.7786 11.998 12.9636C11.2566 11.1442 11.25 9.51102 11.25 7.69556Z" fill="black"/>
<path fill-rule="evenodd" clip-rule="evenodd" d="M28.75 7.69556C28.75 7.28134 29.0858 6.94556 29.5 6.94556C29.9142 6.94556 30.25 7.28134 30.25 7.69556V7.73588V7.73588C30.25 9.52536 30.2501 11.4218 29.3911 13.5296C28.5887 15.4988 27.0667 17.5893 24.2448 20C27.0667 22.4107 28.5887 24.5012 29.3911 26.4704C30.2501 28.5782 30.25 30.4746 30.25 32.2641V32.3044C30.25 32.7187 29.9142 33.0544 29.5 33.0544C29.0858 33.0544 28.75 32.7187 28.75 32.3044C28.75 30.489 28.7434 28.8558 28.002 27.0364C27.2624 25.2213 25.7563 23.1475 22.6101 20.5905C22.5912 20.5756 22.5728 20.5598 22.5552 20.5429C22.4825 20.4738 22.4265 20.3929 22.3877 20.3057C22.3001 20.1097 22.3021 19.8866 22.3877 19.6943C22.4265 19.6071 22.4825 19.5263 22.5551 19.4572C22.5728 19.4402 22.5912 19.4244 22.6101 19.4095C25.7563 16.8525 27.2624 14.7786 28.002 12.9636C28.7434 11.1442 28.75 9.51102 28.75 7.69556Z" fill="black"/>
</svg>
