<svg width="40" height="40" viewBox="0 0 40 40" fill="none" xmlns="http://www.w3.org/2000/svg">
<path d="M5 4C5 4 5 4.38235 5 12.4118C5 18.3808 8.64998 23.5225 11.567 26.6786C13.7142 29.0018 16.8365 30 20 30V30" stroke="black" stroke-width="1.5" stroke-linecap="round"/>
<path d="M1.84375 7.97168C1.84375 7.97168 1.84375 9.22354 1.84375 11.398C1.84375 12.9034 3.05697 14.2604 3.80356 14.9529C4.16076 15.2842 4.63779 15.4373 5.125 15.4375V15.4375" stroke="black" stroke-width="1.5" stroke-linecap="round"/>
<path d="M10.25 25.5221V37.9375" stroke="black" stroke-width="1.5" stroke-linecap="round"/>
<path d="M35 4C35 4 35 4.76471 35 12.4118C35 18.3641 31.3128 23.4937 28.3537 26.652C26.155 28.9987 22.9777 30 19.7619 30V30H19" stroke="black" stroke-width="1.5" stroke-linecap="round"/>
<path d="M38.1562 7.97168C38.1562 7.97168 38.1562 9.22354 38.1562 11.398C38.1562 12.9034 36.943 14.2604 36.1964 14.9529C35.8392 15.2842 35.3622 15.4373 34.875 15.4375V15.4375" stroke="black" stroke-width="1.5" stroke-linecap="round"/>
<path d="M29.75 25.2205V37.9375" stroke="black" stroke-width="1.5" stroke-linecap="round"/>
<path d="M17.5 22.5V22.5C18.2285 22.9098 19.0502 23.125 19.8859 23.125H20.1141C20.9498 23.125 21.7715 22.9098 22.5 22.5V22.5" stroke="black" stroke-width="1.5" stroke-linecap="round"/>
<path d="M16.25 20.3125L17.5688 19.5589C18.0931 19.2593 18.7472 19.3103 19.2188 19.6875V19.6875C19.6903 20.0647 20.3444 20.1157 20.8687 19.8161L21.0938 19.6875C21.7539 19.3103 22.5775 19.3745 23.1712 19.8494L23.75 20.3125" stroke="black" stroke-width="1.5" stroke-linecap="round"/>
</svg>
