<svg width="56" height="56" viewBox="0 0 56 56" fill="none" xmlns="http://www.w3.org/2000/svg">
<circle opacity="0.2" cx="37" cy="31" r="19" fill="#81C7B5"/>
<path d="M1 32C3.66667 30.3333 9.7 27.5 14.5 27.5C20.5 27.5 24.5 31.5 26.5 32.5C28.1 33.3 37.3333 32.5 40.5 32.5M19 55C19.6667 52.5 22.5 47.2 28.5 46C34 45 40.5 46 45 45C49.5 44 53.7499 42.588 54.7499 41.088C55.5499 39.888 55.0833 37.2547 54.7499 36.088C53.5833 32.588 49.9 24.1 43.5 16.5C37.1 8.9 35.1667 5.33333 35 4.5" stroke="black" stroke-width="1.5" stroke-linecap="round"/>
<path d="M26.5 10.5C27.3333 11 29.7 12.1 32.5 12.5C34 15.5 36 24.5 38.5 29C41 33.5 41 33.5 43.5 36" stroke="black" stroke-width="1.5" stroke-linecap="round"/>
<path d="M34 45.5C31 45.3333 23.7 45.8 18.5 49" stroke="black" stroke-width="1.5" stroke-linecap="round"/>
</svg>
