<svg width="42" height="41" viewBox="0 0 42 41" fill="none" xmlns="http://www.w3.org/2000/svg">
<path d="M1.71094 22.8572C3.6157 21.6667 7.92522 19.6429 11.3538 19.6429C15.6395 19.6429 18.4967 22.5 19.9252 23.2143C21.0681 23.7857 27.6633 23.2143 29.9252 23.2143M14.5681 39.2857C15.0443 37.5 17.0681 33.7143 21.3538 32.8572C25.2824 32.1429 29.9252 32.8572 33.1395 32.1429C36.3538 31.4286 39.3895 30.42 40.1037 29.3486C40.6752 28.4914 40.3418 26.6105 40.1037 25.7771C39.2704 23.2771 36.6395 17.2143 32.0681 11.7857C27.4967 6.35715 26.1157 3.80953 25.9967 3.21429" stroke="black" stroke-width="1.5" stroke-linecap="round"/>
<path d="M19.9297 7.5C20.5249 7.85714 22.2154 8.64286 24.2154 8.92857C25.2868 11.0714 26.7154 17.5 28.5011 20.7143C30.2868 23.9286 30.2868 23.9286 32.0725 25.7143" stroke="black" stroke-width="1.5" stroke-linecap="round"/>
<path d="M25.2824 32.5C23.1395 32.3809 17.9252 32.7143 14.2109 35" stroke="black" stroke-width="1.5" stroke-linecap="round"/>
</svg>
