<svg width="64" height="64" viewBox="0 0 64 64" fill="none" xmlns="http://www.w3.org/2000/svg">
<circle opacity="0.2" cx="42.2846" cy="35.4285" r="21.7143" fill="#81C7B5"/>
<path d="M1.14062 36.5714C4.18824 34.6666 11.0835 31.4285 16.5692 31.4285C23.4263 31.4285 27.9978 36 30.2835 37.1428C32.1121 38.0571 42.6644 37.1428 46.2835 37.1428M21.7121 62.8571C22.474 60 25.7121 53.9428 32.5692 52.5714C38.8549 51.4285 46.2835 52.5714 51.4263 51.4285C56.5692 50.2857 61.4263 48.6719 62.5691 46.9577C63.4834 45.5862 62.9501 42.5767 62.5691 41.2434C61.2358 37.2434 57.0263 27.5428 49.7121 18.8571C42.3978 10.1714 40.1882 6.0952 39.9978 5.14282" stroke="black" stroke-width="1.5" stroke-linecap="round"/>
<path d="M30.2891 12C31.2414 12.5714 33.9462 13.8286 37.1462 14.2857C38.8605 17.7143 41.1462 28 44.0033 33.1429C46.8605 38.2857 46.8605 38.2857 49.7176 41.1429" stroke="black" stroke-width="1.5" stroke-linecap="round"/>
<path d="M38.8549 51.9999C35.4263 51.8095 27.0835 52.3428 21.1406 55.9999" stroke="black" stroke-width="1.5" stroke-linecap="round"/>
</svg>
