<svg width="56" height="56" viewBox="0 0 56 56" fill="none" xmlns="http://www.w3.org/2000/svg">
<ellipse opacity="0.2" cx="28.0049" cy="24.8661" rx="14.6533" ry="9.92562" fill="#81C7B5"/>
<path d="M6.75 10.75C6.75 10.75 6.75 12.9301 6.75 15.1017C6.75 23.2626 11.8212 30.2962 15.8952 34.6301C18.9292 37.8576 23.3069 39.2324 27.7366 39.2324V39.2324" stroke="black" stroke-width="1.5" stroke-linecap="round"/>
<path d="M13.75 32.3381V46.2522" stroke="black" stroke-width="1.5" stroke-linecap="round"/>
<path d="M49.25 10.75C49.25 10.75 49.25 11.735 49.25 15.1017C49.25 23.2626 44.1788 30.2963 40.1048 34.6301C37.0708 37.8576 32.6931 39.2324 28.2634 39.2324V39.2324H27.2141" stroke="black" stroke-width="1.5" stroke-linecap="round"/>
<path d="M42.25 32.2659L42.25 46.2519" stroke="black" stroke-width="1.5" stroke-linecap="round"/>
<path d="M23.8906 27.615V27.615C25.0891 28.2891 26.441 28.6433 27.816 28.6433H28.1913C29.5664 28.6433 30.9182 28.2891 32.1167 27.615V27.615" stroke="black" stroke-width="1.5" stroke-linecap="round"/>
<path d="M21.8359 24.0161L24.0057 22.7762C24.8683 22.2833 25.9444 22.3672 26.7202 22.9879V22.9879C27.4959 23.6085 28.5721 23.6924 29.4346 23.1995L29.805 22.9879C30.891 22.3672 32.246 22.4729 33.2228 23.2543L34.1751 24.0161" stroke="black" stroke-width="1.5" stroke-linecap="round"/>
</svg>
