<svg width="40" height="40" viewBox="0 0 40 40" fill="none" xmlns="http://www.w3.org/2000/svg">
<path d="M27.9916 12.511C22.4715 4.18835 21.9007 3.48117 20.1717 0.839019C20.0926 0.718116 19.9152 0.718115 19.8361 0.839009C18.1066 3.48117 17.5285 4.18834 12.0084 12.511C6.3135 21.097 12.2826 28.252 19.9967 28.252C27.7108 28.252 33.6865 21.097 27.9916 12.511Z" stroke="black" stroke-width="1.5" stroke-linecap="round"/>
<path d="M8 34V34C11.8947 35.2982 16.1053 35.2982 20 34V34V34C23.8947 32.7018 28.1053 32.7018 32 34V34" stroke="black" stroke-width="1.5" stroke-linecap="round"/>
<path d="M8 38V38C11.8947 39.2982 16.1053 39.2982 20 38V38V38C23.8947 36.7018 28.1053 36.7018 32 38V38" stroke="black" stroke-width="1.5" stroke-linecap="round"/>
</svg>
