<svg width="40" height="40" viewBox="0 0 40 40" fill="none" xmlns="http://www.w3.org/2000/svg">
<path d="M0.75 3.7547H27M39.2532 3.7547H32" stroke="black" stroke-width="1.5" stroke-linecap="round"/>
<path d="M0.75 36.25H8M39.2532 36.25H13" stroke="black" stroke-width="1.5" stroke-linecap="round"/>
<path d="M12.7603 18.7744V20.5176C12.7603 21.3525 12.6772 22.0654 12.5112 22.6562C12.3501 23.2422 12.1157 23.7183 11.8081 24.0845C11.5005 24.4507 11.1318 24.7192 10.7021 24.8901C10.2773 25.061 9.80127 25.1465 9.27393 25.1465C8.854 25.1465 8.46338 25.0928 8.10205 24.9854C7.74561 24.8779 7.42334 24.7095 7.13525 24.48C6.84717 24.2505 6.60059 23.9551 6.39551 23.5938C6.19531 23.2275 6.03906 22.7905 5.92676 22.2827C5.81934 21.7749 5.76562 21.1865 5.76562 20.5176V18.7744C5.76562 17.9346 5.84863 17.2266 6.01465 16.6504C6.18066 16.0693 6.41748 15.5981 6.7251 15.2368C7.03271 14.8706 7.39893 14.6045 7.82373 14.4385C8.25342 14.2725 8.73193 14.1895 9.25928 14.1895C9.68408 14.1895 10.0747 14.2432 10.4312 14.3506C10.7925 14.4531 11.1147 14.6167 11.3979 14.8413C11.686 15.0659 11.9302 15.3589 12.1304 15.7202C12.3354 16.0767 12.4917 16.5088 12.5991 17.0166C12.7065 17.5195 12.7603 18.1055 12.7603 18.7744ZM10.9951 20.7666V18.5107C10.9951 18.0859 10.9707 17.7124 10.9219 17.3901C10.873 17.063 10.7998 16.7871 10.7021 16.5625C10.6094 16.333 10.4922 16.1475 10.3506 16.0059C10.209 15.8594 10.0479 15.7544 9.86719 15.6909C9.68652 15.6226 9.48389 15.5884 9.25928 15.5884C8.98584 15.5884 8.7417 15.6421 8.52686 15.7495C8.31201 15.8521 8.13135 16.0181 7.98486 16.2476C7.83838 16.4771 7.72607 16.7798 7.64795 17.1558C7.57471 17.5269 7.53809 17.9785 7.53809 18.5107V20.7666C7.53809 21.1963 7.5625 21.5747 7.61133 21.9019C7.66016 22.229 7.7334 22.5098 7.83105 22.7441C7.92871 22.9736 8.0459 23.1641 8.18262 23.3154C8.32422 23.4619 8.48535 23.5693 8.66602 23.6377C8.85156 23.7061 9.0542 23.7402 9.27393 23.7402C9.55225 23.7402 9.79883 23.6865 10.0137 23.5791C10.2285 23.4717 10.4092 23.3008 10.5557 23.0664C10.7021 22.8271 10.812 22.5171 10.8853 22.1362C10.9585 21.7554 10.9951 21.2988 10.9951 20.7666Z" fill="black"/>
<path d="M17.9897 19.7412V21.1475H14.1152V19.7412H17.9897Z" fill="black"/>
<path d="M24.252 14.2993V25H22.4868V16.394L19.8721 17.2803V15.8228L24.0396 14.2993H24.252Z" fill="black"/>
<path d="M35.1064 23.5938V25H27.958V23.7915L31.4297 20.0049C31.8105 19.5752 32.1108 19.2041 32.3306 18.8916C32.5503 18.5791 32.7041 18.2983 32.792 18.0493C32.8848 17.7954 32.9312 17.5488 32.9312 17.3096C32.9312 16.9727 32.8677 16.6772 32.7407 16.4233C32.6187 16.1646 32.438 15.9619 32.1987 15.8154C31.9595 15.6641 31.6689 15.5884 31.3271 15.5884C30.9316 15.5884 30.5996 15.6738 30.3311 15.8447C30.0625 16.0156 29.8599 16.2524 29.7231 16.5552C29.5864 16.853 29.5181 17.1948 29.5181 17.5806H27.7529C27.7529 16.9604 27.8945 16.394 28.1777 15.8813C28.4609 15.3638 28.8711 14.9536 29.4082 14.6509C29.9453 14.3433 30.5923 14.1895 31.3491 14.1895C32.062 14.1895 32.6675 14.3091 33.1655 14.5483C33.6636 14.7876 34.042 15.127 34.3008 15.5664C34.5645 16.0059 34.6963 16.5259 34.6963 17.1265C34.6963 17.4585 34.6426 17.7881 34.5352 18.1152C34.4277 18.4424 34.2739 18.7695 34.0737 19.0967C33.8784 19.4189 33.6465 19.7437 33.3779 20.0708C33.1094 20.3931 32.814 20.7202 32.4917 21.0522L30.1846 23.5938H35.1064Z" fill="black"/>
</svg>
