<svg width="56" height="56" viewBox="0 0 56 56" fill="none" xmlns="http://www.w3.org/2000/svg">
<ellipse opacity="0.2" cx="27.9971" cy="38.1229" rx="14.6768" ry="8.66006" fill="#81C7B5"/>
<path d="M27.9971 46.783C8.7272 46.783 5.1849 22.9316 5.81753 10.1437C5.84352 9.61837 6.28019 9.21698 6.80611 9.21698H7.36412C7.90027 9.21698 8.34107 9.65573 8.36938 10.1911C9.55155 32.5494 18.6091 33.1854 23.8173 31.4583C25.831 30.7905 25.4684 29.2255 27.9626 29.2255C30.4568 29.2255 30.0937 30.7905 32.1074 31.4583C37.3156 33.1855 46.3731 32.5495 47.5553 10.1912C47.5836 9.65578 48.0244 9.21703 48.5605 9.21702L49.1891 9.217C49.715 9.21699 50.1517 9.61839 50.1777 10.1437C50.8103 22.9317 47.268 46.783 27.9981 46.783" stroke="black" stroke-width="1.5"/>
<path d="M24.5 23.8187V23.8187C25.5198 24.3923 26.6702 24.6937 27.8403 24.6937H28.1597C29.3298 24.6937 30.4802 24.3923 31.5 23.8187V23.8187" stroke="black" stroke-width="1.5" stroke-linecap="round"/>
<path d="M22.75 20.7562L24.5964 19.7011C25.3304 19.2817 26.2461 19.353 26.9062 19.8812V19.8812C27.5664 20.4093 28.4821 20.4807 29.2161 20.0612L29.5312 19.8812C30.4555 19.353 31.6085 19.4429 32.4397 20.1079L33.25 20.7562" stroke="black" stroke-width="1.5" stroke-linecap="round"/>
</svg>
