<svg width="25" height="24" viewBox="0 0 25 24" fill="none" xmlns="http://www.w3.org/2000/svg">
<path d="M10.5501 3.29165C11.2863 1.56945 13.7137 1.56945 14.4499 3.29165L15.6826 6.17553C15.9942 6.90445 16.682 7.39944 17.4684 7.46079L20.5386 7.70028C22.4403 7.84863 23.1974 10.2486 21.7287 11.4728L19.4949 13.3347C18.8679 13.8573 18.5934 14.6946 18.7883 15.4898L19.4889 18.3474C19.9392 20.1841 17.9677 21.6589 16.3484 20.6966L13.5797 19.0511C12.9137 18.6553 12.0863 18.6553 11.4203 19.0511L8.65159 20.6966C7.03234 21.6589 5.06083 20.1841 5.51111 18.3474L6.21166 15.4898C6.4066 14.6946 6.1321 13.8573 5.50514 13.3347L3.27125 11.4728C1.80255 10.2486 2.5597 7.84863 4.4614 7.70028L7.53157 7.46079C8.31803 7.39944 9.00578 6.90445 9.31737 6.17553L10.5501 3.29165Z" fill="url(#paint0_linear_3830_69456)"/>
<defs>
<linearGradient id="paint0_linear_3830_69456" x1="2.16406" y1="10.6641" x2="23.1641" y2="10.6641" gradientUnits="userSpaceOnUse">
<stop stop-color="#F5C948"/>
<stop offset="0.495384" stop-color="#F5C948"/>
<stop offset="0.508525" stop-color="#D7DAE1"/>
<stop offset="1" stop-color="#D7DAE1"/>
</linearGradient>
</defs>
</svg>
