<svg width="41" height="40" viewBox="0 0 41 40" fill="none" xmlns="http://www.w3.org/2000/svg">
<path d="M39.14 14.4139C40.0669 17.0744 38.0277 19.3291 36.9135 19.3741C36.3947 19.395 35.852 19.0506 35.416 18.6552C35.1028 18.3712 34.8447 18.061 34.6902 17.8411C25.2589 7.54383 9.4278 10.2161 2.57885 11.6851C1.61328 11.8922 1.31682 11.1059 2.1834 10.6323C19.5139 1.16172 37.6812 10.227 39.14 14.4139Z" stroke="black" stroke-width="1.5" stroke-linecap="round"/>
<path d="M12.1875 20.9375C20 16.875 30.0428 17.942 35 23.125" stroke="black" stroke-width="1.5" stroke-linecap="round"/>
<path d="M35.625 26.875C34.488 28.9583 30.6751 33.125 24.5191 33.125C16.824 33.125 17.1875 30.625 14.9348 29.9553C13.3589 29.4868 12.3098 29.3749 11.25 29.9553" stroke="black" stroke-width="1.5" stroke-linecap="round"/>
<path d="M12.4058 27.7997C11.5327 27.3026 9.32927 26.4679 7.5 27.1057" stroke="black" stroke-width="1.5" stroke-linecap="round"/>
<path d="M10 25C9.22181 24.4657 7.00733 23.4814 4.375 23.8189" stroke="black" stroke-width="1.5" stroke-linecap="round"/>
</svg>
