<svg width="40" height="40" viewBox="0 0 40 40" fill="none" xmlns="http://www.w3.org/2000/svg">
<path d="M22.8145 38.4375C22.8145 38.4375 19.7256 32.8561 17.2744 28.091C13.9255 26.5936 12.2962 23.9998 12.2969 21.5184C12.2973 20.0488 13.0901 17.9686 13.8725 16.2701" stroke="black" stroke-width="1.5" stroke-linecap="round"/>
<path d="M20 33.4375V38.4375" stroke="black" stroke-width="1.5" stroke-linecap="round"/>
<path d="M7.80615 38.4375C7.46944 34.8966 7.48775 29.3334 7.17986 26.875C2.06482 19.6808 6.91201 15.0889 9.75346 9.2764C10.352 8.05212 11.2132 4.59104 11.525 1.875" stroke="black" stroke-width="1.5" stroke-linecap="round"/>
<path d="M36.563 38.4375C34.6527 30.087 29.694 17.2251 29.1568 15.8417C29.124 15.7574 29.1178 15.6711 29.132 15.5818C29.8273 11.2151 28.3183 9.21618 30.2961 3.68976" stroke="black" stroke-width="1.5" stroke-linecap="round"/>
</svg>
