<svg width="40" height="40" viewBox="0 0 40 40" fill="none" xmlns="http://www.w3.org/2000/svg">
<circle cx="20" cy="17" r="14.25" stroke="black" stroke-width="1.5"/>
<path d="M28.8355 32.0646L29.1566 32.634L32.4869 38.5394C32.5973 38.7351 32.8897 38.6973 32.9465 38.4799L34.1441 33.9043C34.1794 33.7696 34.3178 33.6897 34.4521 33.7265L38.9214 34.9525C39.1357 35.0113 39.3144 34.7822 39.2053 34.5886L34.6437 26.5" stroke="black" stroke-width="1.5" stroke-linecap="round"/>
<path d="M11.1645 32.0646L10.8434 32.634L7.51308 38.5394C7.40273 38.7351 7.11035 38.6973 7.05347 38.4799L5.8559 33.9043C5.82065 33.7696 5.68217 33.6897 5.54791 33.7265L1.07863 34.9525C0.864322 35.0113 0.685573 34.7822 0.794733 34.5886L5.35629 26.5" stroke="black" stroke-width="1.5" stroke-linecap="round"/>
</svg>
