<svg width="56" height="56" viewBox="0 0 56 56" fill="none" xmlns="http://www.w3.org/2000/svg">
<ellipse opacity="0.2" cx="10.0587" cy="13.275" rx="10.0587" ry="13.275" transform="matrix(0.5 -0.866025 -0.866025 -0.5 32.3906 35.5842)" fill="#81C7B5"/>
<path d="M42.2639 7.06836C44.0927 8.97376 48.0108 13.0109 49.052 13.9163C50.3535 15.048 49.1084 17.4249 46.9013 18.104C44.6941 18.7831 44.6284 21.3596 45.7155 22.7446C48.099 25.7813 46.2815 26.6496 43.8479 28.4606M32.375 41.125C29.2809 40.7855 19.8307 42.4061 16.5707 51.5516M4.8125 22.3125C5.07906 23.2788 5.47504 24.4887 5.92738 25.7804C8.07249 31.9061 13.3694 36.3195 19.6729 37.8659C25.1981 39.2214 32.0435 40.9348 37.625 42.4375C43.75 43.75 45.0625 42.4375 44.625 36.3125C44.625 34.125 44.1875 34.5625 45.9375 33.25C47.6875 31.9375 48.125 30.625 45.0625 27.5625" stroke="black" stroke-width="1.5" stroke-linecap="round"/>
</svg>
