<svg width="56" height="56" viewBox="0 0 56 56" fill="none" xmlns="http://www.w3.org/2000/svg">
<ellipse opacity="0.2" cx="6.89109" cy="10.9625" rx="6.89109" ry="10.9625" transform="matrix(-0.511382 -0.859353 -0.859353 0.511382 32.1953 35.2012)" fill="#81C7B5"/>
<path d="M12.1297 7.06836C10.3008 8.97376 6.38278 13.0109 5.34159 13.9163C4.0401 15.048 5.28515 17.4249 7.49229 18.104C9.69943 18.7831 9.76516 21.3596 8.67803 22.7446C6.29454 25.7813 8.1121 26.6496 10.5456 28.4606M22.0186 41.125C25.1127 40.7855 34.5628 42.4061 37.8229 51.5516M49.5811 22.3125C49.3145 23.2788 48.9185 24.4887 48.4662 25.7804C46.3211 31.9061 41.0242 36.3195 34.7207 37.8659C29.1955 39.2214 22.35 40.9348 16.7686 42.4375C10.6436 43.75 9.33105 42.4375 9.76855 36.3125C9.76855 34.125 10.2061 34.5625 8.45605 33.25C6.70605 31.9375 6.26855 30.625 9.33105 27.5625" stroke="black" stroke-width="1.5" stroke-linecap="round"/>
</svg>
