<svg width="65" height="56" viewBox="0 0 65 56" fill="none" xmlns="http://www.w3.org/2000/svg">
<path d="M60.7529 11.375V21C60.7529 27.8063 56.524 33.6726 53.1268 37.287C50.597 39.9785 46.9466 41.125 43.2529 41.125" stroke="black" stroke-width="1.5" stroke-linecap="round"/>
<path d="M64.2529 15.3604C64.2529 15.3604 64.2529 17.113 64.2529 20.1572C64.2529 22.2648 62.5544 24.1645 61.5092 25.134C61.0091 25.5979 60.3413 25.8122 59.6592 25.8125V25.8125" stroke="black" stroke-width="1.5" stroke-linecap="round"/>
<path d="M55.5029 34.5625V50.3125" stroke="black" stroke-width="1.5" stroke-linecap="round"/>
<path d="M43.6904 41.126H42.8154C39.1217 41.126 35.4713 39.9795 32.9416 37.288C31.8159 36.0903 30.5989 34.6454 29.4747 33.001L27.7443 29.8797" stroke="black" stroke-width="1.5" stroke-linecap="round"/>
<path d="M30.5654 34.5625V50.3125" stroke="black" stroke-width="1.5" stroke-linecap="round"/>
<path d="M46.5342 31.5V31.5C45.5143 32.0737 44.364 32.375 43.1939 32.375H42.8745C41.7044 32.375 40.554 32.0737 39.5342 31.5V31.5" stroke="black" stroke-width="1.5" stroke-linecap="round"/>
<path d="M48.2842 28.4375L46.4378 27.3824C45.7038 26.963 44.7881 27.0344 44.1279 27.5625V27.5625C43.4678 28.0906 42.5521 28.162 41.818 27.7426L41.5029 27.5625C40.5787 27.0344 39.4257 27.1243 38.5945 27.7892L37.7842 28.4375" stroke="black" stroke-width="1.5" stroke-linecap="round"/>
<circle cx="20.6309" cy="18.9033" r="13" transform="rotate(45 20.6309 18.9033)" stroke="black" stroke-width="1.5"/>
<circle cx="20.6309" cy="18.9029" r="10.8231" transform="rotate(45 20.6309 18.9029)" fill="#E6F4F0"/>
<path d="M10.0244 26.6816L2.24624 34.4598C1.46519 35.2409 1.46519 36.5072 2.24624 37.2882V37.2882C3.02729 38.0693 4.29362 38.0693 5.07467 37.2882L12.8528 29.5101" stroke="black" stroke-width="1.5"/>
<path d="M7.19629 29.5098L10.0247 32.3382" stroke="black" stroke-width="1.5" stroke-linecap="round"/>
</svg>
