<svg width="40" height="40" viewBox="0 0 40 40" fill="none" xmlns="http://www.w3.org/2000/svg">
<path d="M10.5945 17.4123C7.38748 17.4123 6.50138 17.4123 3.76392 17.4123C3.21188 17.4123 2.76307 17.8596 2.76272 18.4117L2.75064 37.2521C2.75029 37.8046 3.19825 38.2527 3.75079 38.2527C5.73944 38.2527 7.58211 38.2527 10.5811 38.2527M10.5945 17.4123C15.1627 6.31817 14.7729 1.75 17.7605 1.75C20.7481 1.75 21.7922 3.70779 21.7922 6.31817C21.7922 8.33357 20.9818 13.2176 20.5341 15.5115C20.51 15.6354 20.6048 15.75 20.731 15.75H30.728C32.0332 15.75 37.2539 15.7606 37.2539 19.6761C37.2539 23.5917 33.6302 38.2527 27.1042 38.2527C23.4078 38.2527 19.0519 38.2527 10.5811 38.2527M10.5945 17.4123L10.5811 38.2527" stroke="#131313" stroke-width="1.5"/>
</svg>
