<svg width="40" height="40" viewBox="0 0 40 40" fill="none" xmlns="http://www.w3.org/2000/svg">
<path d="M0.75 3.7547H27M39.2532 3.7547H32" stroke="black" stroke-width="1.5" stroke-linecap="round"/>
<path d="M0.75 36.25H8M39.2532 36.25H13" stroke="black" stroke-width="1.5" stroke-linecap="round"/>
<path d="M31.8408 19.1553V20.7446H24.5312V19.1553H31.8408ZM29.043 16.167V23.9307H27.3364V16.167H29.043Z" fill="black"/>
<path d="M23.3052 22.0923C23.3052 22.7563 23.1514 23.3154 22.8438 23.7695C22.5361 24.2236 22.1162 24.5679 21.584 24.8022C21.0566 25.0317 20.4609 25.1465 19.7969 25.1465C19.1328 25.1465 18.5347 25.0317 18.0024 24.8022C17.4702 24.5679 17.0503 24.2236 16.7427 23.7695C16.4351 23.3154 16.2812 22.7563 16.2812 22.0923C16.2812 21.6528 16.3667 21.2549 16.5376 20.8984C16.7085 20.5371 16.9502 20.2271 17.2627 19.9683C17.5801 19.7046 17.9512 19.502 18.376 19.3604C18.8057 19.2188 19.2744 19.1479 19.7822 19.1479C20.4561 19.1479 21.0591 19.2725 21.5913 19.5215C22.1235 19.7705 22.541 20.1147 22.8438 20.5542C23.1514 20.9937 23.3052 21.5063 23.3052 22.0923ZM21.5327 22.0044C21.5327 21.6479 21.4595 21.3354 21.313 21.0669C21.1665 20.7983 20.9614 20.5908 20.6978 20.4443C20.4341 20.2979 20.1289 20.2246 19.7822 20.2246C19.4307 20.2246 19.1255 20.2979 18.8667 20.4443C18.6079 20.5908 18.4053 20.7983 18.2588 21.0669C18.1172 21.3354 18.0464 21.6479 18.0464 22.0044C18.0464 22.3657 18.1172 22.6782 18.2588 22.9419C18.4004 23.2007 18.603 23.3984 18.8667 23.5352C19.1304 23.6719 19.4404 23.7402 19.7969 23.7402C20.1533 23.7402 20.4609 23.6719 20.7197 23.5352C20.9785 23.3984 21.1787 23.2007 21.3203 22.9419C21.4619 22.6782 21.5327 22.3657 21.5327 22.0044ZM23.0635 17.1411C23.0635 17.6733 22.9219 18.147 22.6387 18.562C22.3604 18.9771 21.9746 19.3042 21.4814 19.5435C20.9883 19.7778 20.4268 19.895 19.7969 19.895C19.1621 19.895 18.5957 19.7778 18.0977 19.5435C17.6045 19.3042 17.2163 18.9771 16.9331 18.562C16.6548 18.147 16.5156 17.6733 16.5156 17.1411C16.5156 16.5063 16.6548 15.9717 16.9331 15.5371C17.2163 15.0977 17.6045 14.7632 18.0977 14.5337C18.5908 14.3042 19.1548 14.1895 19.7896 14.1895C20.4243 14.1895 20.9883 14.3042 21.4814 14.5337C21.9746 14.7632 22.3604 15.0977 22.6387 15.5371C22.9219 15.9717 23.0635 16.5063 23.0635 17.1411ZM21.2983 17.1997C21.2983 16.8823 21.2349 16.604 21.1079 16.3647C20.9858 16.1206 20.8125 15.9302 20.5879 15.7935C20.3633 15.6567 20.0972 15.5884 19.7896 15.5884C19.4819 15.5884 19.2158 15.6543 18.9912 15.7861C18.7666 15.918 18.5933 16.1035 18.4712 16.3428C18.3491 16.582 18.2881 16.8677 18.2881 17.1997C18.2881 17.5269 18.3491 17.8125 18.4712 18.0566C18.5933 18.2959 18.7666 18.4839 18.9912 18.6206C19.2207 18.7573 19.4893 18.8257 19.7969 18.8257C20.1045 18.8257 20.3706 18.7573 20.5952 18.6206C20.8198 18.4839 20.9932 18.2959 21.1152 18.0566C21.2373 17.8125 21.2983 17.5269 21.2983 17.1997Z" fill="black"/>
<path d="M12.6221 14.2993V25H10.8569V16.394L8.24219 17.2803V15.8228L12.4097 14.2993H12.6221Z" fill="black"/>
</svg>
