<svg width="40" height="40" viewBox="0 0 40 40" fill="none" xmlns="http://www.w3.org/2000/svg">
<path d="M0.75 3.7547H27M39.2532 3.7547H32" stroke="black" stroke-width="1.5" stroke-linecap="round"/>
<path d="M0.75 36.25H8M39.2532 36.25H13" stroke="black" stroke-width="1.5" stroke-linecap="round"/>
<path d="M13.1392 14.27H13.3589V15.7129H13.2344C12.6045 15.7129 12.0601 15.8105 11.6011 16.0059C11.147 16.2012 10.7734 16.4697 10.4805 16.8115C10.1875 17.1533 9.96777 17.5537 9.82129 18.0127C9.67969 18.4668 9.60889 18.9502 9.60889 19.4629V21.1401C9.60889 21.5649 9.65527 21.9409 9.74805 22.2681C9.84082 22.5903 9.97021 22.8613 10.1362 23.0811C10.3071 23.2959 10.5024 23.4595 10.7222 23.5718C10.9419 23.6841 11.1787 23.7402 11.4326 23.7402C11.6963 23.7402 11.9355 23.6865 12.1504 23.5791C12.3652 23.4668 12.5483 23.313 12.6997 23.1177C12.8511 22.9224 12.9658 22.6904 13.0439 22.4219C13.1221 22.1533 13.1611 21.8604 13.1611 21.543C13.1611 21.2402 13.1221 20.957 13.0439 20.6934C12.9707 20.4248 12.8608 20.1904 12.7144 19.9902C12.5679 19.7852 12.3848 19.6265 12.165 19.5142C11.9502 19.397 11.7012 19.3384 11.418 19.3384C11.0664 19.3384 10.7466 19.4214 10.4585 19.5874C10.1753 19.7534 9.9458 19.9707 9.77002 20.2393C9.59912 20.5029 9.50635 20.7837 9.4917 21.0815L8.81787 20.8618C8.85693 20.4077 8.95703 20 9.11816 19.6387C9.28418 19.2773 9.50146 18.9697 9.77002 18.7158C10.0386 18.4619 10.3486 18.269 10.7002 18.1372C11.0566 18.0005 11.4473 17.9321 11.8721 17.9321C12.3896 17.9321 12.8389 18.0298 13.2197 18.2251C13.6006 18.4204 13.9155 18.6865 14.1646 19.0234C14.4185 19.3555 14.6064 19.7363 14.7285 20.166C14.8555 20.5908 14.9189 21.0352 14.9189 21.499C14.9189 22.0117 14.8408 22.4902 14.6846 22.9346C14.5283 23.374 14.2988 23.7598 13.9961 24.0918C13.6982 24.4238 13.3345 24.6826 12.9048 24.8682C12.48 25.0537 11.9966 25.1465 11.4546 25.1465C10.8833 25.1465 10.373 25.0366 9.92383 24.8169C9.47949 24.5972 9.10107 24.2944 8.78857 23.9087C8.48096 23.5229 8.24658 23.0786 8.08545 22.5757C7.92432 22.0728 7.84375 21.5405 7.84375 20.979V20.2466C7.84375 19.436 7.94629 18.6719 8.15137 17.9541C8.35645 17.2314 8.67139 16.5942 9.09619 16.0425C9.52588 15.4907 10.0752 15.0586 10.7441 14.7461C11.4131 14.4287 12.2114 14.27 13.1392 14.27Z" fill="black"/>
<path d="M18.1855 20.0415L16.7793 19.6973L17.3579 14.3359H23.1074V15.8301H18.8228L18.5298 18.4448C18.6958 18.3472 18.9253 18.252 19.2183 18.1592C19.5112 18.0615 19.8457 18.0127 20.2217 18.0127C20.7246 18.0127 21.1738 18.0957 21.5693 18.2617C21.9697 18.4229 22.3091 18.6597 22.5874 18.9722C22.8657 19.2798 23.0781 19.6558 23.2246 20.1001C23.3711 20.5396 23.4443 21.0352 23.4443 21.5869C23.4443 22.0801 23.3711 22.5415 23.2246 22.9712C23.083 23.4009 22.8682 23.7793 22.5801 24.1064C22.292 24.4336 21.9282 24.6899 21.4888 24.8755C21.0542 25.0562 20.5391 25.1465 19.9434 25.1465C19.499 25.1465 19.0718 25.083 18.6616 24.9561C18.2563 24.8242 17.8926 24.6313 17.5703 24.3774C17.248 24.1187 16.9893 23.8013 16.7939 23.4253C16.5986 23.0444 16.4863 22.6074 16.457 22.1143H18.1855C18.2295 22.4609 18.3247 22.7563 18.4712 23.0005C18.6226 23.2397 18.8228 23.4229 19.0718 23.5498C19.3208 23.6768 19.6089 23.7402 19.936 23.7402C20.2339 23.7402 20.4902 23.689 20.7051 23.5864C20.9199 23.479 21.0981 23.3276 21.2397 23.1323C21.3862 22.9321 21.4937 22.6978 21.562 22.4292C21.6353 22.1606 21.6719 21.8628 21.6719 21.5356C21.6719 21.2231 21.6304 20.9375 21.5474 20.6787C21.4692 20.4199 21.3496 20.1953 21.1885 20.0049C21.0322 19.8145 20.8345 19.668 20.5952 19.5654C20.356 19.458 20.0801 19.4043 19.7676 19.4043C19.3477 19.4043 19.0254 19.4653 18.8008 19.5874C18.5811 19.7095 18.376 19.8608 18.1855 20.0415Z" fill="black"/>
<path d="M31.8452 19.1553V20.7446H24.5356V19.1553H31.8452ZM29.0474 16.167V23.9307H27.3408V16.167H29.0474Z" fill="black"/>
</svg>
