<svg width="42" height="42" viewBox="0 0 42 42" fill="none" xmlns="http://www.w3.org/2000/svg">
<path d="M16.3615 17.0276L21.1074 1.62051C21.1653 1.43235 21.4317 1.43235 21.4896 1.62051L26.2359 17.0288C26.2563 17.0949 26.3094 17.1458 26.3763 17.1634L40.3888 20.8397C40.5777 20.8892 40.5909 21.1524 40.4079 21.2205L26.3574 26.4534C26.3012 26.4744 26.2574 26.5194 26.238 26.5761L21.4877 40.4475C21.426 40.6277 21.171 40.6277 21.1093 40.4475L16.3595 26.5776C16.3398 26.52 16.295 26.4746 16.2377 26.4541L1.61889 21.2215C1.43285 21.1549 1.44579 20.8876 1.63739 20.8393L16.2192 17.1626C16.287 17.1456 16.3409 17.0944 16.3615 17.0276Z" stroke="black" stroke-width="1.5"/>
<path d="M6.5 1.75V11.25M1.75 6.5H11.25" stroke="black" stroke-width="1.5" stroke-linecap="round"/>
</svg>
