<svg width="40" height="40" viewBox="0 0 40 40" fill="none" xmlns="http://www.w3.org/2000/svg">
<circle cx="6" cy="6" r="6" transform="matrix(1 0 0 -1 14 30)" stroke="black" stroke-width="1.5"/>
<path d="M30 24C30 18.4772 25.5228 14 20 14C14.4772 14 10 18.4772 10 24" stroke="black" stroke-width="1.5"/>
<path d="M0.75 32H1.99975C6.41802 32 9.99975 28.4183 9.99975 24V24" stroke="black" stroke-width="1.5" stroke-linecap="round"/>
<path d="M39.25 32H38.0019C33.5836 32 30.0019 28.4183 30.0019 24V24" stroke="black" stroke-width="1.5" stroke-linecap="round"/>
<path d="M0.75 10.2019L3.93198 13.3839L5.69975 11.6161L8.88173 14.7981" stroke="black" stroke-width="1.5" stroke-linecap="round"/>
<path d="M39.25 10.2019L36.068 13.3839L34.3003 11.6161L31.1183 14.7981" stroke="black" stroke-width="1.5" stroke-linecap="round"/>
<path d="M18.75 0.748383L18.75 5.24838L21.25 5.24838L21.25 9.74838" stroke="black" stroke-width="1.5" stroke-linecap="round"/>
</svg>
