<svg width="40" height="40" viewBox="0 0 40 40" fill="none" xmlns="http://www.w3.org/2000/svg">
<path d="M0 13.2956V26.7044C0 29.6321 2.48381 32 5.53344 32H22.3927C25.4519 32 27.9261 29.6229 27.9261 26.7044V13.2956C27.9261 10.3679 25.4423 8.00003 22.3927 8.00003H5.54303C2.48382 7.99085 0 10.3679 0 13.2956ZM36.3749 9.7071L30.0263 14.7182C29.4605 15.1679 29.1345 15.8287 29.1345 16.5262V23.4646C29.1345 24.1622 29.4509 24.8138 30.0072 25.2635L36.3558 30.3663C37.8039 31.5228 40 30.5407 40 28.7419V11.3407C40.0096 9.55108 37.823 8.55987 36.3749 9.7071Z" fill="black"/>
</svg>
