<?xml version="1.0" encoding="utf-8"?>
<!-- Generator: Adobe Illustrator 28.3.0, SVG Export Plug-In . SVG Version: 6.00 Build 0)  -->
<svg version="1.1" id="Lager_1" xmlns="http://www.w3.org/2000/svg" xmlns:xlink="http://www.w3.org/1999/xlink" x="0px" y="0px"
	 viewBox="0 0 40 40" style="enable-background:new 0 0 40 40;" xml:space="preserve">
<style type="text/css">
	.st0{fill:#FFFFFF;}
</style>
<path class="st0" d="M0,13.3v13.4C0,29.6,2.5,32,5.5,32h16.9c3.1,0,5.5-2.4,5.5-5.3V13.3c0-2.9-2.5-5.3-5.5-5.3H5.5
	C2.5,8,0,10.4,0,13.3z M36.4,9.7l-6.3,5c-0.6,0.4-0.9,1.1-0.9,1.8v6.9c0,0.7,0.3,1.3,0.9,1.8l6.3,5.1c1.4,1.2,3.6,0.2,3.6-1.6V11.3
	C40,9.6,37.8,8.6,36.4,9.7z"/>
</svg>
