<svg width="64" height="64" viewBox="0 0 64 64" fill="none" xmlns="http://www.w3.org/2000/svg">
<ellipse opacity="0.2" cx="34" cy="45.5" rx="30" ry="18.5" fill="#81C7B5"/>
<path d="M5 6C8.02078 17.1683 11.6851 31.7751 11.3482 34.7564C10.8192 39.4373 6.58704 42.5579 8.7031 47.2387C10.8192 51.9196 14.5223 51.3995 18.2254 51.3995C21.9285 51.3995 27.7476 49.3191 30.3927 49.3191C34.5 49.3191 49.9662 54 53.1403 54C56.3144 54 60.5465 49.8392 58.4304 47.7588C56.3144 46.1985 55.2563 47.7588 51.5532 46.7186C47.8501 45.6784 28.8056 33.1961 27.7476 31.1157C27.0886 29.8199 26.173 16.6693 25.5502 6" stroke="black" stroke-width="1.5" stroke-linecap="round"/>
</svg>
