<svg width="24" height="24" viewBox="0 0 24 24" fill="none" xmlns="http://www.w3.org/2000/svg">
<path d="M0.75 11.748C0.75 11.1957 1.19772 10.748 1.75 10.748H22.2478C22.8001 10.748 23.2478 11.1957 23.2478 11.748V21.252C23.2478 22.3566 22.3524 23.252 21.2478 23.252H2.75C1.64543 23.252 0.75 22.3566 0.75 21.252V11.748Z" stroke="black" stroke-width="1.5"/>
<path d="M2 8.75458C2 8.20229 2.44772 7.75458 3 7.75458H21C21.5523 7.75458 22 8.20229 22 8.75458V10.7546H2V8.75458Z" stroke="black" stroke-width="1.5"/>
<path d="M4 7.75458C4.08867 6.28173 5.0078 2.36682 6.19602 0.92436C6.27315 0.830727 6.41444 0.84058 6.48744 0.937472C7.45373 2.22008 8.21291 3.3736 11.0777 3.35275C14.0781 3.33092 17.0353 2.10825 18.7189 4.26976C20.0659 5.99897 20.0284 7.5799 19.9852 7.75458" stroke="black" stroke-width="1.5" stroke-linecap="round"/>
</svg>
