<svg width="24" height="24" viewBox="0 0 24 24" fill="none" xmlns="http://www.w3.org/2000/svg">
<path d="M1.48372 19.2789L10.1917 2.83815C10.3657 2.50983 10.6259 2.23508 10.9446 2.04344C11.2632 1.85181 11.6281 1.75055 12 1.75055C12.3719 1.75055 12.7368 1.85181 13.0554 2.04344C13.374 2.23508 13.6343 2.50983 13.8083 2.83815L22.5163 19.2789C22.6797 19.5891 22.7599 19.9364 22.749 20.2868C22.7381 20.6372 22.6365 20.9788 22.4541 21.2784C22.2717 21.5779 22.0148 21.8251 21.7082 21.996C21.4017 22.1668 21.0561 22.2555 20.7051 22.2533H3.29101C2.94031 22.2548 2.59518 22.1657 2.2892 21.9945C1.98321 21.8234 1.72678 21.5761 1.54484 21.2767C1.36291 20.9772 1.26166 20.6359 1.25095 20.2858C1.24024 19.9357 1.32043 19.5888 1.48372 19.2789Z" stroke="black" stroke-width="1.5" stroke-miterlimit="10" stroke-linecap="square"/>
<path d="M12 8.74615V14.7454" stroke="black" stroke-width="1.5" stroke-miterlimit="10" stroke-linecap="round"/>
<path d="M12 19.2501C12.6904 19.2501 13.25 18.6904 13.25 18.0001C13.25 17.3097 12.6904 16.7501 12 16.7501C11.3096 16.7501 10.75 17.3097 10.75 18.0001C10.75 18.6904 11.3096 19.2501 12 19.2501Z" fill="black"/>
</svg>
