<svg width="24" height="24" viewBox="0 0 24 24" fill="none" xmlns="http://www.w3.org/2000/svg">
<path d="M14.298 21.6536L21.6493 14.3023C21.8398 14.112 21.9909 13.8859 22.0939 13.6372C22.197 13.3884 22.2501 13.1217 22.2501 12.8525C22.2501 12.5832 22.197 12.3165 22.0939 12.0678C21.9909 11.819 21.8398 11.593 21.6493 11.4026L12.1464 1.9007C12.0527 1.80694 11.9255 1.75427 11.7929 1.75427H2.25C1.97386 1.75427 1.75 1.97813 1.75 2.25427V11.7972C1.75 11.9298 1.80266 12.0569 1.89641 12.1507L11.3983 21.6546C11.5888 21.845 11.8148 21.996 12.0637 22.099C12.3125 22.202 12.5791 22.255 12.8484 22.2549C13.1177 22.2548 13.3843 22.2016 13.633 22.0985C13.8818 21.9953 14.1077 21.8441 14.298 21.6536Z" stroke="black" stroke-width="1.5" stroke-miterlimit="10" stroke-linecap="square"/>
<path d="M7.89844 9.90002C9.00301 9.90002 9.89844 9.00459 9.89844 7.90002C9.89844 6.79545 9.00301 5.90002 7.89844 5.90002C6.79387 5.90002 5.89844 6.79545 5.89844 7.90002C5.89844 9.00459 6.79387 9.90002 7.89844 9.90002Z" stroke="black" stroke-width="1.5" stroke-miterlimit="10" stroke-linecap="square"/>
</svg>
