<svg width="24" height="24" viewBox="0 0 24 24" fill="none" xmlns="http://www.w3.org/2000/svg">
<circle cx="12.0009" cy="12" r="10.2509" stroke="black" stroke-width="1.5"/>
<path d="M12.6309 14.2192H10.9976C11.0024 13.7651 11.0415 13.3843 11.1147 13.0767C11.188 12.7642 11.3101 12.481 11.481 12.2271C11.6567 11.9731 11.8887 11.7046 12.1768 11.4214C12.4014 11.2065 12.604 11.0039 12.7847 10.8135C12.9653 10.6182 13.1094 10.4131 13.2168 10.1982C13.3242 9.97852 13.3779 9.72705 13.3779 9.44385C13.3779 9.13623 13.3267 8.875 13.2241 8.66016C13.1216 8.44531 12.9702 8.28174 12.77 8.16943C12.5747 8.05713 12.3306 8.00098 12.0376 8.00098C11.7935 8.00098 11.564 8.0498 11.3491 8.14746C11.1343 8.24023 10.9609 8.38672 10.8291 8.58691C10.6973 8.78223 10.6265 9.04102 10.6167 9.36328H8.85156C8.86133 8.74805 9.00781 8.23047 9.29102 7.81055C9.57422 7.39062 9.95508 7.07568 10.4336 6.86572C10.9121 6.65576 11.4468 6.55078 12.0376 6.55078C12.6919 6.55078 13.251 6.66309 13.7148 6.8877C14.1787 7.10742 14.5327 7.42969 14.7769 7.85449C15.0259 8.27441 15.1504 8.78223 15.1504 9.37793C15.1504 9.80762 15.0649 10.1982 14.894 10.5498C14.7231 10.8965 14.501 11.2212 14.2275 11.5239C13.9541 11.8218 13.6587 12.1196 13.3413 12.4175C13.0679 12.6665 12.8823 12.9375 12.7847 13.2305C12.687 13.5186 12.6357 13.8481 12.6309 14.2192ZM10.8511 16.5044C10.8511 16.2407 10.9414 16.0186 11.1221 15.8379C11.3027 15.6523 11.5493 15.5596 11.8618 15.5596C12.1743 15.5596 12.4209 15.6523 12.6016 15.8379C12.7822 16.0186 12.8726 16.2407 12.8726 16.5044C12.8726 16.7681 12.7822 16.9927 12.6016 17.1782C12.4209 17.3589 12.1743 17.4492 11.8618 17.4492C11.5493 17.4492 11.3027 17.3589 11.1221 17.1782C10.9414 16.9927 10.8511 16.7681 10.8511 16.5044Z" fill="black"/>
</svg>
