<svg width="72" height="72" viewBox="0 0 72 72" fill="none" xmlns="http://www.w3.org/2000/svg">
<path d="M59.3396 54.2885C60.2477 54.2885 60.9838 53.5523 60.9838 52.6442C60.9838 51.7362 60.2477 51 59.3396 51C58.4315 51 57.6953 51.7362 57.6953 52.6442C57.6953 53.5523 58.4315 54.2885 59.3396 54.2885Z" fill="#DAF3EC" stroke="#DAF3EC"/>
<path d="M21.5 48.4991H9.5V44.5L10 41.5L11.5 38.9991C12.5 38.3325 15.3 37.2991 18.5 38.4991C21.7 39.6991 21.8333 45.6658 21.5 48.4991Z" fill="#DAF3EC" stroke="#DAF3EC"/>
<path d="M3 23H28V26H3V23Z" fill="#DAF3EC" stroke="#DAF3EC"/>
<path d="M62.8985 27.062L62.9033 27.1003L62.9139 27.1374C63.1156 27.8434 62.9528 28.3944 62.569 28.8629C62.1644 29.3568 61.5006 29.7704 60.7004 30.1002C59.1019 30.7592 57.1681 31 56.3947 31C55.6614 31 54.1097 30.652 52.6714 29.984C51.959 29.6532 51.3015 29.2559 50.7997 28.807C50.328 28.3851 50.0225 27.9438 49.9062 27.4948C50.3923 25.2048 51.6201 23.8471 52.9109 23.0505C54.2384 22.2313 55.6445 22 56.3947 22C57.1219 22 58.6601 22.3446 60.0742 23.1804C61.479 24.0108 62.6747 25.2718 62.8985 27.062ZM58.8947 18.5C58.8947 19.8807 57.7754 21 56.3947 21C55.0139 21 53.8947 19.8807 53.8947 18.5C53.8947 17.1193 55.0139 16 56.3947 16C57.7754 16 58.8947 17.1193 58.8947 18.5Z" fill="#DAF3EC" stroke="#DAF3EC"/>
<path d="M4 49H27V51H4V49Z" fill="#DAF3EC" stroke="#DAF3EC"/>
<path d="M48.3192 62.8578C48.1225 62.8502 47.9641 62.8438 47.8376 62.8386C47.8137 61.4376 48.0474 59.0939 48.6169 57.0202C48.9344 55.8642 49.3459 54.8317 49.8483 54.101C50.3536 53.366 50.8862 53.0226 51.4431 53.0274C52.7477 53.0386 53.5316 53.8706 54.0442 55.133C54.5622 56.4084 54.7394 57.9901 54.8633 59.2155C54.9067 59.6448 54.9824 60.0783 55.0504 60.4677C55.0812 60.6437 55.1103 60.8107 55.1342 60.9643C55.2168 61.4946 55.2406 61.8822 55.1668 62.1721C55.1051 62.4143 54.9705 62.6114 54.6173 62.7625C54.227 62.9294 53.5775 63.0336 52.5158 63.0002C50.3449 62.932 49.0604 62.8863 48.3192 62.8578Z" fill="#DAF3EC" stroke="#DAF3EC"/>
<path d="M56.5 31.5C62.0228 31.5 66.5 27.0228 66.5 21.5C66.5 15.9772 62.0228 11.5 56.5 11.5C50.9772 11.5 46.5 15.9772 46.5 21.5C46.5 27.0228 50.9772 31.5 56.5 31.5Z" stroke="black"/>
<path d="M63.5 28.5C63.5 27.9851 63.4444 27.4832 63.3389 27C62.6522 23.8548 59.8511 21.5 56.5 21.5C53.2532 21.5 50.5227 23.7105 49.7313 26.7086C49.5804 27.2804 49.5 27.8808 49.5 28.5" stroke="black"/>
<path d="M56.5 21.5C58.1569 21.5 59.5 20.1569 59.5 18.5C59.5 16.8431 58.1569 15.5 56.5 15.5C54.8431 15.5 53.5 16.8431 53.5 18.5C53.5 20.1569 54.8431 21.5 56.5 21.5Z" stroke="black"/>
<path d="M15.5 37.5V48.5" stroke="black"/>
<path d="M3.5 51.5V48.5H27.5V51.5H3.5Z" stroke="black" stroke-linecap="round" stroke-linejoin="round"/>
<path d="M5.5 48.5V26.5M25.5 48.5V26.5M2.5 26.5H28.5V22.5H2.5V26.5Z" stroke="black" stroke-linecap="round" stroke-linejoin="round"/>
<path d="M5.5 34.5H25" stroke="black"/>
<path d="M8.5 30.5H22.5" stroke="black" stroke-linecap="round" stroke-linejoin="round"/>
<path d="M45.4177 54.185C46.3258 54.185 47.0619 53.4488 47.0619 52.5407C47.0619 51.6326 46.3258 50.8965 45.4177 50.8965C44.5096 50.8965 43.7734 51.6326 43.7734 52.5407C43.7734 53.4488 44.5096 54.185 45.4177 54.185Z" fill="#DAF3EC" stroke="#DAF3EC"/>
<path d="M42.3189 63.3462C42.1958 63.3417 42.0917 63.3378 42.0039 63.3345C41.9705 61.996 42.1509 60.0092 42.6584 58.2995C42.9424 57.343 43.3177 56.5117 43.7848 55.931C44.2449 55.3589 44.7629 55.0633 45.3632 55.0684C46.6678 55.0796 47.4517 55.9117 47.9643 57.174C48.4822 58.4495 48.6595 60.0311 48.7834 61.2565C48.8344 61.7613 48.9241 62.1954 48.994 62.5331C49.0123 62.6221 49.0293 62.7043 49.0439 62.7794C49.0805 62.9685 49.0995 63.0998 49.1016 63.1984C49.1031 63.2724 49.0943 63.3033 49.0912 63.3116C49.0762 63.3265 48.9821 63.4003 48.5975 63.4493C48.1428 63.5072 47.4373 63.5135 46.349 63.4793C44.1778 63.411 42.9768 63.37 42.3189 63.3462Z" fill="#DAF3EC"/>
<path d="M49.0935 63.3089C49.0936 63.3089 49.0932 63.3094 49.0924 63.3103M42.3189 63.3462C42.1958 63.3417 42.0917 63.3378 42.0039 63.3345C41.9705 61.996 42.1509 60.0092 42.6584 58.2995C42.9424 57.343 43.3177 56.5117 43.7848 55.931C44.2449 55.3589 44.7629 55.0633 45.3632 55.0684C46.6678 55.0796 47.4517 55.9117 47.9643 57.174C48.4822 58.4495 48.6595 60.0311 48.7834 61.2565C48.8344 61.7613 48.9241 62.1954 48.994 62.5331C49.0123 62.6221 49.0293 62.7043 49.0439 62.7794C49.0805 62.9685 49.0995 63.0998 49.1016 63.1984C49.1031 63.2724 49.0943 63.3033 49.0912 63.3116C49.0762 63.3265 48.9821 63.4003 48.5975 63.4493C48.1428 63.5072 47.4373 63.5135 46.349 63.4793C44.1778 63.411 42.9768 63.37 42.3189 63.3462Z" stroke="#DAF3EC"/>
<path d="M21.5 48.5V43.5C21.5 40.1863 18.8137 37.5 15.5 37.5C12.1863 37.5 9.5 40.1863 9.5 43.5V48.5" stroke="black"/>
<path d="M48.1258 56.5C47.4232 55.2543 46.5049 54.5 45.5 54.5C43.2909 54.5 41.5 58.1457 41.5 62.6429C41.5 63.1053 41.5189 63.0586 41.5553 63.5H47.5" stroke="black" stroke-linejoin="round"/>
<path d="M56.2329 63.4497C56.1098 63.4452 56.0057 63.4414 55.9179 63.438C55.8845 62.0995 56.0649 60.1127 56.5724 58.403C56.8564 57.4465 57.2316 56.6153 57.6988 56.0345C58.1589 55.4625 58.6769 55.1668 59.2772 55.1719C60.5817 55.1831 61.3657 56.0152 61.8783 57.2776C62.3962 58.553 62.5735 60.1346 62.6974 61.3601C62.7484 61.8648 62.8381 62.2989 62.9079 62.6366C62.9263 62.7256 62.9433 62.8078 62.9579 62.8829C62.9945 63.072 63.0135 63.2033 63.0155 63.302C63.0171 63.3759 63.0082 63.4068 63.0052 63.4151C62.9902 63.43 62.8961 63.5038 62.5115 63.5528C62.0568 63.6107 61.3513 63.617 60.263 63.5828C58.0918 63.5145 56.8908 63.4735 56.2329 63.4497Z" fill="#DAF3EC"/>
<path d="M63.0075 63.4124C63.0076 63.4125 63.0072 63.4129 63.0064 63.4139M56.2329 63.4497C56.1098 63.4452 56.0057 63.4414 55.9179 63.438C55.8845 62.0995 56.0649 60.1127 56.5724 58.403C56.8564 57.4465 57.2316 56.6153 57.6988 56.0345C58.1589 55.4625 58.6769 55.1668 59.2772 55.1719C60.5817 55.1831 61.3657 56.0152 61.8783 57.2776C62.3962 58.553 62.5735 60.1346 62.6974 61.3601C62.7484 61.8648 62.8381 62.2989 62.9079 62.6366C62.9263 62.7256 62.9433 62.8078 62.9579 62.8829C62.9945 63.072 63.0135 63.2033 63.0155 63.302C63.0171 63.3759 63.0082 63.4068 63.0052 63.4151C62.9902 63.43 62.8961 63.5038 62.5115 63.5528C62.0568 63.6107 61.3513 63.617 60.263 63.5828C58.0918 63.5145 56.8908 63.4735 56.2329 63.4497Z" stroke="#DAF3EC"/>
<path d="M45.5 54.5C46.6046 54.5 47.5 53.6046 47.5 52.5C47.5 51.3954 46.6046 50.5 45.5 50.5C44.3954 50.5 43.5 51.3954 43.5 52.5C43.5 53.6046 44.3954 54.5 45.5 54.5Z" stroke="black"/>
<path d="M63.5009 62.6429C63.5009 58.1457 61.7101 54.5 59.5009 54.5C58.1897 54.5 57.0259 55.7843 56.2964 57.7686C55.7968 59.1276 55.5009 60.8149 55.5009 62.6429C55.5009 63.1053 55.4641 63.0586 55.5004 63.5H56.5343H63.479C63.5154 63.0586 63.5009 63.1053 63.5009 62.6429Z" stroke="black" stroke-linejoin="round"/>
<path d="M51.4958 52.144C52.4039 52.144 53.1401 51.4078 53.1401 50.4997C53.1401 49.5916 52.4039 48.8555 51.4958 48.8555C50.5877 48.8555 49.8516 49.5916 49.8516 50.4997C49.8516 51.4078 50.5877 52.144 51.4958 52.144Z" fill="#DAF3EC" stroke="#DAF3EC"/>
<path d="M59.5 54.5C60.6046 54.5 61.5 53.6046 61.5 52.5C61.5 51.3954 60.6046 50.5 59.5 50.5C58.3954 50.5 57.5 51.3954 57.5 52.5C57.5 53.6046 58.3954 54.5 59.5 54.5Z" stroke="black"/>
<path d="M51.5 52.5C49.2909 52.5 47.5 56.1457 47.5 60.6429C47.5 61.1053 47.5189 63.0586 47.5553 63.5H55.4447C55.4811 63.0586 55.5 61.1053 55.5 60.6429C55.5 56.1457 53.7091 52.5 51.5 52.5Z" stroke="black"/>
<path d="M51.5 52.5C52.6046 52.5 53.5 51.6046 53.5 50.5C53.5 49.3954 52.6046 48.5 51.5 48.5C50.3954 48.5 49.5 49.3954 49.5 50.5C49.5 51.6046 50.3954 52.5 51.5 52.5Z" stroke="black"/>
<path d="M58.1877 50.8632C60.3087 47.2171 61.5204 42.9972 61.5204 38.5C61.5204 35.7022 61.0514 33.0117 60.1863 30.5M48 16.4277C44.4257 14.5592 40.3442 13.5 36.0102 13.5C28.1317 13.5 21.0874 17 16.408 22.5M41.8424 62.8244C39.9213 63.2774 38.0732 63.5 36.0102 63.5C26.9719 63.5 19.0315 58.8936 14.5 51.9458" stroke="black" stroke-dasharray="2 2"/>
<path d="M12.5 43.5V44.5" stroke="black" stroke-linecap="round"/>
<path d="M18.5 43.5V44.5" stroke="black" stroke-linecap="round"/>
</svg>
