<svg width="72" height="72" viewBox="0 0 72 72" fill="none" xmlns="http://www.w3.org/2000/svg">
<path d="M60.4453 36.5C60.4453 38.1569 59.1021 39.5 57.4453 39.5C55.7884 39.5 54.4453 38.1569 54.4453 36.5C54.4453 34.8431 55.7884 33.5 57.4453 33.5C59.1021 33.5 60.4453 34.8431 60.4453 36.5Z" fill="#DAF3EC"/>
<path d="M64.4453 45C65.4453 48.5 59.1021 49.5 57.4453 49.5C55.7884 49.5 50.9453 48 50.4453 45.5C51.4453 40.5 55.7884 39.5 57.4453 39.5C59.1021 39.5 63.9453 41 64.4453 45Z" fill="#DAF3EC"/>
<path d="M57.5 49.5C63.0228 49.5 67.5 45.0228 67.5 39.5C67.5 33.9772 63.0228 29.5 57.5 29.5C51.9772 29.5 47.5 33.9772 47.5 39.5C47.5 45.0228 51.9772 49.5 57.5 49.5Z" stroke="black"/>
<path d="M64.5 46.5C64.5 45.9851 64.4444 45.4832 64.3389 45C63.6522 41.8548 60.8511 39.5 57.5 39.5C54.2532 39.5 51.5227 41.7105 50.7313 44.7086C50.5804 45.2804 50.5 45.8808 50.5 46.5" stroke="black"/>
<path d="M57.5 39.5C59.1569 39.5 60.5 38.1569 60.5 36.5C60.5 34.8431 59.1569 33.5 57.5 33.5C55.8431 33.5 54.5 34.8431 54.5 36.5C54.5 38.1569 55.8431 39.5 57.5 39.5Z" stroke="black"/>
<path d="M21.5 48.4991H9.5V44.5L10 41.5L11.5 38.9991C12.5 38.3325 15.3 37.2991 18.5 38.4991C21.7 39.6991 21.8333 45.6658 21.5 48.4991Z" fill="#DAF3EC" stroke="#DAF3EC"/>
<path d="M3 23H28V26H3V23Z" fill="#DAF3EC" stroke="#DAF3EC"/>
<path d="M4 49H27V51H4V49Z" fill="#DAF3EC" stroke="#DAF3EC"/>
<path d="M15.5 37.5V48.5" stroke="black"/>
<path d="M3.5 51.5V48.5H27.5V51.5H3.5Z" stroke="black" stroke-linecap="round" stroke-linejoin="round"/>
<path d="M5.5 48.5V26.5M25.5 48.5V26.5M2.5 26.5H28.5V22.5H2.5V26.5Z" stroke="black" stroke-linecap="round" stroke-linejoin="round"/>
<path d="M5.5 34.5H25" stroke="black"/>
<path d="M8.5 30.5H22.5" stroke="black" stroke-linecap="round" stroke-linejoin="round"/>
<path d="M21.5 48.5V43.5C21.5 40.1863 18.8137 37.5 15.5 37.5C12.1863 37.5 9.5 40.1863 9.5 43.5V48.5" stroke="black"/>
<path d="M17.999 21.6846C22.572 16.6564 29.1669 13.5 36.499 13.5C47.3033 13.5 56.5068 20.3538 59.999 29.9507M15.1406 51.5C19.5298 58.6959 27.4534 63.5 36.499 63.5C46.359 63.5 54.8858 57.7919 58.9552 49.5" stroke="black" stroke-dasharray="2 2"/>
<path d="M12.5 44.5V43.5" stroke="black" stroke-linecap="round"/>
<path d="M18.5 44.5V43.5" stroke="black" stroke-linecap="round"/>
</svg>
