<svg width="40" height="40" viewBox="0 0 40 40" fill="none" xmlns="http://www.w3.org/2000/svg">
<path d="M23.75 13.2468C23.75 12.6945 24.1977 12.2468 24.75 12.2468H33.2514C33.8036 12.2468 34.2513 12.6945 34.2514 13.2467L34.2521 38.2466C34.2522 38.7989 33.8044 39.2466 33.2521 39.2466H24.7508C24.1985 39.2466 23.7508 38.7989 23.7508 38.2467L23.75 13.2468Z" stroke="black" stroke-width="1.5"/>
<path d="M25.75 8.75128C25.75 8.199 26.1977 7.75128 26.75 7.75128H31.2513C31.8036 7.75128 32.2513 8.199 32.2513 8.75128V12.2466H25.75V8.75128Z" stroke="black" stroke-width="1.5"/>
<path d="M5.75 28.7513C5.75 28.199 6.19772 27.7513 6.75 27.7513H15.2513C15.8036 27.7513 16.2513 28.199 16.2513 28.7513V38.2466C16.2513 38.7989 15.8036 39.2466 15.2513 39.2466H6.75C6.19772 39.2466 5.75 38.7989 5.75 38.2466V28.7513Z" stroke="black" stroke-width="1.5"/>
<path d="M7.75 24.7487C7.75 24.1965 8.19772 23.7487 8.75 23.7487H13.2513C13.8036 23.7487 14.2513 24.1965 14.2513 24.7487V27.7454H7.75V24.7487Z" stroke="black" stroke-width="1.5"/>
<path d="M11 23.4013V0.752151" stroke="black" stroke-width="1.5" stroke-linecap="round"/>
<path d="M9 2.75394H13" stroke="black" stroke-width="1.5" stroke-linecap="round"/>
<path d="M8 5.75394H14" stroke="black" stroke-width="1.5" stroke-linecap="round"/>
<path d="M8 8.75397H14" stroke="black" stroke-width="1.5" stroke-linecap="round"/>
<path d="M9 11.7539H13" stroke="black" stroke-width="1.5" stroke-linecap="round"/>
</svg>
