<svg width="40" height="40" viewBox="0 0 40 40" fill="none" xmlns="http://www.w3.org/2000/svg">
<path d="M1.35305 13.3643L10.8793 7.86435M1.35305 13.3643L1.12213 9.51717C1.09944 9.13908 1.29231 8.78061 1.62034 8.59123L6.61205 5.70926C6.94007 5.51988 7.34695 5.53208 7.66304 5.74078L10.8793 7.86435M1.35305 13.3643L9.88895 36.149M10.8793 7.86435C17.1137 15.5384 20.1091 18.9749 26.3434 26.649M26.3434 26.649L27.8434 29.247C28.1196 29.7253 27.9557 30.3369 27.4774 30.6131L12.755 39.1131C12.2767 39.3892 11.6651 39.2253 11.389 38.747L9.88895 36.149M26.3434 26.649L9.88895 36.149M2.38414 8.15025L5.84824 6.15024L4.34824 3.55217C4.0721 3.07388 3.46051 2.91 2.98222 3.18614L1.25017 4.18614C0.771874 4.46229 0.607999 5.07388 0.884142 5.55217L2.38414 8.15025Z" stroke="black" stroke-width="1.5" stroke-linecap="round"/>
<path d="M25.5 3.5L36.5 14.5" stroke="black" stroke-width="1.5" stroke-linecap="round"/>
<rect x="22.75" y="0.748077" width="16.5038" height="16.5038" rx="8.25192" stroke="black" stroke-width="1.5"/>
</svg>
