<svg width="25" height="24" viewBox="0 0 25 24" fill="none" xmlns="http://www.w3.org/2000/svg">
<path d="M12.2692 2.55427C12.3547 2.34907 12.6453 2.34907 12.7308 2.55427L15.2225 8.53835C15.2585 8.62487 15.3399 8.68397 15.4333 8.69145L21.9003 9.20933C22.122 9.22709 22.2119 9.50386 22.0429 9.64849L17.1161 13.8641C17.0448 13.9251 17.0137 14.0209 17.0355 14.1121L18.5408 20.4156C18.5924 20.6318 18.3572 20.8029 18.1674 20.687L12.6302 17.3087C12.5503 17.2599 12.4497 17.2599 12.3698 17.3087L6.83259 20.687C6.64279 20.8029 6.40758 20.6318 6.45922 20.4156L7.9645 14.1121C7.98629 14.0209 7.95516 13.9251 7.88387 13.8641L2.95711 9.64849C2.78809 9.50386 2.87795 9.22709 3.09969 9.20933L9.56669 8.69145C9.66011 8.68397 9.7415 8.62487 9.77752 8.53835L12.2692 2.55427Z" fill="url(#paint0_linear_3830_69413)"/>
<defs>
<linearGradient id="paint0_linear_3830_69413" x1="2.5" y1="11" x2="22.5" y2="11" gradientUnits="userSpaceOnUse">
<stop stop-color="#FFA800"/>
<stop offset="0.498242" stop-color="#FFA800"/>
<stop offset="0.503125" stop-color="#D5D5D5"/>
<stop offset="1" stop-color="#D5D5D5"/>
</linearGradient>
</defs>
</svg>
