<svg width="25" height="25" viewBox="0 0 25 25" fill="none" xmlns="http://www.w3.org/2000/svg">
<path d="M12.2692 3.05427C12.3547 2.84907 12.6453 2.84907 12.7308 3.05427L15.2225 9.03835C15.2585 9.12487 15.3399 9.18397 15.4333 9.19145L21.9003 9.70933C22.122 9.72709 22.2119 10.0039 22.0429 10.1485L17.1161 14.3641C17.0448 14.4251 17.0137 14.5209 17.0355 14.6121L18.5408 20.9156C18.5924 21.1318 18.3572 21.3029 18.1674 21.187L12.6302 17.8087C12.5503 17.7599 12.4497 17.7599 12.3698 17.8087L6.83259 21.187C6.64279 21.3029 6.40758 21.1318 6.45922 20.9156L7.9645 14.6121C7.98629 14.5209 7.95516 14.4251 7.88387 14.3641L2.95711 10.1485C2.78809 10.0039 2.87795 9.72709 3.09969 9.70933L9.56669 9.19145C9.66011 9.18397 9.7415 9.12487 9.77752 9.03835L12.2692 3.05427Z" fill="url(#paint0_linear_3830_69485)"/>
<defs>
<linearGradient id="paint0_linear_3830_69485" x1="2.16406" y1="11.1641" x2="23.1641" y2="11.1641" gradientUnits="userSpaceOnUse">
<stop stop-color="#D7DAE1"/>
<stop offset="1" stop-color="#D7DAE1"/>
</linearGradient>
</defs>
</svg>
