<svg width="24" height="24" viewBox="0 0 24 24" fill="none" xmlns="http://www.w3.org/2000/svg">
<path d="M11.7692 2.55427C11.8547 2.34907 12.1453 2.34907 12.2308 2.55427L14.7225 8.53835C14.7585 8.62487 14.8399 8.68397 14.9333 8.69145L21.4003 9.20933C21.622 9.22709 21.7119 9.50386 21.5429 9.64849L16.6161 13.8641C16.5448 13.9251 16.5137 14.0209 16.5355 14.1121L18.0408 20.4156C18.0924 20.6318 17.8572 20.8029 17.6674 20.687L12.1302 17.3087C12.0503 17.2599 11.9497 17.2599 11.8698 17.3087L6.33259 20.687C6.14279 20.8029 5.90758 20.6318 5.95922 20.4156L7.4645 14.1121C7.48629 14.0209 7.45516 13.9251 7.38387 13.8641L2.45711 9.64849C2.28809 9.50386 2.37795 9.22709 2.59969 9.20933L9.06669 8.69145C9.16011 8.68397 9.2415 8.62487 9.27752 8.53835L11.7692 2.55427Z" fill="#FFA800"/>
</svg>
