<svg width="40" height="40" viewBox="0 0 40 40" fill="none" xmlns="http://www.w3.org/2000/svg">
<path d="M26.2736 1.51962C26.2139 3.15089 25.6196 6.41342 23.7199 6.41342C22.595 6.41342 21.2015 5.76788 20.0246 5.05019M18.0593 3.65192C18.506 4.02734 19.2139 4.55588 20.0246 5.05019M20.0246 5.05019C19.4743 6.44845 19.6673 9.8672 24.8409 12.3561C27.3927 13.8592 28.8259 15.3274 28.1967 17.1801C27.8358 18.2429 27.0245 18.9721 26.0492 19.3413M23.7199 19.5572C24.5086 19.6913 25.3242 19.6157 26.0492 19.3413M26.0492 19.3413C30.319 21.3009 37.7192 27.1777 33.1609 35.008" stroke="black" stroke-width="1.5" stroke-linecap="round"/>
<path d="M13.9284 1.48462C13.2889 2.70803 11.7159 5.56036 10.5397 7.1824C9.06947 9.20996 8.54512 9.979 7.84598 14.2787C7.14685 18.5783 6.20303 23.7869 5.74859 26.1989C6.27294 28.6109 8.54512 31.5472 9.69868 32.7008C10.7208 33.7229 13.6091 37.3796 20.8438 38.224" stroke="black" stroke-width="1.5" stroke-linecap="round"/>
<path d="M15.2457 9.979C15.8754 10.1072 16.9179 11.1395 16.0514 14.2437C14.9683 18.1239 12.7291 25.3948 12.764 26.5484C13.8127 27.4922 16.8889 30.2888 18.427 32.0715C19.9651 33.8543 24.1245 35.4274 26.7812 35.8119" stroke="black" stroke-width="1.5" stroke-linecap="round"/>
</svg>
