<svg width="56" height="56" viewBox="0 0 56 56" fill="none" xmlns="http://www.w3.org/2000/svg">
<circle opacity="0.2" cx="23.625" cy="31.5" r="14" fill="#81C7B5"/>
<path d="M5.00078 38.7595C6.66755 37.0927 9.59963 33.2771 10.5145 29.1857C10.9724 27.1377 10.9988 25.0063 11.7727 23.0556C13.2663 19.2906 15.7323 13.6914 14.7977 10.2779C14.7118 6.89211 19.504 9.04451 19.8394 13.3397C20.0202 14.6684 20.2523 18.3446 19.9411 19.9535C19.8736 20.3024 19.9358 20.6949 20.1859 20.9474C22.2829 23.0634 23.7582 24.8457 22.9108 28.9508" stroke="black" stroke-width="1.5" stroke-linecap="round"/>
<path d="M21.1419 20.7966L36.3241 5.61436C38.9575 3.35279 42.5463 6.94161 40.2847 9.57495M40.2847 9.57495L30.3833 19.4764M40.2847 9.57495L41.8723 7.86204C44.5339 5.60138 48.1333 9.21351 45.8634 11.8671L45.5655 12.2153M45.5655 12.2153L34.3438 23.437M45.5655 12.2153C48.1981 9.97275 51.7687 13.5433 49.5261 16.1759L45.7958 19.9062M45.7958 19.9062L38.3044 27.3976M45.7958 19.9062C48.4286 17.6587 52.0039 21.234 49.7564 23.8668L33.3537 40.2695C32.2535 41.5897 29.2611 45.4183 23.4522 47.5306C22.1368 48.0089 18.8815 49.0523 17.9375 49.875" stroke="black" stroke-width="1.5" stroke-linecap="round"/>
</svg>
