<svg width="64" height="64" viewBox="0 0 64 64" fill="none" xmlns="http://www.w3.org/2000/svg">
<ellipse opacity="0.2" cx="31.5788" cy="39.9176" rx="22.3581" ry="11.2916" transform="rotate(-15.6914 31.5788 39.9176)" fill="#81C7B5"/>
<path d="M38.3074 21.8122C37.3991 31.0505 21.5758 31.9563 13.1914 36.4115C7.96951 39.1863 7.91959 48.3367 8.59322 55.057C8.70219 56.144 7.31792 56.6185 6.87575 55.6194C5.1558 51.7334 3.38267 45.57 4.20939 37.0873C9.06274 -12.711 74.0268 0.521465 57.2343 54.0178C56.893 55.105 55.2895 54.8065 55.3052 53.6671C55.3525 50.2448 55.3167 45.8329 55.0763 40.9061C54.7821 34.8756 52.9996 29.9783 47.6201 28.9061" stroke="black" stroke-width="1.5" stroke-linecap="round"/>
<path d="M16 55.1429C16.9722 54.6667 19.209 54 20.5833 54C23.5 54 24.75 55.4286 26 56" stroke="black" stroke-width="1.5" stroke-linecap="round"/>
<path d="M48 55.1429C47.0278 54.6667 44.791 54 43.4167 54C40.5 54 39.25 55.4286 38 56" stroke="black" stroke-width="1.5" stroke-linecap="round"/>
</svg>
