<svg width="16" height="16" viewBox="0 0 16 16" fill="none" xmlns="http://www.w3.org/2000/svg">
<g clip-path="url(#clip0_953_8951)">
<path d="M8 15.25C12.0041 15.25 15.25 12.0041 15.25 8C15.25 3.99594 12.0041 0.75 8 0.75C3.99594 0.75 0.75 3.99594 0.75 8C0.75 12.0041 3.99594 15.25 8 15.25Z" stroke="black" stroke-width="1.5" stroke-linecap="round" stroke-linejoin="round"/>
<path d="M1 8L15 8" stroke="black" stroke-width="1.5" stroke-linecap="round" stroke-linejoin="round"/>
<path d="M7.99997 0.75C9.94292 2.73531 11.0471 5.31172 11.1071 8C11.0471 10.6883 9.94292 13.2647 7.99997 15.25C6.05701 13.2647 4.95283 10.6883 4.89282 8C4.95283 5.31172 6.05701 2.73531 7.99997 0.75Z" stroke="black" stroke-width="1.5" stroke-linecap="round" stroke-linejoin="round"/>
</g>
<defs>
<clipPath id="clip0_953_8951">
<rect width="16" height="16" fill="white"/>
</clipPath>
</defs>
</svg>
