<svg width="41" height="40" viewBox="0 0 41 40" fill="none" xmlns="http://www.w3.org/2000/svg">
<path d="M23 35H15C12.8333 35 6.5 33.4 6.5 27C6.5 20.6 11.8333 19 14.5 19C17.3333 19 23 20.4 23 26" stroke="black" stroke-width="1.5" stroke-linecap="round"/>
<path d="M15.5 19C16.3333 17 19.3 13 24.5 13C31 13 33.5 19.5 33.5 23.5C37 23.5 39.5 26 39.5 29.5C39.5 33 37 35 33.5 35C30.7 35 25 35 22.5 35" stroke="black" stroke-width="1.5" stroke-linecap="round"/>
<path d="M23.8203 13.2017C22.9871 9.09283 19.3547 6 15 6C10.0294 6 6 10.0294 6 15C6 17.4153 6.95145 19.6084 8.5 21.225" stroke="black" stroke-width="1.5"/>
<path d="M1 15H3.625" stroke="black" stroke-width="1.5" stroke-linecap="round"/>
<path d="M4.9375 4.9375L6.6875 6.6875" stroke="black" stroke-width="1.5" stroke-linecap="round"/>
<path d="M25.0631 4.93451L23.3125 6.68509" stroke="black" stroke-width="1.5" stroke-linecap="round"/>
<path d="M15 3L15 1" stroke="black" stroke-width="1.5" stroke-linecap="round"/>
</svg>
