<svg width="40" height="40" viewBox="0 0 40 40" fill="none" xmlns="http://www.w3.org/2000/svg">
<path d="M34.2517 14.7438C34.2517 25.6262 20.0009 34.9541 20.0009 34.9541C20.0009 34.9541 5.75 25.6262 5.75 14.7438C5.75 11.0329 7.25142 7.47406 9.92398 4.8501C12.5965 2.22614 16.2213 0.752014 20.0009 0.752014C23.7804 0.752014 27.4052 2.22614 30.0777 4.8501C32.7503 7.47406 34.2517 11.0329 34.2517 14.7438Z" stroke="black" stroke-width="1.5" stroke-linecap="round" stroke-linejoin="round"/>
<path d="M29.0797 34.5009C31.4984 35.0019 33 35.7014 33 36.4753C33 37.999 27.1797 39.2342 20 39.2342C12.8203 39.2342 7 37.999 7 36.4753C7 35.7014 8.50165 35.0019 10.9203 34.5009" stroke="black" stroke-width="1.5" stroke-linecap="round"/>
<circle cx="20" cy="15" r="5.25" stroke="black" stroke-width="1.5"/>
</svg>
