<svg width="64" height="64" viewBox="0 0 64 64" fill="none" xmlns="http://www.w3.org/2000/svg">
<circle opacity="0.2" cx="20" cy="20" r="20" fill="#81C7B5"/>
<path d="M1.75 18.7555C1.75 16.5442 3.54423 14.7525 5.75552 14.7555L32.2666 14.7921C38.8875 14.8013 44.25 20.1712 44.25 26.7921V45.25C44.25 47.4591 42.4591 49.25 40.25 49.25H13.75C7.12258 49.25 1.75 43.8774 1.75 37.25V18.7555Z" stroke="black" stroke-width="1.5"/>
<path d="M47.75 27.3972C47.75 26.2955 48.2044 25.2425 49.006 24.4868L58.878 15.1792C60.1539 13.9763 62.25 14.8808 62.25 16.6344V47.3656C62.25 49.1192 60.1539 50.0238 58.878 48.8208L49.006 39.5133C48.2044 38.7575 47.75 37.7046 47.75 36.6029V27.3972Z" stroke="black" stroke-width="1.5"/>
</svg>
