<svg width="64" height="64" viewBox="0 0 64 64" fill="none" xmlns="http://www.w3.org/2000/svg">
<circle opacity="0.2" cx="44" cy="20" r="20" fill="#81C7B5"/>
<circle cx="31.9974" cy="26" r="19.6224" stroke="black" stroke-width="1.5"/>
<path d="M42.8577 46.6397L48.961 57.4623C49.0714 57.6579 49.3638 57.6201 49.4207 57.4028L51.469 49.5766C51.5042 49.4419 51.6427 49.3619 51.777 49.3988L59.4214 51.4958C59.6357 51.5546 59.8144 51.3254 59.7053 51.1319L52.1534 37.7408" stroke="black" stroke-width="1.5" stroke-linecap="round"/>
<path d="M21.0632 46.7799L15.039 57.4623C14.9286 57.6579 14.6362 57.6201 14.5793 57.4027L12.531 49.5766C12.4958 49.4419 12.3573 49.3619 12.223 49.3988L4.57863 51.4958C4.36432 51.5545 4.18557 51.3254 4.29473 51.1319L11.7701 37.8765" stroke="black" stroke-width="1.5" stroke-linecap="round"/>
</svg>
