<svg width="64" height="64" viewBox="0 0 64 64" fill="none" xmlns="http://www.w3.org/2000/svg">
<circle opacity="0.2" cx="44" cy="20" r="20" fill="#81C7B5"/>
<path d="M25.7264 26.6749L32.2118 5.62051C32.2698 5.43235 32.5362 5.43235 32.5941 5.62051L39.0799 26.6761C39.1003 26.7422 39.1534 26.7931 39.2203 26.8107L58.3888 31.8397C58.5777 31.8892 58.5909 32.1524 58.4079 32.2205L39.2014 39.3737C39.1453 39.3946 39.1014 39.4396 39.082 39.4963L32.5922 58.4475C32.5305 58.6277 32.2755 58.6277 32.2138 58.4475L25.7245 39.4978C25.7048 39.4403 25.6599 39.3948 25.6027 39.3743L5.61889 32.2215C5.43285 32.1549 5.44579 31.8876 5.63739 31.8393L25.5842 26.8099C25.6519 26.7929 25.7058 26.7417 25.7264 26.6749Z" stroke="black" stroke-width="1.5"/>
<path d="M8 1V15M1 8H15" stroke="black" stroke-width="1.5" stroke-linecap="round"/>
<path d="M54 49V59M49 54H59" stroke="black" stroke-width="1.5" stroke-linecap="round"/>
</svg>
