<svg width="64" height="64" viewBox="0 0 64 64" fill="none" xmlns="http://www.w3.org/2000/svg">
<circle opacity="0.2" cx="20" cy="20" r="20" fill="#81C7B5"/>
<path d="M32 57.2544L31.5782 57.8745C31.8328 58.0477 32.1672 58.0477 32.4218 57.8745L32 57.2544ZM46.3189 12.8053L45.7833 13.3303V13.3303L46.3189 12.8053ZM17.6811 12.8053L18.2167 13.3303H18.2167L17.6811 12.8053ZM51.5 27.4135C51.5 35.1517 46.607 42.4308 41.5754 47.8492C39.0741 50.5428 36.5703 52.7426 34.6912 54.2692C33.7522 55.0321 32.9706 55.6256 32.4252 56.0274C32.1526 56.2283 31.9391 56.3812 31.7946 56.4833C31.7224 56.5343 31.6674 56.5727 31.6309 56.5979C31.6127 56.6106 31.5991 56.6199 31.5902 56.626C31.5858 56.629 31.5826 56.6312 31.5806 56.6326C31.5796 56.6333 31.5789 56.6338 31.5785 56.6341C31.5783 56.6342 31.5782 56.6342 31.5781 56.6343C31.5781 56.6343 31.5782 56.6342 32 57.2544C32.4218 57.8745 32.422 57.8744 32.4223 57.8742C32.4226 57.874 32.423 57.8738 32.4234 57.8735C32.4242 57.8729 32.4254 57.8721 32.4268 57.8711C32.4297 57.8692 32.4338 57.8663 32.4391 57.8627C32.4498 57.8554 32.4652 57.8448 32.4853 57.8309C32.5254 57.803 32.5841 57.7621 32.6602 57.7083C32.8124 57.6008 33.0339 57.4421 33.315 57.235C33.8771 56.8209 34.6775 56.2129 35.637 55.4335C37.5547 53.8755 40.1134 51.6279 42.6746 48.8699C47.768 43.3848 53 35.7434 53 27.4135H51.5ZM45.7833 13.3303C49.442 17.0629 51.5 22.1285 51.5 27.4135H53C53 21.7402 50.7911 16.2964 46.8545 12.2803L45.7833 13.3303ZM32 7.50439C37.1668 7.50439 42.1251 9.59823 45.7833 13.3303L46.8545 12.2803C42.9175 8.26371 37.5744 6.00439 32 6.00439V7.50439ZM18.2167 13.3303C21.8749 9.59823 26.8332 7.50439 32 7.50439V6.00439C26.4256 6.00439 21.0825 8.26371 17.1455 12.2803L18.2167 13.3303ZM12.5 27.4135C12.5 22.1285 14.558 17.0629 18.2167 13.3303L17.1455 12.2803C13.2089 16.2964 11 21.7402 11 27.4135H12.5ZM32 57.2544C32.4218 56.6342 32.4219 56.6343 32.4219 56.6343C32.4218 56.6342 32.4217 56.6342 32.4215 56.6341C32.4211 56.6338 32.4204 56.6333 32.4194 56.6326C32.4174 56.6312 32.4142 56.629 32.4098 56.626C32.4009 56.6199 32.3873 56.6106 32.3691 56.5979C32.3326 56.5727 32.2776 56.5343 32.2054 56.4833C32.0609 56.3812 31.8474 56.2283 31.5748 56.0274C31.0294 55.6256 30.2478 55.0321 29.3088 54.2692C27.4297 52.7426 24.9259 50.5428 22.4246 47.8492C17.393 42.4308 12.5 35.1517 12.5 27.4135H11C11 35.7434 16.232 43.3848 21.3254 48.8699C23.8866 51.6279 26.4453 53.8755 28.363 55.4335C29.3225 56.2129 30.1229 56.8209 30.685 57.235C30.9661 57.4421 31.1876 57.6008 31.3398 57.7083C31.4159 57.7621 31.4746 57.803 31.5147 57.8309C31.5348 57.8448 31.5502 57.8554 31.5609 57.8627C31.5662 57.8663 31.5703 57.8692 31.5732 57.8711C31.5746 57.8721 31.5758 57.8729 31.5766 57.8735C31.577 57.8738 31.5774 57.874 31.5777 57.8742C31.578 57.8744 31.5782 57.8745 32 57.2544ZM32 33.9976C35.8659 33.9976 39 30.8642 39 26.9988H37.5C37.5 30.0355 35.0377 32.4976 32 32.4976V33.9976ZM25 26.9988C25 30.8642 28.1341 33.9976 32 33.9976V32.4976C28.9623 32.4976 26.5 30.0355 26.5 26.9988H25ZM32 20C28.1341 20 25 23.1333 25 26.9988H26.5C26.5 23.962 28.9623 21.5 32 21.5V20ZM39 26.9988C39 23.1333 35.8659 20 32 20V21.5C35.0377 21.5 37.5 23.962 37.5 26.9988H39Z" fill="black"/>
</svg>
