<svg width="64" height="64" viewBox="0 0 64 64" fill="none" xmlns="http://www.w3.org/2000/svg">
<circle opacity="0.2" cx="20" cy="20" r="20" fill="#81C7B5"/>
<path d="M49.4889 26.7051L28.321 56.7499C28.1697 56.9647 27.832 56.8307 27.8691 56.5706L30.5257 37.9743C30.5472 37.8237 30.4304 37.6889 30.2782 37.6889H14.6929C14.4903 37.6889 14.3718 37.4606 14.4885 37.2949L35.6565 7.2501C35.8078 7.03535 36.1455 7.16939 36.1083 7.42945L33.4517 26.0258C33.4302 26.1764 33.5471 26.3111 33.6992 26.3111H49.2845C49.4871 26.3111 49.6056 26.5395 49.4889 26.7051Z" stroke="black" stroke-width="1.5"/>
<path d="M4.97656 32H10.381M59.021 32H53.6166" stroke="black" stroke-width="1.5" stroke-linecap="round"/>
<path d="M11.2109 11.2233L14.7797 14.7921M52.2522 52.2646L48.6834 48.6958" stroke="black" stroke-width="1.5" stroke-linecap="round"/>
<path d="M11.2113 52.2656L14.7883 48.6907M52.2591 11.2171L48.6891 14.7871" stroke="black" stroke-width="1.5" stroke-linecap="round"/>
</svg>
