<svg width="40" height="40" viewBox="0 0 40 40" fill="none" xmlns="http://www.w3.org/2000/svg">
<path d="M5 13H18" stroke="black" stroke-width="1.5" stroke-linecap="round"/>
<path d="M12 27H26" stroke="black" stroke-width="1.5" stroke-linecap="round"/>
<path d="M5 20H29.5" stroke="black" stroke-width="1.5" stroke-linecap="round"/>
<path d="M23 31C23 33.2091 24.7909 35 27 35C29.2091 35 31 33.2091 31 31C31 28.7909 29.2091 27 27 27H25" stroke="black" stroke-width="1.5" stroke-linecap="round"/>
<path d="M27 16C27 13.7909 28.7909 12 31 12C33.2091 12 35 13.7909 35 16C35 18.2091 33.2091 20 31 20H29" stroke="black" stroke-width="1.5" stroke-linecap="round"/>
<path d="M15 9C15 6.79086 16.7909 5 19 5C21.2091 5 23 6.79086 23 9C23 11.2091 21.2091 13 19 13H17" stroke="black" stroke-width="1.5" stroke-linecap="round"/>
</svg>
