<svg width="40" height="40" viewBox="0 0 40 40" fill="none" xmlns="http://www.w3.org/2000/svg">
<path d="M20 2.00006V9.50006M20 9.50006L15.5 5.00006M20 9.50006V13.6251" stroke="black" stroke-width="1.5" stroke-linecap="round"/>
<path d="M20 38.0001L20 30.5001M20 30.5001L15.5 35.0001M20 30.5001L20 26.3751" stroke="black" stroke-width="1.5" stroke-linecap="round"/>
<path d="M4.41406 29L10.9093 25.25M10.9093 25.25L4.76214 23.6029M10.9093 25.25L9.26214 31.3971M10.9093 25.25L14.4816 23.1875" stroke="black" stroke-width="1.5" stroke-linecap="round"/>
<path d="M4.41406 10.9999L10.9093 14.7499M10.9093 14.7499L9.26214 8.60284M10.9093 14.7499L4.76214 16.3971M10.9093 14.7499L14.4816 16.8124" stroke="black" stroke-width="1.5" stroke-linecap="round"/>
<path d="M25 16H34H36" stroke="black" stroke-width="1.5" stroke-linecap="round"/>
<path d="M25 24H31H33" stroke="black" stroke-width="1.5" stroke-linecap="round"/>
<path d="M25 20H37" stroke="black" stroke-width="1.5" stroke-linecap="round"/>
<path d="M34.8302 15.25C34.416 15.25 34.0802 15.5858 34.0802 16C34.0802 16.4142 34.416 16.75 34.8302 16.75V15.25ZM38.2469 13.5C38.2469 14.4665 37.4634 15.25 36.4969 15.25V16.75C38.2918 16.75 39.7469 15.2949 39.7469 13.5H38.2469ZM36.4969 11.75C37.4634 11.75 38.2469 12.5335 38.2469 13.5H39.7469C39.7469 11.7051 38.2918 10.25 36.4969 10.25V11.75ZM36.4969 15.25H34.8302V16.75H36.4969V15.25ZM34.7819 13.1492C34.944 12.3507 35.6511 11.75 36.4969 11.75V10.25C34.9237 10.25 33.6131 11.367 33.3119 12.8508L34.7819 13.1492Z" fill="black"/>
<path d="M31.8302 24.75C31.416 24.75 31.0802 24.4142 31.0802 24C31.0802 23.5858 31.416 23.25 31.8302 23.25V24.75ZM35.2469 26.5C35.2469 25.5335 34.4634 24.75 33.4969 24.75V23.25C35.2918 23.25 36.7469 24.7051 36.7469 26.5H35.2469ZM33.4969 28.25C34.4634 28.25 35.2469 27.4665 35.2469 26.5H36.7469C36.7469 28.2949 35.2918 29.75 33.4969 29.75V28.25ZM33.4969 24.75H31.8302V23.25H33.4969V24.75ZM31.7819 26.8508C31.944 27.6493 32.6511 28.25 33.4969 28.25V29.75C31.9237 29.75 30.6131 28.633 30.3119 27.1492L31.7819 26.8508Z" fill="black"/>
</svg>
