<svg width="40" height="40" viewBox="0 0 40 40" fill="none" xmlns="http://www.w3.org/2000/svg">
<path d="M4.80145 11.7386L1.76245 34.7049C1.63108 35.5636 2.56676 36.1712 3.27811 35.6892L12.4761 29.4561C12.9422 29.1403 13.2536 28.6426 13.3337 28.0854L15.6861 11.7386M4.80145 11.7386L17.166 4.0515C17.4829 3.85444 17.8487 3.75 18.2219 3.75H33.3809C34.3495 3.75 35.1738 4.46876 35.3226 5.44158L38.2429 27.737C38.3411 28.4869 38.0079 29.2281 37.3818 29.6524L27.8938 36.0819C27.2968 36.4865 26.4884 36.1249 26.3781 35.4042L23.2751 11.7386M4.80145 11.7386H15.6861M23.2751 11.7386L34.4959 4.1031M23.2751 11.7386H15.6861" stroke="black" stroke-width="1.5" stroke-linecap="round"/>
</svg>
