<svg width="40" height="40" viewBox="0 0 40 40" fill="none" xmlns="http://www.w3.org/2000/svg">
<path d="M12 6.16335C14.3534 4.78747 17.0857 4 20 4C28.8366 4 36 11.2399 36 20.1707C36 23.8682 34.7721 27.276 32.7059 30" stroke="black" stroke-width="1.5" stroke-linecap="round"/>
<path d="M28 33.8099C25.6466 35.2028 22.9143 36 20 36C11.1634 36 4 28.6707 4 19.6296C4 17.3303 4.46331 15.1417 5.29963 13.1563C5.77248 12.0337 6.36457 10.976 7.05957 10" stroke="black" stroke-width="1.5" stroke-linecap="round"/>
<path d="M30.7656 23.8662L32.5058 30.3607L39.0003 28.6205" stroke="black" stroke-width="1.5" stroke-linecap="round"/>
<path d="M9.24219 16.1338L7.50199 9.6393L1.0075 11.3795" stroke="black" stroke-width="1.5" stroke-linecap="round"/>
</svg>
