<svg width="40" height="40" viewBox="0 0 40 40" fill="none" xmlns="http://www.w3.org/2000/svg">
<g clip-path="url(#clip0_724_2)">
<path d="M27.1875 34.5312C31.9337 34.5312 35.7812 30.6837 35.7812 25.9375C35.7812 21.1913 31.9337 17.3438 27.1875 17.3438C22.4413 17.3438 18.5938 21.1913 18.5938 25.9375C18.5938 30.6837 22.4413 34.5312 27.1875 34.5312Z" stroke="black" stroke-width="1.5"/>
<path d="M39.5322 13.5938H33.4597M39.5322 13.5938V19.6695M39.5322 13.5938L33.3545 19.7714" stroke="black" stroke-width="1.5" stroke-linecap="round"/>
<path d="M9.0625 22.6562C13.8087 22.6562 17.6562 18.8087 17.6562 14.0625C17.6562 9.3163 13.8087 5.46875 9.0625 5.46875C4.3163 5.46875 0.46875 9.3163 0.46875 14.0625C0.46875 18.8087 4.3163 22.6562 9.0625 22.6562Z" stroke="black" stroke-width="1.5"/>
<path d="M9.0625 22.6782V31.406" stroke="black" stroke-width="1.5" stroke-linecap="round"/>
<path d="M5.93262 26.4082H12.5057" stroke="black" stroke-width="1.5" stroke-linecap="round"/>
</g>
<defs>
<clipPath id="clip0_724_2">
<rect width="40" height="40" fill="white"/>
</clipPath>
</defs>
</svg>
