<svg width="40" height="40" viewBox="0 0 40 40" fill="none" xmlns="http://www.w3.org/2000/svg">
<path d="M23.077 13.8175C23.4736 15.1099 25.886 16.51 27.0426 17.0485C28.6951 17.7665 32 18.7717 32 17.0485C32 14.8945 28.5297 12.7404 26.5469 12.2019C24.5641 11.6634 22.5813 12.2019 23.077 13.8175Z" stroke="black" stroke-width="1.5" stroke-linecap="round"/>
<path d="M11.6063 13.8312C12.1932 13.8362 12.7591 13.8107 13.2184 13.7725C14.5396 13.6325 17.3589 13.1036 18.0659 12.1074C18.9497 10.8623 17.02 9.85121 14.8432 9.76194C14.5377 9.74941 14.1946 9.75599 13.8291 9.78164" stroke="black" stroke-width="1.5" stroke-linecap="round"/>
<path d="M14.2666 24C11.3213 24 9.53312 25.5594 9.00718 26.3391C8.96682 26.397 9.00718 28.0934 11.6369 27.5086C14.2666 26.9239 14.2666 27.5086 16.3703 28.6782C18.0533 29.6138 18.8247 28.2883 19 27.5086C18.6494 26.3391 17.2118 24 14.2666 24Z" stroke="black" stroke-width="1.5" stroke-linecap="round"/>
<path d="M24.3141 37.7528C22.7283 37.9278 20.0891 38.4118 18.4994 37.2275C16.3841 35.6516 14.2696 33.0252 11.0988 32.4999C9.01315 32.1544 7.39853 33.0252 4.75547 34.6011C3.17357 35.5471 2.30464 33.5505 3.69824 30.3988C6.34107 24.4456 12.267 12.3174 13.2126 10.438C14.7983 7.28629 20.0852 1.50822 24.8419 2.03351C29.5986 2.55879 37 6.23578 37 21.9943C37 25.6712 33.8361 32.0797 29.6041 34.6011" stroke="black" stroke-width="1.5" stroke-linecap="round"/>
</svg>
