<svg width="40" height="40" viewBox="0 0 40 40" fill="none" xmlns="http://www.w3.org/2000/svg">
<path d="M31.5368 21.5581L34.4102 25.1683C34.6942 25.5252 34.6652 26.0383 34.3427 26.3608L25.9641 34.7393C25.6417 35.0618 25.1285 35.0909 24.7717 34.8069L21.1615 31.9334M19.7071 33.388L32.9889 20.1062C33.9814 19.1137 33.874 17.4745 32.7604 16.6201L16.835 4.40006C13.1908 1.60374 8.03847 1.94144 4.79042 5.18949C1.54236 8.43755 1.20466 13.5899 4.00098 17.2341L16.221 33.1595C17.0755 34.2731 18.7146 34.3805 19.7071 33.388Z" stroke="black" stroke-width="1.5"/>
<circle cx="16.6569" cy="16.6569" r="4" transform="rotate(-45 16.6569 16.6569)" stroke="black" stroke-width="1.5"/>
<path d="M1 1L4.69517 4.68894" stroke="black" stroke-width="1.5" stroke-linecap="round"/>
<path d="M32.6172 36.1555C34.5698 36.1555 36.1527 34.5726 36.1527 32.62M32.6172 39.2491C36.3268 39.3688 39.366 36.3296 39.2463 32.62" stroke="black" stroke-width="1.5" stroke-linecap="round"/>
</svg>
