<svg width="40" height="40" viewBox="0 0 40 40" fill="none" xmlns="http://www.w3.org/2000/svg">
<path d="M25.5 3.5L36.5 14.5" stroke="black" stroke-width="1.5" stroke-linecap="round"/>
<rect x="22.75" y="0.748077" width="16.5038" height="16.5038" rx="8.25192" stroke="black" stroke-width="1.5"/>
<path d="M1 13.001L8 6.00102" stroke="black" stroke-width="1.5" stroke-linecap="round"/>
<path d="M3.00237 11.0001L6.00114 14.0001M5.99886 8.0001L9 11" stroke="black" stroke-width="1.5" stroke-linecap="round"/>
<path d="M5.21008 17.2068C4.81968 16.8164 4.81963 16.1834 5.20997 15.7928L10.7928 10.2073C11.1833 9.81665 11.8166 9.81657 12.2072 10.2072L29.7929 27.7929C30.1834 28.1834 30.1834 28.8166 29.7929 29.2071L24.2073 34.7927C23.8167 35.1833 23.1835 35.1832 22.793 34.7927L5.21008 17.2068Z" stroke="black" stroke-width="1.5"/>
<path d="M28.9999 30L30.2928 31.2929C30.6833 31.6834 30.6833 32.3166 30.2928 32.7071L27.7072 35.2928C27.3166 35.6834 26.6834 35.6833 26.2929 35.2928L25.0004 34" stroke="black" stroke-width="1.5"/>
<path d="M29 34L34 39" stroke="black" stroke-width="1.5" stroke-linecap="round"/>
</svg>
