<svg width="41" height="41" viewBox="0 0 41 41" fill="none" xmlns="http://www.w3.org/2000/svg">
<path d="M25.1549 20C25.2173 20.3237 25.25 20.658 25.25 21C25.25 23.8995 22.8995 26.25 20 26.25C17.1005 26.25 14.75 23.8995 14.75 21C14.75 18.1005 17.1005 15.75 20 15.75C20.342 15.75 20.6763 15.7827 21 15.8451" stroke="black" stroke-width="1.5" stroke-linecap="round"/>
<path d="M24.2284 9.5C22.9103 9.01516 21.4858 8.75046 19.9995 8.75046C13.2343 8.75046 7.75 14.2348 7.75 21C7.75 27.7652 13.2343 33.2495 19.9995 33.2495C26.7648 33.2495 32.2491 27.7652 32.2491 21C32.2491 19.5142 31.9845 18.0901 31.5 16.7724" stroke="black" stroke-width="1.5" stroke-linecap="round"/>
<path d="M26.6519 2.9309C24.5787 2.16736 22.3378 1.75046 19.9995 1.75046C9.36831 1.75046 0.75 10.3688 0.75 21C0.75 31.6312 9.36831 40.2495 19.9995 40.2495C30.6308 40.2495 39.2491 31.6312 39.2491 21C39.2491 18.6607 38.8318 16.4188 38.0676 14.3448" stroke="black" stroke-width="1.5" stroke-linecap="round"/>
<path d="M20 21L31.5521 9.44789" stroke="black" stroke-width="1.5" stroke-linecap="round"/>
<path d="M35.9606 4.90804L34.6455 1.83947C34.5758 1.67688 34.3639 1.6361 34.2389 1.7612L29.75 6.25172V11.25H34.75L39.2417 6.7612C39.3669 6.63613 39.3261 6.42419 39.1634 6.35455L36.092 5.03938C36.0329 5.0141 35.9859 4.96707 35.9606 4.90804Z" fill="white" stroke="black" stroke-width="1.5" stroke-linecap="round"/>
</svg>
