<svg width="40" height="40" viewBox="0 0 40 40" fill="none" xmlns="http://www.w3.org/2000/svg">
<path d="M4.75 17.7513C4.75 17.1991 5.19772 16.7513 5.75 16.7513H34.25C34.8023 16.7513 35.25 17.1991 35.25 17.7513V30.2539C35.25 32.463 33.4591 34.2539 31.25 34.2539H8.75C6.54086 34.2539 4.75 32.463 4.75 30.2539V17.7513Z" stroke="black" stroke-width="1.5"/>
<path d="M6.75 14.7513C6.75 13.6468 7.64543 12.7513 8.75 12.7513H31.25C32.3546 12.7513 33.25 13.6468 33.25 14.7513V16.7476H6.75V14.7513Z" stroke="black" stroke-width="1.5"/>
<path d="M9.29688 12.7393C9.42462 10.6413 10.1301 6.28381 11.8735 4.54041C13.3082 6.39017 14.2629 8.12059 18.41 8.09076C22.557 8.06092 26.6444 6.39017 28.9715 9.34383C30.8332 11.7068 30.7592 12.5006 30.6996 12.7393" stroke="black" stroke-width="1.5" stroke-linecap="round"/>
</svg>
