<svg width="40" height="40" viewBox="0 0 40 40" fill="none" xmlns="http://www.w3.org/2000/svg">
<path d="M21.246 1.77868C22.4176 0.607108 24.3171 0.607108 25.4887 1.77868L38.2166 14.5066C39.3882 15.6782 39.3882 17.5777 38.2166 18.7492L36.8024 20.1635C35.6308 21.335 33.7313 21.335 32.5597 20.1635L19.8318 7.43554C18.6602 6.26396 18.6602 4.36447 19.8318 3.19289L21.246 1.77868Z" stroke="black" stroke-width="1.5"/>
<path d="M24.0721 18.7574L7.12352 38.2211C5.98202 39.532 3.96886 39.6015 2.73974 38.3724L1.62869 37.2613C0.39957 36.0322 0.469017 34.019 1.77992 32.8775L21.2436 15.929" stroke="black" stroke-width="1.5"/>
<path d="M31.3736 19.3982C28.7643 20.6662 25.5306 20.2168 23.3639 18.0501L21.9497 16.6359C19.783 14.4692 19.3337 11.2355 20.6016 8.62622" stroke="black" stroke-width="1.5"/>
<path d="M23.0078 4.96875L35.0286 16.9896" stroke="black" stroke-width="1.5" stroke-linecap="round"/>
</svg>
