<svg width="40" height="40" viewBox="0 0 40 40" fill="none" xmlns="http://www.w3.org/2000/svg">
<path d="M22.25 8.76952C22.25 13.7695 20.85 23.7695 7.25 23.7695" stroke="black" stroke-width="1.5" stroke-linecap="round"/>
<path d="M22.25 38.7695C22.25 33.7695 20.85 23.7695 7.25 23.7695" stroke="black" stroke-width="1.5" stroke-linecap="round"/>
<path d="M22.25 8.76952C22.25 13.7695 23.65 23.7695 37.25 23.7695" stroke="black" stroke-width="1.5" stroke-linecap="round"/>
<path d="M22.25 38.7695C22.25 33.7695 23.65 23.7695 37.25 23.7695" stroke="black" stroke-width="1.5" stroke-linecap="round"/>
<path d="M7.75 0.75C7.75 3.08333 7.09667 7.75 0.75 7.75" stroke="black" stroke-width="1.5" stroke-linecap="round"/>
<path d="M7.75 14.75C7.75 12.4167 7.09667 7.75 0.75 7.75" stroke="black" stroke-width="1.5" stroke-linecap="round"/>
<path d="M7.75 0.75C7.75 3.08333 8.40333 7.75 14.75 7.75" stroke="black" stroke-width="1.5" stroke-linecap="round"/>
<path d="M7.75 14.75C7.75 12.4167 8.40333 7.75 14.75 7.75" stroke="black" stroke-width="1.5" stroke-linecap="round"/>
</svg>
