<svg width="40" height="40" viewBox="0 0 40 40" fill="none" xmlns="http://www.w3.org/2000/svg">
<path d="M13.75 8.75174C13.75 8.19945 14.1977 7.75174 14.75 7.75174H21.25C21.8023 7.75174 22.25 8.19945 22.25 8.75174V12.75H13.75V8.75174Z" stroke="black" stroke-width="1.5"/>
<path d="M15.75 3.00153C15.75 1.75888 16.7574 0.751526 18 0.751526V0.751526C19.2426 0.751526 20.25 1.75889 20.25 3.00153V7.75172H15.75V3.00153Z" stroke="black" stroke-width="1.5"/>
<path d="M18.8408 39.25H10.75C9.64543 39.25 8.75 38.3546 8.75 37.25V19.75C8.75 15.884 11.884 12.75 15.75 12.75H20.2524C22.232 12.75 24.0197 13.5718 25.293 14.8928" stroke="black" stroke-width="1.5" stroke-linecap="round"/>
<path d="M34.4333 26.7344C30.0249 20.1691 29.538 19.564 28.1714 17.5033C28.0921 17.3837 27.9154 17.3837 27.836 17.5033C26.469 19.564 25.9763 20.1691 21.5678 26.7344C16.9838 33.5611 21.7886 39.25 27.9979 39.25C34.2073 39.25 39.0174 33.5611 34.4333 26.7344Z" stroke="black" stroke-width="1.5" stroke-linecap="round"/>
</svg>
