<svg width="40" height="40" viewBox="0 0 40 40" fill="none" xmlns="http://www.w3.org/2000/svg">
<path d="M20 30.2487C14.3398 30.2487 9.75134 25.6602 9.75134 20C9.75134 14.3398 14.3398 9.75134 20 9.75134" stroke="black" stroke-width="1.5" stroke-linecap="round"/>
<path d="M2 20H5.375" stroke="black" stroke-width="1.5" stroke-linecap="round"/>
<path d="M7.0625 32.9375L9.3125 30.6875" stroke="black" stroke-width="1.5" stroke-linecap="round"/>
<path d="M7.06176 7.05871L9.3125 9.30945" stroke="black" stroke-width="1.5" stroke-linecap="round"/>
<path d="M20 5L20 2" stroke="black" stroke-width="1.5" stroke-linecap="round"/>
<path d="M20 38L20 35" stroke="black" stroke-width="1.5" stroke-linecap="round"/>
<path d="M25 16V16C27.1688 17.2393 29.8312 17.2393 32 16V16V16C34.1688 14.7607 36.8312 14.7607 39 16V16" stroke="black" stroke-width="1.5" stroke-linecap="round"/>
<path d="M25 20V20C27.1688 21.2393 29.8312 21.2393 32 20V20V20C34.1688 18.7607 36.8312 18.7607 39 20V20" stroke="black" stroke-width="1.5" stroke-linecap="round"/>
<path d="M25 24V24C27.1688 25.2393 29.8312 25.2393 32 24V24V24C34.1688 22.7607 36.8312 22.7607 39 24V24" stroke="black" stroke-width="1.5" stroke-linecap="round"/>
</svg>
