<svg width="16" height="16" viewBox="0 0 16 16" fill="none" xmlns="http://www.w3.org/2000/svg">
<path d="M7.76753 0.587696C7.85088 0.376974 8.14912 0.376974 8.23247 0.587696L10.1679 5.48051C10.2028 5.5688 10.2848 5.62969 10.3794 5.63766L15.4247 6.06296C15.6428 6.08135 15.7337 6.35134 15.571 6.49784L11.7089 9.97638C11.6417 10.037 11.6124 10.1292 11.6324 10.2175L12.8091 15.4042C12.8586 15.6224 12.6185 15.7908 12.4302 15.6699L8.1351 12.9114C8.05279 12.8585 7.94721 12.8585 7.8649 12.9114L3.5698 15.6699C3.38152 15.7908 3.14139 15.6224 3.1909 15.4042L4.36757 10.2175C4.3876 10.1292 4.35834 10.037 4.29108 9.97638L0.428984 6.49784C0.266331 6.35134 0.357168 6.08135 0.575297 6.06296L5.62062 5.63766C5.71524 5.62969 5.79717 5.5688 5.83209 5.48051L7.76753 0.587696Z" fill="black"/>
</svg>
