<svg width="40" height="40" viewBox="0 0 40 40" fill="none" xmlns="http://www.w3.org/2000/svg">
<path d="M32.2224 16.394L17.5989 37.1499C17.4476 37.3647 17.1099 37.2306 17.1471 36.9706L18.9592 24.2854C18.9808 24.1347 18.8639 24 18.7117 24H7.98195C7.77935 24 7.66089 23.7716 7.77758 23.606L22.4011 2.85008C22.5524 2.63533 22.8901 2.76937 22.8529 3.02942L21.0408 15.7146C21.0192 15.8653 21.1361 16 21.2883 16H32.018C32.2206 16 32.3391 16.2284 32.2224 16.394Z" stroke="black" stroke-width="1.5"/>
<path d="M1 20H4.8M39 20H35.2" stroke="black" stroke-width="1.5" stroke-linecap="round"/>
<path d="M5.39062 5.39133L7.89994 7.90065M34.2478 34.2485L31.7385 31.7392" stroke="black" stroke-width="1.5" stroke-linecap="round"/>
<path d="M5.39086 34.2493L7.90593 31.7358M34.2526 5.3871L31.7425 7.89724" stroke="black" stroke-width="1.5" stroke-linecap="round"/>
</svg>
