<svg width="40" height="40" viewBox="0 0 40 40" fill="none" xmlns="http://www.w3.org/2000/svg">
<path d="M0.75 3.7547H27M39.2532 3.7547H32" stroke="black" stroke-width="1.5" stroke-linecap="round"/>
<path d="M0.75 36.25H8M39.2532 36.25H13" stroke="black" stroke-width="1.5" stroke-linecap="round"/>
<path d="M6.62207 14.2993V25H4.85693V16.394L2.24219 17.2803V15.8228L6.40967 14.2993H6.62207Z" fill="black"/>
<path d="M12.4009 18.8696H13.4556C13.8657 18.8696 14.2051 18.7988 14.4736 18.6572C14.7471 18.5156 14.9497 18.3203 15.0815 18.0713C15.2134 17.8223 15.2793 17.5366 15.2793 17.2144C15.2793 16.8774 15.2183 16.5894 15.0962 16.3501C14.979 16.106 14.7983 15.918 14.5542 15.7861C14.3149 15.6543 14.0098 15.5884 13.6387 15.5884C13.3262 15.5884 13.043 15.6519 12.7891 15.7788C12.54 15.9009 12.3423 16.0767 12.1958 16.3062C12.0493 16.5308 11.9761 16.7993 11.9761 17.1118H10.2036C10.2036 16.5454 10.3525 16.0425 10.6504 15.603C10.9482 15.1636 11.3535 14.8193 11.8662 14.5703C12.3838 14.3164 12.9648 14.1895 13.6094 14.1895C14.2979 14.1895 14.8984 14.3042 15.4111 14.5337C15.9287 14.7583 16.3315 15.0952 16.6196 15.5444C16.9077 15.9937 17.0518 16.5503 17.0518 17.2144C17.0518 17.5171 16.981 17.8247 16.8394 18.1372C16.6978 18.4497 16.4878 18.7354 16.2095 18.9941C15.9312 19.248 15.5845 19.4556 15.1694 19.6167C14.7544 19.7729 14.2734 19.8511 13.7266 19.8511H12.4009V18.8696ZM12.4009 20.2466V19.2798H13.7266C14.3516 19.2798 14.8838 19.353 15.3232 19.4995C15.7676 19.646 16.1289 19.8486 16.4072 20.1074C16.6855 20.3613 16.8882 20.6519 17.0151 20.979C17.147 21.3062 17.2129 21.6528 17.2129 22.019C17.2129 22.5171 17.1226 22.9614 16.9419 23.3521C16.7661 23.7378 16.5146 24.0649 16.1875 24.3335C15.8604 24.6021 15.4771 24.8047 15.0376 24.9414C14.603 25.0781 14.1294 25.1465 13.6167 25.1465C13.1577 25.1465 12.7183 25.083 12.2983 24.9561C11.8784 24.8291 11.5024 24.6411 11.1704 24.3921C10.8384 24.1382 10.5747 23.8232 10.3794 23.4473C10.189 23.0664 10.0938 22.627 10.0938 22.1289H11.8589C11.8589 22.4463 11.9321 22.7271 12.0786 22.9712C12.23 23.2104 12.4399 23.3984 12.7085 23.5352C12.9819 23.6719 13.2944 23.7402 13.646 23.7402C14.0171 23.7402 14.3369 23.6743 14.6055 23.5425C14.874 23.4106 15.0791 23.2153 15.2207 22.9565C15.3672 22.6978 15.4404 22.3853 15.4404 22.019C15.4404 21.604 15.3599 21.2671 15.1987 21.0083C15.0376 20.7495 14.8081 20.5591 14.5103 20.437C14.2124 20.3101 13.8608 20.2466 13.4556 20.2466H12.4009Z" fill="black"/>
<path d="M22.5083 19.7412V21.1475H18.6338V19.7412H22.5083Z" fill="black"/>
<path d="M28.7705 14.2993V25H27.0054V16.394L24.3906 17.2803V15.8228L28.5581 14.2993H28.7705Z" fill="black"/>
<path d="M33.8975 23.6084H34.0439C34.7178 23.6084 35.2793 23.5205 35.7285 23.3447C36.1826 23.1641 36.5439 22.915 36.8125 22.5977C37.0811 22.2803 37.2739 21.9067 37.3911 21.4771C37.5083 21.0474 37.5669 20.5811 37.5669 20.0781V18.2397C37.5669 17.8052 37.5205 17.4243 37.4277 17.0972C37.3398 16.7651 37.2129 16.4893 37.0469 16.2695C36.8857 16.0449 36.6978 15.8765 36.4829 15.7642C36.2729 15.6519 36.0459 15.5957 35.8018 15.5957C35.5332 15.5957 35.2915 15.6567 35.0767 15.7788C34.8667 15.896 34.6885 16.0596 34.542 16.2695C34.4004 16.4746 34.2905 16.7163 34.2124 16.9946C34.1392 17.2681 34.1025 17.561 34.1025 17.8735C34.1025 18.1665 34.1367 18.4497 34.2051 18.7231C34.2783 18.9917 34.3857 19.231 34.5273 19.4409C34.6689 19.6509 34.8472 19.8169 35.062 19.939C35.2769 20.061 35.5283 20.1221 35.8164 20.1221C36.0898 20.1221 36.3413 20.0708 36.5708 19.9683C36.8003 19.8608 37.0005 19.7168 37.1714 19.5361C37.3423 19.3555 37.4766 19.1528 37.5742 18.9282C37.6719 18.7036 37.7256 18.4741 37.7354 18.2397L38.4092 18.4448C38.4092 18.8159 38.3311 19.1821 38.1748 19.5435C38.0234 19.8999 37.811 20.2271 37.5376 20.5249C37.269 20.8179 36.9541 21.0522 36.5928 21.228C36.2363 21.4038 35.8481 21.4917 35.4282 21.4917C34.9204 21.4917 34.4712 21.3965 34.0806 21.2061C33.6948 21.0107 33.3726 20.7471 33.1138 20.415C32.8599 20.083 32.6694 19.7021 32.5425 19.2725C32.4155 18.8428 32.3521 18.3911 32.3521 17.9175C32.3521 17.4048 32.4302 16.9238 32.5864 16.4746C32.7427 16.0254 32.9697 15.6299 33.2676 15.2881C33.5654 14.9414 33.9268 14.6729 34.3516 14.4824C34.7812 14.2871 35.2671 14.1895 35.8091 14.1895C36.3853 14.1895 36.8906 14.3018 37.3252 14.5264C37.7598 14.751 38.126 15.061 38.4238 15.4565C38.7217 15.8521 38.9463 16.311 39.0977 16.8335C39.249 17.356 39.3247 17.9175 39.3247 18.5181V19.1406C39.3247 19.7705 39.2686 20.3784 39.1562 20.9644C39.0439 21.5454 38.8608 22.085 38.6069 22.583C38.3579 23.0762 38.0283 23.5107 37.6182 23.8867C37.2129 24.2578 36.7148 24.5483 36.124 24.7583C35.5381 24.9634 34.8496 25.0659 34.0586 25.0659H33.8975V23.6084Z" fill="black"/>
</svg>
