<svg width="40" height="40" viewBox="0 0 40 40" fill="none" xmlns="http://www.w3.org/2000/svg">
<path d="M0.75 3.7547H27M39.2532 3.7547H32" stroke="black" stroke-width="1.5" stroke-linecap="round"/>
<path d="M0.75 36.25H8M39.2532 36.25H13" stroke="black" stroke-width="1.5" stroke-linecap="round"/>
<path d="M31.8408 19.1553V20.7446H24.5312V19.1553H31.8408ZM29.043 16.167V23.9307H27.3364V16.167H29.043Z" fill="black"/>
<path d="M23.2837 18.7744V20.5176C23.2837 21.3525 23.2007 22.0654 23.0347 22.6562C22.8735 23.2422 22.6392 23.7183 22.3315 24.0845C22.0239 24.4507 21.6553 24.7192 21.2256 24.8901C20.8008 25.061 20.3247 25.1465 19.7974 25.1465C19.3774 25.1465 18.9868 25.0928 18.6255 24.9854C18.269 24.8779 17.9468 24.7095 17.6587 24.48C17.3706 24.2505 17.124 23.9551 16.9189 23.5938C16.7188 23.2275 16.5625 22.7905 16.4502 22.2827C16.3428 21.7749 16.2891 21.1865 16.2891 20.5176V18.7744C16.2891 17.9346 16.3721 17.2266 16.5381 16.6504C16.7041 16.0693 16.9409 15.5981 17.2485 15.2368C17.5562 14.8706 17.9224 14.6045 18.3472 14.4385C18.7769 14.2725 19.2554 14.1895 19.7827 14.1895C20.2075 14.1895 20.5981 14.2432 20.9546 14.3506C21.3159 14.4531 21.6382 14.6167 21.9214 14.8413C22.2095 15.0659 22.4536 15.3589 22.6538 15.7202C22.8589 16.0767 23.0151 16.5088 23.1226 17.0166C23.23 17.5195 23.2837 18.1055 23.2837 18.7744ZM21.5186 20.7666V18.5107C21.5186 18.0859 21.4941 17.7124 21.4453 17.3901C21.3965 17.063 21.3232 16.7871 21.2256 16.5625C21.1328 16.333 21.0156 16.1475 20.874 16.0059C20.7324 15.8594 20.5713 15.7544 20.3906 15.6909C20.21 15.6226 20.0073 15.5884 19.7827 15.5884C19.5093 15.5884 19.2651 15.6421 19.0503 15.7495C18.8354 15.8521 18.6548 16.0181 18.5083 16.2476C18.3618 16.4771 18.2495 16.7798 18.1714 17.1558C18.0981 17.5269 18.0615 17.9785 18.0615 18.5107V20.7666C18.0615 21.1963 18.0859 21.5747 18.1348 21.9019C18.1836 22.229 18.2568 22.5098 18.3545 22.7441C18.4521 22.9736 18.5693 23.1641 18.7061 23.3154C18.8477 23.4619 19.0088 23.5693 19.1895 23.6377C19.375 23.7061 19.5776 23.7402 19.7974 23.7402C20.0757 23.7402 20.3223 23.6865 20.5371 23.5791C20.752 23.4717 20.9326 23.3008 21.0791 23.0664C21.2256 22.8271 21.3354 22.5171 21.4087 22.1362C21.4819 21.7554 21.5186 21.2988 21.5186 20.7666Z" fill="black"/>
<path d="M9.87744 18.8696H10.9321C11.3423 18.8696 11.6816 18.7988 11.9502 18.6572C12.2236 18.5156 12.4263 18.3203 12.5581 18.0713C12.6899 17.8223 12.7559 17.5366 12.7559 17.2144C12.7559 16.8774 12.6948 16.5894 12.5728 16.3501C12.4556 16.106 12.2749 15.918 12.0308 15.7861C11.7915 15.6543 11.4863 15.5884 11.1152 15.5884C10.8027 15.5884 10.5195 15.6519 10.2656 15.7788C10.0166 15.9009 9.81885 16.0767 9.67236 16.3062C9.52588 16.5308 9.45264 16.7993 9.45264 17.1118H7.68018C7.68018 16.5454 7.8291 16.0425 8.12695 15.603C8.4248 15.1636 8.83008 14.8193 9.34277 14.5703C9.86035 14.3164 10.4414 14.1895 11.0859 14.1895C11.7744 14.1895 12.375 14.3042 12.8877 14.5337C13.4053 14.7583 13.8081 15.0952 14.0962 15.5444C14.3843 15.9937 14.5283 16.5503 14.5283 17.2144C14.5283 17.5171 14.4575 17.8247 14.3159 18.1372C14.1743 18.4497 13.9644 18.7354 13.686 18.9941C13.4077 19.248 13.061 19.4556 12.646 19.6167C12.231 19.7729 11.75 19.8511 11.2031 19.8511H9.87744V18.8696ZM9.87744 20.2466V19.2798H11.2031C11.8281 19.2798 12.3604 19.353 12.7998 19.4995C13.2441 19.646 13.6055 19.8486 13.8838 20.1074C14.1621 20.3613 14.3647 20.6519 14.4917 20.979C14.6235 21.3062 14.6895 21.6528 14.6895 22.019C14.6895 22.5171 14.5991 22.9614 14.4185 23.3521C14.2427 23.7378 13.9912 24.0649 13.6641 24.3335C13.3369 24.6021 12.9536 24.8047 12.5142 24.9414C12.0796 25.0781 11.606 25.1465 11.0933 25.1465C10.6343 25.1465 10.1948 25.083 9.7749 24.9561C9.35498 24.8291 8.979 24.6411 8.64697 24.3921C8.31494 24.1382 8.05127 23.8232 7.85596 23.4473C7.66553 23.0664 7.57031 22.627 7.57031 22.1289H9.33545C9.33545 22.4463 9.40869 22.7271 9.55518 22.9712C9.70654 23.2104 9.9165 23.3984 10.1851 23.5352C10.4585 23.6719 10.771 23.7402 11.1226 23.7402C11.4937 23.7402 11.8135 23.6743 12.082 23.5425C12.3506 23.4106 12.5557 23.2153 12.6973 22.9565C12.8438 22.6978 12.917 22.3853 12.917 22.019C12.917 21.604 12.8364 21.2671 12.6753 21.0083C12.5142 20.7495 12.2847 20.5591 11.9868 20.437C11.689 20.3101 11.3374 20.2466 10.9321 20.2466H9.87744Z" fill="black"/>
</svg>
