<svg width="41" height="40" viewBox="0 0 41 40" fill="none" xmlns="http://www.w3.org/2000/svg">
<path d="M11 35C6.02944 35 2 30.9706 2 26C2 21.0294 6.02944 17 11 17C15.3362 17 18.9561 20.0665 19.8095 24.1493" stroke="black" stroke-width="1.5"/>
<path d="M31.0636 14.5C31.6592 13.4704 32 12.275 32 11C32 7.13401 28.866 4 25 4C23.8113 4 22.6918 4.2963 21.7113 4.81908C21.4328 4.96758 21.1295 5.14859 20.875 5.33203" stroke="black" stroke-width="1.5"/>
<path d="M8.47444 25.461C8.36724 25.0609 7.95599 24.8235 7.55589 24.9307C7.15579 25.0379 6.91835 25.4492 7.02556 25.8493L8.47444 25.461ZM18.6167 22.7434C19.3671 25.5441 17.7051 28.4229 14.9044 29.1733L15.2926 30.6222C18.8935 29.6574 21.0304 25.9561 20.0656 22.3552L18.6167 22.7434ZM14.9044 29.1733C12.1037 29.9238 9.22489 28.2617 8.47444 25.461L7.02556 25.8493C7.99041 29.4502 11.6917 31.5871 15.2926 30.6222L14.9044 29.1733Z" fill="black"/>
<path d="M5.28125 19.0478L6.54433 17.8796L20.677 5.49953L20.8237 5.37097" stroke="black" stroke-width="1.5" stroke-linecap="round"/>
<path d="M31.0876 14.4523L19.8047 24.3361" stroke="black" stroke-width="1.5" stroke-linecap="round"/>
<path d="M10.5859 35.0071H23.7622C23.8228 35.0071 23.8813 34.9851 23.9269 34.9451L39.5876 21.2265C39.7612 21.0744 39.6536 20.7885 39.4228 20.7885H24.0932" stroke="black" stroke-width="1.5" stroke-linecap="round"/>
<path d="M7.71094 25.4471L15.7987 18.3623" stroke="black" stroke-width="1.5" stroke-linecap="round"/>
</svg>
