<svg width="40" height="40" viewBox="0 0 40 40" fill="none" xmlns="http://www.w3.org/2000/svg">
<path d="M0.75 3.7547H27M39.2532 3.7547H32" stroke="black" stroke-width="1.5" stroke-linecap="round"/>
<path d="M0.75 36.25H8M39.2532 36.25H13" stroke="black" stroke-width="1.5" stroke-linecap="round"/>
<path d="M12.812 18.6045V20.1152C12.812 20.8389 12.7401 21.4567 12.5962 21.9688C12.4565 22.4766 12.2534 22.8892 11.9868 23.2065C11.7202 23.5239 11.4007 23.7567 11.0283 23.9048C10.6602 24.0529 10.2476 24.127 9.79053 24.127C9.4266 24.127 9.08805 24.0804 8.7749 23.9873C8.46598 23.8942 8.18669 23.7482 7.93701 23.5493C7.68734 23.3504 7.47363 23.0944 7.2959 22.7812C7.1224 22.4639 6.98698 22.0851 6.88965 21.645C6.79655 21.2049 6.75 20.695 6.75 20.1152V18.6045C6.75 17.8766 6.82194 17.263 6.96582 16.7637C7.1097 16.2601 7.31494 15.8517 7.58154 15.5386C7.84814 15.2212 8.16553 14.9906 8.53369 14.8467C8.90609 14.7028 9.3208 14.6309 9.77783 14.6309C10.146 14.6309 10.4845 14.6774 10.7935 14.7705C11.1066 14.8594 11.3859 15.0011 11.6313 15.1958C11.881 15.3905 12.0926 15.6444 12.2661 15.9575C12.4438 16.2664 12.5793 16.641 12.6724 17.0811C12.7655 17.5169 12.812 18.0247 12.812 18.6045ZM11.2822 20.3311V18.376C11.2822 18.0078 11.2611 17.6841 11.2188 17.4048C11.1764 17.1213 11.113 16.8822 11.0283 16.6875C10.9479 16.4886 10.8464 16.3278 10.7236 16.2051C10.6009 16.0781 10.4613 15.9871 10.3047 15.9321C10.1481 15.8729 9.97249 15.8433 9.77783 15.8433C9.54085 15.8433 9.32926 15.8898 9.14307 15.9829C8.95687 16.0718 8.80029 16.2157 8.67334 16.4146C8.54639 16.6134 8.44906 16.8758 8.38135 17.2017C8.31787 17.5233 8.28613 17.9147 8.28613 18.376V20.3311C8.28613 20.7035 8.30729 21.0314 8.34961 21.3149C8.39193 21.5985 8.4554 21.8418 8.54004 22.0449C8.62467 22.2438 8.72624 22.4089 8.84473 22.54C8.96745 22.667 9.1071 22.7601 9.26367 22.8193C9.42448 22.8786 9.6001 22.9082 9.79053 22.9082C10.0317 22.9082 10.2454 22.8617 10.4316 22.7686C10.6178 22.6755 10.7744 22.5273 10.9014 22.3242C11.0283 22.1169 11.1235 21.8481 11.187 21.5181C11.2505 21.188 11.2822 20.7923 11.2822 20.3311Z" fill="black"/>
<path d="M6.37305 22.7812V24H0.177734V22.9526L3.18652 19.6709C3.5166 19.2985 3.77686 18.9769 3.96729 18.7061C4.15771 18.4352 4.29102 18.1919 4.36719 17.9761C4.44759 17.756 4.48779 17.5423 4.48779 17.335C4.48779 17.043 4.43278 16.7869 4.32275 16.5669C4.21696 16.3426 4.06038 16.167 3.85303 16.04C3.64567 15.9089 3.39388 15.8433 3.09766 15.8433C2.75488 15.8433 2.46712 15.9173 2.23438 16.0654C2.00163 16.2135 1.82601 16.4188 1.70752 16.6812C1.58903 16.9393 1.52979 17.2355 1.52979 17.5698H0C0 17.0324 0.122721 16.5415 0.368164 16.0972C0.613607 15.6486 0.969076 15.2931 1.43457 15.0308C1.90007 14.7642 2.46077 14.6309 3.1167 14.6309C3.73454 14.6309 4.25928 14.7345 4.69092 14.9419C5.12256 15.1493 5.45052 15.4434 5.6748 15.8242C5.90332 16.2051 6.01758 16.6558 6.01758 17.1763C6.01758 17.464 5.97103 17.7497 5.87793 18.0332C5.78483 18.3167 5.65153 18.6003 5.47803 18.8838C5.30876 19.1631 5.10775 19.4445 4.875 19.728C4.64225 20.0073 4.38623 20.2909 4.10693 20.5786L2.10742 22.7812H6.37305Z" fill="black"/>
<path d="M18.271 19.1436V20.1748H15.4297V19.1436H18.271Z" fill="black"/>
<path d="M28.9199 19.7026L27.7012 19.4043L28.2026 14.7578H33.1855V16.0527H29.4722L29.2183 18.3188C29.3621 18.2342 29.561 18.1517 29.8149 18.0713C30.0688 17.9867 30.3587 17.9443 30.6846 17.9443C31.1204 17.9443 31.5098 18.0163 31.8525 18.1602C32.1995 18.2998 32.4937 18.505 32.7349 18.7759C32.9761 19.0425 33.1602 19.3683 33.2871 19.7534C33.4141 20.1343 33.4775 20.5638 33.4775 21.042C33.4775 21.4694 33.4141 21.8693 33.2871 22.2417C33.1644 22.6141 32.9782 22.9421 32.7285 23.2256C32.4788 23.5091 32.1636 23.7313 31.7827 23.8921C31.4061 24.0487 30.9596 24.127 30.4434 24.127C30.0583 24.127 29.688 24.0719 29.3325 23.9619C28.9813 23.8477 28.666 23.6805 28.3867 23.4604C28.1074 23.2362 27.8831 22.9611 27.7139 22.6353C27.5446 22.3052 27.4473 21.9264 27.4219 21.499H28.9199C28.958 21.7995 29.0405 22.0555 29.1675 22.2671C29.2987 22.4744 29.4722 22.6331 29.688 22.7432C29.9038 22.8532 30.1535 22.9082 30.437 22.9082C30.6951 22.9082 30.9173 22.8638 31.1035 22.7749C31.2897 22.6818 31.4442 22.5506 31.5669 22.3813C31.6938 22.2078 31.7869 22.0047 31.8462 21.772C31.9097 21.5392 31.9414 21.2811 31.9414 20.9976C31.9414 20.7267 31.9054 20.4792 31.8335 20.2549C31.7658 20.0306 31.6621 19.8359 31.5225 19.6709C31.387 19.5059 31.2157 19.3789 31.0083 19.29C30.8009 19.1969 30.5618 19.1504 30.291 19.1504C29.9271 19.1504 29.6478 19.2033 29.4531 19.3091C29.2627 19.4149 29.085 19.5461 28.9199 19.7026Z" fill="black"/>
<path d="M25.3237 14.7007H25.5142V15.9512H25.4062C24.8604 15.9512 24.3885 16.0358 23.9907 16.2051C23.5972 16.3743 23.2734 16.6071 23.0195 16.9033C22.7656 17.1995 22.5752 17.5465 22.4482 17.9443C22.3255 18.3379 22.2642 18.7568 22.2642 19.2012V20.6548C22.2642 21.0229 22.3044 21.3488 22.3848 21.6323C22.4652 21.9116 22.5773 22.1465 22.7212 22.3369C22.8693 22.5231 23.0386 22.6649 23.229 22.7622C23.4194 22.8595 23.6247 22.9082 23.8447 22.9082C24.0732 22.9082 24.2806 22.8617 24.4668 22.7686C24.653 22.6712 24.8117 22.5379 24.9429 22.3687C25.0741 22.1994 25.1735 21.9984 25.2412 21.7656C25.3089 21.5329 25.3428 21.279 25.3428 21.0039C25.3428 20.7415 25.3089 20.4961 25.2412 20.2676C25.1777 20.0348 25.0825 19.8317 24.9556 19.6582C24.8286 19.4805 24.6699 19.3429 24.4795 19.2456C24.2933 19.144 24.0775 19.0933 23.832 19.0933C23.5273 19.0933 23.2502 19.1652 23.0005 19.3091C22.755 19.453 22.5562 19.6413 22.4038 19.874C22.2557 20.1025 22.1753 20.3459 22.1626 20.604L21.5786 20.4136C21.6125 20.02 21.6992 19.6667 21.8389 19.3535C21.9827 19.0404 22.1711 18.7738 22.4038 18.5537C22.6366 18.3337 22.9053 18.1665 23.21 18.0522C23.5189 17.9338 23.8574 17.8745 24.2256 17.8745C24.6742 17.8745 25.0635 17.9591 25.3936 18.1284C25.7236 18.2977 25.9966 18.5283 26.2124 18.8203C26.4325 19.1081 26.5954 19.4382 26.7012 19.8105C26.8112 20.1787 26.8662 20.5638 26.8662 20.9658C26.8662 21.4102 26.7985 21.8249 26.6631 22.21C26.5277 22.5908 26.3288 22.9251 26.0664 23.2129C25.8083 23.5007 25.493 23.7249 25.1206 23.8857C24.7524 24.0465 24.3335 24.127 23.8638 24.127C23.3687 24.127 22.9264 24.0317 22.5371 23.8413C22.152 23.6509 21.8241 23.3885 21.5532 23.0542C21.2866 22.7199 21.0835 22.3348 20.9438 21.8989C20.8042 21.4631 20.7344 21.0018 20.7344 20.5151V19.8804C20.7344 19.1779 20.8232 18.5156 21.001 17.8936C21.1787 17.2673 21.4517 16.715 21.8198 16.2368C22.1922 15.7586 22.6683 15.3841 23.248 15.1133C23.8278 14.8382 24.5197 14.7007 25.3237 14.7007Z" fill="black"/>
<path d="M39.7197 18.7139V19.8794H34.3594V18.7139H39.7197ZM37.668 16.5225V22.2158H36.4165V16.5225H37.668Z" fill="black"/>
</svg>
