<svg width="40" height="40" viewBox="0 0 40 40" fill="none" xmlns="http://www.w3.org/2000/svg">
<path d="M0.75 3.7547H27M39.2532 3.7547H32" stroke="black" stroke-width="1.5" stroke-linecap="round"/>
<path d="M0.75 36.25H8M39.2532 36.25H13" stroke="black" stroke-width="1.5" stroke-linecap="round"/>
<path d="M37.2095 14.27H37.4292V15.7129H37.3047C36.6748 15.7129 36.1304 15.8105 35.6714 16.0059C35.2173 16.2012 34.8438 16.4697 34.5508 16.8115C34.2578 17.1533 34.0381 17.5537 33.8916 18.0127C33.75 18.4668 33.6792 18.9502 33.6792 19.4629V21.1401C33.6792 21.5649 33.7256 21.9409 33.8184 22.2681C33.9111 22.5903 34.0405 22.8613 34.2065 23.0811C34.3774 23.2959 34.5728 23.4595 34.7925 23.5718C35.0122 23.6841 35.249 23.7402 35.5029 23.7402C35.7666 23.7402 36.0059 23.6865 36.2207 23.5791C36.4355 23.4668 36.6187 23.313 36.77 23.1177C36.9214 22.9224 37.0361 22.6904 37.1143 22.4219C37.1924 22.1533 37.2314 21.8604 37.2314 21.543C37.2314 21.2402 37.1924 20.957 37.1143 20.6934C37.041 20.4248 36.9312 20.1904 36.7847 19.9902C36.6382 19.7852 36.4551 19.6265 36.2354 19.5142C36.0205 19.397 35.7715 19.3384 35.4883 19.3384C35.1367 19.3384 34.8169 19.4214 34.5288 19.5874C34.2456 19.7534 34.0161 19.9707 33.8403 20.2393C33.6694 20.5029 33.5767 20.7837 33.562 21.0815L32.8882 20.8618C32.9272 20.4077 33.0273 20 33.1885 19.6387C33.3545 19.2773 33.5718 18.9697 33.8403 18.7158C34.1089 18.4619 34.4189 18.269 34.7705 18.1372C35.127 18.0005 35.5176 17.9321 35.9424 17.9321C36.46 17.9321 36.9092 18.0298 37.29 18.2251C37.6709 18.4204 37.9858 18.6865 38.2349 19.0234C38.4888 19.3555 38.6768 19.7363 38.7988 20.166C38.9258 20.5908 38.9893 21.0352 38.9893 21.499C38.9893 22.0117 38.9111 22.4902 38.7549 22.9346C38.5986 23.374 38.3691 23.7598 38.0664 24.0918C37.7686 24.4238 37.4048 24.6826 36.9751 24.8682C36.5503 25.0537 36.0669 25.1465 35.5249 25.1465C34.9536 25.1465 34.4434 25.0366 33.9941 24.8169C33.5498 24.5972 33.1714 24.2944 32.8589 23.9087C32.5513 23.5229 32.3169 23.0786 32.1558 22.5757C31.9946 22.0728 31.9141 21.5405 31.9141 20.979V20.2466C31.9141 19.436 32.0166 18.6719 32.2217 17.9541C32.4268 17.2314 32.7417 16.5942 33.1665 16.0425C33.5962 15.4907 34.1455 15.0586 34.8145 14.7461C35.4834 14.4287 36.2817 14.27 37.2095 14.27Z" fill="black"/>
<path d="M25.2051 20.0415L23.7988 19.6973L24.3774 14.3359H30.127V15.8301H25.8423L25.5493 18.4448C25.7153 18.3472 25.9448 18.252 26.2378 18.1592C26.5308 18.0615 26.8652 18.0127 27.2412 18.0127C27.7441 18.0127 28.1934 18.0957 28.5889 18.2617C28.9893 18.4229 29.3286 18.6597 29.6069 18.9722C29.8853 19.2798 30.0977 19.6558 30.2441 20.1001C30.3906 20.5396 30.4639 21.0352 30.4639 21.5869C30.4639 22.0801 30.3906 22.5415 30.2441 22.9712C30.1025 23.4009 29.8877 23.7793 29.5996 24.1064C29.3115 24.4336 28.9478 24.6899 28.5083 24.8755C28.0737 25.0562 27.5586 25.1465 26.9629 25.1465C26.5186 25.1465 26.0913 25.083 25.6812 24.9561C25.2759 24.8242 24.9121 24.6313 24.5898 24.3774C24.2676 24.1187 24.0088 23.8013 23.8135 23.4253C23.6182 23.0444 23.5059 22.6074 23.4766 22.1143H25.2051C25.249 22.4609 25.3442 22.7563 25.4907 23.0005C25.6421 23.2397 25.8423 23.4229 26.0913 23.5498C26.3403 23.6768 26.6284 23.7402 26.9556 23.7402C27.2534 23.7402 27.5098 23.689 27.7246 23.5864C27.9395 23.479 28.1177 23.3276 28.2593 23.1323C28.4058 22.9321 28.5132 22.6978 28.5815 22.4292C28.6548 22.1606 28.6914 21.8628 28.6914 21.5356C28.6914 21.2231 28.6499 20.9375 28.5669 20.6787C28.4888 20.4199 28.3691 20.1953 28.208 20.0049C28.0518 19.8145 27.854 19.668 27.6147 19.5654C27.3755 19.458 27.0996 19.4043 26.7871 19.4043C26.3672 19.4043 26.0449 19.4653 25.8203 19.5874C25.6006 19.7095 25.3955 19.8608 25.2051 20.0415Z" fill="black"/>
<path d="M21.9136 19.7412V21.1475H18.0391V19.7412H21.9136Z" fill="black"/>
<path d="M16.6821 18.7744V20.5176C16.6821 21.3525 16.5991 22.0654 16.4331 22.6562C16.272 23.2422 16.0376 23.7183 15.73 24.0845C15.4224 24.4507 15.0537 24.7192 14.624 24.8901C14.1992 25.061 13.7231 25.1465 13.1958 25.1465C12.7759 25.1465 12.3853 25.0928 12.0239 24.9854C11.6675 24.8779 11.3452 24.7095 11.0571 24.48C10.769 24.2505 10.5225 23.9551 10.3174 23.5938C10.1172 23.2275 9.96094 22.7905 9.84863 22.2827C9.74121 21.7749 9.6875 21.1865 9.6875 20.5176V18.7744C9.6875 17.9346 9.77051 17.2266 9.93652 16.6504C10.1025 16.0693 10.3394 15.5981 10.647 15.2368C10.9546 14.8706 11.3208 14.6045 11.7456 14.4385C12.1753 14.2725 12.6538 14.1895 13.1812 14.1895C13.606 14.1895 13.9966 14.2432 14.353 14.3506C14.7144 14.4531 15.0366 14.6167 15.3198 14.8413C15.6079 15.0659 15.8521 15.3589 16.0522 15.7202C16.2573 16.0767 16.4136 16.5088 16.521 17.0166C16.6284 17.5195 16.6821 18.1055 16.6821 18.7744ZM14.917 20.7666V18.5107C14.917 18.0859 14.8926 17.7124 14.8438 17.3901C14.7949 17.063 14.7217 16.7871 14.624 16.5625C14.5312 16.333 14.4141 16.1475 14.2725 16.0059C14.1309 15.8594 13.9697 15.7544 13.7891 15.6909C13.6084 15.6226 13.4058 15.5884 13.1812 15.5884C12.9077 15.5884 12.6636 15.6421 12.4487 15.7495C12.2339 15.8521 12.0532 16.0181 11.9067 16.2476C11.7603 16.4771 11.6479 16.7798 11.5698 17.1558C11.4966 17.5269 11.46 17.9785 11.46 18.5107V20.7666C11.46 21.1963 11.4844 21.5747 11.5332 21.9019C11.582 22.229 11.6553 22.5098 11.7529 22.7441C11.8506 22.9736 11.9678 23.1641 12.1045 23.3154C12.2461 23.4619 12.4072 23.5693 12.5879 23.6377C12.7734 23.7061 12.9761 23.7402 13.1958 23.7402C13.4741 23.7402 13.7207 23.6865 13.9355 23.5791C14.1504 23.4717 14.3311 23.3008 14.4775 23.0664C14.624 22.8271 14.7339 22.5171 14.8071 22.1362C14.8804 21.7554 14.917 21.2988 14.917 20.7666Z" fill="black"/>
<path d="M8.35352 23.5938V25H1.20508V23.7915L4.67676 20.0049C5.05762 19.5752 5.35791 19.2041 5.57764 18.8916C5.79736 18.5791 5.95117 18.2983 6.03906 18.0493C6.13184 17.7954 6.17822 17.5488 6.17822 17.3096C6.17822 16.9727 6.11475 16.6772 5.98779 16.4233C5.86572 16.1646 5.68506 15.9619 5.4458 15.8154C5.20654 15.6641 4.91602 15.5884 4.57422 15.5884C4.17871 15.5884 3.84668 15.6738 3.57812 15.8447C3.30957 16.0156 3.10693 16.2524 2.97021 16.5552C2.8335 16.853 2.76514 17.1948 2.76514 17.5806H1C1 16.9604 1.1416 16.394 1.4248 15.8813C1.70801 15.3638 2.11816 14.9536 2.65527 14.6509C3.19238 14.3433 3.83936 14.1895 4.59619 14.1895C5.30908 14.1895 5.91455 14.3091 6.4126 14.5483C6.91064 14.7876 7.28906 15.127 7.54785 15.5664C7.81152 16.0059 7.94336 16.5259 7.94336 17.1265C7.94336 17.4585 7.88965 17.7881 7.78223 18.1152C7.6748 18.4424 7.521 18.7695 7.3208 19.0967C7.12549 19.4189 6.89355 19.7437 6.625 20.0708C6.35645 20.3931 6.06104 20.7202 5.73877 21.0522L3.43164 23.5938H8.35352Z" fill="black"/>
</svg>
