<svg width="56" height="56" viewBox="0 0 56 56" fill="none" xmlns="http://www.w3.org/2000/svg">
<path opacity="0.2" d="M52.5 16.625C52.5 21.9407 40.5645 14 28 14C15.4355 14 3.5 21.9407 3.5 16.625C3.5 11.3092 15.4355 0 28 0C40.5645 0 52.5 11.3092 52.5 16.625Z" fill="#81C7B5"/>
<path d="M52.7031 29.7675C51.25 29.7675 44.2054 16.6553 35.875 17.5431C33.25 17.8229 30.4219 20.2578 28.4844 20.2578H28M52.7031 29.7675C48.5625 29.7675 43.0156 27.7655 39.1406 28.6615C35.2656 29.5576 32.8437 32.375 28 32.375M52.7031 29.7675C53.2587 29.7675 54.1681 29.6468 55.125 29.3599" stroke="black" stroke-width="1.5" stroke-linecap="round"/>
<path d="M3.29687 29.7675C4.75 29.7675 11.7946 16.6553 20.125 17.5431C22.75 17.8229 25.5781 20.2578 27.5156 20.2578H28M3.29687 29.7675C7.4375 29.7675 12.9844 27.7655 16.8594 28.6615C20.7344 29.5576 23.1563 32.375 28 32.375M3.29687 29.7675C2.74135 29.7675 1.83187 29.6468 0.875 29.3599" stroke="black" stroke-width="1.5" stroke-linecap="round"/>
<path d="M8.75 34.125V34.125C18.6864 46.3197 37.3136 46.3197 47.25 34.125V34.125" stroke="black" stroke-width="1.5" stroke-linecap="round"/>
</svg>
