<svg width="64" height="64" viewBox="0 0 64 64" fill="none" xmlns="http://www.w3.org/2000/svg">
<path opacity="0.2" d="M60 19C60 25.0751 46.3594 16 32 16C17.6406 16 4 25.0751 4 19C4 12.9248 17.6406 0 32 0C46.3594 0 60 12.9248 60 19Z" fill="#81C7B5"/>
<path d="M60.2321 34.02C58.5714 34.02 50.5205 19.0346 41 20.0493C38 20.369 34.7679 23.1518 32.5536 23.1518H32M60.2321 34.02C55.5 34.02 49.1607 31.732 44.7321 32.756C40.3036 33.7801 37.5357 37 32 37M60.2321 34.02C60.867 34.02 61.9064 33.882 63 33.5542" stroke="black" stroke-width="1.5" stroke-linecap="round"/>
<path d="M3.76786 34.02C5.42857 34.02 13.4795 19.0346 23 20.0493C26 20.369 29.2321 23.1518 31.4464 23.1518H32M3.76786 34.02C8.5 34.02 14.8393 31.732 19.2679 32.756C23.6964 33.7801 26.4643 37 32 37M3.76786 34.02C3.13297 34.02 2.09356 33.882 1 33.5542" stroke="black" stroke-width="1.5" stroke-linecap="round"/>
<path d="M10 39V39C21.3559 52.9368 42.6441 52.9368 54 39V39" stroke="black" stroke-width="1.5" stroke-linecap="round"/>
</svg>
