<svg width="40" height="40" viewBox="0 0 40 40" fill="none" xmlns="http://www.w3.org/2000/svg">
<path d="M4.75 24.25V12.7461C4.75 11.6415 5.64543 10.7461 6.75 10.7461H17.25C18.3546 10.7461 19.25 11.6415 19.25 12.7461V24.25" stroke="black" stroke-width="1.5" stroke-linecap="round"/>
<path d="M7.75 21.7533V37C7.75 38.1046 8.64543 39 9.75 39H12M16.25 21.7533V37C16.25 38.1046 15.3546 39 14.25 39H12M12 39V25.3939" stroke="black" stroke-width="1.5" stroke-linecap="round"/>
<circle cx="12" cy="4.75415" r="3.25" stroke="black" stroke-width="1.5"/>
<path d="M35.25 1.75H29.25" stroke="black" stroke-width="1.5" stroke-linecap="round"/>
<path d="M35.25 9.75H29.25" stroke="black" stroke-width="1.5" stroke-linecap="round"/>
<path d="M35.25 17.75H29.25" stroke="black" stroke-width="1.5" stroke-linecap="round"/>
<path d="M35.25 25.75H29.25" stroke="black" stroke-width="1.5" stroke-linecap="round"/>
<path d="M35.25 33.75H29.25" stroke="black" stroke-width="1.5" stroke-linecap="round"/>
<path d="M35.25 5.75H32.25" stroke="black" stroke-width="1.5" stroke-linecap="round"/>
<path d="M35.25 13.75H32.25" stroke="black" stroke-width="1.5" stroke-linecap="round"/>
<path d="M35.25 21.75H32.25" stroke="black" stroke-width="1.5" stroke-linecap="round"/>
<path d="M35.25 29.75H32.25" stroke="black" stroke-width="1.5" stroke-linecap="round"/>
<path d="M35.25 37.75H32.25" stroke="black" stroke-width="1.5" stroke-linecap="round"/>
</svg>
