<svg width="40" height="40" viewBox="0 0 40 40" fill="none" xmlns="http://www.w3.org/2000/svg">
<path d="M0.75 3.7547H27M39.2532 3.7547H32" stroke="black" stroke-width="1.5" stroke-linecap="round"/>
<path d="M0.75 36.25H8M39.2532 36.25H13" stroke="black" stroke-width="1.5" stroke-linecap="round"/>
<path d="M31.8408 19.1553V20.7446H24.5312V19.1553H31.8408ZM29.043 16.167V23.9307H27.3364V16.167H29.043Z" fill="black"/>
<path d="M23.2837 18.7744V20.5176C23.2837 21.3525 23.2007 22.0654 23.0347 22.6562C22.8735 23.2422 22.6392 23.7183 22.3315 24.0845C22.0239 24.4507 21.6553 24.7192 21.2256 24.8901C20.8008 25.061 20.3247 25.1465 19.7974 25.1465C19.3774 25.1465 18.9868 25.0928 18.6255 24.9854C18.269 24.8779 17.9468 24.7095 17.6587 24.48C17.3706 24.2505 17.124 23.9551 16.9189 23.5938C16.7188 23.2275 16.5625 22.7905 16.4502 22.2827C16.3428 21.7749 16.2891 21.1865 16.2891 20.5176V18.7744C16.2891 17.9346 16.3721 17.2266 16.5381 16.6504C16.7041 16.0693 16.9409 15.5981 17.2485 15.2368C17.5562 14.8706 17.9224 14.6045 18.3472 14.4385C18.7769 14.2725 19.2554 14.1895 19.7827 14.1895C20.2075 14.1895 20.5981 14.2432 20.9546 14.3506C21.3159 14.4531 21.6382 14.6167 21.9214 14.8413C22.2095 15.0659 22.4536 15.3589 22.6538 15.7202C22.8589 16.0767 23.0151 16.5088 23.1226 17.0166C23.23 17.5195 23.2837 18.1055 23.2837 18.7744ZM21.5186 20.7666V18.5107C21.5186 18.0859 21.4941 17.7124 21.4453 17.3901C21.3965 17.063 21.3232 16.7871 21.2256 16.5625C21.1328 16.333 21.0156 16.1475 20.874 16.0059C20.7324 15.8594 20.5713 15.7544 20.3906 15.6909C20.21 15.6226 20.0073 15.5884 19.7827 15.5884C19.5093 15.5884 19.2651 15.6421 19.0503 15.7495C18.8354 15.8521 18.6548 16.0181 18.5083 16.2476C18.3618 16.4771 18.2495 16.7798 18.1714 17.1558C18.0981 17.5269 18.0615 17.9785 18.0615 18.5107V20.7666C18.0615 21.1963 18.0859 21.5747 18.1348 21.9019C18.1836 22.229 18.2568 22.5098 18.3545 22.7441C18.4521 22.9736 18.5693 23.1641 18.7061 23.3154C18.8477 23.4619 19.0088 23.5693 19.1895 23.6377C19.375 23.7061 19.5776 23.7402 19.7974 23.7402C20.0757 23.7402 20.3223 23.6865 20.5371 23.5791C20.752 23.4717 20.9326 23.3008 21.0791 23.0664C21.2256 22.8271 21.3354 22.5171 21.4087 22.1362C21.4819 21.7554 21.5186 21.2988 21.5186 20.7666Z" fill="black"/>
<path d="M14.9551 23.5938V25H7.80664V23.7915L11.2783 20.0049C11.6592 19.5752 11.9595 19.2041 12.1792 18.8916C12.3989 18.5791 12.5527 18.2983 12.6406 18.0493C12.7334 17.7954 12.7798 17.5488 12.7798 17.3096C12.7798 16.9727 12.7163 16.6772 12.5894 16.4233C12.4673 16.1646 12.2866 15.9619 12.0474 15.8154C11.8081 15.6641 11.5176 15.5884 11.1758 15.5884C10.7803 15.5884 10.4482 15.6738 10.1797 15.8447C9.91113 16.0156 9.7085 16.2524 9.57178 16.5552C9.43506 16.853 9.3667 17.1948 9.3667 17.5806H7.60156C7.60156 16.9604 7.74316 16.394 8.02637 15.8813C8.30957 15.3638 8.71973 14.9536 9.25684 14.6509C9.79395 14.3433 10.4409 14.1895 11.1978 14.1895C11.9106 14.1895 12.5161 14.3091 13.0142 14.5483C13.5122 14.7876 13.8906 15.127 14.1494 15.5664C14.4131 16.0059 14.5449 16.5259 14.5449 17.1265C14.5449 17.4585 14.4912 17.7881 14.3838 18.1152C14.2764 18.4424 14.1226 18.7695 13.9224 19.0967C13.7271 19.4189 13.4951 19.7437 13.2266 20.0708C12.958 20.3931 12.6626 20.7202 12.3403 21.0522L10.0332 23.5938H14.9551Z" fill="black"/>
</svg>
