<svg width="112" height="24" viewBox="0 0 112 24" fill="none" xmlns="http://www.w3.org/2000/svg">
<path d="M13.4689 11.2932C12.6433 10.4337 11.5425 9.937 10.3683 9.8797H8.00149V13.7001L9.50595 15.2856V11.4652H10.2398C11.6526 11.4843 12.8818 12.4776 13.2304 13.9102C13.579 15.3238 12.9736 16.8328 11.7443 17.5587C10.515 18.2846 8.97389 18.0745 7.98314 17.0239L3.02942 11.8663L7.98314 6.70876C8.91885 5.75366 10.3132 5.48623 11.5058 6.05929C12.6983 6.63235 13.4139 7.91219 13.3222 9.26844V9.28753L14.6431 10.3955L14.6615 10.3381C15.2486 8.21782 14.3863 5.96378 12.5516 4.83676C10.7352 3.70974 8.40513 4.03447 6.91901 5.58174L0.882812 11.8472L6.90066 18.1127C8.71703 20.0038 11.6526 20.0038 13.4689 18.1127C15.2853 16.2407 15.2853 13.1843 13.4689 11.2932Z" fill="#23A994"/>
<path d="M51.7086 9.42137V10.1472C50.9564 9.55508 50.0574 9.24945 49.1034 9.24945C46.7182 9.24945 44.9202 11.1215 44.9202 13.6429C44.9202 16.1644 46.6999 18.0364 49.1034 18.0364C50.0391 18.0555 50.9564 17.7308 51.7086 17.1386V17.8645H53.2865V9.44048H51.7086V9.42137ZM49.1034 16.4127C47.6172 16.4127 46.5531 15.1711 46.5531 13.6429C46.5531 12.0957 47.5989 10.8731 49.1034 10.8731C50.5895 10.8731 51.6536 12.1148 51.6536 13.6429C51.6536 15.1711 50.6078 16.4127 49.1034 16.4127ZM32.8478 9.23035C35.2329 9.23035 37.031 11.1024 37.031 13.6238C37.031 16.1262 35.2513 17.9982 32.8478 17.9982C30.4443 17.9982 28.6647 16.1262 28.6647 13.6238C28.6647 11.1215 30.4443 9.23035 32.8478 9.23035ZM32.8478 16.3936C34.3339 16.3936 35.3981 15.152 35.3981 13.6238C35.3981 12.0766 34.3523 10.854 32.8478 10.854C31.3617 10.854 30.2976 12.0957 30.2976 13.6238C30.2976 15.1711 31.3434 16.3936 32.8478 16.3936ZM45.8376 17.8263H43.6543L39.6546 13.7193V17.8454H38.0217V5.12341H39.6546V12.6496L43.0305 9.42137H45.3239L41.2875 13.2227L45.8376 17.8263ZM63.8177 9.42137H65.4506V17.8263H63.8177V9.42137ZM71.285 10.9304C71.0832 10.8731 70.863 10.854 70.6429 10.854C69.7989 10.854 68.8999 11.4653 68.4596 12.2676V17.8263H66.8267V9.42137H68.4045V10.3765C68.8081 9.80341 69.6521 9.23035 70.8263 9.23035C71.0465 9.23035 71.2483 9.24945 71.4685 9.28766L71.285 10.9304ZM72.9546 13.9868C73.0463 15.4194 74.2022 16.5464 75.5782 16.5273C76.7891 16.5273 77.4313 15.9161 77.9083 15.3812L78.9724 16.4318C78.367 17.2341 77.2111 18.0173 75.5782 18.0173C73.2298 18.0173 71.3951 16.1644 71.3951 13.6238C71.3951 11.0832 73.0463 9.23035 75.3397 9.23035C77.5964 9.23035 79.2293 11.1215 79.2293 13.6238C79.2293 13.7384 79.2293 13.8721 79.211 13.9868H72.9546ZM73.083 12.535H77.4863C77.2478 11.4653 76.3121 10.7012 75.3581 10.7012C74.2939 10.7203 73.3582 11.4653 73.083 12.535ZM87.9258 17.8263H85.7425L81.7429 13.7193V17.8454H80.11V5.12341H81.7429V12.6496L85.1187 9.42137H87.4305L83.3941 13.2227L87.9258 17.8263ZM89.9257 10.9304H92.5126V9.40227H89.9257V7.07182H88.2928V15.4003C88.2928 16.3936 88.8615 17.2914 89.7422 17.6544C89.7789 17.6735 89.8156 17.6735 89.8523 17.6926C90.2926 17.8836 90.7513 17.9791 91.2283 17.9791C91.6503 17.9791 92.0906 17.9218 92.4943 17.8072L92.164 16.2599C91.8705 16.3363 91.5769 16.3745 91.265 16.3745C91.21 16.3745 91.1366 16.3745 91.0815 16.3554C90.9531 16.3363 90.8247 16.3172 90.6962 16.279C90.4761 16.2217 90.2926 16.088 90.1458 15.9161C89.944 15.6677 89.9073 15.2857 89.9073 14.8464L89.9257 10.9304ZM94.5124 15.4958C95.1729 15.4958 95.7234 16.0498 95.7234 16.7566C95.7234 17.4633 95.1913 18.0173 94.5124 18.0173C93.8519 18.0173 93.3015 17.4633 93.3015 16.7566C93.3015 16.4318 93.43 16.1071 93.6501 15.8588C93.8886 15.6295 94.1822 15.4958 94.5124 15.4958ZM97.3562 15.5913C98.1085 16.2026 98.9341 16.5273 99.7414 16.5273C100.439 16.5273 101.154 16.1262 101.154 15.4767C101.154 14.5025 99.8148 14.4643 98.6222 14.0441C97.6498 13.7002 96.7691 13.0508 96.7691 11.8855C96.7691 10.0708 98.3103 9.24945 99.7597 9.24945C100.952 9.24945 101.815 9.6506 102.438 10.1855L101.594 11.408C101.099 10.9877 100.494 10.7585 99.8515 10.7394C99.0625 10.7394 98.3837 11.1406 98.3837 11.79C98.3837 12.3631 99.0258 12.5541 99.8331 12.7833C101.099 13.1272 102.769 13.7193 102.769 15.4576C102.769 17.0431 101.338 18.0364 99.7597 18.0364C98.5672 18.0555 97.4113 17.6544 96.4939 16.8712L97.3562 15.5913ZM104.732 14.025C104.824 15.4576 105.961 16.5655 107.337 16.5655C108.548 16.5655 109.19 15.9543 109.649 15.4194L110.713 16.47C110.107 17.2723 108.952 18.0555 107.3 18.0555C104.952 18.0555 103.117 16.2026 103.117 13.662C103.117 11.1406 104.768 9.26856 107.062 9.26856C109.319 9.26856 110.951 11.1597 110.951 13.662C110.951 13.7766 110.951 13.8913 110.933 14.025H104.732ZM104.879 12.5923H109.282C109.043 11.5226 108.108 10.7585 107.154 10.7585C106.071 10.7585 105.135 11.5226 104.879 12.5923ZM23.8394 9.24945C22.922 9.23035 22.023 9.53599 21.2891 10.109V5.14252H19.6562V17.8454H21.2341L21.2158 17.1195C21.968 17.7308 22.8853 18.0555 23.8394 18.0364C26.2245 18.0364 28.0225 16.1644 28.0225 13.6429C28.0225 11.1215 26.2429 9.24945 23.8394 9.24945ZM23.8394 10.854C25.3439 10.854 26.3896 12.0957 26.3896 13.6238C26.3896 15.1711 25.3439 16.3936 23.8394 16.3936C22.3349 16.3936 21.2891 15.152 21.2891 13.6238C21.3075 12.0957 22.3533 10.854 23.8394 10.854ZM60.8822 5.12341V10.0899C60.1483 9.51688 59.2493 9.23035 58.3319 9.23035C55.9468 9.23035 54.1672 11.1215 54.1672 13.6238C54.1672 16.1262 55.9468 18.0173 58.3503 18.0173C59.286 18.0364 60.2217 17.7117 60.9556 17.1004L60.9372 17.8263H62.5151V5.12341H60.8822ZM58.3319 16.4127C56.8458 16.4127 55.7817 15.1711 55.7817 13.6429C55.7817 12.0957 56.8275 10.8731 58.3319 10.8731C59.8181 10.8731 60.8822 12.1148 60.8822 13.6429C60.8822 15.1711 59.8181 16.4127 58.3319 16.4127ZM64.6434 6.02121C64.3498 6.02121 64.0929 6.13582 63.8911 6.34594C63.6893 6.55606 63.5792 6.8426 63.5792 7.14823C63.5792 7.43476 63.6893 7.72129 63.8911 7.93142C64.0929 8.14154 64.3681 8.25615 64.6434 8.25615C64.9369 8.25615 65.1938 8.14154 65.4139 7.93142C65.6158 7.72129 65.7258 7.43476 65.7258 7.14823C65.7258 6.8426 65.6158 6.55606 65.4139 6.34594C65.2121 6.13582 64.9186 6.02121 64.6434 6.02121Z" fill="black"/>
</svg>
