<svg width="116" height="42" viewBox="0 0 116 42" fill="none" xmlns="http://www.w3.org/2000/svg">
<path d="M2.03311 18.6478L2.08278 25.592L4.01984 25.6429L5.97346 25.6938L6.00658 20.7192L6.05624 15.7445L7.31451 15.7615C7.99331 15.7785 8.83767 15.8804 9.16879 15.9822C10.4602 16.4237 11.1886 17.9857 10.7913 19.4967C10.4602 20.7871 9.48336 21.4323 7.74497 21.5681L6.6026 21.653L6.65226 23.3678C6.71849 25.8127 6.65226 25.6769 7.94364 25.6769C8.53966 25.6769 9.36746 25.592 9.76481 25.4901C11.7019 25.0317 13.523 23.5206 14.384 21.653C14.7979 20.7531 14.831 20.4815 14.831 18.6308C14.831 16.7802 14.7979 16.5086 14.384 15.6257C13.8707 14.5051 12.7615 13.2996 11.735 12.7563C10.3112 12.0093 9.53303 11.8904 5.67545 11.8055L2 11.7207L2.03311 18.6478Z" fill="#636363"/>
<path d="M19.3206 15.6088C18.2941 15.9653 16.9034 17.2726 16.3902 18.3253C15.8107 19.5477 15.8438 21.704 16.4398 22.8755C17.0027 23.9791 17.9299 24.8789 18.9729 25.3543C20.4298 26.0165 22.8636 25.8128 23.9066 24.9469L24.3536 24.5733L23.3437 23.3339C22.3504 22.1284 22.3172 22.1115 21.9364 22.3661C20.7775 23.1471 19.7179 22.1794 19.7179 20.3118C19.7179 19.4628 19.7676 19.31 20.2808 18.7837C20.9596 18.0876 21.5557 18.0367 22.1186 18.6309C22.7477 19.2591 22.6318 19.3949 21.5391 19.3949H20.5457V20.2438V21.0928H23.3603H26.1748V20.2778C26.1748 18.9195 25.7278 17.9008 24.6848 16.8142C23.9728 16.0841 23.5424 15.7955 22.8636 15.5918C21.7543 15.2522 20.3636 15.2522 19.3206 15.6088Z" fill="#636363"/>
<path d="M30.3332 15.5579C29.4558 15.8805 28.4789 16.8313 28.065 17.7651C27.7174 18.5631 27.6843 18.8687 27.6677 21.772C27.6677 23.5038 27.6511 25.0828 27.6677 25.2865C27.6677 25.66 27.7174 25.677 29.4889 25.677H31.31V22.8246C31.31 19.5139 31.4259 19.1403 32.4027 19.2592L32.9657 19.3271V17.3236V15.3202L31.9392 15.3372C31.3597 15.3372 30.6478 15.439 30.3332 15.5579Z" fill="#636363"/>
<path d="M36.4628 15.5409C35.5853 15.8805 34.7575 16.6615 34.3436 17.5953C33.9628 18.4272 33.9462 18.631 33.9462 22.0606V25.677H35.7674H37.5886V22.6888C37.5886 19.6157 37.6879 19.0554 38.2508 19.0554C38.8137 19.0554 38.9131 19.6157 38.9131 22.6888V25.677H40.7342H42.5554V22.6888C42.5554 19.5987 42.6547 19.0554 43.2342 19.0554C43.764 19.0554 43.8799 19.7346 43.8799 22.8077V25.677H45.7176H47.5553L47.4891 21.9757C47.4229 17.7821 47.2904 17.2557 46.1812 16.271C44.7408 15.0146 42.8865 15.0146 41.264 16.271L40.7177 16.7124L40.3534 16.3729C39.4097 15.456 37.6879 15.0995 36.4628 15.5409Z" fill="#636363"/>
<path d="M52.4996 15.5746C49.0228 16.6952 47.8473 21.5001 50.3969 24.1826C51.3075 25.1504 52.4333 25.6767 53.8406 25.7956L54.983 25.8975V23.928V21.9755L54.3539 22.0604C53.8406 22.1283 53.6254 22.0604 53.2611 21.7378C52.3009 20.9058 52.8804 19.225 54.1055 19.225C55.43 19.225 55.6452 19.7683 55.6452 23.147V25.6767H57.483H59.3207L59.2545 22.315C59.2048 18.9873 59.2048 18.9703 58.7081 17.9516C58.1286 16.7631 57.2015 15.9651 55.9432 15.5746C54.9002 15.269 53.4929 15.269 52.4996 15.5746Z" fill="#636363"/>
<path d="M64.6621 15.5578C63.2548 15.9992 62.129 17.0349 61.4998 18.478C61.2349 19.0553 61.1853 19.7514 61.1356 24.2677L61.0859 29.4121H62.9071H64.7448V25.1166C64.7448 22.7057 64.8276 20.5664 64.9104 20.2098C65.2415 19.0044 66.3839 18.6818 67.2448 19.5477C67.5263 19.8533 67.7249 20.2268 67.7249 20.4985C67.7249 21.4662 66.2018 22.3491 65.6058 21.7379C65.4567 21.5851 65.4071 22.0095 65.4071 23.6904V25.8467H66.2018C68.2382 25.8467 69.9931 24.7261 70.8872 22.8754C71.9302 20.6852 71.4832 18.2403 69.7613 16.6953C68.4037 15.4559 66.3673 15.0145 64.6621 15.5578Z" fill="#636363"/>
<path d="M75.7244 15.5917C74.7642 15.9482 73.4397 17.2216 72.8933 18.2743C72.5291 19.0043 72.4629 19.3609 72.4629 20.5833C72.4629 21.8058 72.5291 22.1453 72.8933 22.8754C73.8702 24.777 75.4264 25.7447 77.5787 25.7617C78.7045 25.7617 79.0522 25.6938 79.8635 25.2863C80.3767 25.0147 80.8072 24.743 80.8072 24.6751C80.8072 24.6072 80.3602 23.996 79.7972 23.3168C78.8039 22.1114 78.7873 22.0944 78.39 22.3491C77.8271 22.7396 77.2642 22.6886 76.784 22.1793C75.9397 21.3134 75.9728 19.4627 76.8337 18.6648C77.4628 18.0875 78.0423 18.0705 78.5721 18.6308C79.2012 19.259 79.0853 19.3948 78.0092 19.3948C77.0986 19.3948 77.0324 19.4288 76.9662 19.8193C76.9165 20.057 76.9165 20.4305 76.9662 20.6682L77.0324 21.0927H79.8304H82.6283V20.1079C82.6283 18.3931 81.5191 16.6443 79.8966 15.7784C79.0191 15.32 76.7344 15.2012 75.7244 15.5917Z" fill="#636363"/>
<path d="M87.001 15.5408C85.7593 16.0162 84.6997 17.1368 84.3024 18.3762C84.1534 18.8516 84.0209 23.5036 84.1037 25.3713C84.1203 25.6429 84.3189 25.6769 85.9414 25.6769H87.7626V22.5529C87.7626 19.2081 87.8123 18.9704 88.6235 19.0893C89.0043 19.1402 89.0043 19.1572 89.0871 22.3661L89.1699 25.592L91.0573 25.6429L92.9281 25.6938L92.8619 22.1623C92.8122 19.259 92.746 18.495 92.4977 17.9008C92.1169 17.0009 90.8255 15.7955 89.948 15.5238C89.1368 15.2691 87.6798 15.2861 87.001 15.5408Z" fill="#636363"/>
<path fill-rule="evenodd" clip-rule="evenodd" d="M100.843 21.7719L101.174 23.215H106.306V25.5071H108.127V23.215H109.617V21.7719H108.127V14.8956H106.555L100.843 21.7719ZM103.078 21.7719V21.4323L106.223 17.5273H106.389L106.306 21.7719H103.078Z" fill="#636363"/>
<path fill-rule="evenodd" clip-rule="evenodd" d="M105.807 13.0278C105.579 13.0278 105.353 13.0387 105.131 13.0599C104.721 13.0989 104.358 12.79 104.32 12.3699C104.282 11.9497 104.583 11.5774 104.993 11.5384C105.261 11.5128 105.533 11.4998 105.807 11.4998C110.607 11.4998 114.499 15.4905 114.499 20.4134C114.499 25.3363 110.607 29.327 105.807 29.327C101.007 29.327 97.1151 25.3363 97.1151 20.4134C97.1151 20.258 97.1189 20.1034 97.1266 19.9498C97.1477 19.5284 97.4979 19.2043 97.9088 19.2259C98.3198 19.2475 98.6358 19.6067 98.6147 20.0281C98.6083 20.1556 98.6051 20.2841 98.6051 20.4134C98.6051 24.4924 101.83 27.799 105.807 27.799C109.785 27.799 113.009 24.4924 113.009 20.4134C113.009 16.3345 109.785 13.0278 105.807 13.0278Z" fill="#636363"/>
<path d="M99.1805 17.782C99.1805 18.2039 98.8469 18.546 98.4355 18.546C98.024 18.546 97.6904 18.2039 97.6904 17.782C97.6904 17.36 98.024 17.0179 98.4355 17.0179C98.8469 17.0179 99.1805 17.36 99.1805 17.782Z" fill="#636363"/>
<path d="M100.175 15.7447C100.175 16.1667 99.8411 16.5088 99.4296 16.5088C99.0181 16.5088 98.6846 16.1667 98.6846 15.7447C98.6846 15.3228 99.0181 14.9807 99.4296 14.9807C99.8411 14.9807 100.175 15.3228 100.175 15.7447Z" fill="#636363"/>
<path d="M101.668 14.0466C101.668 14.4686 101.334 14.8106 100.923 14.8106C100.511 14.8106 100.178 14.4686 100.178 14.0466C100.178 13.6247 100.511 13.2826 100.923 13.2826C101.334 13.2826 101.668 13.6247 101.668 14.0466Z" fill="#636363"/>
<path d="M103.664 12.8579C103.664 13.2799 103.33 13.6219 102.919 13.6219C102.507 13.6219 102.174 13.2799 102.174 12.8579C102.174 12.4359 102.507 12.0939 102.919 12.0939C103.33 12.0939 103.664 12.4359 103.664 12.8579Z" fill="#636363"/>
</svg>
