<svg width="80" height="28" viewBox="0 0 80 28" fill="none" xmlns="http://www.w3.org/2000/svg">
<g clip-path="url(#clip0_4862_379850)">
<path d="M34.1268 15.7384C34.1268 19.4028 31.1519 22.103 27.5009 22.103C23.85 22.103 20.875 19.4028 20.875 15.7384C20.875 12.0481 23.85 9.37366 27.5009 9.37366C31.1519 9.37366 34.1268 12.0481 34.1268 15.7384ZM31.2263 15.7384C31.2263 13.4484 29.5021 11.8817 27.5009 11.8817C25.4997 11.8817 23.7755 13.4484 23.7755 15.7384C23.7755 18.0053 25.4997 19.595 27.5009 19.595C29.5021 19.595 31.2263 18.0024 31.2263 15.7384Z" fill="#EA4335"/>
<path d="M48.4081 15.7384C48.4081 19.4028 45.4331 22.103 41.7822 22.103C38.1312 22.103 35.1562 19.4028 35.1562 15.7384C35.1562 12.051 38.1312 9.37366 41.7822 9.37366C45.4331 9.37366 48.4081 12.0481 48.4081 15.7384ZM45.5076 15.7384C45.5076 13.4484 43.7833 11.8817 41.7822 11.8817C39.781 11.8817 38.0568 13.4484 38.0568 15.7384C38.0568 18.0053 39.781 19.595 41.7822 19.595C43.7833 19.595 45.5076 18.0024 45.5076 15.7384Z" fill="#FBBC05"/>
<path d="M62.0997 9.75818V21.1848C62.0997 25.8851 59.223 27.8049 55.8222 27.8049C52.6209 27.8049 50.6942 25.7417 49.9676 24.0544L52.4929 23.0414C52.9425 24.0773 54.0444 25.2997 55.8192 25.2997C57.9961 25.2997 59.3451 24.0056 59.3451 21.5693V20.6539H59.2439C58.5947 21.4258 57.3439 22.1002 55.7656 22.1002C52.4631 22.1002 49.4375 19.3282 49.4375 15.7613C49.4375 12.1686 52.4631 9.37366 55.7656 9.37366C57.341 9.37366 58.5917 10.048 59.2439 10.797H59.3451V9.76105H62.0997V9.75818ZM59.5506 15.7613C59.5506 13.5202 57.9991 11.8817 56.0247 11.8817C54.0235 11.8817 52.3469 13.5202 52.3469 15.7613C52.3469 17.9795 54.0235 19.595 56.0247 19.595C57.9991 19.595 59.5506 17.9795 59.5506 15.7613Z" fill="#4285F4"/>
<path d="M66.6415 3.06079V21.713H63.8125V3.06079H66.6415Z" fill="#34A853"/>
<path d="M77.6814 17.8334L79.9327 19.2797C79.2061 20.3156 77.455 22.1005 74.4295 22.1005C70.6772 22.1005 67.875 19.3055 67.875 15.7358C67.875 11.9508 70.7011 9.37109 74.1049 9.37109C77.5325 9.37109 79.209 11.9996 79.757 13.42L80.0578 14.1432L71.2282 17.667C71.9042 18.944 72.9554 19.5954 74.4295 19.5954C75.9065 19.5954 76.9309 18.8952 77.6814 17.8334ZM70.7517 15.5435L76.654 13.1819C76.3294 12.387 75.3526 11.8332 74.2031 11.8332C72.729 11.8332 70.6772 13.0872 70.7517 15.5435V15.5435Z" fill="#EA4335"/>
<path d="M10.1598 14.0828V11.3826H19.6028C19.6951 11.8532 19.7428 12.4099 19.7428 13.0125C19.7428 15.0384 19.168 17.5435 17.3158 19.3284C15.5141 21.1362 13.2122 22.1004 10.1627 22.1004C4.51061 22.1004 -0.242188 17.6641 -0.242188 12.2176C-0.242188 6.77119 4.51061 2.33484 10.1627 2.33484C13.2896 2.33484 15.5171 3.5171 17.1907 5.05806L15.2133 6.96345C14.0132 5.87875 12.3873 5.0351 10.1598 5.0351C6.03234 5.0351 2.80425 8.2404 2.80425 12.2176C2.80425 16.1948 6.03234 19.4001 10.1598 19.4001C12.8369 19.4001 14.3616 18.3642 15.3384 17.423C16.1305 16.6597 16.6517 15.5693 16.8572 14.08L10.1598 14.0828V14.0828Z" fill="#4285F4"/>
</g>
<defs>
<clipPath id="clip0_4862_379850">
<rect width="80" height="28" fill="white"/>
</clipPath>
</defs>
</svg>
