<svg width="106" height="26" viewBox="0 0 106 26" fill="none" xmlns="http://www.w3.org/2000/svg">
<path d="M0.828857 5.93959H8.29481V19.907H0.828857V5.93959ZM0.828857 0.616333H8.29481V4.26284H0.828857V0.616333ZM19.8522 12.9559C19.8522 14.0628 20.1844 14.8768 20.8313 15.414C21.4782 15.9512 22.3 16.2117 23.2966 16.2117C24.1709 16.2117 24.8878 15.9512 25.4822 15.4466C26.0767 14.9419 26.3565 14.0628 26.3565 12.8419C26.3565 11.7187 26.0417 10.8884 25.4298 10.3512C24.8178 9.81401 24.066 9.55354 23.1917 9.55354C22.2301 9.55354 21.4433 9.81401 20.8138 10.3512C20.1669 10.8884 19.8522 11.7512 19.8522 12.9559ZM12.3687 25.1977V5.93959H19.3626V8.00703C20.3243 7.14424 21.216 6.55819 22.0203 6.24889C23.1043 5.84192 24.3108 5.63029 25.6396 5.63029C28.2448 5.63029 30.2555 6.34657 31.6893 7.77912C33.123 9.21168 33.8224 10.9698 33.8224 13.0698C33.8224 15.3977 33.0531 17.1721 31.497 18.3931C29.9408 19.614 27.9825 20.2326 25.6046 20.2326C24.4506 20.2326 23.4016 20.0861 22.4574 19.8094C21.5132 19.5326 20.6565 19.1094 19.9221 18.5559V25.1977H12.3687Z" fill="#636363"/>
<path d="M36.7257 9.81396H38.5091V17.9372H36.7257V9.81396ZM36.7257 6.72094H38.5091V8.30001H36.7257V6.72094ZM42.9502 17.9372V13.493C42.9502 12.4512 43.23 11.7512 43.772 11.3768C44.3141 11.0023 44.9785 10.8233 45.7303 10.8233C46.2024 10.8233 46.622 10.9047 46.9717 11.0675C47.3214 11.2302 47.5662 11.4581 47.7061 11.7349C47.846 12.0116 47.9159 12.4349 47.9159 12.9884V17.9372H49.6993V12.9395C49.6993 12.3047 49.6644 11.8488 49.5944 11.6047C49.4895 11.214 49.2972 10.8721 49.0349 10.5791C48.7726 10.2861 48.3705 10.0581 47.846 9.87908C47.3214 9.70001 46.7444 9.61862 46.0975 9.61862C44.6463 9.61862 43.5272 10.0581 42.7579 10.9535V9.79768H41.1668V17.9209H42.9502V17.9372ZM54.5775 17.9372V10.8884H56.6233V9.81396H54.5775V9.06513C54.5775 8.57675 54.6825 8.23489 54.9098 8.05582C55.1371 7.87675 55.5217 7.79536 56.0463 7.79536C56.3785 7.79536 56.7282 7.82792 57.0953 7.87676L57.3576 6.6721C56.7456 6.57443 56.2036 6.54187 55.6966 6.54187C54.9272 6.54187 54.3153 6.65582 53.8956 6.86745C53.4585 7.09536 53.1613 7.3721 52.9864 7.73024C52.8641 7.99071 52.7941 8.39768 52.7941 8.95117V9.81396H51.2205V10.8884H52.7941V17.9372H54.5775ZM66.4321 17.9372V9.81396H64.6662V14.1605C64.6662 14.8605 64.5613 15.3814 64.369 15.7558C64.1766 16.114 63.8444 16.407 63.3723 16.6186C62.9002 16.8302 62.4107 16.9442 61.8687 16.9442C61.3441 16.9442 60.8895 16.8465 60.5223 16.6349C60.1552 16.4233 59.9279 16.1465 59.8055 15.7884C59.7355 15.5442 59.7006 15.0558 59.7006 14.3395V9.83024H57.9171V14.8605C57.9171 15.4465 57.9521 15.8698 58.022 16.1465C58.1269 16.5535 58.3018 16.8954 58.5641 17.1721C58.8263 17.4488 59.2285 17.6768 59.753 17.8721C60.295 18.0512 60.872 18.1488 61.484 18.1488C62.8828 18.1488 63.9843 17.693 64.8061 16.7651V17.9535H66.4321V17.9372ZM68.4953 15.5116C68.6877 16.3744 69.1423 17.0256 69.8591 17.4651C70.576 17.9047 71.6076 18.1163 72.9714 18.1163C73.7932 18.1163 74.5275 18.0023 75.1745 17.7907C75.8214 17.5628 76.3285 17.2535 76.6607 16.8465C77.0104 16.4395 77.1852 16.0163 77.1852 15.5442C77.1852 15.0721 77.0453 14.6814 76.7656 14.3721C76.4858 14.0628 76.1012 13.8186 75.5941 13.6558C75.1045 13.493 74.2128 13.2814 72.9714 13.0209C72.0972 12.8419 71.5726 12.7279 71.3978 12.6628C71.0831 12.5651 70.8558 12.4512 70.7159 12.2884C70.576 12.1419 70.5061 11.9791 70.5061 11.8C70.5061 11.5233 70.6809 11.2791 71.0306 11.0675C71.3803 10.8558 71.9573 10.7581 72.7791 10.7581C73.4785 10.7581 74.003 10.8721 74.3877 11.1163C74.7723 11.3442 74.9996 11.6698 75.0696 12.093L76.8006 11.914C76.6956 11.393 76.4858 10.9698 76.1886 10.6605C75.8913 10.3512 75.4367 10.0907 74.8073 9.91164C74.1779 9.73257 73.461 9.63489 72.6392 9.63489C72.0972 9.63489 71.5901 9.68373 71.1006 9.79768C70.611 9.91164 70.2438 10.0419 69.9641 10.2047C69.5969 10.4163 69.2996 10.6605 69.0898 10.9698C68.88 11.2791 68.7751 11.6209 68.7751 11.9791C68.7751 12.3698 68.8975 12.7442 69.1598 13.0698C69.422 13.3954 69.8067 13.6558 70.2963 13.8349C70.8033 14.014 71.695 14.2419 73.0064 14.5023C73.968 14.6977 74.58 14.8442 74.8248 14.9744C75.1745 15.1535 75.3493 15.3977 75.3493 15.707C75.3493 16.0488 75.157 16.3581 74.7549 16.6186C74.3527 16.8791 73.7582 17.0093 72.9364 17.0093C72.1321 17.0093 71.5027 16.8628 71.0481 16.5698C70.5935 16.2768 70.3312 15.8535 70.2263 15.3163L68.4953 15.5116ZM79.2834 9.81396H81.0668V17.9372H79.2834V9.81396ZM79.2834 6.72094H81.0668V8.30001H79.2834V6.72094ZM84.9134 13.8837C84.9134 14.9256 85.2107 15.707 85.7877 16.2279C86.3647 16.7488 87.1165 17.0093 87.9907 17.0093C88.865 17.0093 89.5993 16.7488 90.1938 16.2279C90.7708 15.707 91.068 14.9093 91.068 13.8512C91.068 12.8419 90.7708 12.0768 90.1938 11.5721C89.5993 11.0512 88.8825 10.7907 87.9907 10.7907C87.099 10.7907 86.3647 11.0512 85.7877 11.5558C85.1932 12.0605 84.9134 12.8419 84.9134 13.8837ZM83.0775 13.8837C83.0775 12.3861 83.6196 11.2628 84.7036 10.5465C85.6128 9.9442 86.6969 9.65117 87.9907 9.65117C89.4245 9.65117 90.6134 10.0093 91.5226 10.7419C92.4318 11.4744 92.8864 12.4837 92.8864 13.7698C92.8864 14.8116 92.6766 15.6419 92.2745 16.2442C91.8723 16.8465 91.2778 17.3023 90.5085 17.6442C89.7392 17.9698 88.8999 18.1488 87.9732 18.1488C86.5045 18.1488 85.3156 17.7907 84.4239 17.0581C83.5321 16.293 83.0775 15.2512 83.0775 13.8837ZM96.7331 17.9372V13.493C96.7331 12.4512 97.0128 11.7512 97.5549 11.3768C98.0969 11.0023 98.7613 10.8233 99.5131 10.8233C99.9852 10.8233 100.405 10.9047 100.755 11.0675C101.104 11.2302 101.349 11.4581 101.489 11.7349C101.629 12.0116 101.699 12.4349 101.699 12.9884V17.9372H103.482V12.9395C103.482 12.3047 103.447 11.8488 103.377 11.6047C103.272 11.214 103.08 10.8721 102.818 10.5791C102.555 10.2861 102.153 10.0581 101.629 9.87908C101.104 9.70001 100.527 9.61862 99.8803 9.61862C98.4291 9.61862 97.3101 10.0581 96.5407 10.9535V9.79768H94.9496V17.9209H96.7331V17.9372ZM104.234 9.60234V8.20234H104.706L104.986 9.1628L105.266 8.20234H105.738V9.60234H105.44V8.47908L105.108 9.60234H104.828L104.496 8.47908V9.60234H104.234ZM103.29 9.60234V8.43024H102.818V8.18606H104.042V8.43024H103.587V9.58606H103.29V9.60234Z" fill="#636363"/>
</svg>
