<svg width="116" height="13" viewBox="0 0 116 13" fill="none" xmlns="http://www.w3.org/2000/svg">
<path d="M17.8238 0.380495C16.2969 0.721236 15.3778 1.43111 14.6959 2.79408C14.1326 3.94408 13.925 5.32124 14.014 7.20951C14.2067 11.3268 16.0301 13.1583 19.751 12.9453C22.6121 12.7749 24.139 11.1706 24.5392 7.89099C24.732 6.30087 24.5244 4.3558 24.0352 3.07803C23.6053 2.01321 22.4787 0.905804 21.4558 0.565063C20.4625 0.23852 18.817 0.167532 17.8238 0.380495ZM20.1957 2.43914C20.7739 3.00704 20.9962 4.11445 20.9962 6.58482C20.9962 9.86445 20.5218 11.128 19.3211 11.128C17.9721 11.128 17.6014 10.1626 17.6014 6.58482C17.6014 3.8163 17.7497 3.07803 18.4168 2.43914C18.9801 1.89963 19.6324 1.89963 20.1957 2.43914Z" fill="#636363"/>
<path d="M0.195312 6.57043V12.8315H1.90011H3.60491V10.7871V8.74265L4.98357 8.68586C7.8002 8.55808 9.34193 7.28031 9.505 4.93771C9.65324 2.62351 8.80825 1.31734 6.7032 0.692648C6.12505 0.522278 5.11699 0.437093 3.05641 0.380302L0.195312 0.295117V6.57043ZM5.36901 2.56672C5.96198 2.99265 6.16952 3.54635 6.16952 4.66796C6.1547 5.76117 5.88786 6.47105 5.38383 6.7266C5.22076 6.81179 4.74639 6.92537 4.34613 6.96796L3.60491 7.05315V4.59697V2.1408L4.28683 2.22598C4.67226 2.25438 5.14664 2.42475 5.36901 2.56672Z" fill="#636363"/>
<path d="M27.3027 0.451778C27.3027 0.508569 27.9402 3.29129 28.711 6.62771C29.4819 9.96413 30.1194 12.7185 30.1194 12.761C30.1194 12.8036 30.9347 12.832 31.9428 12.832H33.7513L34.7742 8.67215C35.3375 6.40055 35.8416 4.39869 35.9009 4.25672C35.9602 4.08635 36.3011 5.43511 36.7755 7.73512C37.2054 9.79376 37.6205 11.7814 37.7094 12.1505L37.8577 12.832H39.6069H41.3562L42.9276 6.72709C43.7874 3.37647 44.499 0.551161 44.499 0.480173C44.499 0.380791 44.0394 0.338198 43.2093 0.366593L41.9047 0.409186L41.1338 3.74561C40.7039 5.57709 40.2592 7.64993 40.1554 8.35981L39.9627 9.63759L39.7107 8.14684C39.4735 6.76968 38.4506 2.11289 38.1097 0.863507L37.9614 0.324001L36.3752 0.366593L34.789 0.409186L34.0033 3.24869C33.5734 4.81042 33.0694 6.84067 32.8619 7.77771C32.6691 8.70055 32.4764 9.48141 32.4468 9.50981C32.4171 9.5524 32.343 9.08388 32.2837 8.47339C32.1799 7.36598 30.9199 0.678939 30.7716 0.451778C30.6679 0.309803 27.3027 0.295605 27.3027 0.451778Z" fill="#636363"/>
<path d="M48.1543 6.58512V12.832H51.9345H55.7147V11.9092V10.9864H53.6393H51.5639V9.21166V7.43697H53.2687H54.9735V6.51413V5.59129H53.2687H51.5639V3.88758V2.18388H53.5652H55.5665V1.26104V0.338201H51.8604H48.1543V6.58512Z" fill="#636363"/>
<path d="M61.1152 6.57092V12.832H62.82H64.5248V10.6314C64.5248 7.72092 64.6286 7.72092 66.0814 10.6314L67.1784 12.832H69.0463C70.0691 12.832 70.8993 12.8036 70.8993 12.761C70.8993 12.6759 69.1056 9.46721 68.4385 8.33141L68.0827 7.74931L68.7201 7.39437C69.7134 6.84067 70.2026 5.86104 70.2174 4.39869C70.2322 2.95055 69.9209 2.0845 69.1056 1.43141C68.1271 0.622149 67.3415 0.451778 64.0505 0.366593L61.1152 0.295605V6.57092ZM65.9924 2.39684C66.6002 2.69499 66.793 3.26289 66.7337 4.59746C66.6744 5.59129 66.6299 5.77586 66.2889 6.1024C66.0221 6.35795 65.6811 6.49993 65.2068 6.54252L64.5248 6.62771V4.39869V2.18388H65.0437C65.3402 2.18388 65.7701 2.28326 65.9924 2.39684Z" fill="#636363"/>
<path d="M75.3281 6.58512V12.832H79.0342H82.7403V11.9092V10.9864H80.739H78.7377V5.66228V0.338201H77.0329H75.3281V6.58512Z" fill="#636363"/>
<path d="M87.1025 6.58512V12.832H88.8073H90.5121V6.58512V0.338201H88.8073H87.1025V6.58512Z" fill="#636363"/>
<path d="M94.8203 1.24684V2.16968L96.199 2.21228L97.5628 2.25487L97.6073 7.53635L97.6369 12.832H99.3417H101.047V7.50796V2.18388H102.455H103.878L103.834 1.28944L103.789 0.409189L99.3121 0.366596L94.8203 0.338201V1.24684Z" fill="#636363"/>
<path d="M108.215 6.58512V12.832H111.995H115.775V11.9092V10.9864H113.7H111.624V9.21166V7.43697H113.329H115.034V6.51413V5.59129H113.329H111.624V3.88758V2.18388H113.626H115.627V1.26104V0.338201H111.921H108.215V6.58512Z" fill="#636363"/>
</svg>