<svg width="382" height="132" viewBox="0 0 382 132" fill="none" xmlns="http://www.w3.org/2000/svg">
<path fill-rule="evenodd" clip-rule="evenodd" d="M64.3949 32.9678H48.5469V92.8462H57.3192V72.8867L64.3949 72.8867H76.2039C87.0121 72.8867 96.1104 64.1392 96.1104 52.9273C96.1104 41.7154 87.0121 32.9678 76.2039 32.9678H73.177H64.3949ZM64.3949 42.0721L57.3192 42.0721V63.7824H73.177V63.7824H76.2039C82.5389 63.7824 87.338 58.7338 87.338 52.9273C87.338 47.1207 82.5389 42.0721 76.2039 42.0721H64.3949Z" fill="#545454"/>
<path fill-rule="evenodd" clip-rule="evenodd" d="M106.25 32.9678H122.098H130.88H133.907C144.715 32.9678 153.814 41.7154 153.814 52.9273C153.814 61.3482 148.681 68.3789 141.547 71.3575L153.782 92.8463H143.592L132.228 72.8867H122.098L115.022 72.8867V92.8462H106.25V32.9678ZM115.022 42.0721L122.098 42.0721H133.907C140.242 42.0721 145.041 47.1207 145.041 52.9273C145.041 58.7338 140.242 63.7824 133.907 63.7824H130.88V63.7824H115.022V42.0721Z" fill="#545454"/>
<path fill-rule="evenodd" clip-rule="evenodd" d="M187.171 62.8034L164.722 33.3182H175.902L192.761 55.461L209.62 33.3182H220.8L198.351 62.8034L221.225 92.8465H210.044L192.761 70.1458L175.477 92.8465H164.297L187.171 62.8034Z" fill="#545454"/>
<path fill-rule="evenodd" clip-rule="evenodd" d="M255.369 68.3351H226.016V59.2308H255.369V68.3351Z" fill="#545454"/>
<path fill-rule="evenodd" clip-rule="evenodd" d="M260.414 42.4218V33.3174H308.325V42.4218H288.756V93.1959H279.983V42.4218H260.414Z" fill="#545454"/>
<path d="M307.531 86.0521C310.912 86.0521 312.602 84.544 312.602 81.5279C312.602 78.5242 310.912 77.0223 307.531 77.0223C304.151 77.0223 302.46 78.5242 302.46 81.5279H299.792C299.792 76.6776 302.371 74.2524 307.531 74.2524C312.691 74.2524 315.271 76.6653 315.271 81.491C315.271 84.1993 314.464 86.1505 312.851 87.3447C314.82 88.6126 315.805 90.8285 315.805 93.9923C315.805 99.2982 313.047 101.951 307.531 101.951C302.016 101.951 299.258 99.2859 299.258 93.9554H301.927C301.927 97.4393 303.795 99.1812 307.531 99.1812C311.268 99.1812 313.136 97.4393 313.136 93.9554C313.136 90.4838 311.268 88.7481 307.531 88.7481H306.144V86.0521H307.531Z" fill="#545454"/>
<path d="M331.165 86.0521C334.546 86.0521 336.236 84.544 336.236 81.5279C336.236 78.5242 334.546 77.0223 331.165 77.0223C327.785 77.0223 326.095 78.5242 326.095 81.5279H323.426C323.426 76.6776 326.006 74.2524 331.165 74.2524C336.325 74.2524 338.905 76.6653 338.905 81.491C338.905 84.1993 338.099 86.1505 336.485 87.3447C338.454 88.6126 339.439 90.8285 339.439 93.9923C339.439 99.2982 336.681 101.951 331.165 101.951C325.65 101.951 322.892 99.2859 322.892 93.9554H325.561C325.561 97.4393 327.429 99.1812 331.165 99.1812C334.902 99.1812 336.77 97.4393 336.77 93.9554C336.77 90.4838 334.902 88.7481 331.165 88.7481H329.778V86.0521H331.165Z" fill="#545454"/>
</svg>
