<svg width="90" height="22" viewBox="0 0 90 22" fill="none" xmlns="http://www.w3.org/2000/svg">
<path fill-rule="evenodd" clip-rule="evenodd" d="M5.55859 0.490234H0.744141V18.6352H3.408V12.5869L5.55859 12.5869H9.14456C12.4266 12.5869 15.1895 9.93611 15.1895 6.53856C15.1895 3.14102 12.4266 0.490234 9.14456 0.490234H8.22343H5.55859ZM5.55859 3.24912L3.408 3.24912V9.828H8.22343L9.14456 9.82801C11.0683 9.82801 12.5256 8.29813 12.5256 6.53856C12.5256 4.779 11.0683 3.24912 9.14456 3.24912H5.55859Z" fill="#636363"/>
<path fill-rule="evenodd" clip-rule="evenodd" d="M18.2654 0.490234H23.0799H25.7447H26.6658C29.9479 0.490234 32.7107 3.14102 32.7107 6.53856C32.7107 9.09033 31.1522 11.2209 28.9858 12.1235L32.701 18.6351H29.6069L26.156 12.5869H23.0799L20.9293 12.5869V18.6352H18.2654V0.490234ZM20.9293 3.24912L23.0799 3.24912H26.6658C28.5895 3.24912 30.0469 4.779 30.0469 6.53856C30.0469 8.29813 28.5895 9.82801 26.6658 9.82801L25.7447 9.828H20.9293V3.24912Z" fill="#636363"/>
<path fill-rule="evenodd" clip-rule="evenodd" d="M42.8424 9.53122L36.0254 0.596313H39.4205L44.5399 7.30625L49.6593 0.596313H53.0545L46.2375 9.53122L53.1835 18.6352H49.7883L44.5399 11.7562L39.2915 18.6352H35.8964L42.8424 9.53122Z" fill="#636363"/>
<path fill-rule="evenodd" clip-rule="evenodd" d="M63.5455 11.2075H54.6318V8.44861H63.5455V11.2075Z" fill="#636363"/>
<path d="M79.3903 16.5764C80.4169 16.5764 80.9301 16.1194 80.9301 15.2054C80.9301 14.2952 80.4169 13.8401 79.3903 13.8401C78.3637 13.8401 77.8505 14.2952 77.8505 15.2054H77.04C77.04 13.7356 77.8234 13.0007 79.3903 13.0007C80.9572 13.0007 81.7406 13.7319 81.7406 15.1942C81.7406 16.0149 81.4957 16.6062 81.0058 16.9681C81.6037 17.3523 81.9027 18.0238 81.9027 18.9825C81.9027 20.5904 81.0652 21.3943 79.3903 21.3943C77.7154 21.3943 76.8779 20.5866 76.8779 18.9713H77.6884C77.6884 20.0271 78.2557 20.5549 79.3903 20.5549C80.5249 20.5549 81.0922 20.0271 81.0922 18.9713C81.0922 17.9193 80.5249 17.3934 79.3903 17.3934H78.9689V16.5764H79.3903Z" fill="#636363"/>
<path d="M86.5672 16.5764C87.5937 16.5764 88.107 16.1194 88.107 15.2054C88.107 14.2952 87.5937 13.8401 86.5672 13.8401C85.5406 13.8401 85.0273 14.2952 85.0273 15.2054H84.2169C84.2169 13.7356 85.0003 13.0007 86.5672 13.0007C88.134 13.0007 88.9174 13.7319 88.9174 15.1942C88.9174 16.0149 88.6725 16.6062 88.1826 16.9681C88.7806 17.3523 89.0795 18.0238 89.0795 18.9825C89.0795 20.5904 88.2421 21.3943 86.5672 21.3943C84.8922 21.3943 84.0548 20.5866 84.0548 18.9713H84.8652C84.8652 20.0271 85.4325 20.5549 86.5672 20.5549C87.7018 20.5549 88.2691 20.0271 88.2691 18.9713C88.2691 17.9193 87.7018 17.3934 86.5672 17.3934H86.1457V16.5764H86.5672Z" fill="#636363"/>
</svg>
