<svg width="158" height="48" viewBox="0 0 158 48" fill="none" xmlns="http://www.w3.org/2000/svg">
<g clip-path="url(#clip0_3820_392400)">
<path d="M60.1321 32.8084L59.8886 32.6145C59.5233 32.3479 59.2554 32.1056 59.1336 31.9117C58.9875 31.7178 58.9388 31.5238 58.9388 31.3057C58.9388 31.0391 59.0362 30.7968 59.231 30.6271C59.4259 30.4574 59.6938 30.3605 60.0347 30.3605C60.4488 30.3605 60.7897 30.5058 61.0333 30.7968C61.1794 30.9907 61.2768 31.1846 61.2768 31.4027C61.2768 31.5238 61.3012 31.5723 61.3742 31.5723C61.4473 31.5723 61.4716 31.4754 61.4716 31.3057C61.4716 31.0149 61.4716 30.7725 61.496 30.53C61.496 30.3119 61.5203 30.1908 61.5203 30.215C61.5203 30.1666 61.4716 30.1424 61.3986 30.1181C60.9845 30.0211 60.5705 29.9727 60.1809 29.9727C59.5476 29.9727 59.0362 30.1424 58.6465 30.4574C58.2569 30.7725 58.062 31.1846 58.062 31.6935C58.062 32.4206 58.5004 33.1478 59.4015 33.8507L59.8155 34.1657C60.4 34.6262 60.7166 35.1111 60.7166 35.62C60.7166 35.8866 60.6192 36.1289 60.4244 36.3228C60.2052 36.541 59.8886 36.6622 59.4989 36.6622C58.817 36.6622 58.3786 36.3471 58.1838 35.7412C58.1351 35.5715 58.1107 35.4019 58.1107 35.2806C58.1107 35.1837 58.0864 35.1353 58.0133 35.1353C57.9646 35.1353 57.9159 35.2079 57.9159 35.3776C57.8915 35.8381 57.8672 36.2502 57.8672 36.5652C57.8672 36.7107 57.9159 36.8319 58.0377 36.8804C58.403 37.0258 58.8414 37.1227 59.3772 37.1227C59.9617 37.1227 60.4488 37.0015 60.8384 36.7591C61.3986 36.3957 61.6908 35.8624 61.6908 35.1837C61.6908 34.7474 61.5691 34.3596 61.3499 34.0204C61.0576 33.6083 60.6923 33.2205 60.1321 32.8084Z" fill="black"/>
<path d="M70.0908 36.7845C69.9447 36.7845 69.7498 36.7361 69.5306 36.6632C69.3114 36.5664 69.0679 36.4451 68.8487 36.2513C68.7269 36.1543 68.5321 35.9604 68.2399 35.6938C68.045 35.5241 67.631 35.0878 66.9978 34.385C66.3402 33.6821 65.9262 33.2216 65.7801 33.0035C66.1941 32.5672 66.8517 31.9128 67.7528 31.0401C68.0937 30.7009 68.4347 30.4828 68.7269 30.3615C68.8974 30.2888 69.0679 30.2646 69.2627 30.2646C69.3601 30.2646 69.4089 30.2404 69.4089 30.192C69.4089 30.1434 69.3601 30.1191 69.2627 30.1191C69.1653 30.1191 68.9948 30.1191 68.7269 30.1434C68.459 30.1434 68.2886 30.1676 68.1911 30.1676C68.1181 30.1676 67.9476 30.1676 67.7041 30.1434C67.4605 30.1434 67.3144 30.1191 67.2413 30.1191C67.1439 30.1191 67.0952 30.1434 67.0952 30.192C67.0952 30.2404 67.1439 30.2646 67.217 30.2888C67.29 30.3131 67.3387 30.3615 67.3387 30.4585C67.3387 30.5554 67.1926 30.7736 66.876 31.1372C66.1454 31.9127 65.5122 32.5672 64.9764 33.1246H64.9277V32.7368C64.9277 31.6461 64.9277 31.0159 64.952 30.7978C64.9764 30.5796 65.0007 30.4585 65.0982 30.3857C65.1712 30.3131 65.3417 30.2888 65.5365 30.2888C65.6096 30.2888 65.6583 30.2646 65.6583 30.2162C65.6583 30.1676 65.5852 30.1434 65.4635 30.1434C65.366 30.1434 65.1712 30.1434 64.879 30.1676C64.6111 30.1676 64.4162 30.192 64.3675 30.192C64.3188 30.192 64.1483 30.1919 63.8317 30.1676C63.5151 30.1676 63.2716 30.1434 63.1011 30.1434C62.9793 30.1434 62.9062 30.1676 62.9062 30.2162C62.9062 30.2646 62.955 30.2888 63.0524 30.2888C63.1985 30.2888 63.3203 30.2888 63.4177 30.3131C63.6612 30.3615 63.783 30.5312 63.8074 30.822C63.8074 31.0159 63.8317 31.6703 63.8317 32.7368V34.3365C63.8317 35.3788 63.8074 36.0332 63.783 36.2756C63.7587 36.5664 63.6612 36.7361 63.5151 36.7845C63.4177 36.7845 63.3446 36.8087 63.2472 36.8087C63.1254 36.8087 63.0524 36.8572 63.0524 36.8814C63.0524 36.93 63.1011 36.9784 63.2229 36.9784C63.3446 36.9784 63.5638 36.9784 63.8561 36.9542C64.1483 36.9542 64.3188 36.93 64.3675 36.93C64.4162 36.93 64.6111 36.93 64.9277 36.9542C65.2443 36.9542 65.4878 36.9784 65.6826 36.9784C65.8044 36.9784 65.8531 36.9542 65.8531 36.8814C65.8531 36.8329 65.8044 36.8087 65.7314 36.8087C65.5852 36.8087 65.4391 36.8087 65.293 36.7845C65.0982 36.7603 64.9764 36.5906 64.9764 36.2998C64.952 36.0332 64.952 35.403 64.952 34.3608V33.5367H65.0007L65.0982 33.6821C65.2199 33.8517 65.5852 34.288 66.2184 35.0152C66.876 35.7907 67.3144 36.2513 67.4849 36.3967C67.7041 36.5906 67.8745 36.736 68.0207 36.8087C68.1911 36.9057 68.386 36.9784 68.6295 36.9784C68.7513 36.9784 68.9705 37.0026 69.2627 37.0026H69.9934C70.1395 37.0026 70.2126 36.9784 70.2126 36.9057C70.2126 36.8087 70.1639 36.7845 70.0908 36.7845Z" fill="black"/>
<path d="M72.8712 29.2458C72.9444 29.1489 72.993 29.0519 72.993 28.9308C72.993 28.6642 72.8468 28.543 72.5546 28.543C72.4329 28.543 72.3111 28.5914 72.238 28.6642C72.165 28.7611 72.1406 28.8581 72.1406 28.955C72.1406 29.2458 72.2867 29.3913 72.5546 29.3913C72.6764 29.3913 72.7982 29.3429 72.8712 29.2458Z" fill="black"/>
<path d="M74.8009 29.2458C74.874 29.1489 74.9227 29.0519 74.9227 28.9308C74.9227 28.6642 74.7766 28.543 74.4843 28.543C74.3625 28.543 74.2408 28.5914 74.1677 28.6884C74.0947 28.7853 74.0703 28.8824 74.0703 28.9792C74.0703 29.2702 74.2164 29.4155 74.4843 29.4155C74.6061 29.3913 74.7279 29.3429 74.8009 29.2458Z" fill="black"/>
<path d="M73.5708 29.9492C72.3288 29.9492 71.3546 30.3371 70.6727 31.1368C70.1126 31.7912 69.8203 32.5911 69.8203 33.4878C69.8203 34.4088 70.1126 35.2087 70.6727 35.8631C71.3546 36.6388 72.2801 37.0508 73.4978 37.0508C74.6425 37.0508 75.5437 36.6872 76.2498 35.9602C76.9318 35.2572 77.2727 34.3846 77.2727 33.3181C77.2727 32.2761 76.9318 31.452 76.2742 30.846C75.5923 30.2642 74.6912 29.9492 73.5708 29.9492ZM75.1539 36.1297C74.813 36.4449 74.3746 36.6146 73.8632 36.6146C73.0108 36.6146 72.3288 36.2752 71.8174 35.6208C71.3303 34.9906 71.0624 34.1907 71.0624 33.2213C71.0624 32.2032 71.3059 31.4277 71.793 30.9429C72.1827 30.5552 72.6698 30.3613 73.303 30.3613C74.058 30.3613 74.6912 30.6521 75.2027 31.2338C75.7141 31.8396 75.982 32.6637 75.982 33.6575C75.9576 34.8209 75.6898 35.645 75.1539 36.1297Z" fill="black"/>
<path d="M85.6556 30.0935C85.4851 30.0935 85.2902 30.0935 85.0711 30.1177C84.8763 30.1177 84.7545 30.142 84.7545 30.142C84.7058 30.142 84.5597 30.142 84.3161 30.1177C84.0726 30.1177 83.8534 30.0935 83.6585 30.0935C83.5124 30.0935 83.415 30.1177 83.415 30.1662C83.415 30.2146 83.4638 30.2389 83.5612 30.2389C83.7804 30.2389 83.9509 30.2631 84.0482 30.2873C84.17 30.3359 84.2675 30.457 84.3161 30.6509C84.3404 30.7236 84.3404 30.8933 84.3404 31.1114L84.438 35.1833H84.3892C83.6829 34.4563 83.0009 33.7533 82.3921 33.1232C81.0039 31.7174 80.0541 30.7479 79.567 30.2146C79.3965 30.0207 79.2748 29.9238 79.226 29.9238C79.1531 29.9238 79.1043 30.0207 79.1043 30.2389L79.0312 35.6196C79.0312 36.0317 79.0069 36.3225 78.9826 36.4437C78.9582 36.6134 78.8607 36.6861 78.7633 36.7345C78.666 36.7587 78.5441 36.7587 78.4467 36.783C78.3006 36.783 78.2031 36.8315 78.2031 36.8558C78.2031 36.9042 78.2763 36.9526 78.398 36.9526C78.5928 36.9526 78.7877 36.9526 79.0312 36.9284C79.2748 36.9284 79.3721 36.9042 79.3721 36.9042C79.3965 36.9042 79.5426 36.9042 79.7862 36.9284C80.0297 36.9284 80.2733 36.9526 80.5168 36.9526C80.663 36.9526 80.736 36.9284 80.736 36.8558C80.736 36.8315 80.6387 36.783 80.4682 36.7587C80.2489 36.7345 80.1272 36.7103 80.1028 36.7103C79.908 36.6376 79.8106 36.2982 79.7862 35.6923L79.6887 31.8871H79.7131C79.9567 32.1536 80.2246 32.4444 80.4926 32.7354C81.0039 33.2928 81.4667 33.7776 81.8807 34.1895C83.0984 35.4015 83.9751 36.274 84.5597 36.8558C84.7058 36.9769 84.8032 37.0497 84.8763 37.0497C84.9494 37.0497 84.998 36.9526 84.998 36.7587L85.0955 31.0387C85.0955 30.8206 85.1199 30.6509 85.1441 30.5298C85.2173 30.3359 85.3877 30.2389 85.7043 30.2389C85.8017 30.2389 85.8748 30.2146 85.8748 30.1662C85.8504 30.1177 85.7775 30.0935 85.6556 30.0935Z" fill="black"/>
<path d="M94.6247 36.7837C94.5029 36.7837 94.3324 36.7837 94.162 36.7595C93.9671 36.7353 93.8454 36.5656 93.7966 36.2748C93.7722 36.008 93.7479 35.3536 93.7479 34.3358V32.736C93.7479 31.6453 93.7479 31.0151 93.7722 30.8212C93.7966 30.5062 93.894 30.3365 94.1132 30.3123C94.2107 30.288 94.3081 30.288 94.3812 30.288C94.4786 30.288 94.5517 30.2638 94.5517 30.2154C94.5517 30.1668 94.4786 30.1426 94.3568 30.1426C94.2349 30.1426 94.0159 30.1426 93.7236 30.1668C93.4313 30.1668 93.2608 30.1912 93.1878 30.1912C93.139 30.1912 92.9442 30.191 92.6276 30.1668C92.311 30.1668 92.0675 30.1426 91.8727 30.1426C91.7508 30.1426 91.6778 30.1668 91.6778 30.2154C91.6778 30.2638 91.7266 30.288 91.8239 30.288C91.97 30.288 92.0918 30.288 92.1893 30.3123C92.4327 30.3607 92.5546 30.5304 92.5788 30.8212C92.5788 31.0151 92.6032 31.6695 92.6032 32.736V32.9299C92.6032 32.9784 92.5788 33.0027 92.5546 33.0027H89.0719C89.0476 33.0027 89.0232 32.9784 89.0232 32.9299V32.736C89.0232 31.6453 89.0232 31.0151 89.0476 30.8212C89.0719 30.5062 89.1693 30.3365 89.3885 30.3123C89.4859 30.288 89.5834 30.288 89.6564 30.288C89.7539 30.288 89.8268 30.2638 89.8268 30.2154C89.8268 30.1668 89.7539 30.1426 89.632 30.1426C89.5103 30.1426 89.291 30.1426 88.9988 30.1668C88.7066 30.1668 88.5361 30.1912 88.463 30.1912C88.4144 30.1912 88.2195 30.191 87.9029 30.1668C87.5863 30.1668 87.3427 30.1426 87.1478 30.1426C87.0261 30.1426 86.9531 30.1668 86.9531 30.2154C86.9531 30.2638 87.0017 30.288 87.0992 30.288C87.2453 30.288 87.3671 30.288 87.4644 30.3123C87.708 30.3607 87.8298 30.5304 87.8542 30.8212C87.8542 31.0151 87.8785 31.6695 87.8785 32.736V34.3358C87.8785 35.3779 87.8542 36.0324 87.8298 36.2748C87.7812 36.5656 87.708 36.7353 87.5619 36.7837C87.4644 36.7837 87.3915 36.8079 87.2939 36.8079C87.1722 36.8079 87.0992 36.8564 87.0992 36.8806C87.0992 36.9292 87.1478 36.9776 87.2697 36.9776C87.3915 36.9776 87.6107 36.9776 87.9029 36.9534C88.1951 36.9534 88.3656 36.9292 88.4144 36.9292C88.463 36.9292 88.6578 36.9292 88.9988 36.9534C89.3398 36.9534 89.6076 36.9776 89.8268 36.9776C89.9486 36.9776 89.9973 36.9534 89.9973 36.8806C89.9973 36.8321 89.9486 36.8079 89.8512 36.8079C89.7295 36.8079 89.559 36.8079 89.3885 36.7837C89.1937 36.7595 89.0719 36.5898 89.0232 36.299C88.9988 36.0324 88.9744 35.3779 88.9744 34.36V33.5601C88.9744 33.5359 88.9988 33.5117 89.0232 33.5117H92.5059C92.5546 33.5117 92.5546 33.5359 92.5546 33.5601V34.36C92.5546 35.4022 92.5302 36.0566 92.5059 36.299C92.4571 36.5898 92.3841 36.7595 92.238 36.8079C92.1405 36.8079 92.0675 36.8321 91.97 36.8321C91.8483 36.8321 91.7752 36.8806 91.7752 36.905C91.7752 36.9534 91.8483 37.0018 91.97 37.0018C92.0918 37.0018 92.311 37.0018 92.6032 36.9776C92.8956 36.9776 93.0659 36.9534 93.1147 36.9534C93.1634 36.9534 93.3583 36.9534 93.6993 36.9776C94.0402 36.9776 94.3081 37.0018 94.5273 37.0018C94.649 37.0018 94.6978 36.9776 94.6978 36.905C94.7708 36.8079 94.722 36.7837 94.6247 36.7837Z" fill="black"/>
<path d="M100.342 35.5716C100.294 35.5716 100.269 35.62 100.245 35.7169C100.196 36.0563 100.05 36.2986 99.831 36.3957C99.6605 36.4683 99.3925 36.4925 98.9786 36.4925C98.5159 36.4925 98.2235 36.4441 98.1018 36.3471C97.9801 36.2502 97.9069 36.0563 97.8826 35.7169V33.5841C97.8826 33.5113 97.9069 33.4871 97.9313 33.4871C98.6376 33.4871 99.0516 33.4871 99.2221 33.5113C99.5144 33.5355 99.6849 33.6568 99.7335 33.8749C99.7579 34.0204 99.7823 34.1173 99.7823 34.1899C99.7823 34.2627 99.8066 34.287 99.8552 34.287C99.904 34.287 99.9284 34.2385 99.9284 34.1173C99.9284 34.0688 99.9284 33.8507 99.9771 33.5113C99.9771 33.3416 100.002 33.172 100.026 33.0266C100.05 32.9053 100.05 32.8569 100.05 32.8569C100.05 32.8084 100.026 32.7842 99.9771 32.7842C99.9528 32.7842 99.904 32.8327 99.831 32.9053C99.7823 32.9539 99.7091 32.9781 99.6362 33.0023C99.5874 33.0266 99.4901 33.0266 99.3925 33.0266C99.2464 33.0266 98.7594 33.0508 97.9313 33.0508C97.8826 33.0508 97.8583 33.0266 97.8583 32.9539V30.6513C97.8583 30.6029 97.8826 30.5544 97.9313 30.5544C98.5889 30.5544 99.0272 30.5544 99.2221 30.5786C99.563 30.6271 99.7579 30.724 99.831 30.8937C99.8552 30.9421 99.8552 30.9907 99.8796 31.0633C99.8796 31.136 99.904 31.1845 99.904 31.2573C99.904 31.3299 99.9284 31.3541 99.9771 31.3541C100.026 31.3541 100.05 31.3299 100.074 31.2573C100.099 31.0149 100.123 30.821 100.123 30.6513C100.123 30.4816 100.148 30.3363 100.172 30.215C100.196 30.1181 100.196 30.0695 100.196 30.0453C100.196 29.9969 100.172 29.9727 100.148 29.9727C100.148 29.9727 100.099 29.9727 100.002 29.9969C99.904 30.0211 99.7579 30.0453 99.6118 30.0453C99.5387 30.0453 98.7837 30.0453 97.3225 30.0453C97.2494 30.0453 97.0545 30.0453 96.7623 30.0211C96.4457 30.0211 96.2022 29.9969 96.0074 29.9969C95.8856 29.9969 95.8125 30.0211 95.8125 30.0695C95.8125 30.1181 95.8613 30.1423 95.9586 30.1423C96.1047 30.1423 96.2264 30.1424 96.324 30.1666C96.5674 30.215 96.6893 30.3847 96.7137 30.6755C96.7137 30.8694 96.7379 31.5238 96.7379 32.5903V34.1899C96.7379 35.2322 96.7137 35.8866 96.6893 36.1289C96.6649 36.4199 96.5674 36.5894 96.4213 36.638C96.324 36.638 96.2508 36.6622 96.1535 36.6622C96.0317 36.6622 95.9586 36.7107 95.9586 36.7349C95.9586 36.7833 96.0074 36.8319 96.1291 36.8319C96.2508 36.8319 96.4701 36.8319 96.7623 36.8076C97.0545 36.8076 97.225 36.7833 97.2737 36.7833C97.3712 36.7833 97.6878 36.7833 98.2235 36.8076C98.735 36.8319 99.2708 36.8319 99.8066 36.8319C100.002 36.8319 100.123 36.8077 100.172 36.7833C100.221 36.7591 100.269 36.6865 100.294 36.5894C100.367 36.2986 100.415 35.9594 100.415 35.5716C100.415 35.62 100.391 35.5716 100.342 35.5716Z" fill="black"/>
<path d="M107.236 30.0211C107.139 30.0211 106.993 30.0453 106.798 30.0695C106.603 30.0938 106.457 30.1181 106.359 30.1181H102.755C102.487 30.1181 102.17 30.0938 101.854 30.0695C101.781 30.0695 101.683 30.0453 101.61 30.0211C101.537 29.9969 101.488 29.9727 101.464 29.9727C101.415 29.9727 101.391 30.0211 101.367 30.1423C101.245 30.6755 101.172 31.0149 101.172 31.1846C101.172 31.2815 101.196 31.3299 101.245 31.3299C101.294 31.3299 101.318 31.3057 101.342 31.233C101.367 31.136 101.415 31.0391 101.488 30.9179C101.586 30.7482 101.903 30.6755 102.365 30.6513L103.729 30.6271V34.3354C103.729 35.3534 103.705 36.0078 103.68 36.2744C103.632 36.5652 103.559 36.7349 103.413 36.7833C103.315 36.7833 103.242 36.8076 103.145 36.8076C103.023 36.8076 102.95 36.8561 102.95 36.8804C102.95 36.9288 102.998 36.9772 103.12 36.9772C103.242 36.9772 103.461 36.9773 103.753 36.953C104.046 36.953 104.216 36.9288 104.265 36.9288C104.314 36.9288 104.508 36.9288 104.849 36.953C105.19 36.953 105.458 36.9772 105.702 36.9772C105.824 36.9772 105.872 36.953 105.872 36.8804C105.872 36.8319 105.824 36.8076 105.726 36.8076C105.604 36.8076 105.434 36.8077 105.263 36.7833C105.069 36.7591 104.947 36.5894 104.898 36.2986C104.874 36.032 104.849 35.3776 104.849 34.3596V30.6513L105.994 30.6755C106.676 30.6997 107.041 30.8694 107.066 31.1846V31.2815C107.066 31.4027 107.114 31.4512 107.163 31.4512C107.212 31.4512 107.236 31.4027 107.236 31.3057C107.236 31.2088 107.26 31.0391 107.26 30.7482C107.26 30.4816 107.285 30.3119 107.285 30.2392C107.309 30.0938 107.285 30.0211 107.236 30.0211Z" fill="black"/>
<path d="M110.616 32.8084L110.372 32.6145C110.007 32.3479 109.739 32.1056 109.617 31.9117C109.471 31.7178 109.422 31.5238 109.422 31.3057C109.422 31.0391 109.52 30.7968 109.715 30.6271C109.909 30.4574 110.177 30.3605 110.518 30.3605C110.932 30.3605 111.273 30.5058 111.517 30.7968C111.663 30.9907 111.76 31.1846 111.76 31.4027C111.76 31.5238 111.785 31.5723 111.858 31.5723C111.931 31.5723 111.955 31.4754 111.955 31.3057C111.955 31.0149 111.955 30.7725 111.979 30.53C111.979 30.3119 112.004 30.1908 112.004 30.215C112.004 30.1666 111.955 30.1424 111.882 30.1181C111.468 30.0211 111.054 29.9727 110.664 29.9727C110.031 29.9727 109.52 30.1424 109.154 30.4574C108.765 30.7725 108.57 31.1846 108.57 31.6935C108.57 32.4206 109.008 33.1478 109.909 33.8507L110.323 34.1657C110.908 34.6262 111.225 35.1111 111.225 35.62C111.225 35.8866 111.127 36.1289 110.932 36.3228C110.713 36.541 110.396 36.6622 110.007 36.6622C109.325 36.6622 108.886 36.3471 108.692 35.7412C108.643 35.5715 108.619 35.4019 108.619 35.2806C108.619 35.1837 108.594 35.1353 108.521 35.1353C108.473 35.1353 108.424 35.2079 108.424 35.3776C108.399 35.8381 108.375 36.2502 108.375 36.5652C108.375 36.7107 108.424 36.8319 108.545 36.8804C108.911 37.0258 109.349 37.1227 109.885 37.1227C110.47 37.1227 110.957 37.0015 111.346 36.7591C111.906 36.3957 112.199 35.8624 112.199 35.1837C112.199 34.7475 112.077 34.3596 111.858 34.0204C111.541 33.6083 111.151 33.2205 110.616 32.8084Z" fill="black"/>
<path d="M117.122 30.4089C117.536 30.4089 117.902 30.4574 118.243 30.5786C118.559 30.6755 118.803 30.821 118.973 30.9665C119.192 31.2088 119.314 31.4754 119.339 31.7904C119.339 31.9117 119.363 31.9843 119.436 31.9843C119.485 31.9843 119.533 31.9117 119.533 31.7662C119.558 31.3784 119.558 31.0633 119.558 30.7968C119.558 30.6755 119.582 30.5544 119.582 30.4574C119.606 30.3847 119.606 30.3119 119.606 30.3119C119.606 30.2392 119.558 30.215 119.46 30.215C119.071 30.1666 118.754 30.0938 118.535 30.0695C118.072 30.0211 117.634 29.9727 117.22 29.9727C116.002 29.9727 115.028 30.2877 114.322 30.9421C113.615 31.5965 113.25 32.4206 113.25 33.4144C113.25 34.5535 113.64 35.4503 114.395 36.1047C115.15 36.7591 116.197 37.0985 117.512 37.0985C118.267 37.0985 118.803 37.0258 119.144 36.8804C119.265 36.8319 119.339 36.7349 119.387 36.6138C119.436 36.4925 119.46 36.2502 119.509 35.935C119.558 35.6442 119.582 35.4745 119.582 35.4019C119.582 35.305 119.558 35.2564 119.509 35.2564C119.46 35.2564 119.412 35.305 119.387 35.4261C119.339 35.6442 119.241 35.8381 119.071 36.032C118.876 36.2502 118.632 36.3957 118.316 36.4683C118.096 36.5168 117.804 36.541 117.414 36.541C116.708 36.541 116.075 36.2744 115.515 35.7412C114.857 35.1353 114.541 34.3112 114.541 33.3174C114.541 32.2509 114.809 31.4754 115.369 30.9665C115.807 30.5786 116.392 30.4089 117.122 30.4089Z" fill="black"/>
<path d="M125.187 35.5716C125.138 35.5716 125.114 35.62 125.09 35.7169C125.041 36.0563 124.895 36.2986 124.676 36.3957C124.505 36.4683 124.237 36.4925 123.823 36.4925C123.36 36.4925 123.068 36.4441 122.946 36.3471C122.825 36.2502 122.752 36.0563 122.727 35.7169V33.5841C122.727 33.5113 122.752 33.4871 122.776 33.4871C123.482 33.4871 123.896 33.4871 124.067 33.5113C124.359 33.5355 124.529 33.6568 124.578 33.8749C124.603 34.0204 124.603 34.1173 124.603 34.1899C124.603 34.2627 124.627 34.287 124.676 34.287C124.724 34.287 124.749 34.2385 124.749 34.1173C124.749 34.0688 124.773 33.8507 124.797 33.5113C124.797 33.3416 124.822 33.172 124.846 33.0266C124.87 32.9053 124.87 32.8569 124.87 32.8569C124.87 32.8084 124.846 32.7842 124.797 32.7842C124.773 32.7842 124.724 32.8327 124.651 32.9053C124.603 32.9539 124.529 32.9781 124.456 33.0023C124.408 33.0266 124.31 33.0266 124.213 33.0266C124.067 33.0266 123.58 33.0508 122.752 33.0508C122.703 33.0508 122.678 33.0266 122.678 32.9539V30.6513C122.678 30.6029 122.703 30.5544 122.752 30.5544C123.409 30.5544 123.848 30.5544 124.042 30.5786C124.383 30.6271 124.578 30.724 124.651 30.8937C124.676 30.9421 124.676 30.9907 124.7 31.0633C124.7 31.136 124.724 31.1845 124.724 31.2573C124.724 31.3299 124.749 31.3541 124.797 31.3541C124.846 31.3541 124.87 31.3299 124.895 31.2573C124.919 31.0149 124.944 30.821 124.944 30.6513C124.944 30.4816 124.968 30.3363 124.992 30.215C125.017 30.1181 125.017 30.0695 125.017 30.0453C125.017 29.9969 124.992 29.9727 124.968 29.9727C124.968 29.9727 124.919 29.9727 124.822 29.9969C124.724 30.0211 124.578 30.0453 124.432 30.0453C124.359 30.0453 123.604 30.0453 122.143 30.0453C122.07 30.0453 121.875 30.0453 121.583 30.0211C121.266 30.0211 121.022 29.9969 120.828 29.9969C120.706 29.9969 120.633 30.0211 120.633 30.0695C120.633 30.1181 120.681 30.1423 120.779 30.1423C120.925 30.1423 121.047 30.1424 121.144 30.1666C121.388 30.215 121.509 30.3847 121.534 30.6755C121.534 30.8694 121.558 31.5238 121.558 32.5903V34.1899C121.558 35.2322 121.534 35.8866 121.509 36.1289C121.485 36.4199 121.388 36.5894 121.242 36.638C121.144 36.638 121.071 36.6622 120.974 36.6622C120.852 36.6622 120.779 36.7107 120.779 36.7349C120.779 36.7833 120.828 36.8319 120.949 36.8319C121.071 36.8319 121.29 36.8319 121.583 36.8076C121.875 36.8076 122.045 36.7833 122.094 36.7833C122.191 36.7833 122.508 36.7833 123.044 36.8076C123.555 36.8319 124.091 36.8319 124.627 36.8319C124.822 36.8319 124.943 36.8077 124.992 36.7833C125.041 36.7591 125.09 36.6865 125.114 36.5894C125.187 36.2986 125.236 35.9594 125.236 35.5716C125.26 35.62 125.236 35.5716 125.187 35.5716Z" fill="black"/>
<path d="M133.734 30.0935C133.563 30.0935 133.368 30.0935 133.149 30.1177C132.954 30.1177 132.833 30.142 132.833 30.142C132.784 30.142 132.638 30.142 132.394 30.1177C132.151 30.1177 131.931 30.0935 131.737 30.0935C131.591 30.0935 131.493 30.1177 131.493 30.1662C131.493 30.2146 131.542 30.2389 131.639 30.2389C131.859 30.2389 132.029 30.2631 132.126 30.2873C132.248 30.3359 132.346 30.457 132.394 30.6509C132.419 30.7236 132.419 30.8933 132.419 31.1114L132.516 35.1833H132.467C131.761 34.4563 131.079 33.7533 130.47 33.1232C129.082 31.7174 128.132 30.7479 127.645 30.2146C127.475 30.0207 127.353 29.9238 127.304 29.9238C127.231 29.9238 127.182 30.0207 127.182 30.2389L127.109 35.6196C127.109 36.0317 127.085 36.3225 127.061 36.4437C127.036 36.6134 126.939 36.6861 126.841 36.7345C126.744 36.7587 126.622 36.7587 126.525 36.783C126.379 36.783 126.281 36.8315 126.281 36.8558C126.281 36.9042 126.354 36.9526 126.476 36.9526C126.671 36.9526 126.866 36.9526 127.109 36.9284C127.353 36.9284 127.45 36.9042 127.45 36.9042C127.475 36.9042 127.621 36.9042 127.864 36.9284C128.108 36.9284 128.351 36.9526 128.595 36.9526C128.741 36.9526 128.814 36.9284 128.814 36.8558C128.814 36.8315 128.717 36.783 128.546 36.7587C128.327 36.7345 128.205 36.7103 128.181 36.7103C127.986 36.6376 127.889 36.2982 127.864 35.6923L127.767 31.8871H127.791C128.035 32.1536 128.303 32.4444 128.571 32.7354C129.082 33.2928 129.545 33.7776 129.959 34.1895C131.177 35.4015 132.053 36.274 132.638 36.8558C132.784 36.9769 132.881 37.0497 132.954 37.0497C133.028 37.0497 133.076 36.9526 133.076 36.7587L133.174 31.0387C133.174 30.8206 133.198 30.6509 133.222 30.5298C133.295 30.3359 133.466 30.2389 133.782 30.2389C133.88 30.2389 133.953 30.2146 133.953 30.1662C133.929 30.1177 133.856 30.0935 133.734 30.0935Z" fill="black"/>
<path d="M140.697 30.0211C140.6 30.0211 140.454 30.0453 140.259 30.0695C140.064 30.0938 139.918 30.1181 139.82 30.1181H136.216C135.948 30.1181 135.631 30.0938 135.315 30.0695C135.217 30.0695 135.144 30.0453 135.071 30.0211C134.998 29.9969 134.949 29.9727 134.925 29.9727C134.876 29.9727 134.852 30.0211 134.828 30.1423C134.706 30.6755 134.633 31.0149 134.633 31.1846C134.633 31.2815 134.657 31.3299 134.706 31.3299C134.755 31.3299 134.779 31.3057 134.803 31.233C134.828 31.136 134.876 31.0391 134.949 30.9179C135.071 30.7482 135.363 30.6755 135.826 30.6513L137.19 30.6271V34.3354C137.19 35.3534 137.166 36.0078 137.141 36.2744C137.117 36.5652 137.019 36.7349 136.873 36.7833C136.776 36.7833 136.703 36.8076 136.606 36.8076C136.484 36.8076 136.411 36.8561 136.411 36.8804C136.411 36.9288 136.459 36.9772 136.581 36.9772C136.703 36.9772 136.922 36.9773 137.214 36.953C137.507 36.953 137.677 36.9288 137.726 36.9288C137.775 36.9288 137.969 36.9288 138.31 36.953C138.651 36.953 138.919 36.9772 139.163 36.9772C139.285 36.9772 139.333 36.953 139.333 36.8804C139.333 36.8319 139.285 36.8076 139.187 36.8076C139.065 36.8076 138.895 36.8077 138.724 36.7833C138.529 36.7591 138.408 36.5894 138.359 36.2986C138.335 36.032 138.31 35.3776 138.31 34.3596V30.6513L139.455 30.6755C140.137 30.6997 140.502 30.8694 140.527 31.1846V31.2815C140.527 31.4027 140.575 31.4512 140.624 31.4512C140.673 31.4512 140.697 31.4027 140.697 31.3057C140.697 31.2088 140.721 31.0391 140.721 30.7482C140.721 30.4816 140.746 30.3119 140.746 30.2392C140.77 30.0938 140.746 30.0211 140.697 30.0211Z" fill="black"/>
<path d="M146.03 35.5715C145.981 35.5715 145.957 35.62 145.932 35.7169C145.884 36.0563 145.738 36.2986 145.519 36.3957C145.348 36.4683 145.08 36.4925 144.666 36.4925C144.203 36.4925 143.911 36.4441 143.789 36.3471C143.668 36.2502 143.595 36.0563 143.57 35.7169V33.5841C143.57 33.5113 143.595 33.4871 143.619 33.4871C144.325 33.4871 144.739 33.4871 144.91 33.5113C145.202 33.5355 145.372 33.6568 145.421 33.8749C145.445 34.0204 145.47 34.1173 145.47 34.1899C145.47 34.2627 145.494 34.287 145.543 34.287C145.592 34.287 145.616 34.2385 145.616 34.1173C145.616 34.0688 145.616 33.8507 145.665 33.5113C145.665 33.3416 145.689 33.172 145.713 33.0266C145.738 32.9053 145.738 32.8569 145.738 32.8569C145.738 32.8084 145.713 32.7842 145.665 32.7842C145.64 32.7842 145.592 32.8327 145.519 32.9053C145.47 32.9539 145.397 32.9781 145.324 33.0023C145.275 33.0266 145.178 33.0266 145.08 33.0266C144.934 33.0266 144.447 33.0508 143.619 33.0508C143.57 33.0508 143.546 33.0266 143.546 32.9539V30.6513C143.546 30.6029 143.57 30.5544 143.619 30.5544C144.276 30.5544 144.715 30.5544 144.91 30.5786C145.251 30.6271 145.445 30.724 145.519 30.8937C145.543 30.9421 145.543 30.9907 145.567 31.0633C145.567 31.136 145.592 31.1845 145.592 31.2573C145.592 31.3299 145.616 31.3541 145.665 31.3541C145.713 31.3541 145.738 31.3299 145.762 31.2573C145.786 31.0149 145.811 30.821 145.811 30.6513C145.811 30.4816 145.835 30.3363 145.86 30.215C145.884 30.1181 145.884 30.0695 145.884 30.0453C145.884 29.9969 145.86 29.9727 145.835 29.9727C145.835 29.9727 145.786 29.9727 145.689 29.9969C145.592 30.0211 145.445 30.0453 145.299 30.0453C145.226 30.0453 144.471 30.0453 143.01 30.0453C142.937 30.0453 142.742 30.0453 142.45 30.0211C142.133 30.0211 141.89 29.9969 141.695 29.9969C141.573 29.9969 141.5 30.0211 141.5 30.0695C141.5 30.1181 141.549 30.1423 141.646 30.1423C141.792 30.1423 141.914 30.1424 142.011 30.1666C142.255 30.215 142.377 30.3847 142.401 30.6755C142.401 30.8694 142.426 31.5238 142.426 32.5903V34.1899C142.426 35.2322 142.401 35.8866 142.377 36.1289C142.352 36.4199 142.255 36.5894 142.109 36.638C142.011 36.638 141.938 36.6622 141.841 36.6622C141.719 36.6622 141.646 36.7107 141.646 36.7349C141.646 36.7833 141.695 36.8319 141.817 36.8319C141.938 36.8319 142.158 36.8319 142.45 36.8076C142.742 36.8076 142.913 36.7833 142.961 36.7833C143.083 36.7833 143.375 36.7833 143.911 36.8076C144.423 36.8319 144.958 36.8319 145.494 36.8319C145.689 36.8319 145.811 36.8077 145.86 36.7833C145.908 36.7591 145.957 36.6865 145.981 36.5894C146.054 36.2986 146.103 35.9594 146.103 35.5715C146.103 35.62 146.079 35.5715 146.03 35.5715Z" fill="black"/>
<path d="M154.312 36.7591C154.239 36.7591 154.166 36.7349 154.093 36.7349C153.752 36.6621 153.411 36.4683 153.07 36.1289C152.826 35.8865 152.534 35.5472 152.193 35.1109C152.12 35.0382 151.755 34.5777 151.097 33.7536C151.901 33.0992 152.29 32.4206 152.29 31.7177C152.29 31.451 152.217 31.1844 152.071 30.9421C151.95 30.7482 151.828 30.5785 151.682 30.4816C151.292 30.215 150.732 30.0938 150.001 30.0938C149.904 30.0938 149.709 30.0937 149.368 30.118C149.027 30.118 148.808 30.1422 148.71 30.1422C148.686 30.1422 148.515 30.1422 148.199 30.118C147.907 30.118 147.639 30.0938 147.468 30.0938C147.346 30.0938 147.273 30.118 147.273 30.1664C147.273 30.215 147.322 30.2392 147.42 30.2392C147.566 30.2392 147.687 30.2392 147.785 30.2634C148.028 30.3119 148.15 30.4816 148.174 30.7724C148.174 30.9663 148.199 31.6207 148.199 32.6872V34.2868C148.199 35.329 148.174 35.9834 148.15 36.2258C148.126 36.5167 148.028 36.6864 147.882 36.7349C147.785 36.7349 147.712 36.7591 147.614 36.7591C147.493 36.7591 147.42 36.8075 147.42 36.8318C147.42 36.8802 147.468 36.9288 147.59 36.9288C147.736 36.9288 147.931 36.9288 148.223 36.9046C148.491 36.9046 148.662 36.8802 148.71 36.8802C148.71 36.8802 148.905 36.8802 149.246 36.9046C149.587 36.9046 149.855 36.9288 150.05 36.9288C150.172 36.9288 150.22 36.9046 150.22 36.8318C150.22 36.7833 150.196 36.7591 150.123 36.7591C150.001 36.7591 149.855 36.7591 149.684 36.7349C149.49 36.7107 149.368 36.541 149.319 36.2502C149.295 35.9834 149.271 35.3532 149.271 34.3112V34.1899C149.271 34.1415 149.295 34.1172 149.343 34.1172H150.147C150.22 34.1172 150.269 34.1415 150.318 34.1899C150.659 34.6504 150.951 35.0625 151.219 35.4503C151.755 36.1774 152.169 36.6378 152.461 36.7833C152.68 36.9046 152.997 36.953 153.435 36.953H154.312C154.434 36.953 154.482 36.9288 154.482 36.856C154.458 36.8075 154.409 36.7833 154.312 36.7591ZM150.683 33.5355C150.537 33.6324 150.318 33.681 150.025 33.681C149.733 33.681 149.514 33.6567 149.343 33.5839C149.295 33.5597 149.271 33.5113 149.271 33.4142V30.6513C149.271 30.6027 149.295 30.5542 149.319 30.5542C149.368 30.5058 149.538 30.5058 149.831 30.5058C150.172 30.5058 150.464 30.6271 150.732 30.8452C151.048 31.136 151.219 31.5965 151.219 32.154C151.219 32.8084 151.048 33.2689 150.683 33.5355Z" fill="black"/>
<path d="M58.6907 25.3934C59.47 25.7811 60.3711 25.9024 61.2723 25.9024C62.3195 25.9024 63.3424 25.66 64.1704 25.1025C65.5099 24.1573 65.8022 22.703 65.8022 21.9273C65.8022 20.4004 65.2664 19.2128 63.0014 17.4192L62.4656 17.0072C60.6147 15.5771 60.1276 14.8743 60.1276 13.7836C60.1276 12.3777 61.1748 11.5538 62.49 11.5538C64.2678 11.5538 64.7793 12.3535 64.901 12.5717C65.0228 12.7898 65.1202 13.2989 65.1446 13.5412C65.169 13.6866 65.1933 13.7836 65.2907 13.7836C65.3881 13.7836 65.4368 13.6381 65.4368 13.3473C65.4368 12.0385 65.5099 11.4083 65.5099 11.3113C65.5099 11.2144 65.4612 11.1659 65.3151 11.1659C65.169 11.1659 64.9985 11.1417 64.6331 11.0689C64.1461 10.9478 63.5859 10.875 62.8309 10.875C60.3955 10.875 58.8368 12.2809 58.8368 14.3167C58.8368 15.6256 59.2995 16.8133 61.3453 18.4857L62.2221 19.1886C63.8782 20.5458 64.4383 21.3215 64.4383 22.6303C64.4383 23.8663 63.5372 25.1751 61.6863 25.1751C60.3955 25.1751 59.1291 24.642 58.8368 23.2119C58.7881 22.9453 58.7881 22.6788 58.7881 22.5091C58.7881 22.3636 58.7638 22.2909 58.642 22.2909C58.5446 22.2909 58.4959 22.388 58.4959 22.6061C58.4715 22.9211 58.3984 23.6726 58.3984 24.642C58.3984 25.1753 58.3984 25.248 58.6907 25.3934Z" fill="black"/>
<path d="M81.098 11.6501C81.4633 11.4078 81.8773 11.4078 82.0234 11.4078C82.1695 11.4078 82.2426 11.3592 82.2426 11.2623C82.2426 11.1652 82.1209 11.1168 81.926 11.1168C81.3658 11.1168 80.5378 11.1652 80.416 11.1652C80.1724 11.1652 79.2958 11.1168 78.5163 11.1168C78.1997 11.1168 78.1024 11.1652 78.1024 11.2623C78.1024 11.3592 78.1997 11.3834 78.3216 11.3834C78.5407 11.3834 78.833 11.3834 79.0521 11.4562C79.247 11.5531 79.2958 11.747 79.2958 11.8925C79.2958 12.0622 79.2226 12.3287 79.1253 12.6195C78.7112 14.0012 76.1297 20.6906 75.0094 23.2598L71.3075 13.4436C71.0152 12.6922 70.796 12.1106 70.796 11.844C70.796 11.6985 70.8448 11.5531 71.0396 11.4562C71.2101 11.3834 71.551 11.3592 71.7702 11.3592C71.9164 11.3592 71.9651 11.3107 71.9651 11.2138C71.9651 11.1168 71.7946 11.0684 71.4536 11.0684C70.723 11.0684 69.8462 11.1168 69.6514 11.1168C69.4079 11.1168 68.3119 11.0684 67.3864 11.0684C67.0698 11.0684 66.875 11.0926 66.875 11.2138C66.875 11.2865 66.9237 11.3592 67.0211 11.3592C67.1429 11.3592 67.4595 11.3592 67.7518 11.432C68.4337 11.6259 68.7259 11.844 69.14 12.9105L73.8647 24.6657C74.2299 25.5866 74.3275 25.8532 74.5467 25.8532C74.7414 25.8532 74.8145 25.5382 75.3504 24.3991C75.7887 23.4537 76.6655 21.3936 77.8345 18.582C78.8087 16.231 79.7828 13.9284 80.0019 13.3952C80.5621 12.1348 80.8543 11.8197 81.098 11.6501Z" fill="black"/>
<path d="M90.7185 25.6837C91.4735 25.6837 91.6197 25.6837 91.7658 25.1746C91.8632 24.7625 92.0093 23.4781 92.0093 23.3084C92.0093 23.1629 92.0093 23.0174 91.8876 23.0174C91.7902 23.0174 91.7414 23.0903 91.7171 23.3084C91.571 24.0839 91.3517 24.4717 90.8403 24.6899C90.3288 24.908 89.5008 24.908 88.9895 24.908C87.0897 24.908 86.8219 24.6657 86.7488 23.3326C86.7244 22.9206 86.7488 20.715 86.7488 20.0606V18.3639C86.7488 18.2912 86.7975 18.2184 86.8949 18.2184C87.2115 18.2184 89.1356 18.2669 89.647 18.3155C90.4019 18.3881 90.5724 18.7275 90.6454 18.9941C90.7185 19.2365 90.7185 19.4304 90.7185 19.6243C90.7185 19.7212 90.7673 19.794 90.8646 19.794C91.0107 19.794 91.0107 19.5759 91.0107 19.4304C91.0107 19.2849 91.0595 18.5821 91.0839 18.1942C91.1326 17.564 91.23 17.2248 91.23 17.1278C91.23 17.0067 91.1812 16.9824 91.1326 16.9824C91.0595 16.9824 90.9864 17.0793 90.8403 17.2248C90.6698 17.4187 90.4019 17.4429 89.9392 17.4914C89.5008 17.5398 87.1385 17.5398 86.8705 17.5398C86.7731 17.5398 86.7488 17.4914 86.7488 17.3459V12.0622C86.7488 11.9409 86.7975 11.8683 86.8705 11.8683C87.0897 11.8683 89.1842 11.8925 89.5008 11.9167C90.548 12.0379 90.7429 12.2561 90.8646 12.5711C90.9621 12.7892 90.9864 13.1286 90.9864 13.2497C90.9864 13.3952 91.0351 13.4921 91.1326 13.4921C91.2056 13.4921 91.2544 13.371 91.2787 13.274C91.3273 13.0558 91.3517 12.2075 91.3761 12.0137C91.4248 11.4804 91.5222 11.2381 91.5222 11.1168C91.5222 11.0199 91.4978 10.9473 91.4492 10.9473C91.3517 10.9473 91.2787 11.0199 91.1812 11.0441C91.0351 11.0926 90.7185 11.1168 90.3532 11.1412C89.9149 11.1654 86.0668 11.1654 85.9451 11.1654L85.1658 11.1168C84.7517 11.0926 84.2159 11.0926 83.7775 11.0926C83.5583 11.0926 83.4609 11.1412 83.4609 11.2381C83.4609 11.3107 83.5341 11.3593 83.607 11.3593C83.7775 11.3593 84.1185 11.3835 84.2646 11.4078C84.8978 11.5531 85.0439 11.844 85.0927 12.4984C85.1414 13.1044 85.1414 13.6376 85.1414 16.643V20.0121C85.1414 21.8541 85.1414 23.3568 85.0439 24.1809C84.9709 24.7383 84.8734 25.1504 84.4838 25.2474C84.3134 25.2958 84.0698 25.3201 83.8993 25.3201C83.7775 25.3201 83.7532 25.3685 83.7532 25.4413C83.7532 25.5624 83.8507 25.5867 84.0698 25.5867C84.3621 25.5867 84.8004 25.5382 85.1902 25.5382C85.6041 25.514 85.9207 25.514 85.9695 25.514C86.2617 25.514 86.7244 25.5382 87.4795 25.5624C88.21 25.6595 89.2573 25.6837 90.7185 25.6837Z" fill="black"/>
<path d="M109.79 25.4892C109.79 25.4408 109.716 25.3681 109.619 25.3681C109.497 25.3681 109.229 25.3681 108.864 25.3197C108.377 25.2469 107.549 25.0287 106.526 23.938C105.406 22.7505 104.091 21.0538 102.532 19.0421C104.261 17.4424 104.87 16.0367 104.87 14.6066C104.87 13.2736 104.018 12.3526 103.531 11.989C102.508 11.2619 101.217 11.1406 99.9991 11.1406C99.4146 11.1406 97.929 11.1891 97.7341 11.1891C97.6366 11.1891 96.419 11.1406 95.5666 11.1406C95.3474 11.1406 95.25 11.1891 95.25 11.2861C95.25 11.3588 95.323 11.4072 95.3961 11.4072C95.5666 11.4072 95.9076 11.4316 96.0537 11.4558C96.6869 11.6011 96.833 11.8921 96.8817 12.5465C96.9305 13.1523 96.9305 13.6856 96.9305 16.6911V20.06C96.9305 21.9021 96.9305 23.4049 96.833 24.229C96.76 24.7864 96.6625 25.1984 96.2729 25.2954C96.1024 25.3439 95.8588 25.3681 95.6883 25.3681C95.5666 25.3681 95.5422 25.4166 95.5422 25.4892C95.5422 25.6105 95.6397 25.6347 95.8588 25.6347C96.4434 25.6347 97.661 25.5862 97.661 25.5862C97.7585 25.5862 98.9762 25.6347 100.023 25.6347C100.243 25.6347 100.34 25.5862 100.34 25.4892C100.34 25.4408 100.291 25.3681 100.194 25.3681C100.023 25.3681 99.5851 25.3197 99.3171 25.2954C98.7327 25.2226 98.6352 24.7864 98.5622 24.229C98.4647 23.4291 98.4647 21.9021 98.4647 20.06V19.5995C98.4647 19.5026 98.5134 19.4542 98.611 19.4542L100.973 19.5026C101.095 19.5026 101.144 19.5511 101.217 19.6237C101.606 20.1328 102.508 21.4174 103.311 22.4595C104.407 23.8896 105.089 24.8348 105.917 25.2711C106.429 25.5378 106.891 25.6347 107.987 25.6347H109.351C109.668 25.6347 109.79 25.5862 109.79 25.4892ZM102.045 18.5331C101.606 18.8482 101.071 18.8967 100.608 18.8967C99.7556 18.8967 98.8788 18.7512 98.5866 18.5816C98.4891 18.5331 98.4405 18.4362 98.4405 18.3391V12.0616C98.4405 11.9405 98.4891 11.8677 98.5866 11.8435C98.7814 11.795 99.2927 11.7224 99.8773 11.7224C101.947 11.7224 103.214 13.1523 103.214 15.552C103.214 17.0545 102.727 18.0726 102.045 18.5331Z" fill="black"/>
<path d="M114.906 25.4892C114.906 25.4408 114.857 25.3681 114.76 25.3681C114.589 25.3681 114.151 25.3197 113.883 25.2954C113.298 25.2226 113.201 24.7864 113.128 24.229C113.031 23.4291 113.031 21.9021 113.031 20.06V16.6911C113.031 13.7098 113.031 13.1523 113.079 12.5465C113.128 11.8678 113.274 11.5527 113.786 11.4558C114.005 11.4072 114.127 11.4072 114.273 11.4072C114.346 11.4072 114.419 11.3588 114.419 11.2861C114.419 11.1648 114.321 11.1406 114.102 11.1406C113.518 11.1406 112.3 11.1891 112.203 11.1891C112.105 11.1891 110.887 11.1406 110.254 11.1406C110.035 11.1406 109.938 11.1891 109.938 11.2861C109.938 11.3588 110.011 11.4072 110.084 11.4072C110.23 11.4072 110.473 11.4314 110.693 11.48C111.107 11.5769 111.301 11.8921 111.35 12.5465C111.399 13.1523 111.399 13.6856 111.399 16.6911V20.06C111.399 21.9021 111.399 23.4049 111.301 24.229C111.228 24.7864 111.131 25.1984 110.741 25.2954C110.571 25.3439 110.327 25.3681 110.157 25.3681C110.035 25.3681 110.011 25.4166 110.011 25.4892C110.011 25.6105 110.108 25.6347 110.327 25.6347C110.912 25.6347 112.129 25.5862 112.227 25.5862C112.324 25.5862 113.542 25.6347 114.589 25.6347C114.833 25.6347 114.906 25.5862 114.906 25.4892Z" fill="black"/>
<path d="M130.393 24.0109V21.8537C130.393 21.0538 130.393 20.4722 130.442 19.8663C130.49 19.1876 130.637 18.8725 131.148 18.7756C131.392 18.7271 131.489 18.7271 131.635 18.7271C131.708 18.7271 131.781 18.6787 131.781 18.6059C131.781 18.4848 131.684 18.4604 131.465 18.4604C130.88 18.4604 129.662 18.509 129.565 18.509C129.468 18.509 128.25 18.4604 127.397 18.4604C127.178 18.4604 127.081 18.509 127.081 18.6059C127.081 18.6787 127.154 18.7271 127.227 18.7271C127.397 18.7271 127.738 18.7514 127.884 18.7756C128.664 18.9937 128.761 19.1876 128.761 20.7388V24.0109C128.761 24.326 128.615 24.5442 128.372 24.6895C127.86 24.9804 126.862 25.1016 126.18 25.1016C124.402 25.1016 122.648 24.5198 121.138 23.0414C120.456 22.387 119.093 20.4238 119.093 17.7333C119.093 15.4793 119.872 13.7342 120.992 12.8617C122.453 11.6982 123.89 11.6013 125.108 11.6013C127.592 11.6013 129.151 12.4254 129.638 13.1525C129.93 13.613 130.028 14.1463 130.052 14.4128C130.076 14.5825 130.101 14.7037 130.198 14.7037C130.344 14.7037 130.369 14.6068 130.369 14.2916C130.369 12.3768 130.515 11.8437 130.515 11.5771C130.515 11.5043 130.466 11.4316 130.296 11.4074C129.809 11.3832 129.151 11.3103 128.737 11.2135C128.372 11.1408 127.008 10.8984 125.79 10.8984C124.304 10.8984 122.405 11.0438 120.676 12.1102C118.971 13.1767 117.461 15.3581 117.461 18.412C117.461 20.8115 118.581 22.8475 119.75 23.8654C121.893 25.7317 124.621 25.9257 126.082 25.9257C127.203 25.9257 128.932 25.7075 130.174 25.0531C130.369 24.9076 130.393 24.8592 130.393 24.0109Z" fill="black"/>
<path d="M134.705 11.4066C134.875 11.4066 135.216 11.4308 135.362 11.455C135.995 11.6005 136.142 11.8913 136.19 12.5457C136.239 13.1517 136.239 13.6848 136.239 16.6903V20.0594C136.239 21.9014 136.239 23.4041 136.142 24.2282C136.069 24.7857 135.971 25.1978 135.581 25.2947C135.411 25.3431 135.167 25.3673 134.997 25.3673C134.875 25.3673 134.851 25.4159 134.851 25.4886C134.851 25.6098 134.948 25.6341 135.167 25.6341C135.46 25.6341 135.898 25.5855 136.288 25.5855C136.702 25.5613 137.018 25.5613 137.067 25.5613C137.359 25.5613 137.822 25.5855 138.577 25.6099C139.332 25.6341 140.379 25.6583 141.84 25.6583C142.595 25.6583 142.742 25.6583 142.888 25.1492C142.985 24.7373 143.131 23.4527 143.131 23.283C143.131 23.1375 143.131 22.9921 143.01 22.9921C142.912 22.9921 142.863 23.0649 142.839 23.283C142.693 24.0585 142.474 24.4464 141.962 24.6645C141.451 24.8826 140.623 24.8826 140.111 24.8826C138.212 24.8826 137.944 24.6403 137.871 23.3072C137.846 22.8952 137.871 20.6896 137.871 20.0352V18.3385C137.871 18.2659 137.919 18.1931 138.017 18.1931C138.333 18.1931 140.257 18.2415 140.769 18.2901C141.524 18.3627 141.694 18.7021 141.767 18.9687C141.84 19.2111 141.84 19.405 141.84 19.5989C141.84 19.6958 141.889 19.7686 141.987 19.7686C142.133 19.7686 142.133 19.5505 142.133 19.405C142.133 19.2595 142.181 18.5567 142.206 18.1688C142.254 17.5386 142.352 17.1994 142.352 17.1024C142.352 16.9813 142.303 16.957 142.254 16.957C142.181 16.957 142.108 17.0539 141.962 17.1994C141.792 17.3933 141.524 17.4175 141.061 17.466C140.623 17.5144 138.26 17.5144 137.992 17.5144C137.895 17.5144 137.871 17.466 137.871 17.3205V12.0368C137.871 11.9155 137.919 11.8429 137.992 11.8429C138.212 11.8429 140.306 11.8671 140.623 11.8913C141.67 12.0126 141.865 12.2307 141.987 12.5457C142.084 12.7639 142.108 13.1032 142.108 13.2244C142.108 13.3698 142.157 13.4667 142.254 13.4667C142.328 13.4667 142.376 13.3456 142.401 13.2486C142.449 13.0304 142.474 12.1821 142.498 11.9883C142.547 11.455 142.644 11.2127 142.644 11.0914C142.644 10.9945 142.62 10.9219 142.571 10.9219C142.474 10.9219 142.401 10.9945 142.303 11.0188C142.157 11.0672 141.84 11.0914 141.475 11.1158C141.037 11.14 137.189 11.14 137.067 11.14L136.288 11.0914C135.874 11.0672 135.338 11.0672 134.9 11.0672C134.68 11.0672 134.583 11.1158 134.583 11.2127C134.559 11.3581 134.632 11.4066 134.705 11.4066Z" fill="black"/>
<path d="M152.241 25.1025C153.58 24.1573 153.872 22.703 153.872 21.9273C153.872 20.4004 153.337 19.2128 151.072 17.4192L150.536 17.0072C148.685 15.5771 148.198 14.8743 148.198 13.7836C148.198 12.3777 149.245 11.5538 150.56 11.5538C152.338 11.5538 152.85 12.3535 152.971 12.5717C153.093 12.7898 153.215 13.2989 153.215 13.5412C153.239 13.6866 153.264 13.7836 153.361 13.7836C153.458 13.7836 153.507 13.6381 153.507 13.3473C153.507 12.0385 153.58 11.4083 153.58 11.3113C153.58 11.2144 153.531 11.1659 153.385 11.1659C153.239 11.1659 153.069 11.1417 152.703 11.0689C152.216 10.9478 151.656 10.875 150.901 10.875C148.466 10.875 146.907 12.2809 146.907 14.3167C146.907 15.6256 147.37 16.8133 149.416 18.4857L150.292 19.1886C151.949 20.5458 152.509 21.3215 152.509 22.6303C152.509 23.8663 151.608 25.1751 149.757 25.1751C148.466 25.1751 147.199 24.642 146.907 23.2119C146.858 22.9453 146.858 22.6788 146.858 22.5091C146.858 22.3636 146.834 22.2909 146.712 22.2909C146.615 22.2909 146.566 22.388 146.566 22.6061C146.542 22.9211 146.469 23.6726 146.469 24.642C146.469 25.1509 146.493 25.248 146.761 25.3691C147.54 25.7569 148.441 25.8781 149.342 25.8781C150.39 25.9024 151.413 25.66 152.241 25.1025Z" fill="black"/>
<path d="M19.7892 21.5826C20.4944 21.998 21.2714 22.3416 22.106 22.6424C22.9551 22.9288 23.7178 23.2438 24.4229 23.5733C25.128 23.9026 25.718 24.2893 26.2072 24.7333C26.6821 25.1772 26.9268 25.7787 26.9268 26.5234C26.9268 26.953 26.8116 27.3827 26.5958 27.798C26.38 28.2133 26.0921 28.5856 25.718 28.9294C25.3582 29.273 24.9265 29.5452 24.4372 29.7743C23.948 29.9891 23.43 30.1037 22.8688 30.1037C22.1636 30.1037 21.5448 30.0034 21.0125 29.7886C20.48 29.5881 20.0339 29.3304 19.6597 29.044C19.2856 28.7575 18.9834 28.4424 18.7676 28.1273C18.5517 27.8123 18.3934 27.5545 18.3215 27.3684H17.9473C17.9473 27.6548 17.9185 28.0701 17.861 28.5999C17.8034 29.1298 17.717 29.5738 17.6163 29.9175C17.861 30.1037 18.1632 30.2755 18.5085 30.4474C18.8539 30.6192 19.2137 30.7481 19.6022 30.8627C19.9907 30.9773 20.3936 31.0632 20.7966 31.1348C21.2138 31.2064 21.6168 31.2494 22.0197 31.2494C23.0846 31.2494 24.02 31.0776 24.8258 30.7338C25.6316 30.3901 26.3224 29.9462 26.8835 29.3876C27.4448 28.8291 27.8621 28.199 28.1499 27.5116C28.4377 26.8241 28.5672 26.0938 28.5672 25.3204C28.5672 24.6616 28.4665 24.1031 28.2506 23.6591C28.0491 23.2152 27.7613 22.8429 27.4016 22.5565C27.5887 22.3702 27.7901 22.1412 27.9916 21.8547C28.1931 21.5683 28.3946 21.2533 28.5672 20.9095C28.7399 20.5515 28.8982 20.1791 29.0134 19.7782C29.1428 19.3772 29.2004 18.9619 29.2004 18.5179C29.2004 17.6013 28.9701 16.8709 28.5241 16.2981C28.0779 15.7253 27.5168 15.2527 26.8548 14.866C26.1928 14.4794 25.4734 14.15 24.6963 13.8779C23.9336 13.5915 23.2141 13.2907 22.5378 12.9613C21.8758 12.6319 21.3146 12.2309 20.8685 11.7727C20.4225 11.3144 20.1922 10.6986 20.1922 9.95389C20.1922 9.48129 20.2929 9.05166 20.5088 8.66498C20.7103 8.27832 20.9836 7.96326 21.3003 7.69115C21.6168 7.41905 21.991 7.21855 22.4082 7.07534C22.8256 6.93214 23.2429 6.86053 23.689 6.86053C24.1207 6.86053 24.5236 6.93214 24.8834 7.07534C25.2431 7.21855 25.5741 7.41905 25.8475 7.64819C26.1209 7.89165 26.3656 8.16375 26.567 8.4645C26.7685 8.77955 26.898 9.09462 26.9843 9.42401H27.3584C27.4016 9.10894 27.5024 8.77955 27.6894 8.42153C27.8621 8.0635 28.0635 7.7914 28.265 7.60523C27.8477 7.13263 27.3153 6.68868 26.639 6.30201C25.977 5.91533 25.128 5.71484 24.1207 5.71484C23.1997 5.71484 22.3938 5.85805 21.7031 6.14447C21.0125 6.4309 20.4225 6.81757 19.9619 7.29016C19.5014 7.76276 19.1417 8.30696 18.9115 8.92277C18.6812 9.53858 18.5661 10.1544 18.5661 10.7988C18.5661 11.2285 18.5804 11.5865 18.6237 11.8729C18.6669 12.1593 18.7244 12.3885 18.7963 12.6033C18.8683 12.8038 18.9547 13.0043 19.0554 13.1762C19.1561 13.348 19.2712 13.5341 19.4007 13.7204C19.1992 13.8492 18.9691 14.0211 18.71 14.2502C18.4654 14.4794 18.2207 14.7515 18.0048 15.0952C17.7891 15.4245 17.602 15.7969 17.4581 16.2122C17.3141 16.6276 17.2422 17.0858 17.2422 17.5727C17.2422 18.5895 17.4869 19.4058 17.9617 20.0359C18.4798 20.6518 19.0841 21.1816 19.7892 21.5826ZM19.1417 15.1668C19.4007 14.7515 19.6597 14.4364 19.9332 14.2073C20.0626 14.3075 20.1922 14.4077 20.3504 14.5223C20.5088 14.6226 20.7534 14.7658 21.0988 14.9519C21.4441 15.1381 21.919 15.3816 22.5378 15.668C23.1566 15.9544 23.9624 16.3268 24.9841 16.7851C25.5022 17.0142 25.9338 17.229 26.2935 17.4438C26.6534 17.6443 26.9268 17.8734 27.1426 18.0883C27.3441 18.3174 27.5024 18.5752 27.5887 18.8616C27.6894 19.148 27.7326 19.4917 27.7326 19.8784C27.7326 20.4369 27.6463 20.8952 27.4735 21.239C27.3009 21.5969 27.0994 21.912 26.8979 22.1984C26.5813 21.998 26.0778 21.7258 25.3726 21.3965C24.6675 21.067 23.5738 20.5801 22.0916 19.9357C20.9117 19.4201 20.0482 18.9189 19.5303 18.432C19.0122 17.9451 18.7532 17.3149 18.7532 16.5273C18.7532 16.0404 18.8826 15.5821 19.1417 15.1668Z" fill="black"/>
<path d="M41.4721 33.7422C41.5584 33.6563 42.1628 33.2123 42.0909 33.1121C42.019 33.0118 41.4002 33.0405 41.2706 33.0405C40.3784 33.0118 39.3855 33.198 38.5797 33.5704C39.0114 33.1121 39.4287 32.6395 39.8172 32.1526C40.3353 33.6133 43.127 30.6345 43.458 30.1762C43.645 29.9185 43.8609 29.6321 44.0048 29.3457C44.2062 28.9733 43.9759 29.1022 43.6594 29.1594C42.796 29.3313 42.0046 29.6464 41.2706 30.119C41.5297 29.7037 41.7599 29.2883 41.9902 28.8587C42.7672 30.0904 44.8394 26.8251 45.0552 26.3239C45.1415 26.1091 45.3862 25.7224 45.415 25.4933C45.4437 25.1639 45.2567 25.3501 44.9689 25.4503C44.2062 25.7511 43.5155 26.195 42.9255 26.7536C43.0982 26.2952 43.2565 25.8226 43.3859 25.3501C43.9328 25.7368 44.6236 24.7915 44.8681 24.4192C45.2999 23.7604 45.6452 22.9584 45.818 22.1851C45.8611 21.9703 46.0193 21.5263 46.005 21.3115C45.9762 20.9821 45.8611 21.1683 45.5877 21.3401C44.9114 21.7698 44.3502 22.314 43.8752 22.9584C43.9328 22.5144 43.9759 22.0562 43.9904 21.6122C45.1559 22.2997 45.6308 18.7337 45.6308 18.2325C45.6308 18.1036 45.674 17.4018 45.6165 17.3302C45.4869 17.1584 45.3574 17.4162 45.2136 17.5451C44.6667 18.1179 44.2206 18.7767 43.9328 19.5214C43.8896 19.0918 43.8465 18.6621 43.7746 18.2325C44.4077 18.2611 44.6811 17.2014 44.7818 16.743C44.9545 15.984 44.9977 15.1964 44.9114 14.423C44.897 14.2942 44.9114 13.7357 44.7962 13.707C44.7387 13.6926 44.3789 14.1796 44.3214 14.2512C43.8609 14.824 43.5011 15.5687 43.3428 16.2848C43.1702 15.6976 42.9687 15.1105 42.7384 14.5519C43.314 14.5376 43.3284 13.5065 43.314 13.1341C43.2852 12.4181 43.127 11.702 42.8536 11.0433C42.8248 10.986 42.6521 10.4275 42.5658 10.4275C42.4938 10.4275 42.3643 10.8285 42.3211 10.9001C42.0621 11.5015 41.947 12.2033 41.947 12.8621C41.7455 12.4754 41.5297 12.103 41.285 11.7307C42.4938 11.6734 41.1268 8.7519 40.8533 8.33659C40.7958 8.25066 40.4792 7.6635 40.4072 7.69214C40.3353 7.72078 40.2921 8.05016 40.2777 8.15041C40.1338 8.83783 40.1194 9.5682 40.2777 10.2699C40.0475 9.95487 39.7884 9.65413 39.5438 9.3677C40.5512 8.99536 38.9394 6.66102 38.5941 6.2457C38.3063 5.91632 38.1624 5.55829 38.1049 6.14546C38.0472 6.80423 38.1193 7.47733 38.335 8.09313C38.1049 7.87831 37.8746 7.6635 37.6443 7.463C38.0905 7.16226 37.7306 6.26002 37.5724 5.902C37.3134 5.31483 36.9824 4.81359 36.5794 4.32668C36.5219 4.25507 36.2772 3.8684 36.1765 3.92569C36.1334 3.95433 36.119 4.45557 36.119 4.51285C36.0902 5.18594 36.2197 5.93065 36.5075 6.54645C36.1622 6.28867 36.0327 5.94497 35.6872 5.65854C35.3419 5.37212 34.9102 5.17162 34.4929 5.01409C34.1044 4.85656 33.7302 4.77063 33.3273 4.69903C33.2553 4.68471 32.8812 4.55582 32.8093 4.6131C32.7085 4.68471 32.8381 4.71335 32.8812 4.81359C33.1259 5.45805 33.9749 6.08818 34.5505 6.40324C34.9534 6.61805 35.3131 6.68966 35.7593 6.73262C36.0038 6.76127 35.8024 6.6467 36.0902 6.78991C36.306 6.89016 36.5075 7.1193 36.6802 7.26251C36.0471 6.93312 35.2268 6.81855 34.5216 6.81855C34.4209 6.81855 33.6151 6.81855 33.5863 6.86151C33.4856 7.01905 33.7015 7.1193 33.8597 7.24819C34.3922 7.70645 35.0685 8.06448 35.7593 8.22202C36.0758 8.29362 37.5436 8.45116 37.1982 7.69214C37.6731 8.12177 38.1336 8.58005 38.5509 9.05265C37.8746 8.73758 37.0256 8.62301 36.2916 8.65165C36.1478 8.65165 35.5865 8.62301 35.5146 8.70894C35.4427 8.79487 35.7449 9.00968 35.8312 9.08128C36.3349 9.51092 36.9824 9.86895 37.6299 10.0408C38.0328 10.141 39.0114 10.3415 39.1841 9.78302C39.5294 10.2126 39.846 10.6566 40.1482 11.1149C39.5582 10.7998 38.8675 10.5993 38.2056 10.5134C38.0472 10.4991 37.3278 10.3559 37.1982 10.4275C37.0256 10.5277 37.2414 10.6423 37.3421 10.7712C37.7738 11.2581 38.2631 11.6734 38.8531 11.9885C39.3136 12.2462 40.3784 12.7189 40.8246 12.2319C41.0836 12.6902 41.3282 13.1771 41.544 13.664C40.9972 13.2487 40.3065 12.905 39.6446 12.7189C39.4719 12.6759 39.0977 12.5184 38.925 12.5327C38.666 12.547 38.8243 12.6759 38.9538 12.8764C39.2992 13.4493 39.7165 13.9648 40.2346 14.3801C40.6519 14.7094 41.5297 15.311 42.0765 14.9816C42.2924 15.583 42.4794 16.2132 42.6233 16.8433C42.1772 16.2705 41.616 15.7406 41.0116 15.3396C40.7958 15.1964 40.508 14.9816 40.2634 14.8814C39.9036 14.7525 40.0475 14.9386 40.1194 15.2537C40.3209 16.07 40.6806 16.8576 41.2131 17.5164C41.544 17.9174 42.3211 18.7767 42.9255 18.4473C42.9974 18.9915 43.055 19.55 43.0694 20.1086C42.5802 19.3925 41.9758 18.8053 41.285 18.3041C41.1124 18.1752 40.7958 17.7742 40.695 18.0319C40.6087 18.2754 40.8677 18.9772 40.9253 19.1919C41.1987 20.0369 41.6304 20.8962 42.3211 21.4833C42.4794 21.6122 42.6953 21.6839 42.8536 21.8127C43.0981 22.0133 42.9543 21.6122 43.0406 22.0705C43.127 22.5575 42.9111 23.2735 42.8104 23.7747C42.5658 22.9871 42.1196 22.2137 41.5872 21.5836C41.4433 21.3975 41.1268 20.9535 40.9253 20.8389C40.6375 20.6814 40.7238 20.8676 40.7094 21.1826C40.6519 21.9846 40.7526 22.7722 40.9828 23.5312C41.1699 24.1328 41.6592 25.3357 42.4218 25.3501C42.2348 25.9802 42.019 26.6103 41.7599 27.2118C41.6592 26.4098 41.3858 25.5792 41.0116 24.8775C40.8965 24.6769 40.6806 24.1614 40.5224 24.0182C40.2777 23.8034 40.3209 24.0039 40.2346 24.319C40.0187 25.0923 39.9612 25.88 40.0331 26.6819C40.105 27.312 40.3209 28.515 41.0404 28.7441C40.695 29.3886 40.3065 30.0187 39.8892 30.6345C39.9899 29.718 39.846 28.7012 39.5582 27.8276C39.4575 27.5412 39.3568 27.0829 39.1984 26.8394C38.9971 26.5101 38.9682 26.8537 38.8243 27.1259C38.4358 27.9279 38.2056 28.8301 38.1768 29.718C38.1624 30.3194 38.2056 31.6514 38.925 31.9091C38.5221 32.3961 38.1049 32.8686 37.6587 33.3269C37.9321 32.5106 38.0472 31.5797 38.0041 30.7348C37.9897 30.434 38.0041 29.9615 37.9178 29.6894C37.8027 29.3027 37.6299 29.7037 37.4285 29.9185C36.8385 30.5772 36.3924 31.4365 36.1478 32.2815C35.9894 32.84 35.7016 34.1432 36.3636 34.5298C35.7737 35.0311 35.1693 35.5037 34.5361 35.9476C34.9965 35.0884 35.2844 34.0573 35.3707 33.0834C35.3994 32.8543 35.3851 32.6251 35.3994 32.3961C35.3994 32.2958 35.5146 31.9091 35.4571 31.8375C35.3131 31.6084 35.1405 31.9091 34.9534 32.0666C34.2194 32.6968 33.6151 33.4987 33.1978 34.3723C32.91 34.9882 32.3775 36.32 33.0251 36.8786C32.061 37.4227 31.0537 37.8811 30.0032 38.239C30.7803 37.5659 31.2695 36.4919 31.6005 35.5466C31.7588 35.0884 31.8163 34.6158 31.9459 34.1432C32.0897 33.6133 31.989 33.6706 31.5717 33.9427C30.7227 34.4583 29.9888 35.1457 29.4132 35.9763C29.0678 36.4919 28.1469 38.0958 29.0103 38.5541C27.9885 38.8405 26.9525 39.0267 25.902 39.084C26.7654 38.6114 27.4418 37.7378 27.9741 36.9358C28.2476 36.5205 28.4203 36.0766 28.6506 35.6469C28.8663 35.2316 29.0103 35.0741 28.4491 35.2602C27.4417 35.5897 26.5064 36.1052 25.7294 36.8355C25.2832 37.2652 24.1032 38.5398 24.794 39.1843C24.1032 39.4563 23.614 40.2011 23.211 40.7882C22.8081 40.2011 22.3189 39.4563 21.6282 39.1843C22.3045 38.5541 21.1964 37.3225 20.7647 36.8929C19.9876 36.1195 19.0091 35.604 17.9731 35.2602C17.5126 35.1027 17.5126 35.1457 17.7285 35.5754C17.9586 36.005 18.117 36.4489 18.3904 36.8643C18.9228 37.7091 19.6279 38.5971 20.5201 39.0983C19.4697 39.0411 18.4192 38.8548 17.4119 38.5684C18.2464 38.1101 17.3975 36.5778 17.0521 36.0622C16.4909 35.203 15.7138 34.4869 14.8504 33.957C14.5051 33.7422 14.3323 33.5704 14.4475 34.0716C14.5482 34.5442 14.6345 35.0025 14.7785 35.4608C15.1094 36.4489 15.6131 37.5516 16.4045 38.2533C15.3541 37.8954 14.3467 37.437 13.3826 36.8929C14.0158 36.3343 13.4977 35.0025 13.2099 34.3866C12.7926 33.513 12.1882 32.7111 11.4543 32.081C11.2529 31.9091 11.1089 31.6227 10.9507 31.8518C10.8932 31.9234 11.0082 32.3101 11.0082 32.4104C11.0226 32.6395 11.0082 32.8686 11.037 33.0978C11.1233 34.0573 11.4111 35.1027 11.8717 35.962C11.2385 35.5323 10.6197 35.0598 10.0441 34.5442C10.6773 34.1719 10.4326 32.9259 10.2888 32.3818C10.0585 31.5081 9.58362 30.6202 8.99362 29.9328C8.82096 29.7323 8.6627 29.3457 8.50435 29.6464C8.40362 29.8469 8.44683 30.4197 8.43242 30.6489C8.37481 31.5368 8.48995 32.4962 8.77775 33.3412C8.33169 32.883 7.91435 32.4247 7.51142 31.9234C8.23096 31.6657 8.27417 30.3338 8.25976 29.7323C8.23096 28.8444 8.00068 27.9422 7.61215 27.1402C7.4827 26.8824 7.43949 26.5244 7.23802 26.8537C7.09417 27.1115 6.97903 27.5555 6.8783 27.8419C6.6049 28.7155 6.46096 29.7323 6.54729 30.6489C6.13004 30.0473 5.74142 29.4172 5.3961 28.7585C6.10124 28.5293 6.33142 27.3407 6.40344 26.6962C6.48977 25.8943 6.41784 25.1066 6.20197 24.3333C6.11564 24.0039 6.15876 23.8177 5.91417 24.0325C5.74142 24.1757 5.52564 24.6912 5.42491 24.8918C5.05078 25.6079 4.77729 26.4241 4.67656 27.2261C4.41757 26.6247 4.2017 25.9945 4.01463 25.3644C4.7773 25.3501 5.26656 24.1471 5.45362 23.5456C5.6983 22.7866 5.78463 21.9846 5.72711 21.1969C5.6983 20.8532 5.78463 20.6814 5.51124 20.8532C5.32417 20.9678 5.00757 21.4261 4.84931 21.5979C4.33124 22.228 3.88518 23.0157 3.6261 23.789C3.53978 23.3165 3.29515 22.5575 3.39587 22.0848C3.52539 21.5263 3.23759 22.1135 3.58295 21.8271C3.74124 21.6982 3.94271 21.6409 4.11537 21.4976C4.8061 20.9105 5.23784 20.0512 5.51124 19.2063C5.58316 18.9915 5.84216 18.2897 5.74142 18.0463C5.64078 17.7885 5.33857 18.1895 5.15151 18.3184C4.46078 18.8197 3.84197 19.4068 3.36709 20.1229C3.39587 19.5643 3.43905 19.0201 3.511 18.4616C4.11537 18.7767 4.89243 17.9318 5.22344 17.5307C5.75583 16.8719 6.11564 16.0843 6.31711 15.268C6.38903 15.0102 6.53289 14.8097 6.23069 14.8527C6.02931 14.8814 5.61197 15.225 5.42491 15.3539C4.8205 15.755 4.25931 16.2848 3.81317 16.8576C3.95711 16.2275 4.14417 15.6117 4.36004 14.9959C4.90683 15.3396 5.81344 14.7094 6.23069 14.3658C6.74876 13.9504 7.1805 13.4493 7.49702 12.8764C7.62655 12.6472 7.7705 12.59 7.51142 12.547C7.30995 12.5184 6.79197 12.7332 6.6049 12.7904C6.0005 12.9909 5.4105 13.2917 4.90683 13.6783C5.1227 13.1915 5.36729 12.7189 5.62637 12.2462C6.07243 12.7332 7.13729 12.2462 7.59775 12.0028C8.18775 11.6877 8.69142 11.2724 9.12316 10.7712C9.29582 10.5707 9.43976 10.542 9.19508 10.4561C9.00802 10.3845 8.46123 10.5134 8.24536 10.5277C7.58343 10.6136 6.8927 10.8141 6.3027 11.1292C6.6049 10.6709 6.93582 10.227 7.28123 9.79734C7.45389 10.3559 8.43242 10.1554 8.83536 10.0551C9.48288 9.88327 10.1304 9.52524 10.6341 9.0956C10.7061 9.03832 11.0082 8.80919 10.9939 8.73758C10.9795 8.66597 10.2888 8.66597 10.1736 8.66597C9.43976 8.63733 8.59068 8.7519 7.91435 9.06697C8.34609 8.59437 8.79215 8.13609 9.26701 7.70645C8.93609 8.42251 10.2888 8.30794 10.6054 8.25066C11.3392 8.10745 12.0443 7.72078 12.5911 7.24819C12.6631 7.1909 12.9653 6.96176 12.9509 6.89016C12.9365 6.81855 12.2314 6.81855 12.1163 6.80423C11.3536 6.77559 10.4614 6.89016 9.78508 7.24819C9.95774 7.10497 10.1736 6.87584 10.3751 6.77559C10.8211 6.56077 10.3032 6.76127 10.7061 6.7183C11.1521 6.67534 11.5119 6.60373 11.9148 6.38891C12.5048 6.07386 13.3395 5.44373 13.5841 4.79927C13.5985 4.77063 13.728 4.65606 13.6992 4.59878C13.656 4.52717 13.1955 4.67039 13.138 4.68471C12.7351 4.75631 12.3465 4.84223 11.9724 4.99977C11.5551 5.17162 11.1233 5.3578 10.778 5.64422C10.447 5.91632 10.3176 6.27434 9.95774 6.53213C10.2311 5.94497 10.3607 5.24323 10.3463 4.59878C10.3463 4.5415 10.3463 4.01161 10.2888 3.95433C10.1736 3.85408 9.97215 4.22643 9.88582 4.32668C9.49728 4.78495 9.18068 5.25755 8.92169 5.81608C8.74903 6.18842 8.34609 7.14794 8.82096 7.463C8.59068 7.6635 8.3605 7.87831 8.13022 8.09313C8.34609 7.463 8.40362 6.81855 8.3605 6.15978C8.31729 5.55829 8.15903 5.91632 7.87123 6.2457C7.51142 6.66102 5.91417 8.98104 6.92142 9.3677C6.66243 9.66845 6.41784 9.96919 6.18757 10.2699C6.33142 9.61116 6.34582 8.86647 6.20197 8.2077C6.18757 8.12177 6.13004 7.70646 6.05803 7.69214C5.95729 7.67781 5.65509 8.25066 5.61197 8.33659C5.33858 8.7519 3.97151 11.6734 5.18023 11.7307C4.99317 12.146 4.77729 12.5184 4.56151 12.905C4.56151 12.2462 4.44638 11.5588 4.1873 10.943C4.15858 10.8571 4.02904 10.4704 3.95711 10.4704C3.85638 10.4561 3.71243 11.0003 3.66931 11.0862C3.45344 11.5875 2.60442 14.5662 3.77005 14.595C3.53978 15.1678 3.33831 15.7406 3.16564 16.3278C2.99296 15.6117 2.6332 14.8814 2.1871 14.2942C2.11516 14.2082 1.79857 13.7357 1.71223 13.75C1.58272 13.7643 1.59711 14.3515 1.59711 14.466C1.51078 15.2394 1.55394 16.027 1.72663 16.7861C1.82735 17.2443 2.11516 18.3041 2.73393 18.2754C2.66198 18.7051 2.60442 19.1347 2.57565 19.5643C2.28784 18.8197 1.84175 18.1608 1.29492 17.588C1.16541 17.4591 1.02151 17.1727 0.891996 17.3732C0.820051 17.4878 0.891997 18.1179 0.877611 18.2754C0.877611 18.7767 1.35248 22.3283 2.51808 21.6552C2.53247 22.1135 2.57564 22.5575 2.6332 23.0014C2.17272 22.3569 1.59711 21.8271 0.949556 21.3831C0.661758 21.1969 0.546639 20.9965 0.503465 21.3401C0.474685 21.5693 0.632979 21.9989 0.690538 22.2137C0.863217 22.9727 1.19419 23.7318 1.6115 24.3905C1.84175 24.7629 2.56125 25.7797 3.12246 25.3644C3.25197 25.8369 3.41027 26.3096 3.58295 26.7679C2.99296 26.2093 2.30223 25.7654 1.53955 25.4647C1.26614 25.3501 1.06468 25.1639 1.09346 25.5076C1.10785 25.7224 1.35248 26.1234 1.45322 26.3382C1.66907 26.8394 3.74124 30.1047 4.5183 28.873C4.74858 29.3027 4.97876 29.718 5.23784 30.119C4.5039 29.6464 3.69803 29.3313 2.84905 29.1594C2.56125 29.1022 2.31662 28.959 2.46052 29.2883C2.56125 29.5605 2.87784 29.9328 3.05052 30.1619C3.38149 30.6202 6.17316 33.599 6.69123 32.1383C7.07977 32.6251 7.49701 33.0978 7.92876 33.5561C7.12289 33.1837 6.13004 32.9975 5.23784 33.0262C5.1227 33.0262 4.4895 32.9975 4.41757 33.0978C4.34564 33.198 4.90683 33.6133 4.99317 33.685C5.66949 34.3151 6.48977 34.8163 7.35316 35.1743C7.81362 35.3605 9.33903 35.8331 9.35334 34.9165C9.87141 35.3605 10.4039 35.7901 10.9651 36.1911C10.0298 35.9047 8.93609 35.8618 7.98628 36.0336C7.85683 36.0622 7.13729 36.1482 7.10848 36.2627C7.07977 36.3773 7.7705 36.7354 7.87123 36.8069C8.67701 37.3655 9.62683 37.7665 10.5765 38.0099C11.1089 38.1388 13.0373 38.3679 12.6343 37.2939C13.138 37.5803 13.6416 37.8523 14.1597 38.0958C13.2531 38.1244 12.3897 38.2963 11.5407 38.6544C11.181 38.7976 11.1954 38.8119 11.5551 38.9837C11.886 39.1412 12.217 39.3131 12.5624 39.442C13.1811 39.6855 17.2248 40.7309 16.937 39.1412C17.3399 39.2558 17.7572 39.3561 18.1745 39.4277C17.3542 39.6712 16.606 40.0292 15.9153 40.5304C15.6563 40.7166 15.5555 40.7452 15.9297 40.8312C16.2607 40.9171 16.6348 40.9887 16.9801 41.046C17.8148 41.1748 18.707 41.1605 19.5272 41.046C20.0452 40.9744 21.4554 40.688 21.3116 39.9003C21.6282 40.1008 21.8728 40.3872 22.103 40.6736C22.2325 40.8455 22.362 41.0173 22.4772 41.2035C22.693 41.5186 22.7506 41.5472 22.5491 41.8623C22.1462 42.5497 21.772 43.2515 21.3116 43.8959C21.5706 43.8959 21.8872 43.9532 22.1318 43.8959C22.4052 43.8386 22.434 43.7097 22.5923 43.4519C22.8081 43.1082 22.9952 42.7502 23.211 42.3922C23.4413 42.7932 23.801 43.7813 24.2328 43.8959C24.4774 43.9675 24.8516 43.8959 25.1106 43.8959C24.6501 43.2515 24.2759 42.5354 23.873 41.8623C23.7003 41.5758 23.7003 41.5758 23.8874 41.2894C24.0025 41.1033 24.132 40.9314 24.2616 40.7596C24.5062 40.4445 24.7796 40.1151 25.125 39.9003C24.981 40.6736 26.3913 40.9601 26.9093 41.046C27.744 41.1748 28.6362 41.1892 29.4563 41.046C29.7873 40.9887 30.1184 40.9171 30.4349 40.8455C30.8378 40.7596 30.8522 40.7596 30.5212 40.5304C29.8305 40.0292 29.0822 39.6712 28.262 39.4277C28.6793 39.3418 29.0822 39.2558 29.4995 39.1412C29.3412 40.0005 30.8378 40.0291 31.3559 40.0005C32.2049 39.9576 33.0827 39.7571 33.8741 39.442C34.2194 39.3131 34.5505 39.1412 34.8815 38.9837C35.2412 38.8119 35.2556 38.8119 34.8959 38.6544C34.0612 38.3107 33.1978 38.1244 32.2768 38.0958C32.7949 37.8523 33.3129 37.5803 33.8022 37.2939C33.3993 38.3823 35.3419 38.1388 35.86 38.0099C36.8097 37.7808 37.7594 37.3655 38.5653 36.8069C38.666 36.7354 39.3568 36.3916 39.328 36.2627C39.2992 36.1482 38.5797 36.0622 38.4502 36.0336C37.486 35.8618 36.3924 35.919 35.4715 36.1911C36.0327 35.7901 36.565 35.3605 37.0831 34.9165C37.1694 36.6351 41.0692 34.1432 41.4721 33.7422Z" fill="black"/>
</g>
<defs>
<clipPath id="clip0_3820_392400">
<rect width="157" height="48" fill="white" transform="translate(0.5)"/>
</clipPath>
</defs>
</svg>
