<svg width="40" height="40" viewBox="0 0 40 40" fill="none" xmlns="http://www.w3.org/2000/svg">
<path d="M19.9996 35.2126C4.28341 35.2126 1.32039 16.1173 1.79676 5.718C1.82081 5.19296 2.25781 4.78735 2.7834 4.78735H2.90221C3.43815 4.78735 3.87855 5.22272 3.90868 5.75781C4.91823 23.6881 12.3128 24.1951 16.5708 22.8009C18.2227 22.26 17.9252 20.9926 19.9713 20.9926C22.0173 20.9926 21.7194 22.2601 23.3713 22.801C27.6293 24.1951 35.0239 23.6881 36.0334 5.75784C36.0636 5.22275 36.504 4.78739 37.0399 4.78738L37.2166 4.78738C37.7422 4.78736 38.1792 5.19298 38.2032 5.71803C38.6796 16.1173 35.7166 35.2126 20.0004 35.2126" stroke="black" stroke-width="1.5"/>
<path d="M16.8125 14.9965V14.9965C17.7344 15.646 18.8345 15.9946 19.9622 15.9946H20.0378C21.1655 15.9946 22.2656 15.646 23.1875 14.9965V14.9965" stroke="black" stroke-width="1.5" stroke-linecap="round"/>
<path d="M15.75 12.2463L17.1899 11.0868C17.7717 10.6183 18.6189 10.6894 19.1146 11.2482V11.2482C19.6103 11.807 20.4574 11.878 21.0392 11.4095L21.2396 11.2482C21.9335 10.6894 22.944 10.7741 23.5353 11.4406L24.25 12.2463" stroke="black" stroke-width="1.5" stroke-linecap="round"/>
</svg>
