<svg width="56" height="57" viewBox="0 0 56 57" fill="none" xmlns="http://www.w3.org/2000/svg">
<ellipse opacity="0.2" cx="27.998" cy="30.4331" rx="15.8184" ry="25.5669" fill="#81C7B5"/>
<path d="M23.6119 0.875C23.5711 2.54215 23.9795 3.43935 22.1819 4.92721C21.4325 5.54748 18.0939 6.74557 15.6955 7.55686C14.0748 8.10508 12.7148 9.2495 12.1147 10.8517V10.8517C10.9987 13.8308 9.31184 19.4234 8.75 27.125" stroke="black" stroke-width="1.5" stroke-linecap="round"/>
<path d="M16.625 18.375C17.3112 20.0025 17.4946 23.7428 17.4999 37.0212C17.5 37.4184 17.4704 37.8222 17.4115 38.2151L14.875 55.125" stroke="black" stroke-width="1.5" stroke-linecap="round"/>
<path d="M33.2623 0.875C33.3008 2.54215 32.9164 3.43935 34.6082 4.92721C35.2355 5.47887 37.7904 6.48758 39.936 7.27474C41.9529 8.01471 43.6312 9.4814 44.3123 11.519C45.3517 14.6281 46.7584 19.9652 47.25 27.125" stroke="black" stroke-width="1.5" stroke-linecap="round"/>
<path d="M39.375 18.375C38.6888 20.0025 38.5054 23.7428 38.5001 37.0212C38.5 37.4184 38.5296 37.8222 38.5885 38.2151L41.125 55.125" stroke="black" stroke-width="1.5" stroke-linecap="round"/>
<path d="M29.7465 55.3247L28 48.7615" stroke="black" stroke-width="1.5" stroke-linecap="round"/>
<path d="M26.25 55.3247L27.9965 48.7615" stroke="black" stroke-width="1.5" stroke-linecap="round"/>
</svg>
