<svg width="56" height="56" viewBox="0 0 56 56" fill="none" xmlns="http://www.w3.org/2000/svg">
<circle opacity="0.2" cx="28" cy="24.5" r="17.5" fill="#81C7B5"/>
<path d="M21.5121 3.71533C21.459 5.95231 21.99 7.15617 19.6527 9.15258C18.6641 9.99697 14.2101 11.6394 11.0832 12.7282C9.06178 13.4321 7.37836 14.882 6.6396 16.8909C6.61415 16.9602 6.58844 17.0305 6.5625 17.102C5.11143 21.0994 2.91805 28.6036 2.1875 38.9375" stroke="black" stroke-width="1.5" stroke-linecap="round"/>
<path d="M13.1094 27.2271C13.9844 29.4146 15.3078 34.4845 15.3078 52.7185" stroke="black" stroke-width="1.5" stroke-linecap="round"/>
<path d="M34.4879 3.71533C34.541 5.95231 34.01 7.15617 36.3473 9.15258C37.3359 9.99697 41.7899 11.6394 44.9168 12.7282C46.9382 13.4321 48.6206 14.8795 49.3595 16.8884C50.8087 20.8287 53.0687 28.4166 53.8125 38.9375" stroke="black" stroke-width="1.5" stroke-linecap="round"/>
<path d="M42.8906 27.2271C42.0156 29.4146 40.6922 34.4845 40.6922 52.7185" stroke="black" stroke-width="1.5" stroke-linecap="round"/>
<path d="M28 49.875V48.125" stroke="black" stroke-width="1.5" stroke-linecap="round"/>
</svg>
