<svg width="56" height="56" viewBox="0 0 56 56" fill="none" xmlns="http://www.w3.org/2000/svg">
<circle opacity="0.2" cx="37" cy="25" r="19" fill="#81C7B5"/>
<path d="M9.64062 21.6835C9.89766 15.4655 13.9888 3.02954 28.2969 3.02954C46.182 3.02954 46.5908 20.3549 46.5908 23.0632C46.5908 25.7716 45.3133 30.7285 43.3203 33.6412C41.726 35.9715 35.4337 44.8665 32.4868 49.0228C31.4648 50.5047 28.3067 53.4073 23.8507 53.162C18.2806 52.8554 11.893 49.0228 11.6886 40.9487" stroke="black" stroke-width="1.5" stroke-linecap="round"/>
<path d="M39.9476 21.7858C39.7938 17.7147 37.1972 9.57251 28.0414 9.57251C18.8856 9.57251 16.0843 17.7147 15.8281 21.7858V21.7858C15.8281 22.2815 16.2519 22.6698 16.7468 22.699C18.3002 22.7905 20.3247 23.4157 20.3247 25.4651C20.3247 28.5823 17.8725 29.1955 15.8281 29.0933" stroke="black" stroke-width="1.5" stroke-linecap="round"/>
</svg>
