<svg width="56" height="56" viewBox="0 0 56 56" fill="none" xmlns="http://www.w3.org/2000/svg">
<ellipse opacity="0.2" cx="27.6314" cy="34.9279" rx="19.5634" ry="9.88015" transform="rotate(-15.6914 27.6314 34.9279)" fill="#81C7B5"/>
<path d="M33.519 19.0857C32.7242 27.1692 18.8788 27.9617 11.5424 31.8601C7.13223 34.2035 6.93816 41.7444 7.46003 47.5539C7.55778 48.642 6.18974 49.103 5.77051 48.0941C4.34918 44.6737 2.9992 39.4698 3.68321 32.4514C7.90639 -10.881 64.1459 0.329828 50.3174 46.4917C49.9904 47.5833 48.3909 47.3061 48.401 46.1666C48.4267 43.2964 48.384 39.7328 48.1917 35.7928C47.9343 30.5162 46.3746 26.231 41.6676 25.2928" stroke="black" stroke-width="1.5" stroke-linecap="round"/>
<path d="M14 48.25C14.8507 47.8333 16.8078 47.25 18.0104 47.25C20.5625 47.25 21.6563 48.5 22.75 49" stroke="black" stroke-width="1.5" stroke-linecap="round"/>
<path d="M42 48.25C41.1493 47.8333 39.1922 47.25 37.9896 47.25C35.4375 47.25 34.3437 48.5 33.25 49" stroke="black" stroke-width="1.5" stroke-linecap="round"/>
</svg>
