<svg width="64" height="64" viewBox="0 0 64 64" fill="none" xmlns="http://www.w3.org/2000/svg">
<circle opacity="0.2" cx="27" cy="36" r="16" fill="#81C7B5"/>
<path d="M5.71294 44.2965C7.67774 42.3317 11.181 37.7541 12.106 32.9129C12.4998 30.8516 12.5213 28.7247 13.2862 26.7705C14.968 22.4738 18.013 15.7767 16.9094 11.7461C16.8112 7.87665 22.2881 10.3365 22.6713 15.2453C22.8812 16.7875 23.1515 21.0972 22.7704 22.8884C22.6965 23.236 22.757 23.6272 23.0074 23.8793C25.4357 26.3244 27.1581 28.356 26.1816 33.0865" stroke="black" stroke-width="1.5" stroke-linecap="round"/>
<path d="M24.1582 23.7675L41.5094 6.41639V6.41639C44.5189 3.83173 48.6204 7.93324 46.0358 10.9428V10.9428M46.0358 10.9428L34.7198 22.2587M46.0358 10.9428L47.8502 8.98516V8.98516C50.8919 6.40155 55.0056 10.5297 52.4114 13.5624L52.071 13.9604M52.071 13.9604L39.2462 26.7851M52.071 13.9604V13.9604C55.0797 11.3974 59.1603 15.4781 56.5973 18.4868V18.4868L52.3341 22.7499M43.7726 31.3115L52.3341 22.7499M52.3341 22.7499V22.7499C55.3431 20.1814 59.4291 24.2674 56.8605 27.2763V27.2763L48.299 35.8379L38.1146 46.0223C36.8573 47.5311 33.4373 51.9066 26.7986 54.3206C25.2953 54.8673 21.5749 56.0598 20.4961 57" stroke="black" stroke-width="1.5" stroke-linecap="round"/>
</svg>
