<svg width="64" height="64" viewBox="0 0 64 64" fill="none" xmlns="http://www.w3.org/2000/svg">
<ellipse opacity="0.2" cx="28.9824" cy="35.9456" rx="23.2769" ry="13.8357" transform="rotate(13.4988 28.9824 35.9456)" fill="#81C7B5"/>
<path d="M29.7153 60.3504C29.7153 60.3504 28.5583 58.8591 28.6872 56.2087C28.8482 52.8958 30.4588 49.7334 38.1894 49.5828C45.92 49.4322 52.1894 43.5828 52.1894 37.5828C52.1894 32.5567 38.0911 17.9058 32.6213 10.2924C28.1312 4.0428 26.6875 2.08289 26.6875 2.08289" stroke="black" stroke-width="1.5" stroke-linecap="round"/>
<path d="M16.8864 27.0592C14.2867 31.5919 11.6155 41.5676 21.5197 40.6574C33.4687 39.5592 38.4714 36.461 39.9701 38.5592C41.4687 40.6574 37.2647 43.4839 35.1569 41.3711" stroke="black" stroke-width="1.5" stroke-linecap="round"/>
</svg>
