<svg width="40" height="40" viewBox="0 0 40 40" fill="none" xmlns="http://www.w3.org/2000/svg">
<path d="M17.5 16.5566C17.5 16.5566 18.3333 17.1816 20 17.1816C21.6667 17.1816 22.5 16.5566 22.5 16.5566" stroke="black" stroke-width="1.5" stroke-linecap="round"/>
<path d="M10.0703 17.674L10.0703 32.5" stroke="black" stroke-width="1.5" stroke-linecap="round"/>
<path d="M29.9313 22.074C29.9411 30.467 36.2427 32.5032 39.25 32.5032" stroke="black" stroke-width="1.5" stroke-linecap="round"/>
<path d="M10.0687 22.074C10.0589 30.467 3.75728 32.5032 0.75 32.5032" stroke="black" stroke-width="1.5" stroke-linecap="round"/>
<path d="M29.9297 17.674L29.9297 32.5" stroke="black" stroke-width="1.5" stroke-linecap="round"/>
<path d="M19.8217 22.5032V22.5032C16.7945 22.5032 13.8017 21.5627 11.7285 19.3567C9.30933 16.7827 6.37593 12.8156 5.64844 8.16058" stroke="black" stroke-width="1.5" stroke-linecap="round"/>
<path d="M19.4611 22.5032H20.1783V22.5032C23.2055 22.5032 26.1983 21.5627 28.2715 19.3567C30.6907 16.7827 33.6241 12.8156 34.3516 8.16058" stroke="black" stroke-width="1.5" stroke-linecap="round"/>
</svg>
