<svg width="56" height="56" viewBox="0 0 56 56" fill="none" xmlns="http://www.w3.org/2000/svg">
<ellipse opacity="0.2" cx="28" cy="36.75" rx="14" ry="8.75" fill="#81C7B5"/>
<path d="M24.5 20.125C24.5 20.125 25.6667 21 28 21C30.3333 21 31.5 20.125 31.5 20.125" stroke="black" stroke-width="1.5" stroke-linecap="round"/>
<path d="M14.6576 27.5733C14.6433 39.9757 5.24757 42.8749 0.875 42.8749" stroke="black" stroke-width="1.5" stroke-linecap="round"/>
<path d="M14.6562 20.3422L14.6563 42.8748" stroke="black" stroke-width="1.5" stroke-linecap="round"/>
<path d="M41.3424 27.5733C41.3567 39.9757 50.7524 42.8749 55.125 42.8749" stroke="black" stroke-width="1.5" stroke-linecap="round"/>
<path d="M41.3438 20.283L41.3437 42.8748" stroke="black" stroke-width="1.5" stroke-linecap="round"/>
<path d="M27.7778 28V28C24.0841 28 20.4325 26.8524 17.9029 24.1609C14.9512 21.0202 11.372 16.1798 10.4844 10.5" stroke="black" stroke-width="1.5" stroke-linecap="round"/>
<path d="M27.3472 28H28.2222V28C31.9159 28 35.5675 26.8524 38.0971 24.1609C41.0488 21.0202 44.628 16.1798 45.5156 10.5" stroke="black" stroke-width="1.5" stroke-linecap="round"/>
</svg>
