<svg width="81" height="21" viewBox="0 0 81 21" fill="none" xmlns="http://www.w3.org/2000/svg">
<path d="M34.4362 0.993652H37.8182V19.5978H34.4362V0.993652ZM49.6418 19.5978H53.0238V12.0412C53.0238 9.07052 55.3805 8.37235 56.5522 8.37235C59.5614 8.37235 59.7345 10.0835 59.7345 11.4936V19.5841H63.1165V10.5627C63.1165 6.41474 60.0274 5.63443 57.937 5.63443C55.2207 5.63443 53.5031 6.89387 52.6643 8.15332C51.7589 5.92191 49.6019 5.63443 48.084 5.63443C45.7805 5.63443 44.0629 6.57901 42.9577 8.0438H42.9045V5.99036H39.5225V19.5704H42.9045V12.0138C42.9045 9.04314 45.2612 8.34497 46.4329 8.34497C49.4421 8.34497 49.6152 10.0562 49.6152 11.4662V19.5978H49.6418ZM75.1398 14.1357C75.1398 17.1337 72.0774 17.8592 70.2666 17.8592C69.1215 17.8592 67.5503 17.5307 67.5503 15.7237C67.5503 14.5737 68.1628 13.9851 70.7193 13.6702C73.116 13.3827 74.1812 13.2595 75.1532 12.8215V14.1357H75.1398ZM78.8414 10.0562C78.8414 8.29021 78.6417 5.49753 71.8511 5.49753C68.003 5.49753 65.4732 6.60639 64.9806 10.1657H68.296C68.4158 8.64614 69.6275 7.9069 71.8511 7.9069C73.8083 7.9069 75.526 8.29021 75.526 9.85083C75.526 10.9049 75.0067 11.0829 70.1601 11.5757C68.0031 11.7811 64.3281 12.1096 64.3281 15.8606C64.3281 18.53 66.2455 20.118 69.6275 20.118C73.4222 20.118 75.0733 18.9133 75.7257 18.2426C75.8189 18.7491 76.0719 19.9811 78.2822 19.9811C79.4272 19.9811 80.0264 19.8032 80.6922 19.6663V17.1885C80.4125 17.2432 79.9066 17.2706 79.587 17.2706C79.3607 17.2706 78.8547 17.2432 78.8547 16.504V10.0562H78.8414ZM13.4918 12.6572L10.5359 19.5841H14.5038L16.9803 13.2869C15.782 13.1363 14.6236 12.931 13.4918 12.6572ZM33.4908 8.78304C33.4908 7.94797 32.8517 7.27718 32.0528 7.27718C31.8797 7.27718 31.7066 7.30456 31.5602 7.35932C28.3779 8.85149 24.3967 9.93296 20.0295 10.3437C19.3903 10.3984 18.7512 10.4395 18.1254 10.4669L20.4822 4.47081L22.4395 9.46752C24.3701 9.01576 26.1809 8.41342 27.832 7.68787L25.1024 1.29482H18.3385L14.4372 10.4669C8.25908 10.1383 3.17279 8.29021 0.802734 5.52491C3.57223 9.28955 10.3495 12.1917 18.3784 12.5887C20.1892 12.6846 21.9468 12.6435 23.6245 12.4792L26.4073 19.5841H32.8917L29.4031 11.3978C30.6148 11.0281 31.7333 10.6038 32.7452 10.0972C33.1979 9.83714 33.4908 9.358 33.4908 8.78304Z" fill="#636363"/>
</svg>
