<svg width="94" height="20" viewBox="0 0 94 20" fill="none" xmlns="http://www.w3.org/2000/svg">
<path d="M11.2873 9.411C10.5956 8.69467 9.67326 8.2808 8.68946 8.23304H6.70648V11.4167L7.96698 12.7379V9.55427H8.58186C9.76549 9.57019 10.7954 10.3979 11.0875 11.5918C11.3795 12.7698 10.8723 14.0273 9.84235 14.6322C8.81243 15.2371 7.5212 15.062 6.69111 14.1865L2.5407 9.88855L6.69111 5.59059C7.47508 4.79467 8.64334 4.57182 9.64252 5.04937C10.6417 5.52692 11.2412 6.59345 11.1643 7.72366V7.73957L12.2711 8.66284L12.2865 8.61508C12.7784 6.84814 12.0559 4.96978 10.5187 4.03059C8.9969 3.09141 7.04467 3.36202 5.79954 4.65141L0.742188 9.87263L5.78417 15.0939C7.30599 16.6698 9.76549 16.6698 11.2873 15.0939C12.8091 13.5339 12.8091 10.9869 11.2873 9.411Z" fill="#23A994"/>
<path d="M43.3235 7.85116V8.45606C42.6932 7.96259 41.94 7.7079 41.1407 7.7079C39.1423 7.7079 37.6359 9.2679 37.6359 11.3691C37.6359 13.4703 39.1269 15.0303 41.1407 15.0303C41.9246 15.0463 42.6932 14.7757 43.3235 14.2822V14.8871H44.6454V7.86708H43.3235V7.85116ZM41.1407 13.6773C39.8955 13.6773 39.004 12.6426 39.004 11.3691C39.004 10.0797 39.8802 9.06096 41.1407 9.06096C42.3858 9.06096 43.2773 10.0957 43.2773 11.3691C43.2773 12.6426 42.4011 13.6773 41.1407 13.6773ZM27.5211 7.69198C29.5195 7.69198 31.0259 9.25198 31.0259 11.3532C31.0259 13.4385 29.5349 14.9985 27.5211 14.9985C25.5074 14.9985 24.0164 13.4385 24.0164 11.3532C24.0164 9.2679 25.5074 7.69198 27.5211 7.69198ZM27.5211 13.6614C28.7663 13.6614 29.6578 12.6267 29.6578 11.3532C29.6578 10.0638 28.7816 9.04504 27.5211 9.04504C26.276 9.04504 25.3845 10.0797 25.3845 11.3532C25.3845 12.6426 26.2606 13.6614 27.5211 13.6614ZM38.4044 14.8552H36.5752L33.2241 11.4328V14.8712H31.856V4.26953H33.2241V10.5414L36.0526 7.85116H37.974L34.5922 11.0189L38.4044 14.8552ZM53.4689 7.85116H54.837V14.8552H53.4689V7.85116ZM59.7253 9.10871C59.5562 9.06096 59.3717 9.04504 59.1873 9.04504C58.4802 9.04504 57.7269 9.55443 57.358 10.223V14.8552H55.9899V7.85116H57.3119V8.64708C57.6501 8.16953 58.3572 7.69198 59.341 7.69198C59.5254 7.69198 59.6945 7.7079 59.879 7.73973L59.7253 9.10871ZM61.1241 11.6557C61.201 12.8495 62.1694 13.7887 63.3223 13.7728C64.3368 13.7728 64.8749 13.2634 65.2745 12.8177L66.1661 13.6932C65.6588 14.3618 64.6904 15.0144 63.3223 15.0144C61.3547 15.0144 59.8175 13.4703 59.8175 11.3532C59.8175 9.23606 61.201 7.69198 63.1225 7.69198C65.0132 7.69198 66.3813 9.2679 66.3813 11.3532C66.3813 11.4487 66.3813 11.5601 66.3659 11.6557H61.1241ZM61.2317 10.4459H64.921C64.7211 9.55443 63.9372 8.9177 63.1378 8.9177C62.2463 8.93361 61.4623 9.55443 61.2317 10.4459ZM73.6676 14.8552H71.8383L68.4873 11.4328V14.8712H67.1192V4.26953H68.4873V10.5414L71.3157 7.85116H73.2526L69.8707 11.0189L73.6676 14.8552ZM75.3431 9.10871H77.5106V7.83524H75.3431V5.89321H73.975V12.8336C73.975 13.6614 74.4516 14.4095 75.1894 14.712C75.2202 14.7279 75.2509 14.7279 75.2816 14.7438C75.6506 14.903 76.0349 14.9826 76.4345 14.9826C76.7881 14.9826 77.157 14.9348 77.4952 14.8393L77.2185 13.5499C76.9725 13.6136 76.7266 13.6454 76.4653 13.6454C76.4192 13.6454 76.3577 13.6454 76.3116 13.6295C76.204 13.6136 76.0964 13.5977 75.9887 13.5659C75.8043 13.5181 75.6506 13.4067 75.5276 13.2634C75.3585 13.0565 75.3278 12.7381 75.3278 12.372L75.3431 9.10871ZM79.1861 12.9132C79.7395 12.9132 80.2007 13.3748 80.2007 13.9638C80.2007 14.5528 79.7549 15.0144 79.1861 15.0144C78.6327 15.0144 78.1716 14.5528 78.1716 13.9638C78.1716 13.6932 78.2792 13.4226 78.4636 13.2157C78.6635 13.0246 78.9094 12.9132 79.1861 12.9132ZM81.5687 12.9928C82.199 13.5022 82.8907 13.7728 83.5671 13.7728C84.1512 13.7728 84.7507 13.4385 84.7507 12.8973C84.7507 12.0855 83.6286 12.0536 82.6294 11.7034C81.8147 11.4169 81.0769 10.8757 81.0769 9.90463C81.0769 8.39239 82.3681 7.7079 83.5825 7.7079C84.5816 7.7079 85.3041 8.04218 85.8268 8.4879L85.1197 9.50667C84.7046 9.15647 84.1973 8.96545 83.6593 8.94953C82.9983 8.94953 82.4296 9.28382 82.4296 9.82504C82.4296 10.3026 82.9676 10.4618 83.644 10.6528C84.7046 10.9393 86.1035 11.4328 86.1035 12.8814C86.1035 14.2026 84.9045 15.0303 83.5825 15.0303C82.5833 15.0463 81.6149 14.712 80.8463 14.0593L81.5687 12.9928ZM87.7483 11.6875C87.8251 12.8814 88.7782 13.8046 89.9311 13.8046C90.9456 13.8046 91.4836 13.2952 91.8679 12.8495L92.7595 13.725C92.2522 14.3936 91.2838 15.0463 89.9003 15.0463C87.9327 15.0463 86.3955 13.5022 86.3955 11.385C86.3955 9.28382 87.779 7.72382 89.7005 7.72382C91.5912 7.72382 92.9593 9.29974 92.9593 11.385C92.9593 11.4806 92.9593 11.5761 92.944 11.6875H87.7483ZM87.8712 10.4936H91.5605C91.3606 9.60219 90.5767 8.96545 89.7773 8.96545C88.8704 8.96545 88.0864 9.60219 87.8712 10.4936ZM19.9735 7.7079C19.2049 7.69198 18.4517 7.94667 17.8368 8.42423V4.28545H16.4688V14.8712H17.7907L17.7754 14.2663C18.4056 14.7757 19.1742 15.0463 19.9735 15.0303C21.9719 15.0303 23.4783 13.4703 23.4783 11.3691C23.4783 9.2679 21.9873 7.7079 19.9735 7.7079ZM19.9735 9.04504C21.234 9.04504 22.1102 10.0797 22.1102 11.3532C22.1102 12.6426 21.234 13.6614 19.9735 13.6614C18.713 13.6614 17.8368 12.6267 17.8368 11.3532C17.8522 10.0797 18.7284 9.04504 19.9735 9.04504ZM51.0094 4.26953V8.40831C50.3945 7.93076 49.6413 7.69198 48.8727 7.69198C46.8744 7.69198 45.3833 9.2679 45.3833 11.3532C45.3833 13.4385 46.8744 15.0144 48.8881 15.0144C49.6721 15.0303 50.456 14.7597 51.0709 14.2503L51.0555 14.8552H52.3775V4.26953H51.0094ZM48.8727 13.6773C47.6276 13.6773 46.736 12.6426 46.736 11.3691C46.736 10.0797 47.6122 9.06096 48.8727 9.06096C50.1178 9.06096 51.0094 10.0957 51.0094 11.3691C51.0094 12.6426 50.1178 13.6773 48.8727 13.6773ZM54.1606 5.0177C53.9147 5.0177 53.6995 5.1132 53.5304 5.28831C53.3613 5.46341 53.2691 5.70219 53.2691 5.95688C53.2691 6.19565 53.3613 6.43443 53.5304 6.60953C53.6995 6.78464 53.9301 6.88014 54.1606 6.88014C54.4066 6.88014 54.6218 6.78464 54.8063 6.60953C54.9754 6.43443 55.0676 6.19565 55.0676 5.95688C55.0676 5.70219 54.9754 5.46341 54.8063 5.28831C54.6372 5.1132 54.3912 5.0177 54.1606 5.0177Z" fill="black"/>
</svg>
