<svg width="40" height="40" viewBox="0 0 40 40" fill="none" xmlns="http://www.w3.org/2000/svg">
<rect width="40" height="40" rx="4" fill="#2C3032"/>
<g clip-path="url(#clip0_971_7361)">
<path d="M28.9781 30.7531C28.9781 30.6457 28.9976 30.545 29.0368 30.4511C29.076 30.3571 29.1291 30.2751 29.1962 30.2052C29.2633 30.1352 29.342 30.0801 29.4322 30.0399C29.5224 29.9996 29.6192 29.9794 29.7227 29.9794C29.8276 29.9794 29.9258 29.9996 30.0174 30.0399C30.109 30.0801 30.1887 30.1352 30.2565 30.2052C30.3244 30.2751 30.3779 30.3571 30.417 30.4511C30.4562 30.545 30.4757 30.6457 30.4757 30.7531C30.4757 30.8605 30.4562 30.9612 30.417 31.0551C30.3779 31.1491 30.3244 31.2311 30.2565 31.301C30.1887 31.3709 30.109 31.4261 30.0174 31.4663C29.9258 31.5066 29.8276 31.5267 29.7227 31.5267C29.6192 31.5267 29.5224 31.5066 29.4322 31.4663C29.342 31.4261 29.2633 31.3709 29.1962 31.301C29.1291 31.2311 29.076 31.1491 29.0368 31.0551C28.9976 30.9612 28.9781 30.8605 28.9781 30.7531ZM29.1312 30.7531C29.1312 30.8421 29.1462 30.9248 29.1763 31.0011C29.2064 31.0774 29.248 31.1438 29.3011 31.2003C29.3542 31.2568 29.4168 31.3014 29.4888 31.3339C29.5608 31.3664 29.6388 31.3826 29.7227 31.3826C29.808 31.3826 29.887 31.3664 29.9597 31.3339C30.0325 31.3014 30.0957 31.2568 30.1496 31.2003C30.2034 31.1438 30.2457 31.0774 30.2765 31.0011C30.3072 30.9248 30.3226 30.8421 30.3226 30.7531C30.3226 30.6641 30.3072 30.5814 30.2765 30.5051C30.2457 30.4288 30.2034 30.3624 30.1496 30.3059C30.0957 30.2493 30.0325 30.2048 29.9597 30.1723C29.887 30.1398 29.808 30.1236 29.7227 30.1236C29.6388 30.1236 29.5608 30.1398 29.4888 30.1723C29.4168 30.2048 29.3542 30.2493 29.3011 30.3059C29.248 30.3624 29.2064 30.4288 29.1763 30.5051C29.1462 30.5814 29.1312 30.6641 29.1312 30.7531ZM29.4668 30.4203C29.4668 30.3737 29.4899 30.3504 29.536 30.3504H29.7731C29.8486 30.3504 29.9087 30.3723 29.9534 30.4161C29.9982 30.4599 30.0206 30.5192 30.0206 30.5941C30.0206 30.6252 30.016 30.6528 30.0069 30.6768C29.9978 30.7008 29.9863 30.7216 29.9723 30.7393C29.9583 30.757 29.943 30.7715 29.9262 30.7828C29.9094 30.7941 29.8926 30.8018 29.8758 30.8061V30.8103C29.8772 30.8117 29.8793 30.8146 29.8821 30.8188C29.8849 30.8216 29.8877 30.8262 29.8905 30.8326C29.8933 30.8389 29.8975 30.8464 29.9031 30.8548L30.0122 31.0689C30.0248 31.0929 30.0276 31.1124 30.0206 31.1272C30.0136 31.142 29.9982 31.1494 29.9744 31.1494H29.9492C29.9101 31.1494 29.8828 31.1325 29.8674 31.0986L29.7458 30.84H29.6157V31.0816C29.6157 31.1268 29.5941 31.1494 29.5507 31.1494H29.5318C29.4885 31.1494 29.4668 31.1268 29.4668 31.0816V30.4203ZM29.7416 30.7298C29.7821 30.7298 29.8136 30.7178 29.836 30.6937C29.8584 30.6697 29.8695 30.6365 29.8695 30.5941C29.8695 30.5531 29.8584 30.5214 29.836 30.4987C29.8136 30.4761 29.7828 30.4648 29.7437 30.4648H29.6157V30.7298H29.7416ZM23.6273 31.2366C23.8644 31.2366 24.0655 31.2671 24.2305 31.3282C24.3956 31.3893 24.5246 31.4456 24.6176 31.4973C24.6967 31.5396 24.7432 31.596 24.7571 31.6665C24.7711 31.7369 24.7594 31.8121 24.7222 31.892L24.6525 32.0188C24.6107 32.1034 24.5572 32.1527 24.4921 32.1668C24.427 32.1809 24.3503 32.1692 24.2619 32.1316C24.1829 32.094 24.0876 32.0553 23.976 32.0153C23.8644 31.9754 23.7342 31.9554 23.5854 31.9554C23.432 31.9554 23.3134 31.986 23.2297 32.047C23.146 32.1081 23.1042 32.195 23.1042 32.3078C23.1042 32.4065 23.1472 32.4863 23.2332 32.5474C23.3192 32.6085 23.4285 32.6625 23.561 32.7095C23.6935 32.7565 23.8353 32.807 23.9864 32.861C24.1376 32.9151 24.2794 32.9844 24.4119 33.0689C24.5444 33.1535 24.6537 33.2616 24.7397 33.3931C24.8257 33.5247 24.8687 33.6915 24.8687 33.8935C24.8687 34.0532 24.8373 34.2001 24.7746 34.334C24.7118 34.4679 24.6211 34.5842 24.5026 34.6828C24.384 34.7815 24.241 34.859 24.0736 34.9154C23.9062 34.9718 23.7202 35 23.5157 35C23.2274 35 22.9844 34.9577 22.7868 34.8731C22.5892 34.7885 22.4369 34.7087 22.33 34.6335C22.2509 34.5865 22.2068 34.5278 22.1975 34.4573C22.1882 34.3868 22.2091 34.3116 22.2602 34.2318L22.3439 34.1049C22.3951 34.0297 22.452 33.9875 22.5148 33.9781C22.5776 33.9687 22.6531 33.9875 22.7415 34.0344C22.8252 34.0814 22.9333 34.1343 23.0658 34.193C23.1983 34.2517 23.3552 34.2811 23.5366 34.2811C23.69 34.2811 23.8109 34.2482 23.8993 34.1824C23.9876 34.1167 24.0318 34.0274 24.0318 33.9146C24.0318 33.816 23.9888 33.7373 23.9027 33.6785C23.8167 33.6198 23.7075 33.5658 23.5749 33.5164C23.4424 33.4671 23.3006 33.4143 23.1495 33.3579C22.9984 33.3015 22.8566 33.231 22.7241 33.1465C22.5915 33.0619 22.4823 32.9538 22.3962 32.8223C22.3102 32.6907 22.2672 32.5216 22.2672 32.3148C22.2672 32.141 22.3033 31.986 22.3753 31.8497C22.4474 31.7134 22.545 31.6007 22.6683 31.5114C22.7915 31.4221 22.9356 31.354 23.1007 31.307C23.2657 31.2601 23.4413 31.2366 23.6273 31.2366ZM13.26 31.2366C13.4972 31.2366 13.6983 31.2671 13.8633 31.3282C14.0284 31.3893 14.1574 31.4456 14.2504 31.4973C14.3295 31.5396 14.376 31.596 14.3899 31.6665C14.4039 31.7369 14.3922 31.8121 14.355 31.892L14.2853 32.0188C14.2434 32.1034 14.19 32.1527 14.1249 32.1668C14.0598 32.1809 13.9831 32.1692 13.8947 32.1316C13.8157 32.094 13.7204 32.0553 13.6088 32.0153C13.4972 31.9754 13.367 31.9554 13.2182 31.9554C13.0648 31.9554 12.9462 31.986 12.8625 32.047C12.7788 32.1081 12.737 32.195 12.737 32.3078C12.737 32.4065 12.78 32.4863 12.866 32.5474C12.952 32.6085 13.0613 32.6625 13.1938 32.7095C13.3263 32.7565 13.4681 32.807 13.6192 32.861C13.7703 32.9151 13.9122 32.9844 14.0447 33.0689C14.1772 33.1535 14.2865 33.2616 14.3725 33.3931C14.4585 33.5247 14.5015 33.6915 14.5015 33.8935C14.5015 34.0532 14.4701 34.2001 14.4074 34.334C14.3446 34.4679 14.2539 34.5842 14.1353 34.6828C14.0168 34.7815 13.8738 34.859 13.7064 34.9154C13.539 34.9718 13.353 35 13.1485 35C12.8602 35 12.6172 34.9577 12.4196 34.8731C12.222 34.7885 12.0697 34.7087 11.9628 34.6335C11.8837 34.5865 11.8396 34.5278 11.8303 34.4573C11.821 34.3868 11.8419 34.3116 11.893 34.2318L11.9767 34.1049C12.0279 34.0297 12.0848 33.9875 12.1476 33.9781C12.2104 33.9687 12.2859 33.9875 12.3743 34.0344C12.458 34.0814 12.5661 34.1343 12.6986 34.193C12.8311 34.2517 12.988 34.2811 13.1694 34.2811C13.3228 34.2811 13.4437 34.2482 13.532 34.1824C13.6204 34.1167 13.6646 34.0274 13.6646 33.9146C13.6646 33.816 13.6216 33.7373 13.5355 33.6785C13.4495 33.6198 13.3403 33.5658 13.2077 33.5164C13.0752 33.4671 12.9334 33.4143 12.7823 33.3579C12.6312 33.3015 12.4894 33.231 12.3568 33.1465C12.2243 33.0619 12.1151 32.9538 12.029 32.8223C11.943 32.6907 11.9 32.5216 11.9 32.3148C11.9 32.141 11.9361 31.986 12.0081 31.8497C12.0802 31.7134 12.1778 31.6007 12.3011 31.5114C12.4243 31.4221 12.5684 31.354 12.7335 31.307C12.8985 31.2601 13.0741 31.2366 13.26 31.2366ZM25.9773 29.9116C26.1726 29.9116 26.2702 30.0103 26.2702 30.2076V31.6594C26.2702 31.7064 26.2691 31.7475 26.2667 31.7827C26.2644 31.818 26.2609 31.8497 26.2563 31.8779C26.2516 31.9108 26.2493 31.939 26.2493 31.9625H26.2632C26.3051 31.8779 26.3644 31.7921 26.4411 31.7052C26.5178 31.6183 26.6085 31.5396 26.7131 31.4691C26.8177 31.3987 26.9363 31.3423 27.0688 31.3C27.2013 31.2577 27.3443 31.2366 27.4977 31.2366C27.893 31.2366 28.1987 31.3446 28.4149 31.5608C28.6311 31.7769 28.7392 32.1246 28.7392 32.6038V34.6194C28.7392 34.8167 28.6416 34.9154 28.4463 34.9154H28.1464C27.9511 34.9154 27.8534 34.8167 27.8534 34.6194V32.787C27.8534 32.5662 27.8162 32.3888 27.7418 32.2549C27.6674 32.121 27.5187 32.0541 27.2955 32.0541C27.142 32.0541 27.0014 32.0846 26.8735 32.1457C26.7456 32.2068 26.6375 32.2902 26.5492 32.3959C26.4609 32.5016 26.3923 32.6273 26.3435 32.7729C26.2946 32.9186 26.2702 33.076 26.2702 33.2451V34.6194C26.2702 34.8167 26.1726 34.9154 25.9773 34.9154H25.6774C25.4821 34.9154 25.3845 34.8167 25.3845 34.6194V30.2076C25.3845 30.0103 25.4821 29.9116 25.6774 29.9116H25.9773ZM21.3433 31.3211C21.534 31.3211 21.6293 31.4198 21.6293 31.6171V34.6194C21.6293 34.8167 21.534 34.9154 21.3433 34.9154H21.0365C20.8458 34.9154 20.7505 34.8167 20.7505 34.6194V31.6171C20.7505 31.4198 20.8458 31.3211 21.0365 31.3211H21.3433ZM15.4255 31.3211C15.6022 31.3211 15.7069 31.4081 15.7394 31.5819L16.3113 33.6821C16.3206 33.7337 16.3287 33.7807 16.3357 33.823C16.3427 33.8653 16.3508 33.9052 16.3601 33.9428C16.3694 33.9851 16.3764 34.025 16.3811 34.0626H16.395C16.3997 34.025 16.4066 33.9851 16.4159 33.9428C16.4252 33.9052 16.4334 33.8653 16.4403 33.823C16.4473 33.7807 16.4578 33.7337 16.4717 33.6821L17.0715 31.5819C17.1041 31.4128 17.211 31.3282 17.3924 31.3282H17.6574C17.8294 31.3282 17.9364 31.4128 17.9782 31.5819L18.571 33.6821C18.585 33.7337 18.5955 33.7807 18.6024 33.823C18.6094 33.8653 18.6175 33.9052 18.6268 33.9428C18.6361 33.9851 18.6431 34.025 18.6478 34.0626H18.6617C18.6664 34.025 18.6733 33.9851 18.6826 33.9428C18.6919 33.9052 18.7001 33.8653 18.7071 33.823C18.714 33.7807 18.7245 33.7337 18.7384 33.6821L19.3034 31.5819C19.3452 31.4081 19.4522 31.3211 19.6242 31.3211H19.945C20.052 31.3211 20.1264 31.3517 20.1682 31.4128C20.2101 31.4738 20.217 31.5537 20.1891 31.6524L19.2755 34.6687C19.229 34.8332 19.1197 34.9154 18.9477 34.9154H18.4804C18.3037 34.9154 18.1944 34.8308 18.1526 34.6617L17.6155 32.8645C17.6016 32.8176 17.59 32.7706 17.5807 32.7236C17.5714 32.6766 17.5621 32.6343 17.5528 32.5967C17.5435 32.5545 17.5365 32.5145 17.5318 32.4769H17.5179C17.5086 32.5145 17.4993 32.5545 17.49 32.5967C17.4807 32.6343 17.4714 32.6766 17.4621 32.7236C17.4528 32.7706 17.4412 32.8176 17.4272 32.8645L16.8902 34.6617C16.8483 34.8308 16.7414 34.9154 16.5694 34.9154H16.0881C15.9207 34.9154 15.8138 34.8332 15.7673 34.6687L14.8467 31.6524C14.8188 31.5537 14.8269 31.4738 14.8711 31.4128C14.9152 31.3517 14.9885 31.3211 15.0908 31.3211H15.4255Z" fill="white"/>
<path fill-rule="evenodd" clip-rule="evenodd" d="M15.25 26.1569C19.6651 28.2935 25.114 27.2361 28.4058 23.2672C32.3075 18.563 31.7015 11.55 27.0522 7.60327L23.9614 11.3298C27.5937 14.4132 28.0671 19.8921 25.0189 23.5672C22.5884 26.4976 18.5866 27.4761 15.25 26.1569Z" fill="url(#paint0_linear_971_7361)"/>
<path fill-rule="evenodd" clip-rule="evenodd" d="M15.25 26.1569C19.6651 28.2935 25.114 27.2361 28.4058 23.2672C28.809 22.7812 29.1638 22.2704 29.4713 21.741C29.9911 18.4722 28.8479 15.0172 26.1587 12.7343C25.4754 12.1543 24.7358 11.687 23.9619 11.3302C27.5937 14.4137 28.067 19.8923 25.0189 23.5672C22.5884 26.4976 18.5866 27.4761 15.25 26.1569Z" fill="url(#paint1_linear_971_7361)"/>
<path fill-rule="evenodd" clip-rule="evenodd" d="M24.7276 6.0828C20.3126 3.94614 14.8637 5.00355 11.5719 8.97243C7.67013 13.6766 8.27615 20.6896 12.9254 24.6364L16.0162 20.9099C12.384 17.8265 11.9105 12.3476 14.9587 8.67243C17.3893 5.74202 21.391 4.76358 24.7276 6.0828Z" fill="url(#paint2_linear_971_7361)"/>
<path fill-rule="evenodd" clip-rule="evenodd" d="M24.7264 6.0828C20.3113 3.94614 14.8624 5.00355 11.5706 8.97243C11.1674 9.45851 10.8125 9.96927 10.5051 10.4987C9.98528 13.7675 11.1285 17.2225 13.8177 19.5053C14.5009 20.0853 15.2406 20.5526 16.0145 20.9095C12.3827 17.826 11.9094 12.3474 14.9575 8.67243C17.388 5.74202 21.3898 4.76358 24.7264 6.0828Z" fill="url(#paint3_linear_971_7361)"/>
</g>
<defs>
<linearGradient id="paint0_linear_971_7361" x1="1286.28" y1="1178.65" x2="810.488" y2="241.966" gradientUnits="userSpaceOnUse">
<stop stop-color="#EF2131"/>
<stop offset="1" stop-color="#FECF2C"/>
</linearGradient>
<linearGradient id="paint1_linear_971_7361" x1="858.912" y1="11.3302" x2="25.8053" y2="1436.62" gradientUnits="userSpaceOnUse">
<stop stop-color="#FBC52C"/>
<stop offset="0.263921" stop-color="#F87130"/>
<stop offset="0.560797" stop-color="#EF52E2"/>
<stop offset="1" stop-color="#661EEC"/>
</linearGradient>
<linearGradient id="paint2_linear_971_7361" x1="332.503" y1="810.438" x2="788.598" y2="1727.14" gradientUnits="userSpaceOnUse">
<stop stop-color="#78F6D8"/>
<stop offset="0.265705" stop-color="#77D1F6"/>
<stop offset="0.554471" stop-color="#70A4F3"/>
<stop offset="1" stop-color="#661EEC"/>
</linearGradient>
<linearGradient id="paint3_linear_971_7361" x1="619.129" y1="1595.95" x2="1445.77" y2="175.475" gradientUnits="userSpaceOnUse">
<stop stop-color="#536EED"/>
<stop offset="0.246658" stop-color="#54C3EC"/>
<stop offset="0.5642" stop-color="#64D769"/>
<stop offset="1" stop-color="#FECF2C"/>
</linearGradient>
<clipPath id="clip0_971_7361">
<rect width="22" height="30" fill="white" transform="translate(9 5)"/>
</clipPath>
</defs>
</svg>
