<svg width="40" height="40" viewBox="0 0 40 40" fill="none" xmlns="http://www.w3.org/2000/svg">
<rect width="40" height="40" rx="4" fill="#00539F"/>
<path fill-rule="evenodd" clip-rule="evenodd" d="M21.5629 10.3753C21.5609 10.3939 21.5589 10.4126 21.5571 10.4313L21.5403 10.4386C21.5455 10.4513 21.5495 10.4659 21.5536 10.4805L21.5536 10.4805C21.5625 10.5126 21.5714 10.5447 21.5919 10.5563C21.6653 10.5978 21.7457 10.5805 21.8092 10.5236C21.866 10.4729 21.8817 10.4046 21.8632 10.3312C21.8436 10.2536 21.7863 10.2177 21.7117 10.2039C21.6905 10.2 21.6693 10.196 21.6483 10.191C21.6016 10.18 21.5769 10.1941 21.5743 10.2459C21.5722 10.2891 21.5675 10.3322 21.5629 10.3753ZM14.4211 11.1717C14.4292 11.0583 14.3406 10.9539 14.2208 10.9554C14.214 10.9568 14.206 10.958 14.1972 10.9594L14.1972 10.9594L14.1971 10.9595L14.1971 10.9595L14.1971 10.9595L14.1971 10.9595C14.1717 10.9635 14.1398 10.9686 14.1104 10.9801C14.0935 10.9866 14.0724 11.0211 14.0766 11.0367C14.099 11.1204 14.1264 11.2031 14.1577 11.2839C14.1658 11.3047 14.1926 11.3287 14.214 11.3323C14.2978 11.3464 14.4155 11.2517 14.4211 11.1717ZM29.2636 12.9008C29.331 12.8759 29.4006 12.7793 29.3988 12.7104C29.3902 12.634 29.3348 12.5917 29.2742 12.5529C29.2295 12.5243 29.1919 12.5311 29.1632 12.5754L29.153 12.591L29.153 12.5911C29.1151 12.6493 29.0773 12.7077 29.0435 12.7683C29.0339 12.7855 29.0329 12.8182 29.0431 12.8339C29.0795 12.8894 29.2024 12.9235 29.2636 12.9008ZM11.3282 12.1563C11.3378 12.1619 11.3483 12.1672 11.3591 12.1726C11.383 12.1846 11.4081 12.1971 11.4262 12.2162C11.59 12.3891 11.6956 12.5953 11.7544 12.8246C11.7758 12.9083 11.6778 13.0345 11.5884 13.0426C11.5687 13.0444 11.5376 13.0179 11.5259 12.9966C11.4459 12.8511 11.3675 12.7045 11.2892 12.558L11.2892 12.5579L11.206 12.4024C11.1932 12.3785 11.18 12.3548 11.1656 12.3319C11.1104 12.2439 11.1137 12.231 11.2105 12.1923C11.234 12.1829 11.2584 12.1761 11.2858 12.1684L11.2858 12.1684L11.2858 12.1684C11.2992 12.1647 11.3132 12.1608 11.3282 12.1563ZM24.3641 10.6116C24.3789 10.6145 24.3923 10.617 24.4048 10.6193C24.4296 10.6238 24.4507 10.6276 24.4713 10.6334L24.4723 10.6336C24.5439 10.6536 24.6279 10.6771 24.6266 10.7635C24.6256 10.833 24.6016 10.9181 24.5563 10.9671C24.4962 11.032 24.4002 11.0141 24.3183 10.9885C24.304 10.9841 24.2874 10.9496 24.2908 10.9327C24.3064 10.854 24.325 10.7758 24.3444 10.6948L24.3444 10.6947L24.3641 10.6116ZM6.26358 18.4487C6.33727 18.3004 6.24106 18.1504 6.07123 18.1429C5.98394 18.1391 5.87455 18.274 5.90167 18.3554C5.90757 18.3732 5.92702 18.3928 5.94467 18.3991C6.0259 18.428 6.10791 18.4558 6.1915 18.4764C6.21276 18.4817 6.2548 18.4664 6.26358 18.4487ZM27.7514 12.6203L27.7515 12.6201C27.7715 12.5577 27.7916 12.4953 27.8228 12.4391C27.9053 12.2904 27.9964 12.1455 28.0948 12.0067C28.1448 11.9362 28.2079 11.9378 28.2829 11.9818C28.3494 12.0207 28.3752 12.0782 28.3418 12.1471L28.3052 12.2228C28.215 12.4094 28.1247 12.5963 28.0234 12.7769C27.9707 12.8709 27.9037 12.8802 27.8226 12.847C27.7598 12.8212 27.727 12.7777 27.7234 12.704C27.7334 12.6765 27.7424 12.6484 27.7514 12.6203ZM33.6463 20.4077C33.689 20.4128 33.7318 20.4179 33.7745 20.4237C33.8033 20.4191 33.8322 20.4155 33.861 20.412L33.861 20.412C33.9304 20.4033 33.9989 20.3948 34.063 20.3734C34.1064 20.3589 34.1481 20.3006 34.1644 20.2531C34.1847 20.1941 34.1456 20.1436 34.0879 20.1169C34.0795 20.113 34.0711 20.1087 34.0625 20.1045C34.0315 20.0891 33.9998 20.0733 33.9674 20.0706C33.7894 20.056 33.6108 20.0437 33.4323 20.0402C33.3722 20.0391 33.3089 20.0598 33.2519 20.0826C33.1828 20.1102 33.1471 20.1899 33.1855 20.2502C33.2158 20.2978 33.2718 20.3476 33.3245 20.359C33.4302 20.3818 33.5381 20.3948 33.6463 20.4077ZM15.6322 11.2183C15.4129 11.2916 15.3976 11.2809 15.3977 11.0688L15.3976 11.0131V11.0131C15.3974 10.956 15.3972 10.899 15.399 10.8421C15.3996 10.8227 15.4042 10.8035 15.4089 10.7842C15.411 10.7755 15.4131 10.7667 15.4148 10.7579L15.4362 10.7545L15.6322 11.2183ZM31.2532 14.1568C31.255 14.1483 31.2572 14.1379 31.2607 14.125C31.2481 14.1315 31.2373 14.1367 31.2279 14.1414C31.2106 14.1498 31.1978 14.1561 31.186 14.1639C31.101 14.2205 31.0166 14.2778 30.9321 14.3351L30.9105 14.3497C30.7828 14.4363 30.7829 14.4364 30.8943 14.5423C30.9575 14.6024 30.9783 14.6028 31.0265 14.5305C31.0898 14.4355 31.15 14.3385 31.2102 14.2415L31.2103 14.2415L31.2103 14.2414L31.2434 14.1881C31.2481 14.1805 31.2501 14.1713 31.2532 14.1568ZM33.0582 17.5587L33.5985 17.4777C33.5942 17.4899 33.5915 17.4988 33.5896 17.5054C33.5868 17.515 33.5855 17.5194 33.5826 17.5213C33.5203 17.5603 33.4579 17.599 33.3954 17.6378L33.3952 17.6379L33.395 17.638C33.3309 17.6778 33.2669 17.7175 33.2031 17.7575C33.1549 17.7878 33.1235 17.7816 33.1078 17.7228C33.099 17.6899 33.0889 17.6573 33.0769 17.6191L33.0768 17.6189C33.0711 17.6004 33.0648 17.5806 33.0582 17.5587ZM16.5014 10.4332C16.4858 10.4245 16.4702 10.4158 16.4559 10.4063C16.4361 10.4188 16.4135 10.4232 16.3929 10.4272C16.3534 10.4349 16.3206 10.4413 16.3268 10.501C16.3359 10.5899 16.3529 10.6782 16.3724 10.7655C16.377 10.7861 16.4124 10.8195 16.4222 10.8159C16.4342 10.8115 16.4465 10.8072 16.459 10.803C16.5129 10.7845 16.5689 10.7653 16.6043 10.7278C16.6689 10.6598 16.6376 10.5688 16.5913 10.5014C16.571 10.472 16.5362 10.4526 16.5014 10.4332Z" fill="white"/>
<path fill-rule="evenodd" clip-rule="evenodd" d="M29.399 25.3152C31.7184 23.696 32.8569 21.6801 32.8569 19.7143C32.8569 17.7484 31.7184 15.7325 29.399 14.1133C27.0873 12.4994 23.7712 11.4285 19.9998 11.4285C16.2283 11.4285 12.9123 12.4994 10.6006 14.1133C8.28118 15.7325 7.14265 17.7484 7.14265 19.7143C7.14265 21.6801 8.28118 23.696 10.6006 25.3152C12.9123 26.9291 16.2283 28 19.9998 28C23.7712 28 27.0873 26.9291 29.399 25.3152ZM19.9998 30.2857C28.363 30.2857 35.1426 25.5527 35.1426 19.7143C35.1426 13.8758 28.363 9.14282 19.9998 9.14282C11.6366 9.14282 4.85693 13.8758 4.85693 19.7143C4.85693 25.5527 11.6366 30.2857 19.9998 30.2857Z" fill="white"/>
<path d="M26.1127 17.7512C25.9791 18.4507 25.7164 19.1076 25.5171 19.7865C25.5294 19.7932 25.5403 19.8038 25.552 19.8048C25.841 19.8304 26.1303 19.8763 26.4192 19.8743C26.79 19.8717 27.148 19.7709 27.5004 19.6571C27.8453 19.5456 28.1789 19.4137 28.4774 19.2006C28.6699 19.0633 28.7918 18.8812 28.8699 18.6647C28.9117 18.5487 28.8614 18.4416 28.8289 18.3323C28.7299 18.0001 28.4761 17.803 28.2029 17.6324C27.8013 17.3817 27.3631 17.2238 26.8965 17.1305C26.4274 17.0366 25.9551 16.9988 25.4798 16.9988C25.2118 16.9988 24.9423 17.0216 24.6764 17.0568C24.5086 17.079 24.3423 17.1321 24.1826 17.1911C23.9551 17.2751 23.8061 17.444 23.7399 17.6783C23.7037 17.8065 23.7651 17.9182 23.8262 18.0237C23.9668 18.2665 24.1923 18.4119 24.4347 18.5347C24.5144 18.5751 24.5989 18.6061 24.6784 18.6467C24.7458 18.681 24.7485 18.7259 24.6816 18.7572C24.4338 18.8732 24.1897 18.9999 23.9148 19.0453C23.7852 19.0668 23.6888 19.003 23.5989 18.9268C23.3388 18.7064 23.2182 18.4149 23.1978 18.083C23.1873 17.9117 23.233 17.7474 23.3097 17.5891C23.4647 17.2692 23.7226 17.0638 24.0304 16.91C24.2327 16.809 24.4562 16.7868 24.6744 16.7453C25.3669 16.6137 26.0654 16.648 26.7617 16.6863C27.1183 16.7059 27.4758 16.7572 27.8264 16.8268C28.2531 16.9116 28.6702 17.0407 29.0352 17.2908C29.4327 17.5633 29.689 17.9205 29.7222 18.4222C29.757 18.9478 29.5071 19.3009 29.0895 19.576C28.6222 19.884 28.1012 20.0578 27.5695 20.2053C27.3746 20.2594 27.1725 20.2879 26.9508 20.3326C26.9931 20.3628 27.0173 20.3869 27.0465 20.3999C27.3881 20.5514 27.6727 20.7867 27.9654 21.0124C28.24 21.2241 28.5475 21.3707 28.8992 21.4036C28.9501 21.4083 29.0028 21.407 29.0533 21.3994C29.2921 21.3635 29.5308 21.3271 29.7686 21.2853C29.8648 21.2684 29.9436 21.2774 30.0059 21.3621C30.0344 21.4009 30.0737 21.4324 30.1104 21.4646C30.1601 21.5081 30.1536 21.5427 30.096 21.5685C29.7989 21.7017 29.5042 21.84 29.1771 21.89C28.7209 21.9599 28.2765 21.9144 27.8319 21.7966C27.2895 21.6529 26.8546 21.3237 26.4059 21.0139C26.1887 20.864 25.9561 20.7402 25.704 20.6585C25.583 20.6193 25.4564 20.5964 25.3375 20.5521C25.2463 20.5181 25.1994 20.552 25.1599 20.625C25.0488 20.8304 24.9361 21.0349 24.8267 21.2411C24.7694 21.349 24.7218 21.4623 24.661 21.568C24.6384 21.6072 24.59 21.6586 24.5542 21.658C24.4678 21.6564 24.3679 21.6512 24.3231 21.5543C24.3112 21.5285 24.3241 21.4868 24.3347 21.4555C24.4341 21.1599 24.5382 20.866 24.6347 20.5695C24.6669 20.4704 24.655 20.4596 24.5535 20.4372C24.4157 20.4068 24.2767 20.3818 24.1393 20.35C24.0339 20.3257 24.0133 20.2928 24.0664 20.2031C24.1753 20.0191 24.2927 19.84 24.4123 19.6627C24.4274 19.6403 24.4776 19.6297 24.5096 19.6328C24.6093 19.6425 24.7081 19.6618 24.8073 19.6766C24.8654 19.6853 24.8959 19.6718 24.9153 19.6032C25.0113 19.2636 25.1237 18.9285 25.2162 18.588C25.278 18.3607 25.315 18.1267 25.3663 17.8965C25.3723 17.8697 25.396 17.8294 25.4163 17.8262C25.6278 17.7927 25.8401 17.765 26.0525 17.7374C26.0693 17.7352 26.0878 17.7451 26.1127 17.7512Z" fill="white"/>
<path d="M22.6357 21.4539C22.5695 21.4986 22.5052 21.5465 22.4366 21.5872C22.2522 21.6965 22.07 21.8131 21.8539 21.8515C21.518 21.9113 21.1888 21.9069 20.9077 21.6823C20.8064 21.6014 20.7119 21.4974 20.6499 21.3845C20.444 21.0088 20.3912 20.6061 20.4859 20.1862C20.4925 20.1571 20.4972 20.1276 20.5021 20.0981C20.5029 20.0933 20.4998 20.0879 20.495 20.0696C20.4702 20.0696 20.4417 20.0668 20.4139 20.07C20.1286 20.1034 19.8428 20.1343 19.5582 20.1728C19.3351 20.2031 19.1136 20.2449 18.8908 20.2776C18.8282 20.2868 18.7891 20.3117 18.7602 20.37C18.566 20.7624 18.3322 21.1261 17.99 21.4094C17.5139 21.8035 16.9822 21.9379 16.3853 21.7456C15.9936 21.6195 15.668 21.3886 15.3923 21.0855C15.319 21.0049 15.3209 20.9657 15.4038 20.8966C15.5333 20.7888 15.6625 20.6815 15.8325 20.6386C15.9706 20.6037 15.9921 20.6142 16.0797 20.726C16.2967 21.0029 16.5616 21.2118 16.9217 21.2638C17.1683 21.2995 17.3848 21.2123 17.57 21.0587C17.7895 20.8767 17.927 20.6389 17.9908 20.3595C18.0065 20.291 18.0029 20.2473 17.9134 20.2402C17.8276 20.2335 17.7425 20.2098 17.6586 20.1879C17.5864 20.1691 17.5626 20.1251 17.5956 20.0595C17.6652 19.9214 17.7382 19.7846 17.8193 19.6531C17.8363 19.6254 17.8937 19.6117 17.9331 19.6104C18.1502 19.6031 18.1493 19.6048 18.2236 19.4019C18.3553 19.0423 18.4842 18.6816 18.6221 18.3244C18.7646 17.9554 18.969 17.6186 19.1827 17.2873C19.1996 17.261 19.2125 17.2323 19.2381 17.1844C19.1894 17.195 19.1616 17.199 19.135 17.2071C18.9664 17.259 18.8007 17.3237 18.629 17.3611C18.4416 17.402 18.2495 17.4256 18.0582 17.4432C17.6985 17.4763 17.3504 17.4131 17.0087 17.3013C16.9327 17.2764 16.8497 17.2692 16.7692 17.2628C16.7376 17.2602 16.6989 17.2752 16.6722 17.2944C16.5367 17.3913 16.5314 17.4538 16.6408 17.5796C16.8093 17.7733 17.0368 17.8699 17.2682 17.9584C17.3721 17.9982 17.4804 18.026 17.5855 18.0626C17.6081 18.0705 17.6257 18.0929 17.6457 18.1086C17.6293 18.1251 17.6146 18.1439 17.5962 18.1576C17.446 18.2696 17.2946 18.38 17.1447 18.4923C17.0746 18.545 17 18.5654 16.9155 18.535C16.6081 18.4241 16.3099 18.3043 16.0759 18.0564C15.8113 17.776 15.835 17.4364 16.0676 17.1662C16.2815 16.9174 16.5603 16.8366 16.8688 16.8412C17.3141 16.8478 17.7591 16.8699 18.2042 16.8848C18.534 16.8959 18.8617 16.8798 19.178 16.777C19.4047 16.7032 19.6283 16.6196 19.8518 16.5363C19.9067 16.5158 19.9375 16.5198 19.9573 16.5788C19.977 16.6379 19.9954 16.6996 20.0277 16.7519C20.0903 16.8532 20.0601 16.9391 20.0092 17.0327C19.8197 17.3809 19.6318 17.7301 19.4486 18.0816C19.2719 18.4204 19.1558 18.7823 19.0588 19.1506C19.0236 19.2845 18.9869 19.4179 18.9538 19.5523C18.9402 19.6075 18.9515 19.6514 19.0241 19.6466C19.3139 19.6277 19.6053 19.6215 19.8931 19.5865C20.1186 19.559 20.34 19.4976 20.5621 19.4465C20.5895 19.4402 20.623 19.4082 20.6316 19.3811C20.7604 18.9777 20.8693 18.5672 21.0152 18.1702C21.2335 17.5762 21.5756 17.0662 22.1287 16.7273C22.4591 16.5249 22.8163 16.474 23.1937 16.5676C23.267 16.5858 23.2942 16.6244 23.2729 16.6975C23.2661 16.7208 23.2645 16.7456 23.2589 16.7693C23.2184 16.9409 23.2066 16.9566 23.0343 16.98C22.7385 17.0202 22.4635 17.1131 22.2233 17.2928C21.9858 17.4704 21.8159 17.7062 21.6824 17.9668C21.4698 18.382 21.3331 18.8258 21.2086 19.2735C21.1879 19.348 21.2026 19.3721 21.2798 19.3813C21.3525 19.39 21.4256 19.3949 21.4984 19.403C21.5638 19.4102 21.5953 19.4395 21.5785 19.5124C21.5596 19.5942 21.5488 19.678 21.5366 19.7612C21.5283 19.8181 21.5008 19.8563 21.4439 19.8716C21.3733 19.8907 21.3039 19.9177 21.2321 19.9281C21.1368 19.9419 21.0847 19.9944 21.0688 20.0834C21.035 20.2719 21.0259 20.4609 21.0766 20.6486C21.088 20.6905 21.1019 20.7318 21.1116 20.7741C21.1694 21.0262 21.3321 21.1871 21.5545 21.3042C21.7158 21.3891 21.8829 21.4257 22.0637 21.4201C22.2157 21.4155 22.368 21.4194 22.5201 21.4212C22.5564 21.4216 22.5926 21.4284 22.6288 21.4323C22.6311 21.4395 22.6334 21.4467 22.6357 21.4539Z" fill="white"/>
<path d="M13.1274 16.7366C13.5802 16.7496 14.034 16.7783 14.4625 16.9442C14.6055 16.9995 14.7399 17.0931 14.8584 17.1927C15.14 17.4292 15.2133 17.7471 15.1587 18.0974C15.1073 18.4269 14.816 18.5306 14.567 18.5018C14.4377 18.4868 14.3543 18.3972 14.3092 18.2777C14.2728 18.1813 14.2423 18.0825 14.2127 17.9837C14.1347 17.7231 13.9581 17.5535 13.707 17.4721C13.5303 17.4149 13.3436 17.3878 13.1608 17.3499C13.0679 17.3307 12.9733 17.3191 12.8802 17.3009C12.4843 17.2236 12.1097 17.2888 11.7482 17.4601C11.5422 17.5576 11.4344 17.7318 11.4208 17.9421C11.4073 18.1516 11.5332 18.3095 11.7107 18.4203C11.9744 18.585 12.2712 18.6469 12.5711 18.7019C12.9201 18.766 13.2763 18.7995 13.6059 18.9474C13.9366 19.0958 14.2096 19.3154 14.4061 19.6183C14.467 19.7122 14.4945 19.8349 14.5123 19.9483C14.554 20.2149 14.5488 20.4816 14.4084 20.7234C14.2537 20.9897 14.0355 21.1933 13.7663 21.3448C13.4212 21.5389 13.047 21.6511 12.6626 21.7237C12.1955 21.8119 11.7259 21.805 11.2521 21.746C10.8831 21.7001 10.5434 21.5821 10.2177 21.4191C9.95262 21.2864 9.73388 21.0858 9.55443 20.8506C9.4056 20.6555 9.42153 20.4242 9.44112 20.1929C9.46179 19.9488 9.63838 19.8448 9.82007 19.7446C9.88424 19.7092 9.93401 19.7574 9.95311 19.8145C10.0761 20.1827 10.3416 20.4402 10.6338 20.6687C10.8852 20.8653 11.1855 20.9694 11.4954 21.0388C11.8332 21.1144 12.1772 21.1489 12.5223 21.1442C12.8933 21.1392 13.2578 21.0829 13.599 20.9229C13.7723 20.8417 13.8975 20.7118 13.96 20.5327C14.0256 20.3449 13.923 20.2002 13.8053 20.0715C13.636 19.8863 13.4158 19.7787 13.1836 19.6961C12.8617 19.5817 12.5394 19.4682 12.215 19.3612C11.8669 19.2463 11.5358 19.0934 11.2429 18.876C11.05 18.7328 10.8568 18.5579 10.8322 18.3003C10.7883 17.8399 10.8624 17.5271 11.2535 17.2524C11.5103 17.0721 11.7969 16.9612 12.0953 16.8716C12.4324 16.7704 12.7778 16.7489 13.1274 16.7366Z" fill="white"/>
</svg>
