<svg width="40" height="40" viewBox="0 0 40 40" fill="none" xmlns="http://www.w3.org/2000/svg">
<rect width="40" height="40" rx="4" fill="#016FD0"/>
<path d="M10.1963 25.619V20.9062H15.5189L16.09 21.6042L16.6799 20.9062H36.7998V23.825C36.7998 24.8191 35.9941 25.625 35 25.6246C31.5036 25.6233 27.7849 25.619 24.2124 25.619L23.5686 24.8761V25.619H21.4587V24.3509C21.4587 24.3509 21.1705 24.5279 20.5474 24.5279H19.8293V25.619H16.6348L16.0645 24.9062L15.4855 25.619H10.1963Z" fill="white"/>
<path d="M5.19651 14.75H7.26587L7.94494 16.215V14.75H10.5173L10.9216 15.8088L11.3135 14.75H22.8609V15.2823C22.8609 15.2823 23.4679 14.75 24.4656 14.75L28.2123 14.7623L28.8796 16.2081V14.75H31.0323L31.6248 15.5805V14.75H33.7973V19.4483H31.6248L31.057 18.6151V19.4483H27.8942L27.5762 18.7077H26.7259L26.413 19.4483H24.2681C23.4096 19.4483 22.8609 18.9268 22.8609 18.9268V19.4483H19.6269L18.985 18.7077V19.4483H6.9593L6.64146 18.7077H5.7939L5.4783 19.4483H3.03418L5.19651 14.75Z" fill="white"/>
<path d="M5.61978 15.3291L4.00586 18.847H5.05661L5.35439 18.1426H7.08558L7.38183 18.847H8.45572L6.84334 15.3291H5.61978ZM6.2169 16.1478L6.74459 17.3788H5.68767L6.2169 16.1478Z" fill="#016FD0"/>
<path d="M8.56738 18.8464V15.3285L10.0606 15.3337L10.929 17.6018L11.7767 15.3285H13.2579V18.8464H12.3198V16.2543L11.3254 18.8464H10.5027L9.50549 16.2543V18.8464H8.56738Z" fill="#016FD0"/>
<path d="M13.8994 18.8464V15.3285H16.9606V16.1154H14.8474V16.7171H16.9112V17.4578H14.8474V18.0827H16.9606V18.8464H13.8994Z" fill="#016FD0"/>
<path d="M17.5044 15.3291V18.847H18.4425V17.5972H18.8375L19.9623 18.847H21.1087L19.8744 17.5509C20.3809 17.5109 20.9035 17.1032 20.9035 16.4704C20.9035 15.7301 20.2837 15.3291 19.592 15.3291H17.5044ZM18.4425 16.116H19.5149C19.7721 16.116 19.9592 16.3046 19.9592 16.4863C19.9592 16.72 19.7168 16.8566 19.5287 16.8566H18.4425V16.116Z" fill="#016FD0"/>
<path d="M22.244 18.8464H21.2861V15.3285H22.244V18.8464Z" fill="#016FD0"/>
<path d="M24.5147 18.8464H24.3079C23.3076 18.8464 22.7002 18.1075 22.7002 17.1019C22.7002 16.0715 23.3008 15.3285 24.5641 15.3285H25.6009V16.1617H24.5262C24.0133 16.1617 23.6507 16.5369 23.6507 17.1106C23.6507 17.7919 24.0654 18.078 24.6628 18.078H24.9097L24.5147 18.8464Z" fill="#016FD0"/>
<path d="M26.5563 15.3291L24.9424 18.847H25.9931L26.2909 18.1426H28.0221L28.3183 18.847H29.3922L27.7799 15.3291H26.5563ZM27.1534 16.1478L27.6811 17.3788H26.6242L27.1534 16.1478Z" fill="#016FD0"/>
<path d="M29.502 18.8464V15.3285H30.6947L32.2175 17.5388V15.3285H33.1557V18.8464H32.0015L30.4401 16.5783V18.8464H29.502Z" fill="#016FD0"/>
<path d="M10.8384 25.0029V21.485H13.8996V22.2719H11.7864V22.8736H13.8502V23.6143H11.7864V24.2391H13.8996V25.0029H10.8384Z" fill="#016FD0"/>
<path d="M25.8384 25.0029V21.485H28.8996V22.2719H26.7864V22.8736H28.8403V23.6143H26.7864V24.2391H28.8996V25.0029H25.8384Z" fill="#016FD0"/>
<path d="M14.0184 25.0029L15.5089 23.2656L13.9829 21.485H15.1648L16.0736 22.5858L16.9855 21.485H18.1211L16.6152 23.2439L18.1084 25.0029H16.9267L16.0443 23.9195L15.1833 25.0029H14.0184Z" fill="#016FD0"/>
<path d="M18.2197 21.4856V25.0035H19.1825V23.8926H20.17C21.0056 23.8926 21.6389 23.477 21.6389 22.6688C21.6389 21.9994 21.1422 21.4856 20.2919 21.4856H18.2197ZM19.1825 22.2812H20.2225C20.4924 22.2812 20.6854 22.4363 20.6854 22.6862C20.6854 22.921 20.4934 23.0912 20.2194 23.0912H19.1825V22.2812Z" fill="#016FD0"/>
<path d="M22.0464 21.485V25.0029H22.9845V23.7531H23.3795L24.5043 25.0029H25.6507L24.4164 23.7068C24.9229 23.6667 25.4455 23.2591 25.4455 22.6263C25.4455 21.886 24.8257 21.485 24.134 21.485H22.0464ZM22.9845 22.2719H24.0568C24.3141 22.2719 24.5012 22.4605 24.5012 22.6422C24.5012 22.8759 24.2588 23.0125 24.0707 23.0125H22.9845V22.2719Z" fill="#016FD0"/>
<path d="M29.334 25.0029V24.2391H31.2114C31.4892 24.2391 31.6095 24.0984 31.6095 23.9441C31.6095 23.7962 31.4896 23.6467 31.2114 23.6467H30.363C29.6256 23.6467 29.2148 23.2254 29.2148 22.593C29.2148 22.0289 29.591 21.485 30.6868 21.485H32.5137L32.1187 22.2765H30.5387C30.2367 22.2765 30.1437 22.4251 30.1437 22.567C30.1437 22.7128 30.2586 22.8736 30.4893 22.8736H31.3781C32.2001 22.8736 32.5569 23.3108 32.5569 23.8833C32.5569 24.4988 32.1594 25.0029 31.3333 25.0029H29.334Z" fill="#016FD0"/>
<path d="M32.7763 25.0029V24.2391H34.6538C34.9316 24.2391 35.0519 24.0984 35.0519 23.9441C35.0519 23.7962 34.932 23.6467 34.6538 23.6467H33.8054C33.0679 23.6467 32.6572 23.2254 32.6572 22.593C32.6572 22.0289 33.0333 21.485 34.1292 21.485H35.956L35.5611 22.2765H33.9811C33.6791 22.2765 33.5861 22.4251 33.5861 22.567C33.5861 22.7128 33.701 22.8736 33.9317 22.8736H34.8204C35.6425 22.8736 35.9992 23.3108 35.9992 23.8833C35.9992 24.4988 35.6017 25.0029 34.7757 25.0029H32.7763Z" fill="#016FD0"/>
</svg>
