<svg width="40" height="40" viewBox="0 0 40 40" fill="none" xmlns="http://www.w3.org/2000/svg">
<rect width="40" height="40" rx="4" fill="#7DFBC6"/>
<path d="M20.8626 23.8609H20.8004L21.2731 24.9343H20.079L19.6063 23.8609H19.3202C18.9719 23.8609 18.6983 23.7549 18.5117 23.5561C18.3251 23.3573 18.2256 23.0658 18.2256 22.6947V19.4347C18.2256 19.0637 18.3251 18.7721 18.5117 18.5734C18.6983 18.3746 18.9719 18.2686 19.3202 18.2686H20.8626C21.2109 18.2686 21.4846 18.3746 21.6712 18.5734C21.8578 18.7721 21.9573 19.0637 21.9573 19.4347V22.6947C21.9573 23.0658 21.8578 23.3573 21.6712 23.5561C21.4846 23.7549 21.2109 23.8609 20.8626 23.8609ZM19.37 19.501V22.6152C19.37 22.7477 19.4322 22.814 19.5566 22.814H20.6387C20.7631 22.814 20.8253 22.7477 20.8253 22.6152V19.501C20.8253 19.3685 20.7631 19.3022 20.6387 19.3022H19.5566C19.4322 19.3022 19.37 19.3685 19.37 19.501Z" fill="black"/>
<path d="M22.5166 23.7947V18.2686H23.6485V22.7345H25.6139V23.7814H22.5166V23.7947Z" fill="black"/>
<path d="M30.4038 23.7947L29.8192 21.7141H29.0978V23.7947H27.9658V18.2686H30.5158C30.8641 18.2686 31.1377 18.3746 31.3243 18.5734C31.5109 18.7721 31.6104 19.0637 31.6104 19.4347V20.5479C31.6104 21.131 31.399 21.5021 30.9636 21.6478L31.6229 23.7814H30.4038V23.7947ZM30.2919 19.3022H29.0978V20.6937H30.2919C30.4163 20.6937 30.4785 20.6274 30.4785 20.4949V19.501C30.466 19.3685 30.4163 19.3022 30.2919 19.3022Z" fill="black"/>
<path d="M34.804 23.8609H33.2616C32.9133 23.8609 32.6397 23.7549 32.4531 23.5561C32.2665 23.3573 32.167 23.0658 32.167 22.6947V19.4347C32.167 19.0637 32.2665 18.7721 32.4531 18.5734C32.6397 18.3746 32.9133 18.2686 33.2616 18.2686H34.804C35.1523 18.2686 35.426 18.3746 35.6126 18.5734C35.7992 18.7721 35.8987 19.0637 35.8987 19.4347V22.6947C35.8987 23.0658 35.7992 23.3573 35.6126 23.5561C35.4136 23.7549 35.1523 23.8609 34.804 23.8609ZM33.2989 19.501V22.6152C33.2989 22.7477 33.3611 22.814 33.4855 22.814H34.5677C34.6921 22.814 34.7543 22.7477 34.7543 22.6152V19.501C34.7543 19.3685 34.6921 19.3022 34.5677 19.3022H33.4855C33.3611 19.3022 33.2989 19.3685 33.2989 19.501Z" fill="black"/>
<path d="M26.1387 23.7947V18.2686H27.2706V23.7947H26.1387Z" fill="black"/>
<path d="M10.875 21.668H13.3255C13.8977 21.668 14.3579 21.1777 14.3579 20.5548C14.3579 19.9452 13.8977 19.4417 13.3255 19.4417H8.15087C7.57868 19.4417 7.11844 19.932 7.11844 20.5548C7.11844 21.1644 7.57868 21.668 8.15087 21.668H9.4694C9.95451 21.668 10.4148 21.8668 10.7506 22.2378L12.803 24.4377H10.7382L9.79281 23.4173C9.73061 23.351 9.65598 23.3245 9.58135 23.3245H8.17575C6.74527 23.3245 5.56357 22.1053 5.56357 20.5681C5.55114 19.0441 6.72039 17.7852 8.15087 17.7852H13.2881C14.7186 17.7852 15.9003 19.0043 15.9003 20.5416C15.9128 22.0788 14.7435 23.3378 13.313 23.3378H12.5418L11.385 22.1053C11.2357 21.9198 11.0616 21.7873 10.875 21.668Z" fill="black"/>
</svg>
