<svg width="40" height="40" viewBox="0 0 40 40" fill="none" xmlns="http://www.w3.org/2000/svg">
<rect width="40" height="40" rx="4" fill="#23A994"/>
<path d="M21.6221 19.0242V23.3009C21.0472 22.6617 20.5529 22.1122 19.9414 21.4324V17.3837H20.3534C20.3534 17.3837 22.2574 17.3675 23.2079 17.4012C25.6997 17.4893 28.4616 19.3626 28.9273 22.5778C29.4501 26.1888 27.0861 29.0388 23.8808 29.5633C21.8713 29.8921 20.0384 29.3612 18.5661 27.9177C15.8648 25.2687 10.4941 19.8771 10.4941 19.8771C10.4941 19.8771 15.897 14.4464 18.3922 11.9111C20.7645 9.50043 24.549 9.43503 26.9344 11.5729C28.1454 12.6581 28.8515 14.0206 28.964 15.6578C28.9991 16.1696 28.9694 16.6858 28.9694 17.3135C28.3802 16.8776 27.8968 16.5198 27.3713 16.131C27.3365 15.9472 27.2878 15.7281 27.2541 15.5069C26.965 13.6017 25.4295 12.0763 23.5365 11.7774C22.0851 11.5483 20.8242 11.9616 19.8015 12.9623C17.503 15.2114 12.9506 19.8105 12.9506 19.8105C12.9506 19.8105 17.3602 24.3104 19.4849 26.4135C19.8518 26.7767 20.2578 27.125 20.703 27.3803C23.542 29.0074 26.8034 27.0323 27.2594 24.2105C27.6872 21.5627 25.6124 19.3826 23.4734 19.1207C23.1376 19.0795 22.7999 19.0474 22.4622 19.0271C22.2175 19.0124 21.9714 19.0242 21.6221 19.0242Z" fill="white"/>
</svg>
