<svg width="40" height="40" viewBox="0 0 40 40" fill="none" xmlns="http://www.w3.org/2000/svg">
<rect width="40" height="40" rx="4" fill="#00A7E4"/>
<path d="M17.6333 16.2115C17.6077 16.2868 17.6589 16.362 17.7356 16.362L18.9631 16.3369C18.9631 16.3369 17.3008 22.8602 16.9684 24.19C16.5592 25.8459 15.8687 27.5269 15.3829 28.129C14.9481 28.6559 14.6668 28.8316 14.3599 28.8316C13.9508 28.8316 13.7462 28.5305 13.6183 28.0538C13.5416 27.7025 13.3114 27.2258 12.8 27.2258C12.2629 27.2258 11.5469 27.8029 11.5469 28.5305C11.5469 29.4839 13.1836 29.7097 13.7206 29.7097C14.7947 29.7097 16.2012 29.0323 17.1218 27.9785C18.3238 26.6488 18.9887 24.9928 19.6024 22.6595L21.1112 16.3118L22.6968 16.3369C22.8247 16.3369 22.8758 16.2366 22.9014 16.1864L23.106 15.6093C23.1315 15.5341 23.0804 15.4588 23.0037 15.4588H21.367C21.7506 14.104 22.3388 12.1219 23.464 11.043C23.5663 10.9427 23.8476 10.7169 24.1033 10.7169C24.5381 10.7169 24.6659 10.9678 24.8705 11.3692C25.0495 11.7706 25.0239 12.448 25.6377 12.448C26.3538 12.448 26.8908 11.6703 26.8908 11.1434C26.8908 10.4158 25.6121 9.93909 24.5636 9.93909C23.3617 9.93909 22.1853 10.4409 21.3414 11.2688C20.1395 12.4731 19.5769 14.2545 19.1933 15.4839L17.9657 15.4588C17.889 15.4588 17.8123 15.5341 17.7867 15.5842L17.6333 16.2115ZM24.001 22.8351C23.9754 23.1613 23.7964 24.0394 22.7991 24.0394C22.2109 24.0394 21.7762 23.6631 21.8273 22.9857C21.8529 22.3083 22.3388 21.7563 23.0292 21.7312C23.4896 21.7563 24.0522 22.0574 24.001 22.8351ZM27.5557 22.8351C27.5301 23.1613 27.3511 24.0394 26.3538 24.0394C25.7656 24.0394 25.3308 23.6631 25.382 22.9857C25.4075 22.3083 25.8934 21.7563 26.5839 21.7312C27.0187 21.7563 27.5813 22.0574 27.5557 22.8351ZM31.0848 22.8351C31.0592 23.1613 30.8802 24.0394 29.8829 24.0394C29.2947 24.0394 28.8599 23.6631 28.9111 22.9857C28.9366 22.3083 29.4225 21.7563 30.113 21.7312C30.5733 21.7563 31.1104 22.0574 31.0848 22.8351ZM15.8687 11.0932C15.1271 11.1183 14.6157 11.6954 14.5645 12.423C14.5134 13.1255 14.9481 13.5269 15.5874 13.5269C16.6615 13.5269 16.8917 12.5735 16.8917 12.2222C16.9428 11.4194 16.3802 11.0932 15.8687 11.0932Z" fill="white"/>
<path d="M14.1022 20.4014L15.2274 17.7168C15.4576 17.19 15.7389 16.4874 15.7389 16.0107C15.7389 15.4086 15.2786 15.2581 14.9461 15.2581C13.4118 15.2581 11.7751 17.0143 11.1613 17.7168C11.1102 17.767 11.0846 17.8674 11.1869 17.9426L11.4682 18.2186C11.5193 18.2688 11.6216 18.2688 11.6728 18.1935C11.6728 18.1935 12.4144 17.3907 12.6957 17.19C12.7724 17.1398 12.8747 17.0645 12.9514 17.0645C13.0537 17.0645 13.1049 17.215 13.1049 17.2903C13.1049 17.5412 12.8491 18.1434 12.7213 18.4444L11.5449 21.3799C11.1357 22.3584 10.9312 22.8853 10.9312 23.3118C10.9312 23.8136 11.2125 24.215 11.9285 24.215C13.5652 24.215 15.611 21.8064 15.611 21.8064C15.6878 21.7061 15.6622 21.6308 15.611 21.5806L15.3042 21.3047C15.253 21.2545 15.1507 21.2294 15.074 21.3047C15.074 21.3047 13.9744 22.509 13.5908 22.509C13.4118 22.509 13.4373 22.3082 13.4373 22.2831C13.4373 22.1075 13.5396 21.7814 13.6163 21.6308L14.1022 20.4014Z" fill="white"/>
</svg>
