<svg width="96" height="24" viewBox="0 0 96 24" fill="none" xmlns="http://www.w3.org/2000/svg">
<path d="M0.953125 17.3261H2.55277V1.00441H0.953125V0.677612H4.32839V9.93686H4.37638C4.44036 9.73715 4.56833 9.48297 4.7283 9.17433C4.88826 8.86569 5.11221 8.5752 5.40015 8.30287C5.68809 8.03054 6.02401 7.79452 6.43992 7.59481C6.85583 7.39511 7.33573 7.30433 7.8956 7.30433C8.8074 7.30433 9.55924 7.55851 10.1191 8.06686C10.695 8.57521 10.9829 9.37404 10.9829 10.4634V17.3443H12.5826V17.6711H7.60767V17.3443H9.20732V9.73715C9.20732 9.11986 9.07934 8.62967 8.8234 8.23025C8.56746 7.83083 8.16754 7.64928 7.62366 7.64928C7.17576 7.64928 6.75985 7.75821 6.35994 7.97608C5.96003 8.19394 5.60811 8.50258 5.30417 8.902C5.00024 9.30142 4.76029 9.7553 4.58433 10.2818C4.40837 10.8083 4.32839 11.3893 4.32839 12.0247V17.3443H5.92804V17.6711H0.953125V17.3261Z" fill="#636363"/>
<path d="M11.9764 7.54028H17.0633V7.86708H15.3197L17.9911 15.2563L20.7905 7.86708H19.0629V7.54028H22.2302V7.86708H21.1104L17.6872 16.9629C17.4312 17.6347 17.1753 18.3246 16.9353 18.9963C16.6954 19.6862 16.4714 20.358 16.2315 21.066C16.0395 21.6289 15.8476 22.119 15.6556 22.5548C15.4636 22.9724 15.2557 23.3173 15.0477 23.5896C14.8398 23.862 14.5998 24.0617 14.3599 24.1888C14.1039 24.3158 13.816 24.3885 13.4801 24.3885C13.0802 24.3885 12.7602 24.3158 12.5203 24.1706C12.2803 24.0254 12.0884 23.862 11.9444 23.6804C11.8004 23.4989 11.7205 23.2991 11.6725 23.0994C11.6245 22.8997 11.6085 22.7182 11.6085 22.5729C11.6085 22.1735 11.7045 21.883 11.8964 21.6833C12.0884 21.4836 12.3283 21.3928 12.6003 21.3928C12.6963 21.3928 12.8082 21.411 12.9042 21.4291C13.0002 21.4473 13.1122 21.5018 13.2081 21.5562C13.3041 21.6107 13.3841 21.7015 13.4641 21.8104C13.5281 21.9193 13.5761 22.0464 13.5761 22.2098C13.5761 22.4277 13.5121 22.6274 13.4001 22.8271C13.2881 23.0268 13.2241 23.2447 13.2241 23.4807C13.2241 23.6804 13.2721 23.8257 13.3681 23.8801C13.4641 23.9527 13.5921 23.9709 13.768 23.9709C13.992 23.9709 14.1999 23.9164 14.3759 23.7893C14.5678 23.6804 14.7438 23.4807 14.9198 23.2084C15.0957 22.936 15.2877 22.5911 15.4636 22.1554C15.6396 21.7196 15.8476 21.1931 16.0715 20.5577L16.9833 17.9252L13.4001 7.84893H11.9604V7.54028H11.9764Z" fill="#636363"/>
<path d="M27.6215 0.677734H30.9968V17.3262H32.5964V17.653H29.2531V15.6015H29.2052C29.1572 15.783 29.0612 16.019 28.9492 16.2914C28.8372 16.5637 28.6773 16.8179 28.4693 17.072C28.2614 17.3262 27.9894 17.5441 27.6535 17.7256C27.3176 17.9072 26.9337 17.998 26.4538 17.998C25.8459 17.998 25.27 17.8527 24.7261 17.5441C24.1823 17.2536 23.7024 16.836 23.2865 16.3458C22.8706 15.8375 22.5506 15.2747 22.2947 14.6211C22.0547 13.9675 21.9268 13.2776 21.9268 12.5695C21.9268 11.8614 22.0387 11.1897 22.2787 10.5361C22.5186 9.90066 22.8386 9.33785 23.2385 8.84765C23.6384 8.37561 24.1023 7.9762 24.6302 7.68571C25.158 7.39522 25.7179 7.24998 26.3098 7.24998C27.0776 7.24998 27.6855 7.46785 28.1494 7.88542C28.6133 8.30299 28.9492 8.82949 29.1412 9.44678H29.1892V1.00453H27.5895V0.677734H27.6215ZM24.0223 12.2609C24.0223 13.0779 24.0383 13.8222 24.0863 14.494C24.1343 15.1657 24.2303 15.7285 24.3902 16.2006C24.5502 16.6726 24.8061 17.0357 25.1421 17.2899C25.478 17.5441 25.9259 17.6712 26.4858 17.6712C27.0616 17.6712 27.5255 17.5259 27.8934 17.2536C28.2454 16.9631 28.5173 16.6 28.7093 16.1643C28.9012 15.7104 29.0292 15.2202 29.1092 14.6755C29.1732 14.1309 29.2052 13.5862 29.2052 13.0779C29.2052 12.4606 29.1892 11.9341 29.1732 11.4802C29.1572 11.0263 29.1092 10.645 29.0612 10.3001C29.0132 9.95513 28.9332 9.66465 28.8372 9.41047C28.7413 9.15629 28.6293 8.92028 28.4853 8.70241C28.2774 8.39377 28.0054 8.12144 27.6695 7.92173C27.3336 7.72202 26.9177 7.61309 26.4058 7.61309C25.9259 7.61309 25.526 7.72202 25.206 7.93988C24.9021 8.15775 24.6462 8.46639 24.4862 8.88397C24.3102 9.30154 24.1983 9.77357 24.1183 10.3545C24.0543 10.8811 24.0223 11.5346 24.0223 12.2609Z" fill="#636363"/>
<path d="M33.2207 17.3262H34.8204V7.88542H33.2207V7.55862H36.564V9.93697H36.612C36.6599 9.70095 36.7559 9.42862 36.8839 9.13814C37.0119 8.84765 37.1878 8.55716 37.3958 8.28483C37.6197 8.0125 37.8757 7.77648 38.1956 7.59493C38.5155 7.41338 38.8835 7.30444 39.3314 7.30444C39.6513 7.30444 39.9232 7.35891 40.1632 7.486C40.4031 7.59493 40.5951 7.75833 40.7391 7.93988C40.883 8.12144 40.995 8.32114 41.075 8.55716C41.139 8.79318 41.171 9.0292 41.171 9.26522C41.171 9.79173 41.075 10.1367 40.851 10.3001C40.6431 10.4816 40.4031 10.5543 40.1312 10.5543C39.5233 10.5543 39.2194 10.3364 39.2194 9.90066C39.2194 9.75542 39.2354 9.64649 39.2674 9.55571C39.2994 9.46493 39.3314 9.37416 39.3634 9.30154C39.3954 9.21076 39.4273 9.11998 39.4593 9.01105C39.4913 8.90212 39.5073 8.73872 39.5073 8.53901C39.5073 8.03066 39.2674 7.79464 38.7875 7.79464C38.5635 7.79464 38.3236 7.88541 38.0836 8.08512C37.8277 8.26668 37.6037 8.53901 37.3958 8.90211C37.1878 9.26522 36.9959 9.70095 36.8519 10.2093C36.7079 10.7177 36.628 11.2986 36.628 11.9704V17.3625H38.4356V17.6893H33.2527V17.3262H33.2207Z" fill="#636363"/>
<path d="M50.5085 17.3806C50.3325 17.544 50.1086 17.6711 49.8686 17.7981C49.6287 17.9071 49.3088 17.9797 48.9568 17.9797C48.301 17.9797 47.8051 17.8163 47.5171 17.4895C47.2132 17.1627 47.0212 16.7088 46.9093 16.1279H46.8613C46.8133 16.2731 46.7333 16.4546 46.6373 16.6544C46.5414 16.8722 46.3974 17.0719 46.1894 17.2716C45.9815 17.4713 45.7255 17.6347 45.3896 17.7618C45.0537 17.8889 44.6378 17.9615 44.1259 17.9615C43.55 17.9615 43.0861 17.8889 42.7342 17.7437C42.3823 17.5984 42.1263 17.4169 41.9184 17.199C41.7264 16.9812 41.5984 16.727 41.5345 16.4546C41.4705 16.1823 41.4385 15.9281 41.4385 15.6921C41.4385 15.1475 41.5345 14.6936 41.7264 14.3668C41.9184 14.04 42.1743 13.7677 42.4782 13.5861C42.7822 13.3864 43.1341 13.223 43.518 13.0959C43.9019 12.9688 44.2858 12.8417 44.6698 12.6965C45.1337 12.5149 45.5016 12.3697 45.8055 12.2426C46.1095 12.1155 46.3334 11.9703 46.4934 11.7887C46.6533 11.6072 46.7653 11.3711 46.8293 11.0988C46.8933 10.8265 46.9253 10.4452 46.9253 9.97318C46.9253 9.59192 46.9093 9.26512 46.8613 8.95648C46.8133 8.66599 46.7493 8.39366 46.6373 8.19395C46.5254 7.97608 46.3654 7.81269 46.1574 7.70376C45.9495 7.59482 45.6775 7.54035 45.3256 7.54035C44.8617 7.54035 44.4938 7.63113 44.1899 7.81268C43.8859 7.99424 43.742 8.28473 43.742 8.7023C43.742 8.97463 43.758 9.22881 43.806 9.48298C43.8539 9.73716 43.8699 9.93687 43.8699 10.064C43.8699 10.2818 43.806 10.4634 43.662 10.6086C43.518 10.7539 43.3261 10.8265 43.0541 10.8265C42.5902 10.8265 42.3183 10.7357 42.2063 10.536C42.0943 10.3544 42.0463 10.1003 42.0463 9.80978C42.0463 9.46482 42.1103 9.13803 42.2543 8.81123C42.3983 8.50259 42.5902 8.21211 42.8622 7.97609C43.1341 7.74007 43.47 7.54036 43.8859 7.39511C44.2859 7.24987 44.7657 7.17725 45.2936 7.17725C45.9335 7.17725 46.4614 7.26802 46.8933 7.44958C47.3252 7.63113 47.6611 7.86715 47.9331 8.17579C48.189 8.48443 48.381 8.82939 48.4929 9.21065C48.6049 9.59191 48.6529 9.99133 48.6529 10.4271V16.2913C48.6529 16.7451 48.7169 17.0538 48.8449 17.2172C48.9728 17.3806 49.1488 17.4532 49.3887 17.4532C49.5327 17.4532 49.6927 17.4169 49.8686 17.3624C50.0286 17.308 50.1886 17.199 50.3485 17.0719L50.5085 17.3806ZM46.8773 11.8795H46.8293C46.7973 12.0792 46.5733 12.2971 46.1414 12.4968L44.5898 13.2048C44.1419 13.4045 43.806 13.695 43.566 14.0581C43.3261 14.4212 43.2141 14.8933 43.2141 15.4379C43.2141 15.674 43.2301 15.91 43.2781 16.1642C43.3261 16.4183 43.39 16.6362 43.502 16.8359C43.614 17.0356 43.774 17.199 43.9659 17.3261C44.1739 17.4532 44.4298 17.5077 44.7497 17.5077C45.2136 17.5077 45.5816 17.3987 45.8535 17.1809C46.1414 16.963 46.3494 16.6907 46.4934 16.3639C46.6373 16.0371 46.7333 15.674 46.7813 15.2927C46.8293 14.9114 46.8613 14.5665 46.8613 14.2397C46.8773 14.2397 46.8773 11.8795 46.8773 11.8795Z" fill="#636363"/>
<path d="M50.6519 17.3261H51.6916V7.88531H50.092V7.55851H51.6916V6.30578C51.6916 5.76112 51.7076 5.28909 51.7716 4.88967C51.8196 4.49025 51.8836 4.12714 51.9636 3.83665C52.0435 3.52801 52.1395 3.25568 52.2515 3.03782C52.3635 2.8018 52.4915 2.60209 52.6194 2.42053C52.9713 1.89403 53.4352 1.4583 53.9631 1.05888C54.507 0.677617 55.0829 0.477905 55.6908 0.477905C56.1547 0.477905 56.5386 0.550529 56.8585 0.695772C57.1784 0.841015 57.4504 1.02257 57.6583 1.24043C57.8663 1.4583 58.0102 1.69432 58.1062 1.96665C58.2022 2.22082 58.2502 2.45684 58.2502 2.65655C58.2502 2.94704 58.1702 3.23752 58.0262 3.47354C57.8663 3.72772 57.6103 3.85481 57.2584 3.85481C57.0824 3.85481 56.8745 3.80034 56.6505 3.70957C56.4266 3.61879 56.3146 3.41908 56.3146 3.09228C56.3146 2.81995 56.3786 2.58393 56.5066 2.36606C56.6345 2.1482 56.6985 1.91218 56.6985 1.63985C56.6985 1.2949 56.5706 1.05888 56.3306 0.949946C56.0907 0.841014 55.8187 0.768393 55.5628 0.768393C55.0029 0.768393 54.507 1.05888 54.0911 1.6217C53.6752 2.18451 53.4672 3.07413 53.4672 4.25423V7.5222H56.0427V7.84899H53.4672V17.2898H55.3548V17.6166H50.6359L50.6519 17.3261Z" fill="#636363"/>
<path d="M65.8356 17.3806C65.6597 17.544 65.4357 17.6711 65.1958 17.7981C64.9398 17.9071 64.6359 17.9797 64.284 17.9797C63.6121 17.9797 63.1322 17.8163 62.8443 17.4895C62.5404 17.1627 62.3484 16.7088 62.2364 16.1279H62.1884C62.1244 16.2731 62.0605 16.4546 61.9645 16.6544C61.8685 16.8722 61.7245 17.0719 61.5166 17.2716C61.3086 17.4713 61.0527 17.6347 60.7168 17.7618C60.3808 17.8889 59.9649 17.9615 59.453 17.9615C58.8772 17.9615 58.4133 17.8889 58.0613 17.7437C57.7094 17.5984 57.4535 17.4169 57.2455 17.199C57.0536 16.9812 56.9256 16.727 56.8616 16.4546C56.7976 16.1823 56.7656 15.9281 56.7656 15.6921C56.7656 15.1475 56.8616 14.6936 57.0536 14.3668C57.2455 14.04 57.5015 13.7677 57.8054 13.5861C58.1093 13.3864 58.4613 13.223 58.8452 13.0959C59.2291 12.9688 59.613 12.8417 59.9969 12.6965C60.4608 12.5149 60.8287 12.3697 61.1327 12.2426C61.4366 12.1155 61.6606 11.9703 61.8205 11.7887C61.9805 11.6072 62.1085 11.3711 62.1564 11.0988C62.2204 10.8265 62.2524 10.4452 62.2524 9.97318C62.2524 9.59192 62.2364 9.26512 62.1884 8.95648C62.1404 8.66599 62.0765 8.39366 61.9645 8.19395C61.8525 7.97608 61.6925 7.81269 61.4846 7.70376C61.2766 7.59482 61.0047 7.54035 60.6528 7.54035C60.1889 7.54035 59.821 7.63113 59.517 7.81268C59.2131 7.99424 59.0691 8.28473 59.0691 8.7023C59.0691 8.97463 59.0851 9.22881 59.1331 9.48298C59.1811 9.73716 59.1971 9.93687 59.1971 10.064C59.1971 10.2818 59.1331 10.4634 58.9891 10.6086C58.8452 10.7539 58.6532 10.8265 58.3813 10.8265C57.9334 10.8265 57.6454 10.7357 57.5335 10.536C57.4215 10.3544 57.3735 10.1003 57.3735 9.80978C57.3735 9.46482 57.4375 9.13803 57.5814 8.81123C57.7254 8.50259 57.9174 8.21211 58.1893 7.97609C58.4613 7.74007 58.7972 7.54036 59.2131 7.39511C59.613 7.24987 60.0929 7.17725 60.6208 7.17725C61.2606 7.17725 61.7885 7.26802 62.2204 7.44958C62.6523 7.63113 62.9883 7.86715 63.2602 8.17579C63.5161 8.48443 63.7081 8.82939 63.8201 9.21065C63.9321 9.59191 63.98 9.99133 63.98 10.4271V16.2913C63.98 16.7451 64.044 17.0538 64.172 17.2172C64.3 17.3806 64.4759 17.4532 64.7159 17.4532C64.8758 17.4532 65.0198 17.4169 65.1958 17.3624C65.3557 17.308 65.5157 17.199 65.6757 17.0719L65.8356 17.3806ZM62.2044 11.8795H62.1564C62.1245 12.0792 61.9005 12.2971 61.4686 12.4968L59.9169 13.2048C59.469 13.4045 59.1331 13.695 58.8932 14.0581C58.6532 14.4212 58.5412 14.8933 58.5412 15.4379C58.5412 15.674 58.5572 15.91 58.6052 16.1642C58.6532 16.4183 58.7172 16.6362 58.8292 16.8359C58.9411 17.0356 59.1011 17.199 59.2931 17.3261C59.501 17.4532 59.757 17.5077 60.0769 17.5077C60.5408 17.5077 60.9087 17.3987 61.1807 17.1809C61.4686 16.963 61.6765 16.6907 61.8205 16.3639C61.9645 16.0371 62.0605 15.674 62.1085 15.2927C62.1564 14.9114 62.1884 14.5665 62.1884 14.2397L62.2044 11.8795Z" fill="#636363"/>
<path d="M74.6301 15.0567C74.5821 15.2383 74.5021 15.4743 74.3901 15.8011C74.2782 16.1279 74.0862 16.4366 73.8302 16.7634C73.5743 17.0902 73.2224 17.3625 72.7905 17.6167C72.3586 17.8527 71.7827 17.9798 71.0948 17.9798C70.567 17.9798 70.0231 17.889 69.4472 17.6893C68.8873 17.5077 68.3594 17.1991 67.8955 16.7815C67.4316 16.3639 67.0477 15.8193 66.7438 15.1475C66.4399 14.4758 66.2959 13.6406 66.2959 12.6421C66.2959 11.8796 66.4239 11.1533 66.6798 10.4997C66.9358 9.84615 67.2877 9.26518 67.7196 8.77499C68.1515 8.28479 68.6634 7.90353 69.2552 7.63119C69.8471 7.35886 70.471 7.21362 71.1268 7.21362C71.4948 7.21362 71.8787 7.26809 72.2786 7.35886C72.6785 7.4678 73.0304 7.61304 73.3504 7.8309C73.6703 8.04877 73.9422 8.3211 74.1662 8.6479C74.3741 8.99285 74.4861 9.39227 74.4861 9.88247C74.4861 10.2093 74.3901 10.4816 74.2142 10.6995C74.0222 10.9173 73.7663 11.0263 73.4143 11.0263C73.1744 11.0263 72.9504 10.9718 72.7425 10.8447C72.5185 10.7358 72.4226 10.5179 72.4226 10.2456C72.4226 10.0277 72.4705 9.75537 72.5665 9.44673C72.6625 9.13809 72.7105 8.86576 72.7105 8.66605C72.7105 8.30295 72.5505 8.03061 72.2306 7.8309C71.9107 7.6312 71.5428 7.54042 71.1268 7.54042C70.8229 7.54042 70.503 7.57673 70.183 7.66751C69.8631 7.75828 69.5592 7.97615 69.2872 8.3211C69.0153 8.66605 68.7914 9.19256 68.6154 9.88247C68.4394 10.5724 68.3594 11.5164 68.3594 12.7147C68.3594 13.3864 68.3914 14.0219 68.4714 14.621C68.5514 15.2201 68.6794 15.7467 68.8873 16.1824C69.0953 16.6363 69.3672 16.9812 69.7191 17.2354C70.0711 17.4896 70.535 17.6167 71.0948 17.6167C71.7027 17.6167 72.1986 17.5077 72.5985 17.308C72.9984 17.1083 73.3024 16.8541 73.5263 16.5636C73.7503 16.2732 73.9262 15.9827 74.0382 15.674C74.1502 15.3835 74.2302 15.1294 74.2941 14.9478L74.6301 15.0567Z" fill="#636363"/>
<path d="M75.4187 17.326H77.0184V7.86708H75.4187V7.54028H78.81V17.326H80.4097V17.6528H75.4187V17.326Z" fill="#636363"/>
<path d="M90.3913 17.3806C90.2153 17.544 89.9914 17.6711 89.7514 17.7981C89.4955 17.9071 89.1916 17.9797 88.8396 17.9797C88.1678 17.9797 87.6879 17.8163 87.4 17.4895C87.096 17.1627 86.9041 16.7088 86.7921 16.1279H86.7441C86.6961 16.2731 86.6161 16.4546 86.5201 16.6544C86.4242 16.8722 86.2802 17.0719 86.0722 17.2716C85.8643 17.4713 85.6083 17.6347 85.2724 17.7618C84.9365 17.8889 84.5206 17.9615 84.0087 17.9615C83.4328 17.9615 82.9689 17.8889 82.617 17.7437C82.2651 17.5984 82.0091 17.4169 81.8012 17.199C81.6092 16.9812 81.4813 16.727 81.4173 16.4546C81.3533 16.1823 81.3213 15.9281 81.3213 15.6921C81.3213 15.1475 81.4173 14.6936 81.6092 14.3668C81.8012 14.04 82.0571 13.7677 82.3611 13.5861C82.681 13.3864 83.0169 13.223 83.4008 13.0959C83.7847 12.9688 84.1687 12.8417 84.5526 12.6965C85.0165 12.5149 85.3844 12.3697 85.6883 12.2426C85.9923 12.1155 86.2162 11.9703 86.3762 11.7887C86.5361 11.6072 86.6641 11.3711 86.7121 11.0988C86.7761 10.8265 86.8081 10.4452 86.8081 9.97318C86.8081 9.59192 86.7921 9.26512 86.7441 8.95648C86.6961 8.66599 86.6321 8.39366 86.5201 8.19395C86.4082 7.97608 86.2482 7.81269 86.0403 7.70376C85.8323 7.59482 85.5604 7.54035 85.2084 7.54035C84.7605 7.54035 84.3766 7.63113 84.0727 7.81268C83.7687 7.99424 83.6248 8.28473 83.6248 8.7023C83.6248 8.97463 83.6408 9.22881 83.6888 9.48298C83.7368 9.73716 83.7527 9.93687 83.7527 10.064C83.7527 10.2818 83.6888 10.4634 83.5448 10.6086C83.4008 10.7539 83.2089 10.8265 82.9369 10.8265C82.489 10.8265 82.2011 10.7357 82.0891 10.536C81.9771 10.3544 81.9292 10.1003 81.9292 9.80978C81.9292 9.46482 81.9931 9.13803 82.1371 8.81123C82.2811 8.50259 82.473 8.21211 82.745 7.97609C83.0169 7.74007 83.3528 7.54036 83.7688 7.39511C84.1847 7.24987 84.6486 7.17725 85.1764 7.17725C85.8163 7.17725 86.3442 7.26802 86.7761 7.44958C87.208 7.63113 87.5439 7.86715 87.8159 8.17579C88.0718 8.48443 88.2638 8.82939 88.3757 9.21065C88.4877 9.59191 88.5357 9.99133 88.5357 10.4271V16.2913C88.5357 16.7451 88.5997 17.0538 88.7277 17.2172C88.8556 17.3806 89.0316 17.4532 89.2715 17.4532C89.4155 17.4532 89.5755 17.4169 89.7514 17.3624C89.9114 17.308 90.0714 17.199 90.2313 17.0719L90.3913 17.3806ZM86.7601 11.8795H86.7121C86.6801 12.0792 86.4562 12.2971 86.0243 12.4968L84.4726 13.2048C84.0247 13.4045 83.6888 13.695 83.4488 14.0581C83.2089 14.4212 83.0969 14.8933 83.0969 15.4379C83.0969 15.674 83.1129 15.91 83.1609 16.1642C83.2089 16.4183 83.2729 16.6362 83.3848 16.8359C83.4968 17.0356 83.6568 17.199 83.8487 17.3261C84.0567 17.4532 84.3126 17.5077 84.6326 17.5077C85.0805 17.5077 85.4644 17.3987 85.7363 17.1809C86.0243 16.963 86.2322 16.6907 86.3762 16.3639C86.5201 16.0371 86.6161 15.674 86.6641 15.2927C86.7121 14.9114 86.7441 14.5665 86.7441 14.2397L86.7601 11.8795Z" fill="#636363"/>
<path d="M90.4961 17.3262H92.0957V1.00453H90.4961V0.677734H93.8874V17.3262H95.487V17.653H90.4961V17.3262Z" fill="#636363"/>
</svg>
