<svg width="382" height="132" viewBox="0 0 382 132" fill="none" xmlns="http://www.w3.org/2000/svg">
<path d="M81.3301 52.3698C81.3301 55.1138 80.706 57.6109 79.4578 59.861C78.2638 62.1111 76.7443 63.8399 74.8991 65.0472C73.2709 66.1448 72.0227 66.8309 71.1544 67.1053C74.1393 68.8066 76.4729 71.8799 78.1553 76.3252C80.0005 81.7036 81.5201 87.96 82.714 95.0945H74.8991C73.4338 85.2159 71.5886 78.6302 69.3635 75.3374C66.867 71.7152 64.045 69.9042 60.8973 69.9042H50.7202V62.8246H60.9787C62.7153 62.8246 64.3163 62.6599 65.7816 62.3306C67.2469 61.9465 68.5494 61.3428 69.6891 60.5196C70.8288 59.7512 71.7785 58.6536 72.5383 57.2267C73.3523 55.7998 73.7594 54.1808 73.7594 52.3698C73.7594 50.3941 73.3523 48.7202 72.5383 47.3482C71.7785 45.9762 70.8016 44.8785 69.6077 44.0553C68.4137 43.287 67.057 42.7108 65.5374 42.3266C64.0721 41.9424 62.6339 41.7503 61.2229 41.7503H53.5707V95.0945H46V35H61.2229C63.7193 35 66.1344 35.3293 68.468 35.9879C70.8016 36.5915 72.891 37.5245 74.7362 38.7868C76.7443 40.2137 78.3452 41.9973 79.5392 44.1377C80.7331 46.278 81.3301 49.022 81.3301 52.3698Z" fill="black"/>
<path d="M130.978 95.0945H99.5552V35H130.245V41.8327H107.126V60.2726H129.268V67.1053H107.126V88.2618H130.978V95.0945Z" fill="black"/>
<path d="M167.926 81.5115C167.926 83.1579 167.655 84.8592 167.112 86.6154C166.624 88.3716 165.864 89.9082 164.833 91.2254C163.585 92.5974 161.957 93.7499 159.949 94.6829C157.995 95.561 155.39 96 152.134 96C150.723 96 149.447 95.9177 148.308 95.753C147.222 95.5884 144.705 94.6175 143.403 94.1785L144.726 87.5209C146.191 88.0697 147.575 88.5088 148.877 88.8381C150.234 89.1125 151.482 89.2497 152.622 89.2497C152.893 89.2497 153.192 89.2497 153.518 89.2497C153.897 89.2497 154.277 89.2222 154.657 89.1673C155.2 89.0576 155.797 88.8655 156.448 88.5911C157.099 88.2618 157.723 87.7953 158.32 87.1916C158.863 86.5331 159.352 85.7099 159.786 84.722C160.22 83.6793 160.437 82.3072 160.437 80.6059V35H167.926V81.5115Z" fill="black"/>
<path d="M207.643 89.1673C209.813 89.2771 211.686 88.8381 213.26 87.8502C214.888 86.8623 216.163 85.6275 217.086 84.1457C217.954 82.3896 218.605 80.5236 219.039 78.5479C219.474 76.5173 219.691 74.377 219.691 72.1269V35H227.18V72.5385C227.18 75.063 226.936 77.6973 226.447 80.4413C225.959 83.1853 225.009 85.7099 223.598 88.0148C222.133 90.3198 220.098 92.2407 217.493 93.7773C214.942 95.2591 211.659 96 207.643 96C203.627 96 200.316 95.2591 197.711 93.7773C195.16 92.2407 193.152 90.3198 191.687 88.0148C190.276 85.7099 189.326 83.1853 188.838 80.4413C188.404 77.6424 188.187 75.0081 188.187 72.5385V35H195.757V72.1269C195.757 74.377 195.947 76.5173 196.327 78.5479C196.707 80.5236 197.331 82.3896 198.2 84.1457C199.122 85.6275 200.37 86.8349 201.944 87.7679C203.518 88.7009 205.418 89.1673 207.643 89.1673Z" fill="black"/>
<path d="M288.306 35L269.745 95.0945H261.931L243.37 35H250.859L265.919 84.6397L280.654 35H288.306Z" fill="black"/>
<path d="M336 95.0945H304.577V35H335.267V41.8327H312.148V60.2726H334.29V67.1053H312.148V88.2618H336V95.0945Z" fill="black"/>
</svg>
