<svg width="382" height="132" viewBox="0 0 382 132" fill="none" xmlns="http://www.w3.org/2000/svg">
<path d="M202.015 50.9629C204.58 50.9629 206.631 53.0418 206.631 55.6404C206.631 58.239 204.58 60.3179 202.015 60.3179C199.45 60.3179 197.398 58.239 197.398 55.6404C197.398 53.116 199.45 50.9629 202.015 50.9629Z" fill="#545454"/>
<path d="M202.016 64.5499C203.848 64.5499 205.387 66.0348 205.387 67.891C205.387 69.7471 203.921 71.3063 202.089 71.3063C200.258 71.3063 198.719 69.8214 198.719 67.9652C198.719 66.0348 200.184 64.5499 202.016 64.5499Z" fill="#545454"/>
<path d="M186.187 50.9629C188.751 50.9629 190.803 53.0418 190.803 55.6404C190.803 58.239 188.751 60.3179 186.187 60.3179C183.622 60.3179 181.57 58.239 181.57 55.6404C181.57 53.116 183.622 50.9629 186.187 50.9629Z" fill="#545454"/>
<path d="M186.188 64.5499C188.02 64.5499 189.559 66.0348 189.559 67.891C189.559 69.7471 188.093 71.3063 186.261 71.3063C184.429 71.3063 182.891 69.8214 182.891 67.9652C182.891 66.0348 184.356 64.5499 186.188 64.5499Z" fill="#545454"/>
<path d="M208.316 41.3109C208.316 44.8005 205.532 47.6218 202.088 47.6218C198.644 47.6218 195.859 44.8005 195.859 41.3109C195.859 37.8213 198.644 35 202.088 35C205.532 35 208.316 37.8213 208.316 41.3109Z" fill="#545454"/>
<path d="M192.559 41.3109C192.559 44.8005 189.774 47.6218 186.33 47.6218C182.886 47.6218 180.102 44.8005 180.102 41.3109C180.102 37.8213 182.886 35 186.33 35C189.774 35 192.559 37.8213 192.559 41.3109Z" fill="#545454"/>
<path d="M176.809 41.3109C176.809 44.8005 174.024 47.6218 170.58 47.6218C167.136 47.6218 164.352 44.8005 164.352 41.3109C164.352 37.8213 167.136 35 170.58 35C174.024 35 176.809 37.8213 176.809 41.3109Z" fill="#545454"/>
<path d="M170.577 50.9629C173.142 50.9629 175.194 53.0418 175.194 55.6404C175.194 58.239 173.142 60.3179 170.577 60.3179C168.013 60.3179 165.961 58.239 165.961 55.6404C165.961 53.116 168.013 50.9629 170.577 50.9629Z" fill="#545454"/>
<path d="M170.581 64.5499C172.413 64.5499 173.952 66.0348 173.952 67.891C173.952 69.7471 172.487 71.3063 170.655 71.3063C168.823 71.3063 167.284 69.8214 167.284 67.9652C167.211 66.0348 168.676 64.5499 170.581 64.5499Z" fill="#545454"/>
<path d="M172.336 77.2459C172.336 78.2854 171.53 79.1021 170.504 79.1021C169.478 79.1021 168.672 78.2854 168.672 77.2459C168.672 76.2065 169.478 75.3898 170.504 75.3898C171.53 75.3898 172.336 76.2065 172.336 77.2459Z" fill="#545454"/>
<path d="M187.945 77.2459C187.945 78.2854 187.139 79.1021 186.113 79.1021C185.087 79.1021 184.281 78.2854 184.281 77.2459C184.281 76.2065 185.087 75.3898 186.113 75.3898C187.139 75.3898 187.945 76.2065 187.945 77.2459Z" fill="#545454"/>
<path d="M203.844 77.2459C203.844 78.2854 203.037 79.1021 202.012 79.1021C200.986 79.1021 200.18 78.2854 200.18 77.2459C200.18 76.2065 200.986 75.3898 202.012 75.3898C203.037 75.3898 203.844 76.2065 203.844 77.2459Z" fill="#545454"/>
<path d="M115.986 41.5337H111.516V75.4641H115.986V41.5337Z" fill="#545454"/>
<path d="M80.4465 41.5336V58.4617C80.4465 58.4617 92.9035 46.0626 94.9553 44.2065C97.1536 42.1276 100.158 41.1624 103.162 41.5336L89.0931 55.2691L103.749 75.5383H98.1062L86.0155 58.3132L80.4465 63.5847V75.464H75.9766V41.5336H80.4465Z" fill="#545454"/>
<path d="M43.8846 64.5499C43.8846 66.1833 44.3975 67.8167 45.2035 69.2274C46.7424 71.4548 49.3803 72.5685 53.1907 72.5685C54.8028 72.5685 56.3416 72.3457 57.8805 71.826C60.5917 70.8608 61.9107 69.1532 61.9107 66.703C61.9107 64.8469 61.3245 63.5105 60.2253 62.768C58.5399 61.8028 56.708 61.1346 54.8028 60.7634L50.2597 59.7239C47.3286 59.0557 45.2035 58.3133 43.9578 57.4965C41.8328 56.0859 40.6604 53.71 40.8069 51.1114C40.7337 48.29 41.8328 45.5429 43.8846 43.6126C45.9363 41.6822 48.9407 40.6427 52.7511 40.6427C55.902 40.5685 59.0529 41.4594 61.6909 43.2413C63.0831 44.2065 64.1823 45.6172 64.7685 47.2506C65.8676 51.7054 61.1046 51.4084 61.1046 51.4084C60.9581 49.9235 60.4451 48.4385 59.6391 47.2506C58.2468 45.4687 55.902 44.5778 52.6045 44.5778C49.8933 44.5778 47.9881 45.1717 46.8156 46.2854C45.7165 47.3249 45.057 48.7355 45.057 50.2204C44.9837 51.7054 45.7898 53.1903 47.1087 53.8585C47.9881 54.3782 50.0398 54.9722 53.1907 55.7146L57.8805 56.8283C59.7857 57.1996 61.5443 57.942 63.1564 58.9815C65.2814 60.5406 66.3073 62.8423 66.3073 65.8863C66.3073 69.6729 64.9883 72.3457 62.2771 73.9791C59.4193 75.6126 56.1951 76.5035 52.8976 76.4293C48.7208 76.4293 45.4967 75.3898 43.0785 73.2367C41.8328 72.123 40.8802 70.7123 40.3673 69.1532C38.6819 64.1787 43.8846 64.5499 43.8846 64.5499Z" fill="#545454"/>
<path d="M133.06 43.9837C135.185 47.2506 149.181 69.0789 149.181 69.0789H149.254V41.5336H153.504V75.464H148.594L131.081 48.2157H131.008V75.464H126.758V41.5336C126.758 41.5336 131.008 40.7169 133.06 43.9837Z" fill="#545454"/>
<path d="M272.58 41.5337C272.58 41.5337 272.507 45.3202 268.77 45.3202H253.748V56.0859H271.188V59.8724H253.748V71.6033H272.58V75.3898H249.352V41.5337H272.58Z" fill="#545454"/>
<path d="M227.297 45.3202V75.4641H231.767V45.3202H239.901C243.418 45.3202 242.905 41.5337 242.905 41.5337H216.086V45.3202H227.297Z" fill="#545454"/>
<path d="M307.751 49.181C307.751 51.7796 304.82 51.7053 304.82 51.7053C304.454 49.9234 303.648 48.29 302.402 46.9536C301.01 45.6172 298.885 44.5777 295.514 44.5777C292.437 44.5035 289.506 45.7657 287.527 48.1415C285.475 50.4432 284.523 54.0812 284.523 58.9072C284.523 62.8422 285.475 66.1091 287.307 68.5592C289.139 71.0093 291.85 72.2715 295.514 72.2715C304.307 72.2715 304.82 62.9907 304.82 62.9907C304.82 62.9907 308.264 62.6937 308.264 65.4408C308.264 69.7471 304.014 76.355 294.855 76.355C291.264 76.4292 287.82 75.1671 285.109 72.7912C281.592 69.5986 279.906 64.7726 279.906 58.1647C279.906 53.1903 281.225 49.0325 283.863 45.8399C286.721 42.3504 290.605 40.6427 295.588 40.6427C304.161 40.6427 307.751 45.9142 307.751 49.181Z" fill="#545454"/>
<path d="M320.654 41.5337V56.1601H338.314V41.5337H342.784V75.4641H338.314V59.9467H320.654V75.4641H316.258V41.5337H320.654Z" fill="#545454"/>
<path d="M218.723 87.2691H220.408V88.1601H218.723V93.8028C218.723 94.0997 218.723 94.3225 218.869 94.6195C218.943 94.8422 219.162 94.9164 219.529 94.9164C219.895 94.9164 220.115 94.9164 220.408 94.8422V95.7332H219.969H219.529C219.016 95.8074 218.503 95.6589 218.137 95.3619C217.844 94.9164 217.697 94.3967 217.77 93.877V88.2343H216.305V87.3434H217.77V84.7448H218.796L218.723 87.2691Z" fill="#545454"/>
<path d="M226.049 91.7239C226.049 92.0951 226.123 92.4664 226.196 92.9118C226.269 93.2831 226.489 93.6543 226.636 93.9513C226.855 94.2483 227.148 94.5452 227.442 94.6937C227.808 94.9165 228.248 94.9907 228.687 94.9907C229.347 94.9907 229.933 94.8422 230.446 94.3967C230.886 94.0255 231.179 93.4316 231.325 92.9118H232.351C232.205 93.7285 231.765 94.5452 231.179 95.1392C230.519 95.6589 229.64 95.9559 228.761 95.8817C228.174 95.8817 227.588 95.8074 227.075 95.5104C226.636 95.2877 226.196 94.9907 225.903 94.5452C225.61 94.0998 225.39 93.6543 225.243 93.1346C225.097 92.6148 225.023 92.0209 225.023 91.4269C225.023 90.9072 225.097 90.3132 225.243 89.7935C225.39 89.2738 225.61 88.8283 225.903 88.3828C226.196 87.9374 226.636 87.6404 227.075 87.4176C227.588 87.1206 228.174 87.0464 228.761 87.0464C229.933 86.9722 230.959 87.5661 231.618 88.5313C231.911 88.9768 232.131 89.4965 232.278 90.0162C232.424 90.6102 232.498 91.1299 232.424 91.7239H226.049ZM231.399 90.9072C231.399 90.536 231.325 90.1647 231.179 89.7935C231.032 89.4223 230.886 89.1253 230.666 88.8283C230.446 88.5313 230.153 88.3086 229.86 88.1601C229.493 88.0116 229.127 87.9374 228.761 87.9374C228.394 87.9374 228.028 88.0116 227.661 88.1601C227.368 88.3086 227.075 88.5313 226.855 88.8283C226.636 89.1253 226.416 89.4223 226.342 89.7935C226.196 90.1647 226.123 90.536 226.049 90.9072H231.399Z" fill="#545454"/>
<path d="M243.273 89.942C243.199 89.348 242.906 88.8283 242.467 88.4571C242.027 88.0858 241.441 87.8631 240.928 87.9373C240.488 87.9373 240.049 88.0116 239.682 88.2343C239.316 88.4571 239.023 88.6798 238.803 89.051C238.583 89.4223 238.363 89.7935 238.217 90.239C238.07 90.6844 238.07 91.1299 237.997 91.5754C237.997 92.0209 238.07 92.4663 238.217 92.9118C238.363 93.3573 238.51 93.7285 238.803 94.0255C239.023 94.3967 239.316 94.6195 239.682 94.8422C240.049 95.0649 240.488 95.1392 240.928 95.1392C241.221 95.1392 241.514 95.065 241.807 94.9907C242.1 94.8422 242.32 94.6937 242.54 94.471C242.76 94.2482 242.906 94.0255 243.053 93.7285C243.199 93.4315 243.273 93.1346 243.346 92.7633H244.372C244.299 93.6543 243.859 94.5452 243.273 95.1392C242.613 95.7332 241.807 96.0301 241.001 95.9559C240.415 95.9559 239.829 95.8817 239.316 95.5847C238.876 95.3619 238.436 95.065 238.07 94.6195C237.704 94.174 237.484 93.7285 237.337 93.2088C236.971 92.0951 236.971 90.9072 237.337 89.7935C237.484 89.2738 237.704 88.8283 238.07 88.3828C238.436 88.0116 238.803 87.6404 239.316 87.4176C239.829 87.1949 240.415 87.0464 241.001 87.0464C241.807 87.0464 242.613 87.2691 243.273 87.7146C243.932 88.2343 244.299 89.051 244.372 89.8677L243.273 89.942Z" fill="#545454"/>
<path d="M249.425 84.0765H250.451V88.754C250.524 88.5313 250.671 88.2343 250.89 88.0858C251.037 87.8631 251.257 87.7146 251.477 87.5661C251.99 87.2691 252.502 87.1206 253.089 87.1206C253.602 87.1206 254.115 87.1949 254.554 87.3434C254.921 87.4919 255.214 87.7146 255.507 88.0116C255.727 88.3086 255.946 88.6798 256.02 89.051C256.093 89.4965 256.166 89.942 256.166 90.3874V95.8074H255.14V90.6102C255.14 90.239 255.14 89.942 255.067 89.645C254.994 89.348 254.921 89.051 254.701 88.8283C254.554 88.6055 254.334 88.3828 254.041 88.3086C253.748 88.1601 253.382 88.0858 253.015 88.0858C252.649 88.0858 252.283 88.1601 251.916 88.3086C251.623 88.4571 251.33 88.6798 251.11 88.9025C250.89 89.1995 250.671 89.4965 250.597 89.7935C250.451 90.1647 250.451 90.5359 250.377 90.9072V95.7332H249.352L249.425 84.0765Z" fill="#545454"/>
<path d="M261.659 87.2692H262.685V88.6798C262.978 87.9374 263.638 87.3434 264.517 87.1207C264.81 87.0464 265.103 86.9722 265.323 86.9722C265.836 86.9722 266.349 87.0464 266.789 87.1949C267.155 87.3434 267.448 87.5661 267.741 87.8631C267.961 88.1601 268.181 88.5313 268.254 88.9026C268.327 89.348 268.401 89.7935 268.401 90.239V95.6589H267.375V90.4617C267.375 90.0905 267.375 89.7935 267.302 89.4965C267.228 89.1995 267.155 88.9026 266.935 88.6798C266.789 88.4571 266.569 88.2343 266.276 88.1601C265.983 88.0116 265.616 87.9374 265.25 87.9374C264.883 87.9374 264.517 88.0116 264.151 88.1601C263.858 88.3086 263.564 88.5313 263.345 88.7541C263.125 89.0511 262.905 89.348 262.832 89.645C262.685 90.0163 262.612 90.3875 262.612 90.7587V95.5847H261.586L261.659 87.2692Z" fill="#545454"/>
<path d="M277.415 87.0464C278.001 87.0464 278.587 87.1206 279.1 87.4176C279.54 87.6404 279.98 87.9373 280.346 88.3828C280.712 88.8283 280.932 89.2738 281.079 89.7935C281.445 90.9072 281.445 92.0951 281.079 93.2088C280.932 93.7285 280.639 94.174 280.346 94.6195C279.98 94.9907 279.613 95.3619 279.1 95.5847C278.001 96.0301 276.829 96.0301 275.803 95.5847C275.29 95.3619 274.924 95.065 274.557 94.6195C274.264 94.174 273.971 93.7285 273.824 93.2088C273.678 92.6891 273.531 92.0951 273.531 91.5011C273.531 90.9072 273.605 90.3875 273.824 89.7935C273.971 89.2738 274.191 88.8283 274.557 88.3828C274.924 88.0116 275.29 87.6404 275.803 87.4176C276.242 87.1949 276.829 87.0464 277.415 87.0464ZM277.415 87.9373C276.975 87.9373 276.536 88.0116 276.169 88.2343C275.803 88.4571 275.51 88.6798 275.217 89.051C274.997 89.4223 274.777 89.7935 274.704 90.239C274.557 90.6844 274.484 91.1299 274.484 91.5754C274.484 92.0209 274.557 92.4663 274.704 92.9118C274.85 93.3573 274.997 93.7285 275.217 94.0255C275.436 94.3225 275.73 94.6195 276.096 94.8422C276.902 95.2877 277.855 95.2877 278.661 94.8422C279.027 94.6195 279.32 94.3967 279.54 94.0255C279.76 93.6543 279.98 93.283 280.126 92.9118C280.273 92.4663 280.346 92.0209 280.346 91.5754C280.346 91.1299 280.273 90.6844 280.126 90.239C279.98 89.7935 279.833 89.4223 279.54 89.051C279.32 88.6798 279.027 88.4571 278.661 88.2343C278.294 88.0116 277.855 87.9373 277.415 87.9373Z" fill="#545454"/>
<path d="M286.5 84.0765H287.526V95.6589H286.5V84.0765Z" fill="#545454"/>
<path d="M296.54 87.0464C297.126 87.0464 297.712 87.1206 298.225 87.4176C298.665 87.6404 299.105 87.9373 299.471 88.3828C299.837 88.8283 300.057 89.2738 300.204 89.7935C300.35 90.3132 300.497 90.9072 300.497 91.5011C300.497 92.0951 300.424 92.6891 300.204 93.2088C300.057 93.7285 299.837 94.174 299.471 94.6195C299.105 94.9907 298.738 95.3619 298.225 95.5847C297.712 95.8074 297.126 95.9559 296.54 95.9559C295.954 95.9559 295.367 95.8817 294.855 95.5847C294.415 95.3619 293.975 95.065 293.609 94.6195C293.316 94.174 293.023 93.7285 292.876 93.2088C292.73 92.6891 292.656 92.0951 292.656 91.5011C292.656 90.9072 292.73 90.3875 292.876 89.7935C293.023 89.2738 293.242 88.8283 293.609 88.3828C293.975 88.0116 294.342 87.6404 294.855 87.4176C295.441 87.1949 295.954 87.0464 296.54 87.0464ZM296.54 87.9373C296.1 87.9373 295.661 88.0116 295.294 88.2343C294.928 88.4571 294.635 88.6798 294.415 89.051C294.195 89.4223 293.975 89.7935 293.902 90.239C293.755 90.6844 293.682 91.1299 293.682 91.5754C293.682 92.0209 293.755 92.4663 293.902 92.9118C294.049 93.3573 294.195 93.7285 294.415 94.0255C294.635 94.3225 295.001 94.6195 295.294 94.8422C296.1 95.2877 297.053 95.2877 297.859 94.8422C298.225 94.6195 298.518 94.3967 298.738 94.0255C298.958 93.6543 299.178 93.283 299.324 92.9118C299.471 92.4663 299.471 92.0209 299.471 91.5754C299.471 91.1299 299.398 90.6844 299.324 90.239C299.178 89.7935 299.031 89.4223 298.738 89.051C298.518 88.754 298.225 88.4571 297.859 88.2343C297.419 88.0116 296.98 87.9373 296.54 87.9373Z" fill="#545454"/>
<path d="M312.588 94.9908C312.588 95.5847 312.515 96.1045 312.369 96.6984C312.222 97.1439 312.002 97.5894 311.709 97.9606C311.416 98.3318 311.05 98.5546 310.61 98.7773C310.097 99 309.511 99.0743 308.925 99.0743C308.485 99.0743 308.119 99 307.679 98.9258C307.313 98.8516 306.946 98.7031 306.58 98.4803C306.287 98.2576 305.994 98.0349 305.774 97.6636C305.554 97.2924 305.407 96.9212 305.407 96.5499H306.433C306.506 96.8469 306.58 97.0697 306.726 97.3666C306.873 97.5894 307.093 97.7379 307.313 97.8864C307.532 98.0348 307.752 98.1091 308.045 98.1833C308.338 98.2576 308.558 98.2576 308.851 98.2576C309.584 98.3318 310.39 98.0349 310.903 97.4409C311.343 96.7727 311.563 95.956 311.563 95.065V93.9513C311.343 94.471 310.976 94.9165 310.537 95.2135C310.097 95.5105 309.511 95.7332 308.925 95.659C308.338 95.659 307.752 95.5847 307.239 95.362C306.8 95.1393 306.36 94.8423 306.067 94.471C305.774 94.0998 305.554 93.5801 305.407 93.1346C305.261 92.6149 305.188 92.0209 305.188 91.427C305.188 90.9072 305.261 90.3133 305.407 89.7936C305.554 89.2738 305.847 88.8284 306.14 88.4571C306.433 88.0859 306.873 87.7889 307.313 87.5662C307.825 87.3434 308.338 87.1949 308.925 87.2692C309.511 87.2692 310.097 87.4177 310.537 87.7889C310.976 88.0859 311.343 88.4571 311.563 88.9768V87.5662H312.588V94.9908ZM308.925 94.6938C309.364 94.6938 309.731 94.6195 310.097 94.3968C310.39 94.2483 310.683 93.9513 310.903 93.6543C311.123 93.3574 311.269 92.9861 311.416 92.6149C311.563 92.2437 311.563 91.7982 311.563 91.3527C311.563 90.9072 311.489 90.536 311.416 90.0905C311.343 89.7193 311.196 89.3481 310.976 88.9768C310.757 88.6799 310.463 88.3829 310.17 88.1601C309.804 87.9374 309.364 87.8632 308.925 87.8632C308.485 87.8632 308.045 87.9374 307.679 88.1601C307.313 88.3829 307.019 88.6056 306.8 88.9768C306.58 89.3481 306.433 89.7193 306.287 90.0905C306.213 90.536 306.14 90.9072 306.14 91.3527C306.14 91.7982 306.213 92.1694 306.287 92.6149C306.36 92.9861 306.58 93.3574 306.8 93.6543C307.019 93.9513 307.313 94.2483 307.679 94.3968C308.119 94.6195 308.485 94.6938 308.925 94.6938Z" fill="#545454"/>
<path d="M318.23 84.0765H319.182V85.71H318.156L318.23 84.0765ZM318.23 87.2691H319.182V95.6589H318.156L318.23 87.2691Z" fill="#545454"/>
<path d="M325.412 91.7239C325.412 92.0951 325.485 92.5406 325.558 92.9118C325.631 93.283 325.851 93.6543 325.998 93.9513C326.218 94.2482 326.511 94.5452 326.804 94.6937C327.757 95.2134 328.929 95.0649 329.735 94.3967C330.175 94.0255 330.468 93.4315 330.614 92.9118H331.64C331.494 93.7285 331.054 94.5452 330.468 95.1392C329.808 95.6589 328.929 95.9559 328.05 95.8817C327.463 95.8817 326.877 95.8074 326.364 95.5104C325.925 95.2877 325.485 94.9907 325.192 94.5452C324.899 94.0998 324.679 93.6543 324.532 93.1346C324.386 92.6148 324.312 92.0209 324.312 91.4269C324.312 90.9072 324.386 90.3132 324.532 89.7935C324.679 89.2738 324.899 88.8283 325.192 88.3828C325.485 87.9373 325.851 87.6404 326.364 87.4176C326.877 87.1206 327.463 87.0464 328.05 87.0464C328.636 87.0464 329.222 87.1949 329.735 87.4176C330.175 87.6404 330.614 88.0116 330.834 88.4571C331.127 88.9025 331.347 89.4223 331.494 89.942C331.64 90.5359 331.64 91.0557 331.64 91.6496L325.412 91.7239ZM330.761 90.9072C330.761 90.5359 330.688 90.1647 330.541 89.7935C330.394 89.4223 330.248 89.1253 330.028 88.8283C329.808 88.5313 329.515 88.3086 329.222 88.1601C328.856 88.0116 328.489 87.8631 328.123 87.9373C327.757 87.9373 327.39 88.0116 327.024 88.1601C326.731 88.3086 326.438 88.5313 326.218 88.8283C325.998 89.1253 325.778 89.4223 325.705 89.7935C325.558 90.1647 325.485 90.5359 325.412 90.9072H330.761Z" fill="#545454"/>
<path d="M341.682 89.7193C341.682 89.4223 341.609 89.1253 341.462 88.9026C341.316 88.6798 341.169 88.4571 341.023 88.3086C340.803 88.1601 340.583 88.0859 340.363 88.0116C340.07 87.9374 339.85 87.9374 339.557 87.9374C339.337 87.9374 339.117 87.9374 338.898 88.0116C338.678 88.0859 338.458 88.1601 338.238 88.2343C338.018 88.3086 337.872 88.5313 337.799 88.6798C337.652 88.9026 337.579 89.1253 337.652 89.348C337.652 89.5708 337.725 89.7935 337.799 89.942C337.945 90.0905 338.092 90.239 338.238 90.3132C338.385 90.3875 338.605 90.536 338.824 90.6102C339.044 90.6845 339.191 90.7587 339.411 90.7587L340.73 91.0557C341.023 91.1299 341.316 91.2042 341.609 91.2784C341.902 91.3527 342.122 91.5012 342.342 91.7239C342.562 91.9466 342.708 92.1694 342.855 92.3921C343.001 92.6891 343.074 92.9861 343.074 93.3573C343.074 93.8028 343.001 94.174 342.781 94.5453C342.562 94.8422 342.342 95.1392 341.975 95.362C341.682 95.5847 341.316 95.7332 340.876 95.8074C340.51 95.8817 340.143 95.9559 339.777 95.9559C338.971 96.0302 338.092 95.7332 337.432 95.2877C336.773 94.6937 336.406 93.9513 336.406 93.0603H337.432C337.432 93.6543 337.725 94.2483 338.165 94.6195C338.678 94.9907 339.264 95.1392 339.85 95.1392C340.07 95.1392 340.363 95.1392 340.583 95.065C340.876 94.9907 341.096 94.9165 341.316 94.768C341.536 94.6195 341.682 94.471 341.902 94.2483C342.195 93.877 342.195 93.3573 341.975 92.9118C341.902 92.7634 341.755 92.6149 341.536 92.4664C341.389 92.3179 341.169 92.2436 340.949 92.1694C340.73 92.0951 340.51 92.0209 340.29 91.9466L338.971 91.6497C338.678 91.5754 338.385 91.5012 338.092 91.3527C337.799 91.2784 337.579 91.1299 337.359 90.9072C337.139 90.7587 336.992 90.536 336.846 90.3132C336.699 90.0163 336.626 89.7193 336.626 89.4223C336.626 89.0511 336.699 88.6798 336.919 88.3086C337.139 88.0116 337.359 87.7889 337.652 87.5661C337.945 87.3434 338.311 87.2691 338.678 87.1207C339.044 87.0464 339.411 86.9722 339.777 86.9722C340.143 86.9722 340.583 87.0464 340.949 87.1207C341.316 87.1949 341.609 87.4176 341.902 87.6404C342.195 87.8631 342.415 88.1601 342.562 88.4571C342.708 88.8283 342.855 89.1995 342.855 89.645L341.682 89.7193Z" fill="#545454"/>
<path d="M43.7336 89.8677C43.7336 89.051 44.1 88.2343 44.7594 87.7146C45.4189 87.2691 46.2983 87.0464 47.1043 87.0464C47.4707 87.0464 47.8371 87.0464 48.2035 87.1206C48.5698 87.1949 48.863 87.3434 49.1561 87.4919C49.4492 87.7146 49.7423 88.0116 49.8888 88.3086C50.1087 88.754 50.1819 89.1995 50.1819 89.645V94.0998C50.1819 94.5452 50.4018 94.6937 50.7682 94.6937C50.9147 94.6937 50.988 94.6937 51.0613 94.6195V95.5104L50.7682 95.5847H50.4018C50.1819 95.5847 49.9621 95.5847 49.7423 95.4362C49.5957 95.3619 49.4492 95.2877 49.3759 95.1392C49.3026 94.9907 49.2293 94.8422 49.2293 94.6937C49.2293 94.471 49.1561 94.3225 49.1561 94.0998C49.0095 94.3967 48.7897 94.6195 48.5698 94.8422C48.4233 95.0649 48.2035 95.2134 47.9104 95.3619C47.6905 95.5104 47.3974 95.6589 47.1043 95.6589C46.8845 95.8817 46.5181 95.8817 46.1517 95.8817C45.7853 95.8817 45.4189 95.8074 45.0526 95.7332C44.7594 95.6589 44.4663 95.5104 44.1732 95.2877C43.9534 95.0649 43.7336 94.8422 43.587 94.5452C43.4405 94.174 43.3672 93.8028 43.3672 93.4315C43.3672 92.9118 43.4405 92.4663 43.7336 92.0951C44.0267 91.7239 44.3198 91.5011 44.7594 91.3527C45.1991 91.2042 45.712 91.0557 46.1517 90.9814C46.6646 90.9072 47.1776 90.8329 47.7638 90.7587C47.9836 90.7587 48.1302 90.6844 48.35 90.6844C48.4966 90.6844 48.6431 90.6102 48.7897 90.5359C48.9362 90.4617 49.0095 90.3132 49.0095 90.239C49.0828 90.0905 49.0828 89.8677 49.0828 89.7192C49.0828 89.4223 49.0095 89.1253 48.9362 88.8283C48.863 88.6056 48.6431 88.4571 48.4966 88.3086C48.2767 88.1601 48.0569 88.0858 47.8371 88.0858C47.544 88.0116 47.2509 88.0116 47.031 88.0116C46.4448 88.0116 45.9319 88.1601 45.4922 88.4571C45.0526 88.8283 44.8327 89.348 44.8327 89.942L43.7336 89.8677ZM49.0828 91.0557C49.0095 91.2042 48.863 91.2784 48.7164 91.3527C48.5698 91.4269 48.4233 91.4269 48.2767 91.4269C47.8371 91.5011 47.3974 91.5754 46.9578 91.6496C46.5181 91.7239 46.1517 91.7981 45.712 91.9466C45.3457 92.0209 45.0526 92.2436 44.7594 92.4663C44.5396 92.6891 44.3931 93.0603 44.3931 93.3573C44.3931 93.58 44.4663 93.8028 44.5396 94.0255C44.6129 94.2482 44.7594 94.3967 44.9793 94.5452C45.1258 94.6937 45.3457 94.8422 45.5655 94.8422C45.7853 94.9165 46.0052 94.9907 46.225 94.9907C46.5914 94.9907 46.9578 94.9165 47.3241 94.8422C47.6905 94.768 47.9836 94.5452 48.2767 94.3225C48.5698 94.0998 48.7164 93.8028 48.863 93.5058C49.0095 93.1346 49.0828 92.7633 49.0828 92.3921V91.0557Z" fill="#545454"/>
<path d="M65.6442 95.6589H64.6916V94.0997C64.6184 94.3967 64.3985 94.6195 64.1787 94.8422C63.9589 95.0649 63.739 95.2877 63.4459 95.4362C63.1528 95.5847 62.8597 95.7332 62.5666 95.8074C62.3468 95.8816 61.9804 95.8816 61.6873 95.8816C61.1011 95.8816 60.5881 95.8074 60.0752 95.5104C59.6355 95.2877 59.1959 94.9164 58.9028 94.5452C58.6097 94.0997 58.3898 93.6543 58.2433 93.1345C57.9502 92.0209 57.9502 90.8329 58.2433 89.7192C58.3898 89.1995 58.6097 88.754 58.9028 88.3086C59.1959 87.9373 59.6355 87.5661 60.0752 87.3434C60.5881 87.1206 61.1743 86.9721 61.6873 86.9721C61.9804 86.9721 62.2735 86.9721 62.5666 87.1206C62.8597 87.1949 63.1528 87.3434 63.3727 87.4919C63.5925 87.6403 63.8856 87.8631 64.0321 88.0858C64.252 88.3086 64.3985 88.6055 64.4718 88.9025V84.0765H65.6442V95.6589ZM59.0493 91.5011C59.0493 91.9466 59.1226 92.3921 59.1959 92.7633C59.2691 93.1345 59.4157 93.58 59.6355 93.9513C59.8554 94.2482 60.1485 94.5452 60.4416 94.768C60.808 94.9907 61.2476 95.0649 61.6873 95.0649C62.5666 95.0649 63.4459 94.6937 63.9589 93.9513C64.1787 93.58 64.3253 93.2088 64.4718 92.7633C64.6916 91.9466 64.6916 91.0557 64.4718 90.1647C64.3985 89.7192 64.1787 89.348 63.9589 88.9768C63.4459 88.2343 62.5666 87.7888 61.6873 87.8631C61.2476 87.8631 60.808 87.9373 60.4416 88.1601C60.0752 88.3828 59.7821 88.6798 59.6355 88.9768C59.4157 89.348 59.2691 89.7192 59.1959 90.1647C59.0493 90.6102 59.0493 91.0557 59.0493 91.5011Z" fill="#545454"/>
<path d="M72.8281 87.2692H73.9273L76.492 94.6195L79.0567 87.2692H80.1558L77.0782 95.659H75.979L72.8281 87.2692Z" fill="#545454"/>
<path d="M87.2619 89.8677C87.2619 89.051 87.6282 88.2343 88.2877 87.7146C88.9472 87.2691 89.8265 87.0464 90.6326 87.0464C90.999 87.0464 91.3654 87.0464 91.7317 87.1206C92.0981 87.1949 92.3912 87.3434 92.6844 87.4919C92.9775 87.7146 93.2706 88.0116 93.4171 88.3086C93.637 88.754 93.7102 89.1995 93.7102 89.645V94.0998C93.637 94.3967 93.8568 94.6937 94.1499 94.6937C94.2232 94.6937 94.2232 94.6937 94.2964 94.6937C94.3697 94.6937 94.5163 94.6937 94.5895 94.6195V95.5104L94.2964 95.5847H93.9301C93.7102 95.5847 93.4904 95.5847 93.3438 95.4362C93.1973 95.3619 93.0507 95.2877 92.9775 95.1392C92.9042 94.9907 92.8309 94.8422 92.8309 94.6937C92.8309 94.471 92.7576 94.3225 92.7576 94.0998C92.6111 94.3967 92.3912 94.6195 92.1714 94.8422C92.0249 95.0649 91.805 95.2134 91.5852 95.3619C91.3654 95.5104 91.0723 95.5847 90.7792 95.6589C90.4128 95.7332 90.1197 95.8074 89.7533 95.8074C89.3869 95.8074 89.0205 95.7332 88.6541 95.6589C88.361 95.5847 88.0679 95.4362 87.7748 95.2134C87.555 94.9907 87.3351 94.768 87.1886 94.471C87.042 94.0998 86.9688 93.7285 86.9688 93.3573C86.9688 92.8376 87.042 92.3921 87.3351 92.0209C87.6282 91.6496 87.9214 91.4269 88.361 91.2784C88.8007 91.0557 89.3136 90.9814 89.8266 90.9072C90.3395 90.8329 90.8524 90.7587 91.4386 90.6844C91.6585 90.6844 91.805 90.6102 92.0249 90.6102C92.1714 90.6102 92.318 90.5359 92.4645 90.4617C92.6111 90.3875 92.6844 90.239 92.6844 90.1647C92.7576 90.0162 92.7576 89.7935 92.7576 89.645C92.7576 89.348 92.6844 89.051 92.6111 88.754C92.5378 88.5313 92.318 88.3828 92.1714 88.2343C91.9516 88.0858 91.7318 88.0116 91.5119 88.0116C91.2188 87.9373 90.9257 87.9373 90.6326 87.9373C90.0464 87.9373 89.5334 88.0858 89.0938 88.3828C88.6541 88.754 88.4343 89.2738 88.4343 89.8677H87.2619ZM92.6111 91.0557C92.5378 91.2042 92.3912 91.2784 92.2447 91.3527C92.0981 91.4269 91.9516 91.4269 91.805 91.4269C91.3654 91.5011 90.9257 91.5754 90.486 91.6496C90.0464 91.7239 89.68 91.7981 89.2403 91.9466C88.8739 92.0209 88.5808 92.2436 88.2877 92.4663C88.0679 92.6891 87.9214 93.0603 87.9214 93.4315C87.9214 93.6543 87.9946 93.877 88.0679 94.0998C88.1412 94.3225 88.2877 94.471 88.5076 94.6195C88.6541 94.768 88.874 94.9165 89.0938 94.9165C89.3136 94.9907 89.5334 95.065 89.7533 95.065C90.1197 95.065 90.486 94.9907 90.8524 94.9165C91.2188 94.768 91.5119 94.6195 91.805 94.3967C92.0981 94.174 92.2447 93.877 92.3912 93.58C92.5378 93.2088 92.6111 92.8376 92.6111 92.4663V91.0557Z" fill="#545454"/>
<path d="M101.844 87.2691H102.87V88.6798C102.943 88.4571 103.089 88.1601 103.309 88.0116C103.456 87.7888 103.676 87.6404 103.896 87.4919C104.408 87.1949 104.921 87.0464 105.508 87.0464C106.021 87.0464 106.533 87.1206 106.973 87.2691C107.34 87.4176 107.633 87.6404 107.926 87.9373C108.146 88.2343 108.365 88.6056 108.439 88.9768C108.512 89.4223 108.585 89.8677 108.585 90.3132V95.7332H107.633V90.5359C107.633 90.1647 107.633 89.8677 107.559 89.5708C107.486 89.2738 107.413 88.9768 107.193 88.754C107.046 88.5313 106.827 88.3086 106.533 88.2343C106.24 88.0858 105.874 88.0116 105.508 88.0116C105.141 88.0116 104.775 88.0858 104.408 88.2343C104.115 88.3828 103.822 88.6056 103.602 88.8283C103.383 89.1253 103.236 89.4223 103.089 89.7192C102.943 90.0905 102.87 90.4617 102.87 90.8329V95.6589H101.844V87.2691Z" fill="#545454"/>
<path d="M122.514 89.942C122.44 89.348 122.147 88.8283 121.708 88.4571C121.268 88.0858 120.755 87.8631 120.169 87.9373C119.729 87.9373 119.289 88.0116 118.923 88.2343C118.557 88.4571 118.264 88.6798 118.044 89.051C117.824 89.4223 117.604 89.7935 117.531 90.239C117.384 90.6844 117.311 91.1299 117.311 91.5754C117.311 92.0209 117.384 92.4663 117.531 92.9118C117.677 93.3573 117.824 93.7285 118.044 94.0255C118.264 94.3225 118.557 94.6195 118.923 94.8422C119.289 95.0649 119.729 95.1392 120.169 95.1392C120.462 95.1392 120.755 95.065 121.048 94.9907C121.341 94.8422 121.561 94.6937 121.781 94.471C122.001 94.2482 122.147 94.0255 122.294 93.7285C122.44 93.4315 122.514 93.1346 122.514 92.7633H123.54C123.466 93.6543 123.1 94.471 122.44 95.1392C121.781 95.7332 120.975 96.0301 120.169 95.9559C119.583 95.9559 118.996 95.8817 118.483 95.5847C118.044 95.3619 117.604 95.065 117.238 94.6195C116.871 94.174 116.652 93.7285 116.505 93.2088C116.358 92.6891 116.212 92.0951 116.285 91.5011C116.285 90.9072 116.358 90.3875 116.505 89.7935C116.652 89.2738 116.871 88.8283 117.238 88.3828C117.604 88.0116 117.97 87.6404 118.483 87.4176C118.996 87.1949 119.583 87.0464 120.169 87.0464C120.975 87.0464 121.781 87.2691 122.44 87.7146C123.1 88.2343 123.466 89.051 123.54 89.942H122.514Z" fill="#545454"/>
<path d="M131.817 91.7239C131.817 92.0951 131.89 92.4664 131.963 92.9118C132.037 93.2831 132.256 93.6543 132.476 93.9513C132.696 94.2483 132.989 94.5452 133.356 94.6937C133.722 94.9165 134.162 94.9907 134.601 94.9907C135.261 94.9907 135.847 94.8422 136.36 94.3967C136.8 94.0255 137.093 93.4316 137.239 92.9118H138.265C138.119 93.7285 137.679 94.5452 137.093 95.1392C136.433 95.6589 135.554 95.9559 134.675 95.8817C134.088 95.8817 133.502 95.8074 132.989 95.5104C132.55 95.2877 132.11 94.9907 131.817 94.5452C131.524 94.0998 131.304 93.6543 131.157 93.1346C131.011 92.6148 130.938 92.0209 130.938 91.4269C130.938 90.9072 131.011 90.3132 131.157 89.7935C131.304 89.2738 131.524 88.8283 131.817 88.3828C132.11 87.9374 132.476 87.6404 132.989 87.4176C133.502 87.1206 134.088 87.0464 134.675 87.0464C135.847 86.9722 136.873 87.5661 137.532 88.5313C137.826 88.9768 138.045 89.4965 138.192 90.0162C138.338 90.6102 138.412 91.1299 138.338 91.7239H131.817ZM137.166 90.9072C137.166 90.536 137.093 90.1647 136.946 89.7935C136.8 89.4223 136.653 89.1253 136.433 88.8283C136.213 88.5313 135.92 88.3086 135.627 88.1601C135.261 88.0116 134.894 87.9374 134.528 87.9374C134.162 87.9374 133.795 88.0116 133.429 88.1601C133.136 88.3086 132.843 88.5313 132.623 88.8283C132.403 89.1253 132.183 89.4223 132.11 89.7935C131.963 90.1647 131.89 90.536 131.817 90.9072H137.166Z" fill="#545454"/>
<path d="M152.996 95.6589H152.043V94.0997C151.97 94.3967 151.75 94.6194 151.604 94.8422C151.384 95.0649 151.164 95.2877 150.871 95.4361C150.358 95.7331 149.772 95.9559 149.112 95.9559C148.526 95.9559 148.013 95.8816 147.427 95.5846C146.987 95.3619 146.547 94.9907 146.254 94.6194C145.961 94.174 145.741 93.7285 145.595 93.2088C145.302 92.0951 145.302 90.9071 145.595 89.7935C145.741 89.2737 145.961 88.8283 146.254 88.3828C146.547 88.0115 146.987 87.6403 147.427 87.4176C147.94 87.1948 148.526 87.0463 149.112 87.0463C149.405 87.0463 149.698 87.0464 149.991 87.1948C150.285 87.2691 150.578 87.4176 150.797 87.5661C151.017 87.7146 151.31 87.9373 151.457 88.16C151.677 88.3828 151.823 88.6798 151.897 88.9767V84.1508H152.923L152.996 95.6589ZM146.401 91.5011C146.401 91.9466 146.474 92.3921 146.547 92.7633C146.621 93.2088 146.841 93.58 147.06 93.9512C147.28 94.2482 147.573 94.5452 147.866 94.7679C148.233 94.9907 148.672 95.0649 149.112 95.0649C149.552 95.0649 150.065 94.9907 150.431 94.7679C150.797 94.5452 151.091 94.3225 151.384 93.9512C151.604 93.58 151.75 93.2088 151.897 92.7633C152.116 91.9466 152.116 91.0556 151.897 90.1647C151.823 89.7192 151.604 89.348 151.384 88.9767C150.871 88.2343 150.065 87.7888 149.112 87.8631C148.672 87.8631 148.233 87.9373 147.866 88.16C147.5 88.3828 147.207 88.6798 147.06 88.9767C146.841 89.348 146.694 89.7192 146.547 90.1647C146.474 90.6102 146.401 91.0556 146.401 91.5011Z" fill="#545454"/>
<path d="M170.432 89.7193C170.432 89.4223 170.359 89.1995 170.212 88.9026C170.066 88.6798 169.919 88.4571 169.773 88.3086C169.553 88.1601 169.333 88.0116 169.113 88.0116C168.82 87.9374 168.6 87.9374 168.307 87.9374C168.087 87.9374 167.867 87.9374 167.648 88.0116C167.428 88.0859 167.208 88.1601 166.988 88.2343C166.768 88.3086 166.622 88.5313 166.549 88.6798C166.402 88.9026 166.329 89.1253 166.402 89.348C166.402 89.5708 166.475 89.7935 166.549 89.942C166.695 90.0905 166.842 90.239 166.988 90.3132C167.135 90.3875 167.355 90.536 167.574 90.6102C167.794 90.6845 167.941 90.7587 168.161 90.7587L169.48 91.0557C169.773 91.1299 170.066 91.2042 170.359 91.2784C170.652 91.3527 170.872 91.5754 171.092 91.7239C171.312 91.9466 171.458 92.1694 171.605 92.3921C171.751 92.6891 171.824 92.9861 171.824 93.3573C171.824 93.8028 171.751 94.174 171.531 94.5453C171.312 94.8422 171.092 95.1392 170.725 95.362C170.432 95.5847 170.066 95.7332 169.699 95.8074C169.333 95.8817 168.893 95.9559 168.527 95.9559C167.721 96.0302 166.842 95.7332 166.182 95.2877C165.523 94.6937 165.156 93.9513 165.156 93.0603H166.182C166.182 93.6543 166.475 94.2483 166.915 94.6195C167.428 94.9907 168.014 95.1392 168.6 95.1392C168.82 95.1392 169.113 95.1392 169.333 95.065C169.626 94.9907 169.846 94.9165 170.066 94.768C170.286 94.6195 170.432 94.471 170.652 94.2483C170.945 93.877 170.945 93.3573 170.725 92.9118C170.652 92.7634 170.505 92.6149 170.286 92.4664C170.066 92.3179 169.919 92.2436 169.699 92.1694C169.48 92.0951 169.26 92.0209 169.04 91.9466L167.721 91.6497C167.428 91.5754 167.135 91.5012 166.842 91.3527C166.549 91.2784 166.329 91.1299 166.109 90.9072C165.889 90.7587 165.742 90.536 165.596 90.3132C165.449 90.0163 165.376 89.7193 165.449 89.4223C165.449 89.0511 165.523 88.6798 165.742 88.3086C165.962 88.0116 166.182 87.7889 166.475 87.5661C166.768 87.3434 167.135 87.2691 167.501 87.1207C167.867 87.0464 168.234 86.9722 168.6 86.9722C168.967 86.9722 169.406 87.0464 169.773 87.1207C170.139 87.1949 170.432 87.4176 170.725 87.6404C171.018 87.8631 171.238 88.1601 171.385 88.4571C171.531 88.8283 171.678 89.1995 171.678 89.645L170.432 89.7193Z" fill="#545454"/>
<path d="M178.422 84.0765H179.448V91.3526L183.991 87.2691H185.31L181.793 90.3874L185.53 95.6589H184.357L181.133 91.1299L179.521 92.4663V95.6589H178.495V84.0765H178.422Z" fill="#545454"/>
<path d="M191.68 84.0765H192.706V85.71H191.68V84.0765ZM191.68 87.2691H192.706V95.6589H191.68V87.2691Z" fill="#545454"/>
<path d="M199.891 87.2691H200.917V88.6798C200.99 88.4571 201.136 88.1601 201.356 88.0116C201.503 87.7888 201.723 87.6404 201.942 87.4919C202.455 87.1949 202.968 87.0464 203.554 87.0464C204.067 87.0464 204.58 87.1206 205.02 87.2691C205.386 87.4176 205.68 87.6404 205.973 87.9373C206.192 88.2343 206.412 88.6056 206.486 88.9768C206.559 89.4223 206.632 89.8677 206.632 90.3132V95.7332H205.606V90.5359C205.606 90.1647 205.606 89.8677 205.533 89.5708C205.46 89.2738 205.386 88.9768 205.24 88.754C205.093 88.5313 204.873 88.3086 204.58 88.2343C204.287 88.0858 203.921 88.0116 203.554 88.0116C203.188 88.0116 202.822 88.0858 202.455 88.2343C202.162 88.3828 201.869 88.6056 201.649 88.8283C201.429 89.1253 201.283 89.4223 201.136 89.7192C200.99 90.0905 200.917 90.4617 200.917 90.8329V95.6589H199.891V87.2691Z" fill="#545454"/>
</svg>
