<svg width="76" height="20" viewBox="0 0 76 20" fill="none" xmlns="http://www.w3.org/2000/svg">
<g clip-path="url(#clip0_4862_379869)">
<path d="M19.9755 7.37988H27.6707V8.7645H24.6449V16.5481H22.9811V8.7645H19.9688V7.37988H19.9755ZM27.342 9.90972H28.7643V11.1908H28.7911C28.8381 11.0096 28.9253 10.835 29.0528 10.6667C29.1803 10.4985 29.3346 10.3367 29.5157 10.2009C29.6969 10.0585 29.8981 9.94854 30.1195 9.85796C30.3409 9.77384 30.569 9.72855 30.7971 9.72855C30.9716 9.72855 31.099 9.73502 31.1661 9.74149C31.2332 9.74796 31.3003 9.7609 31.3741 9.76737V11.1779C31.2668 11.1585 31.1594 11.1455 31.0454 11.1326C30.9313 11.1196 30.824 11.1132 30.7166 11.1132C30.4617 11.1132 30.2202 11.1649 29.9921 11.262C29.7639 11.359 29.5694 11.5078 29.4017 11.6955C29.2339 11.8896 29.0998 12.1225 28.9991 12.4072C28.8985 12.6919 28.8515 13.0154 28.8515 13.3842V16.5416H27.3353V9.90972H27.342ZM38.3448 16.5481H36.8554V15.6229H36.8286C36.6407 15.9593 36.3656 16.2246 35.9966 16.4252C35.6276 16.6257 35.2519 16.7293 34.8695 16.7293C33.9638 16.7293 33.3063 16.5158 32.9038 16.0823C32.5012 15.6488 32.3 14.9953 32.3 14.1218V9.90972H33.8162V13.9795C33.8162 14.5618 33.9303 14.9759 34.1651 15.2153C34.3932 15.4546 34.7219 15.5776 35.1379 15.5776C35.4599 15.5776 35.7216 15.5323 35.9363 15.4352C36.151 15.3382 36.3254 15.2153 36.4529 15.0535C36.587 14.8982 36.681 14.7041 36.7413 14.4841C36.8017 14.2641 36.8286 14.0247 36.8286 13.7659V9.91619H38.3448V16.5481ZM40.9278 14.4194C40.9748 14.8465 41.1425 15.1441 41.431 15.3188C41.7262 15.487 42.075 15.5776 42.4843 15.5776C42.6252 15.5776 42.7862 15.5646 42.9673 15.5452C43.1485 15.5258 43.3229 15.4805 43.4772 15.4223C43.6382 15.3641 43.7657 15.2735 43.8731 15.157C43.9737 15.0406 44.0207 14.8917 44.0139 14.7041C44.0072 14.5165 43.9334 14.3612 43.7993 14.2447C43.6651 14.1218 43.4974 14.0312 43.2894 13.9536C43.0814 13.8824 42.8466 13.8177 42.5782 13.7659C42.3098 13.7142 42.0415 13.6559 41.7664 13.5977C41.4846 13.5395 41.2096 13.4618 40.9479 13.3777C40.6863 13.2936 40.4514 13.1772 40.2435 13.0283C40.0355 12.886 39.8678 12.6984 39.747 12.4719C39.6195 12.2454 39.5591 11.9672 39.5591 11.6308C39.5591 11.2685 39.6531 10.9708 39.8342 10.725C40.0154 10.4791 40.2502 10.285 40.5252 10.1362C40.807 9.98736 41.1156 9.88384 41.4578 9.81914C41.8 9.7609 42.1287 9.72855 42.4373 9.72855C42.7929 9.72855 43.1351 9.76737 43.4571 9.83855C43.7791 9.90972 44.0743 10.0262 44.336 10.1944C44.5976 10.3562 44.8123 10.5697 44.9868 10.8285C45.1612 11.0873 45.2685 11.4043 45.3155 11.7731H43.7322C43.6584 11.4237 43.4974 11.1843 43.2357 11.0679C42.974 10.9449 42.6721 10.8867 42.3367 10.8867C42.2293 10.8867 42.1019 10.8932 41.9543 10.9126C41.8067 10.932 41.6725 10.9644 41.5383 11.0096C41.4108 11.0549 41.3035 11.1261 41.2096 11.2167C41.1224 11.3073 41.0754 11.4237 41.0754 11.5725C41.0754 11.7537 41.1425 11.8961 41.2699 12.0061C41.3974 12.116 41.5651 12.2066 41.7731 12.2843C41.9811 12.3554 42.2159 12.4201 42.4843 12.4719C42.7526 12.5237 43.0277 12.5819 43.3095 12.6401C43.5846 12.6984 43.8529 12.776 44.1213 12.8601C44.3897 12.9442 44.6245 13.0607 44.8324 13.2095C45.0404 13.3583 45.2082 13.5395 45.3356 13.7595C45.4631 13.9795 45.5302 14.2577 45.5302 14.5812C45.5302 14.9759 45.4363 15.3058 45.2484 15.5841C45.0606 15.8558 44.819 16.0823 44.5238 16.2505C44.2286 16.4187 43.8932 16.5481 43.5309 16.6257C43.1686 16.7034 42.8063 16.7422 42.4507 16.7422C42.0147 16.7422 41.6121 16.6969 41.2431 16.5999C40.8741 16.5028 40.5521 16.3605 40.2837 16.1728C40.0154 15.9787 39.8007 15.7393 39.6464 15.4546C39.4921 15.17 39.4115 14.827 39.3981 14.4324H40.9278V14.4194ZM45.9327 9.90972H47.08V7.91691H48.5962V9.90972H49.9649V11.0032H48.5962V14.5488C48.5962 14.7041 48.6029 14.8335 48.6163 14.95C48.6298 15.06 48.6633 15.157 48.7103 15.2347C48.7572 15.3123 48.831 15.3705 48.9317 15.4094C49.0323 15.4482 49.1598 15.4676 49.3342 15.4676C49.4416 15.4676 49.5489 15.4676 49.6562 15.4611C49.7636 15.4546 49.8709 15.4417 49.9783 15.4158V16.5481C49.8106 16.5675 49.6428 16.5805 49.4885 16.5999C49.3275 16.6193 49.1665 16.6257 48.9988 16.6257C48.5962 16.6257 48.2742 16.5869 48.0327 16.5158C47.7911 16.4446 47.5966 16.3346 47.4624 16.1922C47.3215 16.0499 47.2343 15.8752 47.1806 15.6617C47.1337 15.4482 47.1001 15.2023 47.0934 14.9306V11.0161H45.9461V9.90972H45.9327ZM51.0383 9.90972H52.474V10.8091H52.5009C52.7156 10.4209 53.0108 10.1491 53.3932 9.98089C53.7756 9.81267 54.1848 9.72855 54.6344 9.72855C55.1778 9.72855 55.6474 9.81914 56.05 10.0068C56.4525 10.1879 56.788 10.4403 57.0563 10.7638C57.3247 11.0873 57.5192 11.4626 57.6534 11.8896C57.7876 12.3166 57.8547 12.776 57.8547 13.2613C57.8547 13.7077 57.7943 14.1412 57.6736 14.5553C57.5528 14.9759 57.3716 15.3447 57.1301 15.6682C56.8886 15.9917 56.58 16.244 56.2043 16.4381C55.8286 16.6322 55.3925 16.7293 54.8826 16.7293C54.6612 16.7293 54.4398 16.7099 54.2184 16.671C53.997 16.6322 53.7823 16.5675 53.581 16.4834C53.3798 16.3993 53.1852 16.2893 53.0175 16.1534C52.843 16.0176 52.7022 15.8623 52.5814 15.6876H52.5546V19.0003H51.0383V9.90972V9.90972ZM56.3384 13.2354C56.3384 12.9378 56.2982 12.6466 56.2177 12.3619C56.1372 12.0772 56.0164 11.8314 55.8554 11.6114C55.6944 11.3914 55.4931 11.2167 55.2583 11.0873C55.0168 10.9579 54.7417 10.8867 54.4331 10.8867C53.7957 10.8867 53.3127 11.1002 52.9906 11.5273C52.6686 11.9543 52.5076 12.5237 52.5076 13.2354C52.5076 13.5718 52.5478 13.8824 52.6351 14.1671C52.7223 14.4518 52.843 14.6976 53.0175 14.9047C53.1852 15.1117 53.3865 15.2735 53.6213 15.3899C53.8561 15.5129 54.1312 15.5711 54.4398 15.5711C54.7887 15.5711 55.0772 15.4999 55.3187 15.3641C55.5602 15.2282 55.7548 15.047 55.9091 14.8335C56.0634 14.6135 56.1774 14.3677 56.2445 14.0894C56.3049 13.8112 56.3384 13.5265 56.3384 13.2354V13.2354ZM59.0154 7.37988H60.5316V8.7645H59.0154V7.37988ZM59.0154 9.90972H60.5316V16.5481H59.0154V9.90972ZM61.8868 7.37988H63.4031V16.5481H61.8868V7.37988ZM68.0524 16.7293C67.5023 16.7293 67.0125 16.6387 66.5832 16.464C66.1538 16.2893 65.7915 16.0434 65.4896 15.7393C65.1944 15.4288 64.9663 15.06 64.812 14.6329C64.6577 14.2059 64.5772 13.7336 64.5772 13.2224C64.5772 12.7178 64.6577 12.2519 64.812 11.8249C64.9663 11.3979 65.1944 11.0291 65.4896 10.7185C65.7848 10.4079 66.1538 10.1685 66.5832 9.99383C67.0125 9.81914 67.5023 9.72855 68.0524 9.72855C68.6026 9.72855 69.0923 9.81914 69.5217 9.99383C69.9511 10.1685 70.3134 10.4144 70.6153 10.7185C70.9105 11.0291 71.1386 11.3979 71.2929 11.8249C71.4472 12.2519 71.5277 12.7178 71.5277 13.2224C71.5277 13.7336 71.4472 14.2059 71.2929 14.6329C71.1386 15.06 70.9105 15.4288 70.6153 15.7393C70.3201 16.0499 69.9511 16.2893 69.5217 16.464C69.0923 16.6387 68.6026 16.7293 68.0524 16.7293V16.7293ZM68.0524 15.5711C68.3879 15.5711 68.6831 15.4999 68.9313 15.3641C69.1796 15.2282 69.3808 15.047 69.5418 14.827C69.7029 14.6071 69.8169 14.3547 69.8974 14.0765C69.9712 13.7983 70.0115 13.5136 70.0115 13.2224C70.0115 12.9378 69.9712 12.6595 69.8974 12.3749C69.8236 12.0902 69.7029 11.8443 69.5418 11.6243C69.3808 11.4043 69.1796 11.2296 68.9313 11.0938C68.6831 10.9579 68.3879 10.8867 68.0524 10.8867C67.717 10.8867 67.4218 10.9579 67.1735 11.0938C66.9253 11.2296 66.724 11.4108 66.563 11.6243C66.402 11.8443 66.288 12.0902 66.2074 12.3749C66.1336 12.6595 66.0934 12.9378 66.0934 13.2224C66.0934 13.5136 66.1336 13.7983 66.2074 14.0765C66.2812 14.3547 66.402 14.6071 66.563 14.827C66.724 15.047 66.9253 15.2282 67.1735 15.3641C67.4218 15.5064 67.717 15.5711 68.0524 15.5711V15.5711ZM71.9705 9.90972H73.1178V7.91691H74.634V9.90972H76.0027V11.0032H74.634V14.5488C74.634 14.7041 74.6407 14.8335 74.6541 14.95C74.6675 15.06 74.7011 15.157 74.7481 15.2347C74.795 15.3123 74.8688 15.3705 74.9695 15.4094C75.0701 15.4482 75.1976 15.4676 75.372 15.4676C75.4793 15.4676 75.5867 15.4676 75.694 15.4611C75.8014 15.4546 75.9087 15.4417 76.0161 15.4158V16.5481C75.8483 16.5675 75.6806 16.5805 75.5263 16.5999C75.3653 16.6193 75.2043 16.6257 75.0365 16.6257C74.634 16.6257 74.312 16.5869 74.0704 16.5158C73.8289 16.4446 73.6344 16.3346 73.5002 16.1922C73.3593 16.0499 73.2721 15.8752 73.2184 15.6617C73.1714 15.4482 73.1379 15.2023 73.1312 14.9306V11.0161H71.9839V9.90972H71.9705Z" fill="#191919"/>
<path d="M18.2016 7.37958H11.2511L9.10417 1L6.95057 7.37958L0 7.37311L5.62888 11.3199L3.47528 17.693L9.10417 13.7527L14.7263 17.693L12.5794 11.3199L18.2016 7.37958Z" fill="#00B67A"/>
<path d="M13.0677 12.7628L12.5847 11.3199L9.10938 13.7527L13.0677 12.7628Z" fill="#005128"/>
</g>
<defs>
<clipPath id="clip0_4862_379869">
<rect width="76" height="20" fill="white"/>
</clipPath>
</defs>
</svg>
