<svg width="95" height="24" viewBox="0 0 95 24" fill="none" xmlns="http://www.w3.org/2000/svg">
<path d="M24.18 8.85583H33.4953V10.5174H29.8325V19.8577H27.8184V10.5174H24.1719V8.85583H24.18ZM33.0974 11.8916H34.8191V13.4289H34.8516C34.9085 13.2116 35.014 13.0019 35.1683 12.8C35.3227 12.5982 35.5094 12.4041 35.7287 12.241C35.948 12.0702 36.1916 11.9382 36.4597 11.8295C36.7277 11.7286 37.0038 11.6742 37.2799 11.6742C37.4911 11.6742 37.6454 11.682 37.7266 11.6898C37.8078 11.6975 37.889 11.7131 37.9784 11.7208V13.4134C37.8484 13.3901 37.7185 13.3746 37.5804 13.3591C37.4424 13.3435 37.3124 13.3358 37.1825 13.3358C36.8739 13.3358 36.5815 13.3979 36.3053 13.5144C36.0292 13.6308 35.7937 13.8094 35.5907 14.0346C35.3876 14.2675 35.2252 14.547 35.1034 14.8886C34.9816 15.2302 34.9247 15.6185 34.9247 16.061V19.8499H33.0892V11.8916H33.0974ZM46.4166 19.8577H44.6136V18.7474H44.5811C44.3537 19.1512 44.0207 19.4695 43.5741 19.7102C43.1274 19.9509 42.6726 20.0751 42.2097 20.0751C41.1133 20.0751 40.3174 19.8189 39.8301 19.2987C39.3428 18.7785 39.0991 17.9943 39.0991 16.9461V11.8916H40.9346V16.7753C40.9346 17.4741 41.0727 17.971 41.3569 18.2583C41.633 18.5456 42.031 18.6931 42.5345 18.6931C42.9243 18.6931 43.2411 18.6387 43.501 18.5223C43.7609 18.4058 43.972 18.2583 44.1263 18.0642C44.2888 17.8778 44.4025 17.6449 44.4755 17.3809C44.5486 17.1169 44.5811 16.8297 44.5811 16.5191V11.8994H46.4166V19.8577ZM49.5433 17.3033C49.6002 17.8157 49.8032 18.1729 50.1525 18.3825C50.5098 18.5844 50.9321 18.6931 51.4275 18.6931C51.5981 18.6931 51.793 18.6775 52.0123 18.6543C52.2316 18.631 52.4427 18.5766 52.6295 18.5067C52.8244 18.4369 52.9787 18.3282 53.1087 18.1884C53.2305 18.0486 53.2873 17.8701 53.2792 17.6449C53.2711 17.4197 53.1818 17.2334 53.0193 17.0936C52.8569 16.9461 52.6539 16.8374 52.4021 16.7443C52.1503 16.6589 51.8661 16.5812 51.5412 16.5191C51.2164 16.457 50.8915 16.3871 50.5585 16.3172C50.2174 16.2474 49.8844 16.1542 49.5677 16.0532C49.251 15.9523 48.9667 15.8126 48.715 15.634C48.4632 15.4632 48.2602 15.238 48.114 14.9663C47.9597 14.6945 47.8866 14.3607 47.8866 13.9569C47.8866 13.5221 48.0003 13.165 48.2195 12.8699C48.4388 12.5749 48.7231 12.342 49.0561 12.1634C49.3972 11.9848 49.7707 11.8606 50.1849 11.7829C50.5991 11.7131 50.9971 11.6742 51.3707 11.6742C51.8011 11.6742 52.2153 11.7208 52.6051 11.8062C52.995 11.8916 53.3523 12.0314 53.669 12.2333C53.9858 12.4274 54.2457 12.6836 54.4568 12.9942C54.668 13.3047 54.7979 13.6852 54.8548 14.1277H52.9381C52.8488 13.7085 52.6539 13.4212 52.3371 13.2814C52.0204 13.1339 51.6549 13.064 51.2489 13.064C51.1189 13.064 50.9646 13.0718 50.7859 13.0951C50.6073 13.1184 50.4448 13.1572 50.2824 13.2116C50.1281 13.2659 49.9981 13.3513 49.8844 13.46C49.7789 13.5687 49.722 13.7085 49.722 13.887C49.722 14.1044 49.8032 14.2752 49.9575 14.4072C50.1118 14.5392 50.3149 14.6479 50.5666 14.7411C50.8184 14.8265 51.1027 14.9041 51.4275 14.9663C51.7524 15.0284 52.0854 15.0983 52.4265 15.1681C52.7594 15.238 53.0843 15.3312 53.4092 15.4321C53.734 15.533 54.0183 15.6728 54.27 15.8514C54.5218 16.03 54.7248 16.2474 54.8791 16.5113C55.0335 16.7753 55.1147 17.1092 55.1147 17.4974C55.1147 17.971 55.001 18.367 54.7736 18.7008C54.5462 19.0269 54.2538 19.2987 53.8964 19.5006C53.5391 19.7024 53.133 19.8577 52.6945 19.9509C52.2559 20.044 51.8174 20.0906 51.3869 20.0906C50.859 20.0906 50.3717 20.0363 49.9251 19.9198C49.4784 19.8034 49.0885 19.6325 48.7637 19.4074C48.4388 19.1745 48.1789 18.8872 47.9921 18.5456C47.8054 18.2039 47.7079 17.7924 47.6916 17.3188H49.5433V17.3033ZM55.602 11.8916H56.9907V9.50026H58.8262V11.8916H60.483V13.2038H58.8262V17.4586C58.8262 17.6449 58.8343 17.8002 58.8505 17.9399C58.8668 18.0719 58.9074 18.1884 58.9642 18.2816C59.0211 18.3747 59.1104 18.4446 59.2323 18.4912C59.3541 18.5378 59.5084 18.5611 59.7195 18.5611C59.8495 18.5611 59.9794 18.5611 60.1094 18.5533C60.2393 18.5456 60.3693 18.53 60.4992 18.499V19.8577C60.2962 19.881 60.0931 19.8965 59.9063 19.9198C59.7114 19.9431 59.5165 19.9509 59.3135 19.9509C58.8262 19.9509 58.4364 19.9043 58.144 19.8189C57.8516 19.7335 57.6161 19.6015 57.4537 19.4307C57.2831 19.2599 57.1775 19.0502 57.1126 18.794C57.0557 18.5378 57.0151 18.2428 57.007 17.9167V13.2193H55.6182V11.8916H55.602ZM61.7824 11.8916H63.5204V12.9709H63.5529C63.8128 12.505 64.1701 12.1789 64.633 11.977C65.096 11.7752 65.5914 11.6742 66.1355 11.6742C66.7933 11.6742 67.3619 11.7829 67.8491 12.0081C68.3364 12.2255 68.7425 12.5283 69.0674 12.9165C69.3922 13.3047 69.6277 13.755 69.7902 14.2675C69.9526 14.7799 70.0338 15.3312 70.0338 15.9135C70.0338 16.4492 69.9607 16.9694 69.8145 17.4663C69.6683 17.971 69.4491 18.4136 69.1567 18.8018C68.8643 19.19 68.4907 19.4928 68.0359 19.7257C67.5811 19.9586 67.0532 20.0751 66.436 20.0751C66.168 20.0751 65.9 20.0518 65.632 20.0052C65.364 19.9586 65.1041 19.881 64.8604 19.7801C64.6168 19.6791 64.3813 19.5471 64.1782 19.3841C63.9671 19.221 63.7965 19.0347 63.6503 18.8251H63.6178V22.8003H61.7824V11.8916V11.8916ZM68.1984 15.8824C68.1984 15.5253 68.1496 15.1759 68.0522 14.8343C67.9547 14.4926 67.8085 14.1976 67.6136 13.9336C67.4187 13.6696 67.1751 13.46 66.8908 13.3047C66.5984 13.1494 66.2654 13.064 65.8919 13.064C65.1203 13.064 64.5356 13.3202 64.1457 13.8327C63.7559 14.3451 63.561 15.0284 63.561 15.8824C63.561 16.2862 63.6097 16.6589 63.7153 17.0005C63.8209 17.3421 63.9671 17.6371 64.1782 17.8856C64.3813 18.1341 64.6249 18.3282 64.9092 18.4679C65.1934 18.6154 65.5264 18.6853 65.9 18.6853C66.3223 18.6853 66.6715 18.5999 66.9639 18.4369C67.2563 18.2738 67.4918 18.0564 67.6786 17.8002C67.8654 17.5362 68.0034 17.2412 68.0847 16.9073C68.1577 16.5734 68.1984 16.2318 68.1984 15.8824V15.8824ZM71.4388 8.85583H73.2743V10.5174H71.4388V8.85583ZM71.4388 11.8916H73.2743V19.8577H71.4388V11.8916ZM74.9148 8.85583H76.7503V19.8577H74.9148V8.85583ZM82.3784 20.0751C81.7125 20.0751 81.1196 19.9664 80.5998 19.7568C80.0801 19.5471 79.6415 19.2521 79.276 18.8872C78.9187 18.5145 78.6426 18.0719 78.4558 17.5595C78.269 17.0471 78.1715 16.4803 78.1715 15.8669C78.1715 15.2613 78.269 14.7023 78.4558 14.1898C78.6426 13.6774 78.9187 13.2348 79.276 12.8622C79.6334 12.4895 80.0801 12.2022 80.5998 11.9926C81.1196 11.7829 81.7125 11.6742 82.3784 11.6742C83.0444 11.6742 83.6373 11.7829 84.157 11.9926C84.6768 12.2022 85.1154 12.4972 85.4808 12.8622C85.8382 13.2348 86.1143 13.6774 86.3011 14.1898C86.4879 14.7023 86.5854 15.2613 86.5854 15.8669C86.5854 16.4803 86.4879 17.0471 86.3011 17.5595C86.1143 18.0719 85.8382 18.5145 85.4808 18.8872C85.1235 19.2599 84.6768 19.5471 84.157 19.7568C83.6373 19.9664 83.0444 20.0751 82.3784 20.0751V20.0751ZM82.3784 18.6853C82.7845 18.6853 83.1419 18.5999 83.4424 18.4369C83.7429 18.2738 83.9865 18.0564 84.1814 17.7924C84.3763 17.5284 84.5144 17.2256 84.6119 16.8918C84.7012 16.5579 84.7499 16.2163 84.7499 15.8669C84.7499 15.5253 84.7012 15.1914 84.6119 14.8498C84.5225 14.5082 84.3763 14.2131 84.1814 13.9491C83.9865 13.6852 83.7429 13.4755 83.4424 13.3125C83.1419 13.1494 82.7845 13.064 82.3784 13.064C81.9724 13.064 81.615 13.1494 81.3145 13.3125C81.014 13.4755 80.7704 13.6929 80.5755 13.9491C80.3806 14.2131 80.2425 14.5082 80.145 14.8498C80.0557 15.1914 80.007 15.5253 80.007 15.8669C80.007 16.2163 80.0557 16.5579 80.145 16.8918C80.2344 17.2256 80.3806 17.5284 80.5755 17.7924C80.7704 18.0564 81.014 18.2738 81.3145 18.4369C81.615 18.6077 81.9724 18.6853 82.3784 18.6853V18.6853ZM87.1214 11.8916H88.5102V9.50026H90.3456V11.8916H92.0024V13.2038H90.3456V17.4586C90.3456 17.6449 90.3537 17.8002 90.37 17.9399C90.3862 18.0719 90.4268 18.1884 90.4837 18.2816C90.5405 18.3747 90.6299 18.4446 90.7517 18.4912C90.8735 18.5378 91.0278 18.5611 91.239 18.5611C91.3689 18.5611 91.4988 18.5611 91.6288 18.5533C91.7587 18.5456 91.8887 18.53 92.0186 18.499V19.8577C91.8156 19.881 91.6126 19.8965 91.4258 19.9198C91.2308 19.9431 91.0359 19.9509 90.8329 19.9509C90.3456 19.9509 89.9558 19.9043 89.6634 19.8189C89.371 19.7335 89.1355 19.6015 88.9731 19.4307C88.8025 19.2599 88.697 19.0502 88.632 18.794C88.5751 18.5378 88.5345 18.2428 88.5264 17.9167V13.2193H87.1376V11.8916H87.1214Z" fill="#191919"/>
<path d="M22.0335 8.85545H13.6197L11.0208 1.19995L8.41384 8.85545L0 8.84769L6.81391 13.5838L4.20692 21.2316L11.0208 16.5032L17.8266 21.2316L15.2278 13.5838L22.0335 8.85545Z" fill="#00B67A"/>
<path d="M15.8151 15.3154L15.2304 13.584L11.0234 16.5033L15.8151 15.3154Z" fill="#005128"/>
</svg>
