<svg width="106" height="28" viewBox="0 0 106 28" fill="none" xmlns="http://www.w3.org/2000/svg">
<g clip-path="url(#clip0_4862_379871)">
<path d="M27.8609 10.3318H38.5938V12.2702H34.3736V23.1673H32.053V12.2702H27.8516V10.3318H27.8609ZM38.1353 13.8736H40.119V15.6671H40.1565C40.222 15.4135 40.3436 15.1689 40.5214 14.9334C40.6992 14.6979 40.9144 14.4714 41.1671 14.2812C41.4197 14.0819 41.7004 13.9279 42.0092 13.8011C42.318 13.6833 42.6362 13.6199 42.9543 13.6199C43.1976 13.6199 43.3754 13.629 43.469 13.638C43.5625 13.6471 43.6561 13.6652 43.759 13.6743V15.649C43.6093 15.6218 43.4596 15.6037 43.3005 15.5856C43.1415 15.5674 42.9917 15.5584 42.842 15.5584C42.4864 15.5584 42.1496 15.6309 41.8314 15.7667C41.5133 15.9026 41.2419 16.1109 41.008 16.3736C40.7741 16.6454 40.5869 16.9715 40.4465 17.37C40.3062 17.7686 40.2407 18.2215 40.2407 18.7378V23.1582H38.1259V13.8736H38.1353ZM53.4813 23.1673H51.404V21.872H51.3666C51.1046 22.343 50.7209 22.7144 50.2063 22.9952C49.6916 23.276 49.1676 23.4209 48.6342 23.4209C47.371 23.4209 46.454 23.122 45.8925 22.5151C45.3311 21.9082 45.0504 20.9933 45.0504 19.7705V13.8736H47.1651V19.5712C47.1651 20.3864 47.3242 20.9662 47.6517 21.3013C47.9699 21.6365 48.4284 21.8086 49.0085 21.8086C49.4577 21.8086 49.8226 21.7452 50.122 21.6093C50.4215 21.4734 50.6648 21.3013 50.8426 21.0748C51.0297 20.8575 51.1607 20.5857 51.2449 20.2777C51.3291 19.9697 51.3666 19.6346 51.3666 19.2723V13.8826H53.4813V23.1673ZM57.0839 20.1871C57.1494 20.785 57.3833 21.2017 57.7857 21.4462C58.1974 21.6818 58.684 21.8086 59.2548 21.8086C59.4513 21.8086 59.6759 21.7905 59.9285 21.7633C60.1812 21.7361 60.4245 21.6727 60.6397 21.5912C60.8643 21.5096 61.0421 21.3828 61.1918 21.2198C61.3321 21.0567 61.3976 20.8484 61.3883 20.5857C61.3789 20.323 61.276 20.1056 61.0889 19.9426C60.9017 19.7705 60.6678 19.6436 60.3777 19.535C60.0876 19.4353 59.7601 19.3447 59.3858 19.2723C59.0115 19.1998 58.6372 19.1183 58.2536 19.0367C57.8606 18.9552 57.4769 18.8465 57.112 18.7288C56.747 18.611 56.4195 18.448 56.1295 18.2396C55.8394 18.0403 55.6054 17.7777 55.437 17.4606C55.2592 17.1436 55.175 16.7541 55.175 16.283C55.175 15.7758 55.306 15.3591 55.5587 15.0149C55.8113 14.6707 56.1388 14.3989 56.5225 14.1906C56.9155 13.9823 57.3459 13.8373 57.8231 13.7467C58.3004 13.6652 58.7589 13.6199 59.1893 13.6199C59.6852 13.6199 60.1625 13.6743 60.6116 13.7739C61.0608 13.8736 61.4725 14.0366 61.8374 14.2721C62.2024 14.4986 62.5018 14.7975 62.7451 15.1598C62.9884 15.5222 63.1381 15.966 63.2036 16.4823H60.9953C60.8923 15.9932 60.6678 15.658 60.3028 15.495C59.9379 15.3229 59.5168 15.2413 59.049 15.2413C58.8992 15.2413 58.7214 15.2504 58.5156 15.2776C58.3097 15.3048 58.1226 15.35 57.9354 15.4135C57.7576 15.4769 57.6079 15.5765 57.4769 15.7033C57.3553 15.8301 57.2898 15.9932 57.2898 16.2015C57.2898 16.4552 57.3833 16.6544 57.5611 16.8084C57.7389 16.9624 57.9729 17.0892 58.2629 17.1979C58.553 17.2976 58.8805 17.3882 59.2548 17.4606C59.6291 17.5331 60.0128 17.6146 60.4058 17.6961C60.7894 17.7777 61.1637 17.8864 61.538 18.0041C61.9123 18.1219 62.2398 18.2849 62.5299 18.4933C62.82 18.7016 63.0539 18.9552 63.2317 19.2632C63.4095 19.5712 63.503 19.9607 63.503 20.4136C63.503 20.9662 63.372 21.4281 63.11 21.8176C62.848 22.1981 62.5112 22.5151 62.0994 22.7506C61.6877 22.9861 61.2199 23.1673 60.7146 23.276C60.2093 23.3847 59.704 23.439 59.208 23.439C58.5998 23.439 58.0384 23.3756 57.5237 23.2398C57.0091 23.1039 56.5599 22.9046 56.1856 22.6419C55.8113 22.3702 55.5119 22.035 55.2967 21.6365C55.0814 21.2379 54.9691 20.7578 54.9504 20.2053H57.0839V20.1871ZM64.0645 13.8736H65.6646V11.0836H67.7794V13.8736H69.6883V15.4044H67.7794V20.3683C67.7794 20.5857 67.7887 20.7669 67.8074 20.9299C67.8261 21.0839 67.8729 21.2198 67.9384 21.3285C68.0039 21.4372 68.1069 21.5187 68.2472 21.5731C68.3876 21.6274 68.5654 21.6546 68.8087 21.6546C68.9584 21.6546 69.1081 21.6546 69.2578 21.6455C69.4075 21.6365 69.5573 21.6183 69.707 21.5821V23.1673C69.473 23.1945 69.2391 23.2126 69.0239 23.2398C68.7993 23.2669 68.5747 23.276 68.3408 23.276C67.7794 23.276 67.3302 23.2217 66.9933 23.122C66.6565 23.0224 66.3851 22.8684 66.198 22.6691C66.0015 22.4698 65.8798 22.2252 65.805 21.9263C65.7395 21.6274 65.6927 21.2832 65.6833 20.9027V15.4225H64.0832V13.8736H64.0645ZM71.1854 13.8736H73.1879V15.1327H73.2253C73.5248 14.5892 73.9365 14.2087 74.4699 13.9732C75.0032 13.7377 75.574 13.6199 76.201 13.6199C76.9589 13.6199 77.6139 13.7467 78.1754 14.0094C78.7368 14.2631 79.2047 14.6163 79.579 15.0692C79.9533 15.5222 80.2246 16.0475 80.4118 16.6454C80.5989 17.2432 80.6925 17.8864 80.6925 18.5657C80.6925 19.1907 80.6083 19.7976 80.4398 20.3774C80.2714 20.9662 80.0188 21.4825 79.6819 21.9354C79.345 22.3883 78.9146 22.7416 78.3906 23.0133C77.8666 23.2851 77.2583 23.4209 76.5472 23.4209C76.2384 23.4209 75.9296 23.3938 75.6208 23.3394C75.312 23.2851 75.0126 23.1945 74.7319 23.0767C74.4511 22.959 74.1798 22.805 73.9458 22.6148C73.7026 22.4245 73.506 22.2071 73.3376 21.9626H73.3002V26.6004H71.1854V13.8736V13.8736ZM78.5777 18.5295C78.5777 18.1128 78.5216 17.7052 78.4093 17.3066C78.297 16.9081 78.1286 16.5639 77.904 16.2559C77.6794 15.9479 77.3987 15.7033 77.0712 15.5222C76.7343 15.341 76.3507 15.2413 75.9202 15.2413C75.0313 15.2413 74.3576 15.5403 73.9084 16.1381C73.4593 16.736 73.2347 17.5331 73.2347 18.5295C73.2347 19.0005 73.2908 19.4353 73.4125 19.8339C73.5341 20.2324 73.7026 20.5766 73.9458 20.8665C74.1798 21.1564 74.4605 21.3828 74.788 21.5459C75.1155 21.718 75.4992 21.7995 75.9296 21.7995C76.4162 21.7995 76.8186 21.6999 77.1554 21.5096C77.4923 21.3194 77.7636 21.0658 77.9789 20.7669C78.1941 20.4589 78.3531 20.1147 78.4467 19.7252C78.5309 19.3357 78.5777 18.9371 78.5777 18.5295V18.5295ZM82.3113 10.3318H84.4261V12.2702H82.3113V10.3318ZM82.3113 13.8736H84.4261V23.1673H82.3113V13.8736ZM86.3163 10.3318H88.431V23.1673H86.3163V10.3318ZM94.9157 23.4209C94.1483 23.4209 93.4653 23.2941 92.8664 23.0495C92.2675 22.805 91.7622 22.4608 91.3411 22.035C90.9294 21.6002 90.6113 21.0839 90.3961 20.4861C90.1808 19.8882 90.0686 19.227 90.0686 18.5114C90.0686 17.8048 90.1808 17.1526 90.3961 16.5548C90.6113 15.9569 90.9294 15.4406 91.3411 15.0058C91.7529 14.571 92.2675 14.2359 92.8664 13.9913C93.4653 13.7467 94.1483 13.6199 94.9157 13.6199C95.683 13.6199 96.366 13.7467 96.9649 13.9913C97.5638 14.2359 98.0691 14.5801 98.4902 15.0058C98.9019 15.4406 99.22 15.9569 99.4353 16.5548C99.6505 17.1526 99.7628 17.8048 99.7628 18.5114C99.7628 19.227 99.6505 19.8882 99.4353 20.4861C99.22 21.0839 98.9019 21.6002 98.4902 22.035C98.0784 22.4698 97.5638 22.805 96.9649 23.0495C96.366 23.2941 95.683 23.4209 94.9157 23.4209V23.4209ZM94.9157 21.7995C95.3835 21.7995 95.7952 21.6999 96.1415 21.5096C96.4877 21.3194 96.7684 21.0658 96.993 20.7578C97.2176 20.4498 97.3766 20.0966 97.4889 19.7071C97.5919 19.3176 97.648 18.919 97.648 18.5114C97.648 18.1128 97.5919 17.7233 97.4889 17.3247C97.386 16.9262 97.2176 16.582 96.993 16.274C96.7684 15.966 96.4877 15.7214 96.1415 15.5312C95.7952 15.341 95.3835 15.2413 94.9157 15.2413C94.4478 15.2413 94.0361 15.341 93.6898 15.5312C93.3436 15.7214 93.0629 15.9751 92.8383 16.274C92.6137 16.582 92.4547 16.9262 92.3424 17.3247C92.2394 17.7233 92.1833 18.1128 92.1833 18.5114C92.1833 18.919 92.2394 19.3176 92.3424 19.7071C92.4453 20.0966 92.6137 20.4498 92.8383 20.7578C93.0629 21.0658 93.3436 21.3194 93.6898 21.5096C94.0361 21.7089 94.4478 21.7995 94.9157 21.7995V21.7995ZM100.38 13.8736H101.98V11.0836H104.095V13.8736H106.004V15.4044H104.095V20.3683C104.095 20.5857 104.105 20.7669 104.123 20.9299C104.142 21.0839 104.189 21.2198 104.254 21.3285C104.32 21.4372 104.423 21.5187 104.563 21.5731C104.703 21.6274 104.881 21.6546 105.125 21.6546C105.274 21.6546 105.424 21.6546 105.574 21.6455C105.723 21.6365 105.873 21.6183 106.023 21.5821V23.1673C105.789 23.1945 105.555 23.2126 105.34 23.2398C105.115 23.2669 104.891 23.276 104.657 23.276C104.095 23.276 103.646 23.2217 103.309 23.122C102.972 23.0224 102.701 22.8684 102.514 22.6691C102.317 22.4698 102.196 22.2252 102.121 21.9263C102.055 21.6274 102.009 21.2832 101.999 20.9027V15.4225H100.399V13.8736H100.38Z" fill="#191919"/>
<path d="M25.3865 10.3314H15.6923L12.6979 1.40002L9.69421 10.3314L0 10.3224L7.85081 15.8479L4.8471 24.7703L12.6979 19.2538L20.5394 24.7703L17.545 15.8479L25.3865 10.3314Z" fill="#00B67A"/>
<path d="M18.224 17.8679L17.5502 15.8479L12.7031 19.2538L18.224 17.8679Z" fill="#005128"/>
</g>
<defs>
<clipPath id="clip0_4862_379871">
<rect width="106" height="28" fill="white"/>
</clipPath>
</defs>
</svg>
