<svg width="107" height="27" viewBox="0 0 107 27" fill="none" xmlns="http://www.w3.org/2000/svg">
<path d="M28.1939 9.83179H38.9267V11.7702H34.7066V22.6673H32.386V11.7702H28.1845V9.83179H28.1939ZM38.4682 13.3736H40.452V15.1671H40.4894C40.5549 14.9135 40.6766 14.6689 40.8544 14.4334C41.0321 14.1979 41.2474 13.9714 41.5 13.7812C41.7527 13.5819 42.0334 13.4279 42.3422 13.3011C42.651 13.1833 42.9691 13.1199 43.2873 13.1199C43.5306 13.1199 43.7083 13.129 43.8019 13.138C43.8955 13.1471 43.9891 13.1652 44.092 13.1743V15.149C43.9423 15.1218 43.7926 15.1037 43.6335 15.0856C43.4744 15.0674 43.3247 15.0584 43.175 15.0584C42.8194 15.0584 42.4825 15.1309 42.1644 15.2667C41.8462 15.4026 41.5749 15.6109 41.3409 15.8736C41.107 16.1454 40.9199 16.4715 40.7795 16.87C40.6391 17.2686 40.5736 17.7215 40.5736 18.2378V22.6582H38.4589V13.3736H38.4682ZM53.8143 22.6673H51.7369V21.372H51.6995C51.4375 21.843 51.0539 22.2144 50.5392 22.4952C50.0246 22.776 49.5005 22.9209 48.9672 22.9209C47.7039 22.9209 46.7869 22.622 46.2255 22.0151C45.664 21.4082 45.3833 20.4933 45.3833 19.2705V13.3736H47.4981V19.0712C47.4981 19.8864 47.6571 20.4662 47.9847 20.8013C48.3028 21.1365 48.7613 21.3086 49.3415 21.3086C49.7906 21.3086 50.1556 21.2452 50.455 21.1093C50.7544 20.9734 50.9977 20.8013 51.1755 20.5748C51.3627 20.3575 51.4937 20.0857 51.5779 19.7777C51.6621 19.4697 51.6995 19.1346 51.6995 18.7723V13.3826H53.8143V22.6673ZM57.4169 19.6871C57.4824 20.285 57.7163 20.7017 58.1187 20.9462C58.5304 21.1818 59.017 21.3086 59.5878 21.3086C59.7843 21.3086 60.0088 21.2905 60.2615 21.2633C60.5141 21.2361 60.7574 21.1727 60.9726 21.0912C61.1972 21.0096 61.375 20.8828 61.5247 20.7198C61.6651 20.5567 61.7306 20.3484 61.7212 20.0857C61.7119 19.823 61.6089 19.6056 61.4218 19.4426C61.2347 19.2705 61.0007 19.1436 60.7106 19.035C60.4206 18.9353 60.0931 18.8447 59.7188 18.7723C59.3445 18.6998 58.9702 18.6183 58.5865 18.5367C58.1935 18.4552 57.8099 18.3465 57.4449 18.2288C57.08 18.111 56.7525 17.948 56.4624 17.7396C56.1723 17.5403 55.9384 17.2777 55.77 16.9606C55.5922 16.6436 55.508 16.2541 55.508 15.783C55.508 15.2758 55.639 14.8591 55.8916 14.5149C56.1443 14.1707 56.4718 13.8989 56.8554 13.6906C57.2484 13.4823 57.6789 13.3373 58.1561 13.2467C58.6333 13.1652 59.0918 13.1199 59.5223 13.1199C60.0182 13.1199 60.4954 13.1743 60.9446 13.2739C61.3937 13.3736 61.8054 13.5366 62.1704 13.7721C62.5353 13.9986 62.8348 14.2975 63.078 14.6598C63.3213 15.0222 63.4711 15.466 63.5366 15.9823H61.3282C61.2253 15.4932 61.0007 15.158 60.6358 14.995C60.2708 14.8229 59.8498 14.7413 59.3819 14.7413C59.2322 14.7413 59.0544 14.7504 58.8485 14.7776C58.6427 14.8048 58.4555 14.85 58.2684 14.9135C58.0906 14.9769 57.9409 15.0765 57.8099 15.2033C57.6882 15.3301 57.6227 15.4932 57.6227 15.7015C57.6227 15.9552 57.7163 16.1544 57.8941 16.3084C58.0719 16.4624 58.3058 16.5892 58.5959 16.6979C58.886 16.7976 59.2135 16.8882 59.5878 16.9606C59.9621 17.0331 60.3457 17.1146 60.7387 17.1961C61.1224 17.2777 61.4967 17.3864 61.8709 17.5041C62.2452 17.6219 62.5728 17.7849 62.8628 17.9933C63.1529 18.2016 63.3868 18.4552 63.5646 18.7632C63.7424 19.0712 63.836 19.4607 63.836 19.9136C63.836 20.4662 63.705 20.9281 63.443 21.3176C63.181 21.6981 62.8441 22.0151 62.4324 22.2506C62.0207 22.4861 61.5528 22.6673 61.0475 22.776C60.5422 22.8847 60.0369 22.939 59.541 22.939C58.9327 22.939 58.3713 22.8756 57.8567 22.7398C57.342 22.6039 56.8928 22.4046 56.5186 22.1419C56.1443 21.8702 55.8448 21.535 55.6296 21.1365C55.4144 20.7379 55.3021 20.2578 55.2834 19.7053H57.4169V19.6871ZM64.3974 13.3736H65.9975V10.5836H68.1123V13.3736H70.0212V14.9044H68.1123V19.8683C68.1123 20.0857 68.1217 20.2669 68.1404 20.4299C68.1591 20.5839 68.2059 20.7198 68.2714 20.8285C68.3369 20.9372 68.4398 21.0187 68.5802 21.0731C68.7205 21.1274 68.8983 21.1546 69.1416 21.1546C69.2913 21.1546 69.441 21.1546 69.5908 21.1455C69.7405 21.1365 69.8902 21.1183 70.0399 21.0821V22.6673C69.806 22.6945 69.572 22.7126 69.3568 22.7398C69.1322 22.7669 68.9077 22.776 68.6737 22.776C68.1123 22.776 67.6631 22.7217 67.3263 22.622C66.9894 22.5224 66.7181 22.3684 66.5309 22.1691C66.3344 21.9698 66.2128 21.7252 66.1379 21.4263C66.0724 21.1274 66.0256 20.7832 66.0163 20.4027V14.9225H64.4161V13.3736H64.3974ZM71.5184 13.3736H73.5208V14.6327H73.5583C73.8577 14.0892 74.2694 13.7087 74.8028 13.4732C75.3362 13.2377 75.907 13.1199 76.5339 13.1199C77.2919 13.1199 77.9469 13.2467 78.5083 13.5094C79.0698 13.7631 79.5376 14.1163 79.9119 14.5692C80.2862 15.0222 80.5576 15.5475 80.7447 16.1454C80.9319 16.7432 81.0254 17.3864 81.0254 18.0657C81.0254 18.6907 80.9412 19.2976 80.7728 19.8774C80.6044 20.4662 80.3517 20.9825 80.0148 21.4354C79.678 21.8883 79.2475 22.2416 78.7235 22.5133C78.1995 22.7851 77.5913 22.9209 76.8801 22.9209C76.5713 22.9209 76.2625 22.8938 75.9538 22.8394C75.645 22.7851 75.3455 22.6945 75.0648 22.5767C74.7841 22.459 74.5127 22.305 74.2788 22.1148C74.0355 21.9245 73.839 21.7071 73.6706 21.4626H73.6331V26.1004H71.5184V13.3736V13.3736ZM78.9107 18.0295C78.9107 17.6128 78.8545 17.2052 78.7422 16.8066C78.63 16.4081 78.4615 16.0639 78.237 15.7559C78.0124 15.4479 77.7317 15.2033 77.4041 15.0222C77.0673 14.841 76.6836 14.7413 76.2532 14.7413C75.3642 14.7413 74.6905 15.0403 74.2414 15.6381C73.7922 16.236 73.5676 17.0331 73.5676 18.0295C73.5676 18.5005 73.6238 18.9353 73.7454 19.3339C73.8671 19.7324 74.0355 20.0766 74.2788 20.3665C74.5127 20.6564 74.7934 20.8828 75.121 21.0459C75.4485 21.218 75.8321 21.2995 76.2626 21.2995C76.7491 21.2995 77.1515 21.1999 77.4884 21.0096C77.8252 20.8194 78.0966 20.5658 78.3118 20.2669C78.527 19.9589 78.6861 19.6147 78.7797 19.2252C78.8639 18.8357 78.9107 18.4371 78.9107 18.0295V18.0295ZM82.6443 9.83179H84.759V11.7702H82.6443V9.83179ZM82.6443 13.3736H84.759V22.6673H82.6443V13.3736ZM86.6492 9.83179H88.764V22.6673H86.6492V9.83179ZM95.2486 22.9209C94.4813 22.9209 93.7982 22.7941 93.1993 22.5495C92.6005 22.305 92.0952 21.9608 91.6741 21.535C91.2624 21.1002 90.9442 20.5839 90.729 19.9861C90.5138 19.3882 90.4015 18.727 90.4015 18.0114C90.4015 17.3048 90.5138 16.6526 90.729 16.0548C90.9442 15.4569 91.2624 14.9406 91.6741 14.5058C92.0858 14.071 92.6005 13.7359 93.1993 13.4913C93.7982 13.2467 94.4813 13.1199 95.2486 13.1199C96.0159 13.1199 96.699 13.2467 97.2979 13.4913C97.8967 13.7359 98.402 14.0801 98.8231 14.5058C99.2348 14.9406 99.553 15.4569 99.7682 16.0548C99.9834 16.6526 100.096 17.3048 100.096 18.0114C100.096 18.727 99.9834 19.3882 99.7682 19.9861C99.553 20.5839 99.2348 21.1002 98.8231 21.535C98.4114 21.9698 97.8967 22.305 97.2979 22.5495C96.699 22.7941 96.0159 22.9209 95.2486 22.9209V22.9209ZM95.2486 21.2995C95.7165 21.2995 96.1282 21.1999 96.4744 21.0096C96.8206 20.8194 97.1014 20.5658 97.3259 20.2578C97.5505 19.9498 97.7096 19.5966 97.8219 19.2071C97.9248 18.8176 97.9809 18.419 97.9809 18.0114C97.9809 17.6128 97.9248 17.2233 97.8219 16.8247C97.7189 16.4262 97.5505 16.082 97.3259 15.774C97.1014 15.466 96.8206 15.2214 96.4744 15.0312C96.1282 14.841 95.7165 14.7413 95.2486 14.7413C94.7807 14.7413 94.369 14.841 94.0228 15.0312C93.6766 15.2214 93.3958 15.4751 93.1713 15.774C92.9467 16.082 92.7876 16.4262 92.6753 16.8247C92.5724 17.2233 92.5163 17.6128 92.5163 18.0114C92.5163 18.419 92.5724 18.8176 92.6753 19.2071C92.7783 19.5966 92.9467 19.9498 93.1713 20.2578C93.3958 20.5658 93.6766 20.8194 94.0228 21.0096C94.369 21.2089 94.7807 21.2995 95.2486 21.2995V21.2995ZM100.713 13.3736H102.313V10.5836H104.428V13.3736H106.337V14.9044H104.428V19.8683C104.428 20.0857 104.438 20.2669 104.456 20.4299C104.475 20.5839 104.522 20.7198 104.587 20.8285C104.653 20.9372 104.756 21.0187 104.896 21.0731C105.036 21.1274 105.214 21.1546 105.457 21.1546C105.607 21.1546 105.757 21.1546 105.907 21.1455C106.056 21.1365 106.206 21.1183 106.356 21.0821V22.6673C106.122 22.6945 105.888 22.7126 105.673 22.7398C105.448 22.7669 105.224 22.776 104.99 22.776C104.428 22.776 103.979 22.7217 103.642 22.622C103.305 22.5224 103.034 22.3684 102.847 22.1691C102.65 21.9698 102.529 21.7252 102.454 21.4263C102.388 21.1274 102.341 20.7832 102.332 20.4027V14.9225H100.732V13.3736H100.713Z" fill="#191919"/>
<path d="M25.7198 9.83132H16.0256L13.0313 0.899902L10.0276 9.83132L0.333344 9.82226L8.18416 15.3478L5.18045 24.2701L13.0313 18.7537L20.8727 24.2701L17.8784 15.3478L25.7198 9.83132Z" fill="#00B67A"/>
<path d="M18.5593 17.3679L17.8856 15.3479L13.0385 18.7538L18.5593 17.3679Z" fill="#005128"/>
</svg>
