<svg width="96" height="24" viewBox="0 0 96 24" fill="none" xmlns="http://www.w3.org/2000/svg">
<path fill-rule="evenodd" clip-rule="evenodd" d="M76.9051 7.79736C77.2567 8.41364 77.3718 9.11482 77.4098 9.90309L77.4597 10.9538V18.3007L77.5107 19.3524C77.6128 21.0701 78.8599 22.3401 80.5639 22.4482L81.594 22.5V10.9538L81.645 9.90309C81.6873 9.12364 81.8013 8.40923 82.1584 7.78854C82.5222 7.15189 83.0446 6.62369 83.673 6.25696C84.3014 5.89022 85.0138 5.69787 85.7385 5.69921C86.4632 5.70055 87.1749 5.89554 87.802 6.26459C88.4291 6.63365 88.9495 7.16378 89.3111 7.80177C89.6628 8.41805 89.7724 9.13246 89.8147 9.90309L89.8657 10.9504V18.3007L89.9168 19.3524C90.0231 21.0789 91.2605 22.349 92.97 22.4482L94 22.5V9.90309C94 7.67561 93.1291 5.53931 91.5787 3.96394C90.0284 2.38856 87.9255 1.50308 85.7326 1.50221C84.5588 1.50095 83.3984 1.75413 82.3287 2.24483C81.259 2.73553 80.3047 3.45245 79.5296 4.3477C78.7541 3.45281 77.7997 2.73606 76.7301 2.24521C75.6605 1.75436 74.5002 1.5007 73.3265 1.50111C71.6094 1.50111 70.0161 2.03029 68.6963 2.94425C67.8909 2.0314 66.0891 1.50111 65.0548 1.50111V22.5L66.0891 22.4482C67.8193 22.3324 69.0696 21.0965 69.1369 19.3524L69.1923 18.3007V10.9538L69.2433 9.90309C69.2867 9.11041 69.3952 8.41364 69.748 7.79295C70.1122 7.1567 70.6343 6.62862 71.2622 6.26144C71.8902 5.89426 72.602 5.70082 73.3265 5.70044C74.0517 5.7006 74.764 5.89442 75.3921 6.26247C76.0202 6.63051 76.5419 7.15984 76.9051 7.79736V7.79736ZM6.13426 22.4493L7.16864 22.5H22.6735L22.6224 21.4526C22.4824 19.7262 21.2787 18.4649 19.5736 18.3525L18.5392 18.3007H9.23739L21.6391 5.69934L21.5881 4.65309C21.5078 2.90897 20.253 1.64884 18.5392 1.55292L17.5048 1.50552L2 1.50111L2.05101 2.55177C2.18669 4.26171 3.40775 5.5494 5.09879 5.64863L6.13426 5.70044H15.4361L3.03438 18.3018L3.08539 19.3524C3.18742 21.0833 4.41717 22.3368 6.13426 22.4482V22.4493ZM60.9965 4.57481C61.9565 5.54976 62.7181 6.70725 63.2377 7.98118C63.7572 9.25511 64.0247 10.6205 64.0247 11.9995C64.0247 13.3784 63.7572 14.7438 63.2377 16.0177C62.7181 17.2917 61.9565 18.4491 60.9965 19.4241C59.0569 21.3926 56.4272 22.4984 53.6853 22.4984C50.9434 22.4984 48.3137 21.3926 46.3741 19.4241C42.3375 15.324 42.3375 8.67493 46.3741 4.57481C47.3332 3.6002 48.472 2.82703 49.7253 2.29945C50.9787 1.77187 52.3221 1.50022 53.6788 1.5C55.0377 1.49904 56.3834 1.77022 57.6391 2.29801C58.8947 2.82581 60.0356 3.59987 60.9965 4.57592V4.57481ZM58.0714 7.5482C59.234 8.73007 59.8872 10.3325 59.8872 12.0033C59.8872 13.6741 59.234 15.2765 58.0714 16.4584C56.9078 17.6394 55.3302 18.3028 53.6853 18.3028C52.0404 18.3028 50.4628 17.6394 49.2992 16.4584C48.1365 15.2765 47.4834 13.6741 47.4834 12.0033C47.4834 10.3325 48.1365 8.73007 49.2992 7.5482C50.4628 6.36721 52.0404 5.70381 53.6853 5.70381C55.3302 5.70381 56.9078 6.36721 58.0714 7.5482V7.5482ZM31.984 1.5C33.3407 1.50036 34.6842 1.77219 35.9375 2.29996C37.1909 2.82773 38.3296 3.6011 39.2886 4.57592C43.3263 8.67493 43.3263 15.3251 39.2886 19.4241C37.349 21.3926 34.7193 22.4984 31.9774 22.4984C29.2356 22.4984 26.6058 21.3926 24.6662 19.4241C20.6297 15.324 20.6297 8.67493 24.6662 4.57481C25.6254 3.6002 26.7642 2.82703 28.0175 2.29945C29.2708 1.77187 30.6142 1.50022 31.9709 1.5H31.984ZM36.3635 7.54599C37.5265 8.72792 38.1799 10.3306 38.1799 12.0017C38.1799 13.6727 37.5265 15.2754 36.3635 16.4573C35.1999 17.6383 33.6223 18.3017 31.9774 18.3017C30.3325 18.3017 28.7549 17.6383 27.5914 16.4573C26.4287 15.2754 25.7756 13.673 25.7756 12.0022C25.7756 10.3314 26.4287 8.72897 27.5914 7.54709C28.7549 6.36611 30.3325 5.70271 31.9774 5.70271C33.6223 5.70271 35.1999 6.36611 36.3635 7.54709V7.54599Z" fill="black"/>
</svg>
