<svg width="382" height="132" viewBox="0 0 382 132" fill="none" xmlns="http://www.w3.org/2000/svg">
<g opacity="0.8">
<path d="M38.3355 29.7L15.2656 71.5503L42.3799 60.5908L57.8167 71.5503L38.3355 29.7Z" fill="#545454"/>
<path d="M42.3672 60.591L57.8041 71.5505L51.0255 56.9885L42.3672 60.591Z" fill="black"/>
<path d="M15.2656 71.5504L42.3799 60.5909L28.2248 48.0415L15.2656 71.5504Z" fill="#8C8C8C"/>
<path fill-rule="evenodd" clip-rule="evenodd" d="M103.104 50.1993V70.3579H104.471H105.838V50.1993V30.0408H104.471H103.104V50.1993ZM80.5691 32.6813C80.3108 33.4485 80.0433 34.1887 79.5738 35.4353C79.4091 35.8726 79.2048 36.4347 79.1198 36.6846C79.0347 36.9344 78.7505 37.7266 78.4881 38.4449C78.2256 39.1632 77.915 40.032 77.7976 40.3756C77.6804 40.7191 77.5333 41.1024 77.471 41.2274C77.3703 41.4289 76.6994 43.2795 76.2769 44.5209C76.192 44.7707 75.9877 45.3329 75.823 45.7701C75.4724 46.7009 75.1334 47.6311 74.9123 48.2686C74.8256 48.5185 74.5152 49.3873 74.2223 50.1993C73.9294 51.0113 73.5392 52.1101 73.3552 52.6411C73.1711 53.172 72.9708 53.7086 72.9102 53.8335C72.8495 53.9585 72.7007 54.3418 72.5795 54.6853C72.2925 55.4992 71.4824 57.7215 71.1305 58.6602C70.9782 59.0663 70.7859 59.6029 70.7028 59.8527C70.5199 60.4036 69.0348 64.538 68.6222 65.6448C68.4593 66.082 68.2238 66.7208 68.0989 67.0644C67.9742 67.4079 67.8045 67.8679 67.7222 68.0865C67.6397 68.3051 67.5369 68.6118 67.4938 68.7679C67.4507 68.9241 67.325 69.2563 67.2148 69.5061C66.8071 70.4287 66.7175 70.3579 68.292 70.3579H69.7013L69.839 69.9888C70.1813 69.0716 71.0044 66.7268 71.1648 66.2126C71.2622 65.9003 71.3803 65.5936 71.4275 65.5312C71.4745 65.4687 71.5673 65.2132 71.6336 64.9633C71.6999 64.7135 71.917 64.0747 72.1162 63.5437C72.3153 63.0128 72.5482 62.374 72.6337 62.1241C72.7193 61.8743 73.0259 61.0054 73.3149 60.1934C73.604 59.3814 73.8918 58.5471 73.9543 58.3394C74.017 58.1317 74.1656 57.7352 74.2846 57.4585L74.5011 56.9551L82.0861 56.9843L89.671 57.0135L90.0742 58.1492C90.2959 58.7738 90.6769 59.847 90.9207 60.5341C91.4099 61.9124 91.8172 63.0196 92.0906 63.7141C92.1889 63.9639 92.6585 65.2671 93.134 66.6101C93.6097 67.9531 94.1112 69.3456 94.2485 69.7049L94.4984 70.3579H95.896C96.6647 70.3579 97.2935 70.3307 97.2935 70.2975C97.2935 70.2642 97.2121 70.047 97.1124 69.8148C97.0128 69.5825 96.8634 69.1881 96.7802 68.9383C96.697 68.6884 96.4948 68.1262 96.3309 67.689C96.1669 67.2518 95.8603 66.4085 95.6494 65.8151C95.4385 65.2217 95.026 64.0718 94.7326 63.2598C94.4391 62.4478 94.1293 61.579 94.0441 61.3291C93.9587 61.0793 93.755 60.5171 93.5913 60.0799C93.4277 59.6426 93.2404 59.106 93.1751 58.8874C93.11 58.6688 92.9871 58.3366 92.9021 58.1492C92.817 57.9618 92.5949 57.3741 92.4084 56.8431C92.222 56.3122 91.9106 55.4434 91.7163 54.9125C91.1837 53.4566 90.5944 51.8063 90.155 50.54C89.9382 49.9154 89.7134 49.3021 89.6554 49.1772C89.5432 48.9351 88.7094 46.6422 88.4577 45.8837C88.2994 45.406 87.6441 43.5947 87.0403 41.9656C86.3894 40.2091 85.7699 38.5082 85.6133 38.0474C85.2514 36.9826 84.5248 34.9633 84.4281 34.7539C84.3704 34.629 84.16 34.0413 83.9605 33.4479C83.419 31.8377 83.588 31.9715 82.0973 31.9715H80.808L80.5691 32.6813ZM191.054 34.2861V35.1244L192.133 35.205C193.486 35.3061 194.123 35.5877 194.323 36.1735C194.426 36.4736 194.461 40.4162 194.465 52.2578C194.469 60.8855 194.439 68.1069 194.4 68.3053C194.355 68.5287 194.18 68.7784 193.94 68.9603C193.598 69.2203 193.412 69.2624 192.332 69.3235L191.111 69.3925L191.078 70.2159L191.044 71.0393H198.972H206.9L206.866 70.2159L206.833 69.3925L205.554 69.3313C204.347 69.2736 204.256 69.2522 203.941 68.9513C203.754 68.772 203.553 68.4163 203.483 68.1389C203.399 67.806 203.358 65.1838 203.358 60.0863V52.5275H209.628H215.897L215.865 60.47L215.833 68.4124L215.498 68.7612C215.074 69.2022 214.594 69.3343 213.412 69.3351L212.472 69.3358V70.1875V71.0393H220.276H228.08V70.2004V69.3615L226.904 69.3182C225.592 69.2697 225.263 69.1361 224.921 68.5114C224.73 68.1641 224.719 67.243 224.719 52.2436C224.719 34.2516 224.632 35.8219 225.648 35.4637C225.952 35.3567 226.623 35.2353 227.14 35.194L228.08 35.1187V34.2833V33.4479H220.276H212.472V34.2839V35.1202L213.469 35.2003C214.535 35.2861 215.238 35.5299 215.605 35.9417C215.827 36.1906 215.834 36.382 215.865 43.3402L215.898 50.4833H209.628H203.358L203.367 43.5839C203.373 38.6327 203.414 36.5564 203.51 36.2303C203.705 35.5724 204.287 35.3061 205.757 35.2022L206.89 35.1221V34.285V33.4479H198.972H191.054V34.2861ZM262.03 33.6757C261.372 33.7867 260.09 33.987 259.181 34.1206C258.273 34.2544 256.978 34.4495 256.305 34.5542L255.08 34.7447V35.6295V36.5142H256.328C257.66 36.5142 258.082 36.6246 258.228 37.0107C258.279 37.1436 258.335 44.8545 258.355 54.1459L258.39 71.0393H259.842H261.295L262.076 70.2554L262.856 69.4716L263.895 69.9981C266.765 71.4518 269.077 71.9013 272.246 71.6221C276.195 71.2743 278.861 69.9629 280.935 67.3483C281.972 66.041 282.501 64.8927 283.081 62.692C283.368 61.6046 283.381 61.428 283.383 58.5467C283.385 55.756 283.366 55.4586 283.116 54.4582C282.249 50.9906 281.011 49.2283 278.321 47.6277C277.899 47.3766 276.783 46.9942 275.815 46.7686C274.556 46.4755 271.97 46.4998 270.73 46.8163C269.612 47.102 268.383 47.6724 267.384 48.3701L266.644 48.8873L266.614 41.1675L266.585 33.4479L264.905 33.4609C263.882 33.4689 262.758 33.5528 262.03 33.6757ZM348.499 33.5699C348.28 33.6243 347.459 33.7482 346.676 33.8453C345.893 33.9424 345.176 34.049 345.083 34.082C344.991 34.1151 344.504 34.1909 344.001 34.2504C343.499 34.31 342.562 34.4452 341.92 34.551L340.752 34.7431V35.6287V36.5142H341.98C344.14 36.5142 344.056 36.2748 344.056 42.4295V47.2162L343.8 47.1364C343.658 47.0925 343.056 46.9502 342.461 46.8202C341.004 46.502 338.197 46.4796 336.708 46.7742C335.513 47.0105 334.209 47.3821 333.803 47.602C333.646 47.6867 333.39 47.8073 333.233 47.8701C332.558 48.1405 331.141 49.194 330.38 49.9918C328.979 51.4596 328.111 53.1586 327.516 55.5939C327.275 56.5846 327.253 56.9185 327.256 59.6824C327.259 62.4374 327.281 62.7784 327.519 63.7141C328.185 66.3275 328.92 67.6883 330.496 69.2222C331.474 70.1738 332.507 70.7743 333.973 71.2444C334.823 71.5166 335.039 71.5368 337.163 71.5433C339.265 71.5498 339.504 71.5296 340.239 71.283C341.562 70.8399 342.467 70.3578 343.624 69.482L344.273 68.9896L344.383 69.4182C344.444 69.654 344.528 70.1151 344.57 70.4431L344.647 71.0393H349.991H355.334V70.1875V69.3358L354.167 69.3342C352.652 69.3322 352.545 69.2977 352.295 68.7283C352.098 68.2802 352.086 67.3934 352.057 50.8524L352.026 33.4479L350.462 33.4594C349.602 33.4659 348.718 33.5157 348.499 33.5699ZM355.334 33.9021V34.2428H356.189H357.043V36.7414V39.2399H357.442H357.841V36.7414V34.2428H358.695H359.55V33.9021V33.5614H357.442H355.334V33.9021ZM360.195 35.918C360.087 37.2142 360.001 38.4918 360.002 38.7572C360.005 39.2124 360.024 39.2399 360.333 39.2399C360.734 39.2399 360.798 39.0083 360.814 37.4938C360.82 36.9238 360.861 36.023 360.904 35.4921L360.983 34.5268L361.188 35.2082C361.3 35.583 361.632 36.6051 361.924 37.4796C362.425 38.9775 362.474 39.0716 362.769 39.1055C362.992 39.1311 363.103 39.0817 363.151 38.9352C363.189 38.8217 363.311 38.5244 363.422 38.2745C363.534 38.0247 363.68 37.6414 363.747 37.4228C363.814 37.2042 364.068 36.4455 364.311 35.7368L364.754 34.4483L364.83 35.7936C364.872 36.5335 364.939 37.6143 364.979 38.1953L365.053 39.2517L365.406 39.2174C365.6 39.1985 365.748 39.1262 365.735 39.0567C365.723 38.9872 365.648 37.7224 365.569 36.2459L365.427 33.5614H364.957C364.581 33.5614 364.464 33.6123 364.369 33.817C364.209 34.1635 363.802 35.2561 363.702 35.6057C363.658 35.7618 363.533 36.094 363.424 36.3439C363.316 36.5937 363.137 37.1032 363.027 37.476L362.826 38.1538L362.563 37.2454C362.418 36.7457 362.218 36.1086 362.119 35.8293C362.019 35.5501 361.8 34.9256 361.633 34.4416L361.329 33.5614H360.86H360.391L360.195 35.918ZM82.3127 35.8044C82.4103 36.1636 82.5714 36.7641 82.6705 37.1389C83.2259 39.239 84.5723 43.3188 85.4439 45.543C85.5663 45.8553 85.9053 46.7752 86.1973 47.5872C86.4893 48.3993 86.8418 49.3703 86.9806 49.745C87.1193 50.1198 87.5256 51.2442 87.8833 52.2436C88.2412 53.243 88.5822 54.1494 88.6415 54.2578C88.7007 54.3663 88.7491 54.5069 88.7491 54.5702C88.7491 54.6467 86.4901 54.6853 82.0199 54.6853H75.2906L75.3696 54.4298C75.4132 54.2892 75.5135 54.0465 75.5926 53.8903C75.6718 53.7342 75.7908 53.4275 75.8572 53.2089C75.9895 52.7737 76.2684 51.9937 76.7304 50.7672C76.8951 50.3299 77.1003 49.7678 77.1865 49.5179C77.2727 49.2681 77.5044 48.6548 77.7014 48.1551C77.8983 47.6554 78.1289 47.0421 78.2139 46.7922C78.3978 46.2514 79.209 44.0268 79.6014 42.9877C79.7547 42.5817 79.9474 42.0113 80.0295 41.7201C80.1116 41.4289 80.2131 41.1355 80.255 41.0679C80.2969 41.0003 80.401 40.7019 80.4866 40.4048C80.572 40.1077 80.7683 39.4557 80.9228 38.956C81.4283 37.3205 81.7741 36.1238 81.858 35.7192C82.016 34.957 82.0858 34.97 82.3127 35.8044ZM124.693 42.647C121.832 43.1707 119.77 44.6619 118.13 47.3931L117.833 47.8877L117.761 46.9425C117.722 46.4226 117.656 45.3456 117.614 44.5493L117.539 43.1012H116.284H115.03L115.104 45.5714C115.146 46.9299 115.179 53.0626 115.18 59.1997L115.18 70.3579H116.547H117.914V61.5987C117.914 53.0782 117.921 52.8113 118.155 51.8034C119.009 48.1382 121.835 45.2859 125.003 44.8923C127.121 44.6293 129 45.1875 130.237 46.4469C131.157 47.3833 131.338 47.6282 131.747 48.4958C132.158 49.3657 132.266 49.713 132.487 50.8581C132.715 52.0372 132.724 52.4388 132.724 61.2213V70.3579H134.088H135.452L135.484 60.8465L135.516 51.335L135.774 50.6039C136.37 48.9178 137.295 47.5542 138.551 46.512C139.751 45.5154 140.753 45.0693 142.182 44.8938C146.529 44.3603 149.462 47.0285 150.038 52.0394C150.105 52.6251 150.153 56.6226 150.154 61.6982L150.155 70.3579H151.529H152.902L152.859 60.7897L152.815 51.2215L152.515 50.029C152.015 48.0398 151.49 46.8833 150.502 45.5998C149.221 43.9345 147.659 43.0085 145.427 42.5905C144.278 42.3753 143.543 42.376 142.18 42.5935C140.527 42.8572 139.556 43.2198 138.377 44.0131C137.807 44.3959 136.678 45.3815 136.314 45.814C136.042 46.1358 135.147 47.4764 134.849 48.0071L134.639 48.3821L134.086 47.2698C133.782 46.658 133.367 45.9425 133.165 45.6798C131.935 44.0815 130.276 43.0324 128.352 42.6366C127.074 42.3737 126.171 42.3763 124.693 42.647ZM167.301 42.6408C166.107 42.8303 165.042 43.1027 163.96 43.4951C163.446 43.6815 161.788 44.5267 161.624 44.6859C161.572 44.7363 161.659 45.103 161.817 45.501C161.976 45.8988 162.158 46.3642 162.222 46.5351L162.338 46.846L162.866 46.4909C164.034 45.7052 165.583 45.1324 167.136 44.9127C168.332 44.7433 170.14 44.7389 171.117 44.9029C172.512 45.137 174.006 46.0832 174.826 47.2536C175.607 48.3683 176.097 50.0679 176.203 52.0307L176.277 53.4013L174.409 53.47C167.839 53.7113 163.471 55.3425 161.059 58.4546C160.701 58.917 160.294 59.5754 160.294 59.693C160.294 59.7558 160.212 59.965 160.112 60.158C159.841 60.6808 159.496 62.5443 159.5 63.4696C159.51 66.2976 161.105 68.9412 163.501 70.1026C164.602 70.6361 166.354 71.0393 167.571 71.0393C169.227 71.0393 171.546 70.4175 172.882 69.6153C173.243 69.399 173.561 69.2222 173.591 69.2222C173.74 69.2222 175.464 67.5543 175.991 66.9004C176.189 66.6539 176.376 66.4765 176.405 66.5061C176.435 66.5356 176.515 67.146 176.583 67.8625C176.651 68.5792 176.734 69.4337 176.768 69.7616L176.83 70.3579H178.088H179.346L179.273 69.8752C179.233 69.6098 179.146 68.9837 179.079 68.484C179.01 67.967 178.92 63.8795 178.871 59.0009C178.789 50.8595 178.772 50.3777 178.547 49.4611C178.284 48.3908 177.944 47.3709 177.711 46.9526C177.072 45.8025 176.799 45.4102 176.275 44.8877C174.959 43.5764 173.556 42.9152 171.402 42.5921C169.964 42.3763 168.886 42.3891 167.301 42.6408ZM228.422 47.0194V47.8712H229.226C230.766 47.8712 231.32 48.3133 232.004 50.0858C232.173 50.523 232.384 51.0418 232.474 51.2386C232.563 51.4354 232.637 51.6752 232.637 51.7714C232.637 51.8675 232.682 51.9743 232.738 52.0087C232.794 52.043 232.872 52.2006 232.912 52.3591C232.952 52.5175 233.111 52.9235 233.266 53.2615C233.421 53.5994 233.548 53.912 233.548 53.9563C233.548 54.055 234.963 57.6232 235.266 58.2899C235.386 58.5547 235.485 58.8025 235.485 58.8406C235.485 58.8786 235.555 59.0709 235.64 59.2677C235.98 60.0499 237.65 64.3078 237.65 64.3914C237.65 64.4405 237.774 64.7681 237.927 65.1195C238.331 66.0511 240.256 70.8605 240.563 71.7033C240.796 72.3433 240.808 72.4645 240.674 72.7822C240.591 72.9792 240.417 73.3959 240.287 73.7082C239.49 75.6277 238.943 76.8521 238.639 77.3992C238.448 77.7427 238.235 78.1333 238.165 78.2671C237.915 78.7433 237.245 79.5373 236.887 79.7828C236.253 80.2167 235.57 79.8522 235.57 79.08C235.57 78.9324 235.743 78.5322 235.955 78.1905C236.318 77.6035 236.339 77.5135 236.335 76.5474C236.331 75.6307 236.298 75.4751 236.018 75.0388C235.585 74.3659 235.331 74.1336 234.65 73.7896C234.147 73.5359 233.91 73.4915 233.028 73.4867C231.833 73.4801 231.288 73.6911 230.467 74.4775C229.853 75.0662 229.541 75.7776 229.471 76.7516C229.353 78.3967 230.199 79.9606 231.782 81.0226C232.754 81.6742 233.139 81.7716 234.741 81.7716C236.828 81.7716 237.333 81.5711 238.746 80.1816C239.318 79.6195 239.895 78.9551 240.029 78.7052C240.163 78.4554 240.322 78.1743 240.383 78.0806C240.533 77.8494 241.319 76.1152 242.158 74.1625C242.273 73.8942 244.039 69.4622 245.183 66.5684C245.68 65.3129 246.124 64.2221 246.374 63.6431C246.526 63.2917 246.65 62.9576 246.65 62.9006C246.65 62.8436 246.833 62.3645 247.058 61.8359C247.282 61.3073 247.508 60.7471 247.559 60.5909C247.719 60.1042 250.517 53.163 250.637 52.955C250.7 52.8465 250.751 52.7026 250.751 52.6353C250.751 52.568 250.872 52.2479 251.02 51.924C251.168 51.6001 251.329 51.2073 251.377 51.0511C251.52 50.5885 252.24 49.2079 252.552 48.8012C252.889 48.3606 253.539 48.0023 254.208 47.889L254.681 47.8088L254.715 46.9882L254.748 46.1676H250.979H247.209L247.243 46.991L247.276 47.8144L248.245 47.8712C249.298 47.9329 249.665 48.0973 249.778 48.5577C249.841 48.8172 249.642 49.4067 247.936 54.0039C247.785 54.4099 247.592 54.9465 247.506 55.1964C247.42 55.4462 246.908 56.8261 246.367 58.2627C245.826 59.6994 245.307 61.1208 245.213 61.4216C245.119 61.7223 244.985 61.9494 244.916 61.9265C244.789 61.8845 244.462 61.0097 243.267 57.5245C242.913 56.4939 242.534 55.3951 242.424 55.0828C242.314 54.7705 241.881 53.5439 241.463 52.3571C240.018 48.2594 240.06 47.8712 241.947 47.8712H242.89V47.0194V46.1676H235.656H228.422V47.0194ZM292.562 46.6849C291.904 46.8344 290.853 47.0652 290.226 47.1979C289.6 47.3308 288.779 47.5088 288.403 47.5935C288.027 47.6783 287.194 47.8601 286.552 47.9977L285.384 48.2478V49.0676V49.8874L286.723 49.9424C288.157 50.0013 288.39 50.0536 288.537 50.35C288.65 50.5779 288.734 66.6954 288.628 67.7305C288.566 68.3331 288.491 68.5208 288.181 68.8585C287.81 69.2622 287.804 69.2639 286.625 69.3281L285.441 69.3925L285.408 70.2159L285.374 71.0393H292.955H300.536V70.2001V69.3609L299.301 69.3187C298.149 69.2794 298.037 69.2548 297.637 68.9505C296.861 68.3601 296.878 68.5266 296.915 61.8043C296.948 55.8658 296.953 55.7489 297.214 54.8557C297.925 52.4206 298.994 50.4656 299.854 50.0283C300.358 49.7719 300.659 49.7426 300.849 49.9315C300.946 50.0289 300.895 50.2269 300.644 50.7233C300.226 51.549 300.192 52.449 300.545 53.3467C300.833 54.0794 301.197 54.4758 302.017 54.948C302.622 55.296 302.69 55.3087 303.954 55.3094C305.414 55.3101 305.726 55.213 306.567 54.495C308.059 53.2221 308.316 50.109 307.065 48.4752C306.507 47.7453 306.297 47.5755 305.451 47.1665C304.847 46.8739 304.55 46.8069 303.657 46.7603C301.788 46.6629 300.534 47.0758 299.076 48.2686C298.575 48.6784 297.367 50.2488 297.068 50.8769C296.908 51.2153 296.725 51.5238 296.663 51.5623C296.588 51.6082 296.549 50.7271 296.549 49.0135V46.3948L295.153 46.4041C294.118 46.411 293.449 46.4836 292.562 46.6849ZM317.853 46.5761C317.32 46.6636 316.372 46.8102 315.745 46.9018C315.119 46.9935 314.119 47.1457 313.524 47.2399C312.929 47.3343 312.083 47.4676 311.644 47.5364C310.363 47.7369 310.448 47.6611 310.448 48.6075V49.4422L311.811 49.48C312.871 49.5095 313.215 49.5583 313.356 49.6992C313.714 50.0563 313.763 51.397 313.729 59.8211L313.695 68.1433L313.428 68.5706C313.061 69.1593 312.832 69.2537 311.587 69.3279L310.505 69.3925L310.471 70.2159L310.438 71.0393H317.506H324.575V70.1996V69.3598L323.67 69.3188C322.862 69.2823 322.73 69.2438 322.431 68.9584C322.195 68.7325 322.059 68.4526 321.968 68.003C321.879 67.5596 321.84 64.1927 321.84 56.881V46.3948L320.331 46.406C319.501 46.4121 318.386 46.4888 317.853 46.5761ZM342.11 48.5969C342.483 48.7479 343.073 49.0602 343.422 49.2909L344.056 49.7103V58.2294V66.7483L343.456 67.3369C342.264 68.5059 341.285 68.9913 340.111 68.9938C338.105 68.998 336.788 67.4289 336.014 64.1116C335.4 61.4856 335.375 55.3084 335.967 52.8114C336.219 51.7509 336.66 50.5313 336.972 50.0329C337.463 49.2473 338.628 48.4395 339.499 48.2806C340.121 48.167 341.445 48.3273 342.11 48.5969ZM271.893 49.4653C272.584 49.779 273.227 50.4438 273.653 51.2835C274.68 53.3118 275.184 57.373 274.924 61.529C274.645 65.9854 274.131 67.8672 272.852 69.1088C271.492 70.4294 268.896 70.2808 267.071 68.7779L266.587 68.379V59.8231V51.267L266.957 50.8982C267.747 50.1112 268.831 49.4247 269.606 49.22C270.146 49.0773 271.315 49.2025 271.893 49.4653ZM176.187 59.1713V62.5784L175.837 63.4365C175.396 64.5209 174.769 65.4709 173.967 66.2708C173.118 67.1166 172.793 67.3514 171.849 67.8006C169.608 68.8671 166.906 68.9516 165.047 68.0131C164.216 67.5941 163.255 66.5563 162.897 65.6926C162.379 64.4432 162.267 62.4105 162.643 61.102C162.958 60.0076 163.909 58.7295 164.999 57.934C166.861 56.5756 170.841 55.7061 174.991 55.7512L176.187 55.7642V59.1713ZM136.142 88.4125C135.141 88.6676 133.966 89.4196 133.566 90.0606C133.084 90.8342 132.948 91.8217 133.191 92.7852C133.461 93.8513 134.797 94.8749 136.803 95.5505C138.972 96.281 139.973 97.0064 140.292 98.077C140.518 98.8336 140.516 99.0395 140.281 99.7651C140.036 100.521 139.395 101.163 138.555 101.493C137.226 102.014 134.639 101.83 133.491 101.133C133.289 101.01 133.085 100.909 133.039 100.908C132.957 100.908 132.578 101.714 132.637 101.763C133.118 102.162 134.792 102.604 136.142 102.688C138.493 102.834 140.52 101.886 141.283 100.283C141.666 99.4791 141.668 98.1182 141.287 97.3874C140.627 96.1205 139.839 95.6132 136.769 94.4808C135.589 94.0456 134.736 93.4243 134.382 92.7424C134.27 92.5265 134.192 92.1038 134.19 91.7029C134.181 89.8886 135.924 88.9019 138.603 89.2053C139.146 89.267 139.746 89.4142 140.02 89.5531C140.28 89.6857 140.506 89.7778 140.522 89.7578C140.687 89.5464 140.911 88.9239 140.843 88.8638C140.795 88.8212 140.5 88.6972 140.186 88.5883C139.534 88.3612 136.808 88.2427 136.142 88.4125ZM170.365 88.4242C169.544 88.4632 168.813 88.5314 168.741 88.5755C168.646 88.6345 168.611 90.5011 168.611 95.577V102.498H169.123H169.636V99.3181V96.1381L170.975 96.139C172.609 96.14 173.593 96.2886 174.161 96.6204C175.054 97.1416 175.363 97.6996 176.021 99.9785C176.808 102.707 176.69 102.498 177.44 102.498H178.071L177.851 102.067C177.632 101.639 177.356 100.751 177.139 99.7723C176.897 98.6818 176.433 97.468 176.085 97.0126C175.884 96.7507 175.456 96.3522 175.133 96.1272L174.545 95.7179L175.133 95.4453C176.107 94.9944 176.749 94.4131 177.143 93.6287C177.812 92.2935 177.546 90.6215 176.511 89.6519C175.35 88.5645 173.823 88.2596 170.365 88.4242ZM201.763 88.3734C201.218 88.4774 200.009 88.9038 199.606 89.1343C199.041 89.4571 198.182 90.138 197.868 90.5112C197.723 90.6834 197.528 90.9131 197.434 91.0219C196.924 91.6118 196.362 92.9963 196.187 94.0939C195.62 97.641 197.066 100.764 199.863 102.035C201.844 102.934 204.325 102.926 206.377 102.014C208.419 101.105 209.806 99.2528 210.185 96.9238C210.829 92.9774 209.151 89.8307 205.753 88.6145C205.271 88.4419 204.765 88.3811 203.586 88.3542C202.74 88.3348 201.92 88.3435 201.763 88.3734ZM231.156 88.4214C230.373 88.4592 229.616 88.5279 229.475 88.5741L229.219 88.6579V95.5779V102.498H229.789H230.358V99.3031V96.1081L232.155 96.1598C233.798 96.2069 234.009 96.2374 234.613 96.5129C235.677 96.9986 236.112 97.6572 236.615 99.5452C237.093 101.338 237.348 102.188 237.457 102.356C237.547 102.494 238.675 102.566 238.675 102.434C238.675 102.399 238.574 102.13 238.45 101.838C238.326 101.545 238.174 101.101 238.112 100.851C237.283 97.5039 237.009 96.9311 235.856 96.128L235.27 95.7196L235.945 95.3979C236.768 95.0058 237.385 94.4489 237.824 93.7009C238.123 93.1918 238.155 93.039 238.155 92.1109C238.155 91.222 238.115 91.0081 237.856 90.5164C236.94 88.7779 235.179 88.2273 231.156 88.4214ZM252.403 88.3737C251.759 88.4729 250.58 88.8825 249.731 89.3019C248.718 89.8024 247.437 91.008 246.963 91.9066C246.255 93.2527 246.137 93.7818 246.137 95.6271C246.137 97.4667 246.28 98.0921 246.978 99.3181C247.302 99.8858 247.307 99.8919 247.822 100.459C248.612 101.33 249.977 102.083 251.435 102.452C252.576 102.741 255.084 102.746 256.39 102.462C257.816 102.151 258.07 102.051 257.98 101.834C257.937 101.731 257.875 101.552 257.842 101.437C257.801 101.293 257.708 101.245 257.542 101.283C255.708 101.705 255.001 101.813 254.082 101.815C250.499 101.821 247.946 100.018 247.383 97.0836C246.897 94.5526 247.666 91.9701 249.299 90.6511C249.918 90.151 251.061 89.6095 251.999 89.3717C252.991 89.1203 256.28 89.1907 256.928 89.4774C257.523 89.7408 257.633 89.7166 257.844 89.2756L258.03 88.8866L257.324 88.6403C256.729 88.4328 256.313 88.3883 254.681 88.3576C253.616 88.3375 252.591 88.3448 252.403 88.3737ZM263.169 88.4265C262.386 88.4663 261.655 88.5366 261.545 88.5828C261.359 88.6615 261.346 89.1039 261.346 95.5824V102.498H261.859H262.371V99.3022V96.1063L264.243 96.1629C266.006 96.2161 266.15 96.2377 266.721 96.532C267.054 96.7038 267.444 96.9793 267.586 97.1442C267.941 97.5564 268.365 98.3854 268.464 98.8638C268.563 99.3416 269.265 101.768 269.427 102.195C269.534 102.473 269.595 102.498 270.175 102.498H270.808L270.649 102.186C270.486 101.864 270.242 101.077 269.725 99.2045C269.227 97.4025 268.807 96.7155 267.81 96.0742L267.269 95.7263L267.976 95.3928C268.37 95.2072 268.943 94.8023 269.267 94.4803C269.979 93.7739 270.427 92.6086 270.3 91.7935C270.175 90.9918 269.876 90.313 269.445 89.8514C268.283 88.6065 266.7 88.2473 263.169 88.4265ZM100.838 89.5893C100.765 90.2348 100.656 91.4997 100.595 92.4001C100.534 93.3005 100.41 94.8292 100.318 95.7974C100.227 96.7656 100.069 98.5799 99.9685 99.8291C99.8676 101.078 99.7592 102.19 99.7278 102.299C99.6783 102.471 99.7542 102.498 100.289 102.498H100.908L100.984 101.391C101.025 100.782 101.133 99.4401 101.223 98.4095C101.43 96.0478 101.739 91.1821 101.738 90.311C101.737 89.596 101.892 89.5261 102.016 90.186C102.058 90.4115 102.161 90.7571 102.244 90.9538C102.328 91.1505 102.613 91.8736 102.879 92.5607C103.355 93.7921 103.921 95.1581 104.832 97.2738C105.511 98.8511 105.559 98.9636 105.895 99.7723C106.219 100.552 106.324 100.797 106.789 101.845C107.073 102.485 107.088 102.498 107.541 102.498C107.795 102.498 108.003 102.445 108.003 102.38C108.003 102.315 108.159 101.919 108.35 101.5C108.542 101.081 108.742 100.635 108.796 100.511C108.849 100.386 109.003 100.028 109.137 99.7156C109.271 99.4032 109.478 98.9433 109.595 98.6934C109.713 98.4436 109.92 97.9836 110.055 97.6713C110.19 97.359 110.394 96.899 110.508 96.6492C110.622 96.3993 110.955 95.6327 111.249 94.9456C111.543 94.2585 111.899 93.4408 112.04 93.1285C112.426 92.2791 112.741 91.5191 113.09 90.5955C113.317 89.9971 113.425 89.823 113.478 89.9708C113.519 90.0835 113.586 91.1467 113.628 92.3335C113.67 93.5203 113.779 95.2835 113.869 96.2517C114.002 97.6719 114.268 101.744 114.268 102.356C114.268 102.451 114.458 102.498 114.838 102.498H115.408V101.715C115.408 101.285 115.334 100.224 115.243 99.3586C115.152 98.4931 115.046 97.1972 115.006 96.4788C114.967 95.7605 114.864 94.4317 114.777 93.526C114.69 92.6203 114.589 91.3171 114.553 90.63C114.517 89.9429 114.46 89.1635 114.428 88.8981L114.368 88.4154H113.685H113.002L112.768 88.9549C112.639 89.2515 112.367 89.8521 112.163 90.2893C111.855 90.9528 109.913 95.3439 109.125 97.1602C109.003 97.4413 108.828 97.816 108.737 97.9928C108.647 98.1696 108.572 98.3663 108.572 98.4299C108.572 98.4935 108.499 98.7066 108.409 98.9034C108.093 99.5986 107.661 100.757 107.661 100.911C107.661 101.178 107.474 100.884 107.263 100.283C107.153 99.9711 106.941 99.4549 106.792 99.1364C106.643 98.8179 106.521 98.4759 106.521 98.3765C106.521 98.2771 106.476 98.1677 106.42 98.1333C106.365 98.099 106.285 97.9371 106.244 97.7734C106.203 97.6097 106.073 97.2643 105.957 97.0058C105.768 96.5885 105.407 95.7397 104.984 94.7185C104.776 94.2166 103.789 91.9336 103.609 91.5386C103.399 91.077 102.47 88.8617 102.383 88.6142C102.327 88.4553 102.179 88.4154 101.642 88.4154H100.97L100.838 89.5893ZM123.537 88.8413C123.44 89.0756 123.296 89.4205 123.217 89.6079C123.138 89.7953 123.008 90.1019 122.929 90.2893C122.85 90.4767 122.612 91.054 122.401 91.5722C122.189 92.0903 121.913 92.7396 121.787 93.015C121.662 93.2904 121.386 93.9396 121.174 94.4577C120.736 95.5327 120.548 95.9843 120.406 96.3085C120.038 97.1478 119.25 99.0733 119.198 99.2613C119.163 99.3862 119.096 99.5395 119.05 99.602C118.953 99.7337 117.914 102.313 117.914 102.424C117.914 102.465 118.172 102.498 118.487 102.498C118.932 102.498 119.076 102.453 119.128 102.299C119.164 102.19 119.283 101.896 119.391 101.646C119.499 101.396 119.807 100.63 120.076 99.9427C120.344 99.2556 120.666 98.4506 120.791 98.154L121.018 97.6145H124.237H127.456L127.596 97.9836C127.828 98.5967 128.182 99.4677 128.345 99.8291C128.43 100.017 128.686 100.63 128.913 101.192C129.141 101.754 129.353 102.278 129.386 102.356C129.423 102.445 129.674 102.498 130.053 102.498H130.66L130.497 102.186C130.407 102.014 130.333 101.794 130.333 101.697C130.332 101.601 130.29 101.473 130.238 101.413C130.187 101.354 130 100.948 129.824 100.511C129.389 99.4338 128.979 98.4512 128.722 97.8713C128.605 97.6065 128.509 97.3586 128.509 97.3206C128.509 97.2826 128.435 97.0903 128.344 96.8935C128.253 96.6967 127.941 95.9479 127.651 95.2296C127.361 94.5112 127.055 93.7702 126.971 93.5828C126.886 93.3954 126.657 92.8588 126.462 92.3903C126.024 91.3415 125.674 90.5116 125.481 90.0605C125.4 89.8722 125.277 89.5655 125.207 89.379C124.845 88.4131 124.848 88.4154 124.26 88.4154C123.735 88.4154 123.706 88.4326 123.537 88.8413ZM142.978 88.8697V89.324H145.598H148.218V95.911V102.498H148.845H149.471V95.9131V89.3283L152.063 89.2977L154.655 89.2672L154.69 88.8413L154.726 88.4154H148.852H142.978V88.8697ZM156.99 95.4567V102.498H161.149H165.307V102.101V101.703H161.661H158.016V98.5799V95.4567H161.263H164.51V95.0592V94.6617H161.263H158.016V91.9945V89.3273L161.462 89.2973L164.908 89.2672L164.944 88.8413L164.979 88.4154H160.985H156.99V95.4567ZM183.649 88.5151C183.649 88.5699 183.726 88.6783 183.82 88.7561C183.914 88.8339 183.991 88.9511 183.991 89.0166C183.991 89.0822 184.064 89.2165 184.154 89.3152C184.243 89.414 184.386 89.6224 184.47 89.7785C184.614 90.0439 185.155 90.8747 187.282 94.0939C187.756 94.8122 188.206 95.5142 188.282 95.6539C188.357 95.7934 188.499 96.0221 188.597 96.1617C188.748 96.3771 188.776 96.88 188.776 99.457V102.498H189.345H189.915L189.918 99.46L189.921 96.422L190.482 95.6271C191.172 94.649 194.144 90.2903 194.301 90.0266C194.364 89.9212 194.479 89.7941 194.557 89.7442C194.636 89.6942 194.7 89.6014 194.7 89.5379C194.7 89.4743 194.82 89.2597 194.968 89.0608C195.453 88.4069 195.456 88.4154 194.704 88.4154C194.093 88.4154 193.997 88.446 193.9 88.6709C193.84 88.8114 193.693 89.0542 193.574 89.2104C193.363 89.4876 191.681 92.0288 191.453 92.414C191.39 92.5206 191.057 93.0328 190.712 93.5523C189.875 94.8144 189.833 94.8835 189.621 95.3431L189.438 95.7406L189.192 95.2726C188.76 94.4491 188.525 94.0558 187.961 93.2054C187.657 92.748 187.408 92.3515 187.408 92.3243C187.408 92.2972 187.088 91.7748 186.696 91.1634C186.305 90.552 185.933 89.9698 185.871 89.8698C185.808 89.7697 185.59 89.4501 185.386 89.1595C185.183 88.8689 185.016 88.5826 185.016 88.5233C185.016 88.4639 184.708 88.4154 184.333 88.4154C183.957 88.4154 183.649 88.4603 183.649 88.5151ZM213.725 93.2212C213.725 98.4152 213.769 98.929 214.308 100.066C214.907 101.331 215.881 102.087 217.43 102.491C218.567 102.788 219.585 102.788 220.767 102.49C222.576 102.034 223.609 101.186 224.285 99.602C224.723 98.5769 224.776 97.8702 224.776 93.0508V88.4154H224.206H223.637V93.1594C223.637 97.4082 223.615 97.9816 223.428 98.653C223.224 99.3877 222.819 100.172 222.41 100.624C221.725 101.382 220.53 101.817 219.132 101.817C217.061 101.817 215.66 100.801 215.06 98.8638C214.85 98.1865 214.827 97.725 214.78 93.2705L214.728 88.4154H214.227H213.725V93.2212ZM278.361 88.8413C278.264 89.0756 278.121 89.4205 278.041 89.6079C277.962 89.7953 277.833 90.1019 277.753 90.2893C277.674 90.4767 277.432 91.0644 277.216 91.5953C277 92.1263 276.745 92.7396 276.651 92.9582C276.556 93.1768 276.405 93.5264 276.315 93.735C276.224 93.9436 275.968 94.5825 275.745 95.1546C275.522 95.7268 275.292 96.2434 275.235 96.3028C275.178 96.3621 275.131 96.4803 275.131 96.5655C275.131 96.6507 274.985 97.0365 274.807 97.4229C274.628 97.8094 274.366 98.4067 274.224 98.7502C274.082 99.0938 273.927 99.4532 273.879 99.5491C273.727 99.855 272.739 102.347 272.739 102.424C272.739 102.465 272.997 102.498 273.312 102.498C273.756 102.498 273.9 102.453 273.952 102.299C273.989 102.19 274.11 101.896 274.221 101.646C274.331 101.396 274.475 101.039 274.54 100.851C274.604 100.664 274.845 100.076 275.074 99.5452C275.304 99.0143 275.536 98.4344 275.591 98.2565C275.795 97.5957 275.692 97.6145 279.119 97.6145H282.281L282.42 97.9836C282.652 98.5967 283.006 99.4677 283.17 99.8291C283.255 100.017 283.51 100.63 283.738 101.192C283.965 101.754 284.178 102.278 284.21 102.356C284.247 102.445 284.499 102.498 284.881 102.498H285.493L285.374 102.187C285.309 102.017 285.186 101.723 285.101 101.534C285.016 101.346 284.786 100.809 284.59 100.34C284.028 98.9945 283.771 98.3888 283.545 97.8713C283.429 97.6065 283.334 97.3586 283.334 97.3206C283.334 97.2826 283.259 97.0903 283.168 96.8935C283.077 96.6967 282.765 95.9479 282.475 95.2296C282.184 94.5112 281.855 93.7191 281.743 93.4692C281.631 93.2194 281.304 92.4228 281.015 91.699C280.727 90.9754 280.413 90.2343 280.318 90.0523C280.223 89.8703 280.145 89.6739 280.144 89.6158C280.144 89.5577 280.032 89.2639 279.896 88.9628C279.648 88.4175 279.645 88.4154 279.092 88.4154C278.558 88.4154 278.531 88.4314 278.361 88.8413ZM288.46 95.4567V102.498H288.971H289.482L289.512 99.1193L289.543 95.7406L292.704 95.7104L295.865 95.6802V95.2845V94.8889H292.676H289.486V92.1064V89.324H292.96H296.435V88.8697V88.4154H292.448H288.46V95.4567ZM297.802 88.8697V89.324H300.422H303.043V95.911V102.498H303.669H304.296V95.911V89.324H306.916H309.536V88.8697V88.4154H303.669H297.802V88.8697ZM204.222 89.2189C206.598 89.5484 208.326 91.2218 208.944 93.794C209.067 94.3025 209.167 95.0534 209.167 95.4627C209.168 96.3832 208.743 98.0557 208.301 98.8697C207.913 99.5849 206.934 100.676 206.474 100.906C206.295 100.996 206.072 101.128 205.978 101.2C205.562 101.521 204.222 101.817 203.187 101.817C202.115 101.817 200.773 101.51 200.387 101.177C200.288 101.091 200.154 101.022 200.089 101.022C199.845 101.022 198.558 99.6887 198.172 99.0354C197.516 97.9271 197.27 96.9647 197.273 95.5135C197.277 93.8009 197.523 92.9442 198.419 91.5386C199.382 90.0274 200.901 89.2384 203.094 89.1112C203.23 89.1033 203.738 89.1518 204.222 89.2189ZM174.421 89.5494C175.222 89.8957 175.544 90.1427 175.92 90.6972C176.299 91.2562 176.418 92.0659 176.244 92.9008C176.133 93.4319 176.016 93.6336 175.55 94.0929C174.617 95.0139 173.434 95.3321 170.918 95.3394L169.636 95.3431V92.3407V89.3384L170.006 89.2868C170.21 89.2584 171.146 89.2449 172.086 89.2568C173.607 89.276 173.863 89.3081 174.421 89.5494ZM235.2 89.5823C236.087 89.9554 236.647 90.5118 236.889 91.2596C237.126 91.9912 237.128 92.3015 236.9 93.0679C236.769 93.5051 236.577 93.809 236.207 94.1627C235.316 95.0139 234.08 95.328 231.583 95.3381L230.358 95.3431V92.3407V89.3384L230.729 89.286C230.932 89.2572 231.868 89.2474 232.808 89.2641C234.341 89.2915 234.587 89.3242 235.2 89.5823ZM267.133 89.5315C267.947 89.8656 268.38 90.2014 268.696 90.7436C269.049 91.3477 269.146 92.0997 268.977 92.91C268.859 93.4762 268.754 93.6537 268.24 94.1541C267.332 95.0376 266.526 95.2622 264.211 95.2758L262.428 95.2863L262.398 92.3125L262.368 89.3386L262.74 89.2869C262.944 89.2585 263.881 89.2462 264.821 89.2597C266.28 89.2805 266.618 89.3202 267.133 89.5315ZM124.621 90.7445C124.971 91.7848 125.156 92.2552 126.006 94.2642C126.542 95.5337 127.028 96.7307 127.028 96.7843C127.028 96.8036 125.772 96.8195 124.237 96.8195C122.079 96.8195 121.446 96.7873 121.447 96.6776C121.447 96.5996 121.58 96.2545 121.742 95.911C121.904 95.5674 122.263 94.7242 122.54 94.0371C122.818 93.35 123.114 92.6601 123.2 92.5039C123.285 92.3477 123.547 91.6426 123.781 90.9368C124.015 90.231 124.223 89.6693 124.242 89.6884C124.261 89.7076 124.431 90.1828 124.621 90.7445ZM279.43 90.6868C279.676 91.3671 280.432 93.2645 281.3 95.3849C281.604 96.1262 281.853 96.7522 281.853 96.7761C281.853 96.8 280.593 96.8195 279.054 96.8195H276.255L276.332 96.564C276.375 96.4235 276.565 95.9507 276.756 95.5135C276.946 95.0762 277.274 94.2841 277.485 93.7532C277.695 93.2222 277.938 92.6601 278.024 92.5039C278.11 92.3477 278.374 91.6346 278.612 90.9193C278.927 89.9689 279.065 89.6782 279.124 89.8404C279.168 89.9623 279.306 90.3432 279.43 90.6868Z" fill="black"/>
</g>
</svg>
