<svg width="128" height="19" viewBox="0 0 128 19" fill="none" xmlns="http://www.w3.org/2000/svg">
<path d="M14.6564 9.17537C13.6969 8.17252 12.4176 7.59309 11.0529 7.52623H8.30235V11.9834L10.0508 13.8331V9.37595H10.9037C12.5455 9.39824 13.9741 10.5571 14.3792 12.2285C14.7843 13.8777 14.0807 15.6382 12.6521 16.4851C11.2235 17.3319 9.43244 17.0868 8.28103 15.8611L2.52401 9.84394L8.28103 3.8268C9.36847 2.71252 10.989 2.40052 12.3749 3.06909C13.7609 3.73766 14.5924 5.23081 14.4858 6.81309V6.83537L16.021 8.12795L16.0424 8.06109C16.7247 5.58737 15.7225 2.95766 13.5903 1.6428C11.4794 0.327948 8.77145 0.706803 7.04434 2.51195L0.0292969 9.82166L7.02302 17.1314C9.13392 19.3377 12.5455 19.3377 14.6564 17.1314C16.7673 14.9474 16.7673 11.3817 14.6564 9.17537Z" fill="#23A994"/>
<path d="M59.0938 6.99158V7.83843C58.2196 7.14758 57.1748 6.79101 56.0661 6.79101C53.2942 6.79101 51.2046 8.97501 51.2046 11.9167C51.2046 14.8584 53.2728 17.0424 56.0661 17.0424C57.1535 17.0647 58.2196 16.6859 59.0938 15.995V16.8419H60.9275V7.01387H59.0938V6.99158ZM56.0661 15.1482C54.339 15.1482 53.1023 13.6996 53.1023 11.9167C53.1023 10.1116 54.3176 8.6853 56.0661 8.6853C57.7932 8.6853 59.0299 10.1339 59.0299 11.9167C59.0299 13.6996 57.8145 15.1482 56.0661 15.1482ZM37.1745 6.76872C39.9464 6.76872 42.036 8.95272 42.036 11.8944C42.036 14.8139 39.9677 16.9979 37.1745 16.9979C34.3813 16.9979 32.313 14.8139 32.313 11.8944C32.313 8.97501 34.3813 6.76872 37.1745 6.76872ZM37.1745 15.1259C38.9016 15.1259 40.1383 13.6773 40.1383 11.8944C40.1383 10.0893 38.9229 8.66301 37.1745 8.66301C35.4474 8.66301 34.2107 10.1116 34.2107 11.8944C34.2107 13.6996 35.4261 15.1259 37.1745 15.1259ZM52.2707 16.7973H49.7333L45.0851 12.0059V16.8196H43.1874V1.97729H45.0851V10.7579L49.0084 6.99158H51.6737L46.9828 11.4264L52.2707 16.7973ZM73.1666 6.99158H75.0642V16.7973H73.1666V6.99158ZM81.8447 8.75215C81.6102 8.68529 81.3543 8.66301 81.0985 8.66301C80.1176 8.66301 79.0728 9.37615 78.5611 10.3122V16.7973H76.6634V6.99158H78.4971V8.10587C78.9662 7.43729 79.9471 6.76872 81.3117 6.76872C81.5675 6.76872 81.8021 6.79101 82.058 6.83558L81.8447 8.75215ZM83.7851 12.3179C83.8917 13.9893 85.235 15.3042 86.8342 15.2819C88.2414 15.2819 88.9877 14.5687 89.5421 13.9447L90.7788 15.1704C90.0751 16.1064 88.7318 17.0202 86.8342 17.0202C84.1049 17.0202 81.9727 14.8584 81.9727 11.8944C81.9727 8.93044 83.8917 6.76872 86.557 6.76872C89.1796 6.76872 91.0773 8.97501 91.0773 11.8944C91.0773 12.0282 91.0773 12.1841 91.056 12.3179H83.7851ZM83.9343 10.6241H89.0517C88.7745 9.37615 87.687 8.48473 86.5783 8.48473C85.3416 8.50701 84.2542 9.37615 83.9343 10.6241ZM101.184 16.7973H98.6467L93.9985 12.0059V16.8196H92.1008V1.97729H93.9985V10.7579L97.9218 6.99158H100.608L95.9175 11.4264L101.184 16.7973ZM103.508 8.75215H106.515V6.96929H103.508V4.25044H101.611V13.967C101.611 15.1259 102.272 16.1733 103.295 16.5967C103.338 16.619 103.38 16.619 103.423 16.6413C103.935 16.8641 104.468 16.9756 105.022 16.9756C105.513 16.9756 106.024 16.9087 106.493 16.775L106.11 14.9699C105.768 15.059 105.427 15.1036 105.065 15.1036C105.001 15.1036 104.915 15.1036 104.852 15.0813C104.702 15.059 104.553 15.0367 104.404 14.9921C104.148 14.9253 103.935 14.7693 103.764 14.5687C103.53 14.279 103.487 13.8333 103.487 13.3207L103.508 8.75215ZM108.839 14.0784C109.606 14.0784 110.246 14.7247 110.246 15.5493C110.246 16.3739 109.628 17.0202 108.839 17.0202C108.071 17.0202 107.432 16.3739 107.432 15.5493C107.432 15.1704 107.581 14.7916 107.837 14.5019C108.114 14.2344 108.455 14.0784 108.839 14.0784ZM112.144 14.1899C113.018 14.903 113.977 15.2819 114.916 15.2819C115.726 15.2819 116.557 14.8139 116.557 14.0562C116.557 12.9196 115.001 12.875 113.615 12.3847C112.485 11.9836 111.461 11.2259 111.461 9.86644C111.461 7.74929 113.253 6.79101 114.937 6.79101C116.323 6.79101 117.325 7.25901 118.05 7.88301L117.069 9.30929C116.493 8.81901 115.79 8.55158 115.044 8.52929C114.127 8.52929 113.338 8.99729 113.338 9.75501C113.338 10.4236 114.084 10.6464 115.022 10.9139C116.493 11.315 118.434 12.0059 118.434 14.0339C118.434 15.8836 116.771 17.0424 114.937 17.0424C113.551 17.0647 112.208 16.5967 111.142 15.683L112.144 14.1899ZM120.715 12.3624C120.822 14.0339 122.144 15.3264 123.743 15.3264C125.15 15.3264 125.897 14.6133 126.43 13.9893L127.666 15.215C126.963 16.151 125.619 17.0647 123.7 17.0647C120.971 17.0647 118.839 14.903 118.839 11.939C118.839 8.9973 120.758 6.8133 123.423 6.8133C126.046 6.8133 127.944 9.01958 127.944 11.939C127.944 12.0727 127.944 12.2064 127.922 12.3624H120.715ZM120.886 10.691H126.003C125.726 9.44301 124.639 8.55158 123.53 8.55158C122.272 8.55158 121.184 9.44301 120.886 10.691ZM26.7052 6.79101C25.6391 6.76872 24.5943 7.1253 23.7414 7.79387V1.99958H21.8438V16.8196H23.6775L23.6561 15.9727C24.5304 16.6859 25.5965 17.0647 26.7052 17.0424C29.4771 17.0424 31.5667 14.8584 31.5667 11.9167C31.5667 8.97501 29.4985 6.79101 26.7052 6.79101ZM26.7052 8.66301C28.4537 8.66301 29.669 10.1116 29.669 11.8944C29.669 13.6996 28.4537 15.1259 26.7052 15.1259C24.9568 15.1259 23.7414 13.6773 23.7414 11.8944C23.7628 10.1116 24.9781 8.66301 26.7052 8.66301ZM69.755 1.97729V7.77158C68.9021 7.10301 67.8573 6.76872 66.7912 6.76872C64.0193 6.76872 61.951 8.97501 61.951 11.8944C61.951 14.8139 64.0193 17.0202 66.8125 17.0202C67.8999 17.0424 68.9874 16.6636 69.8403 15.9504L69.819 16.7973H71.6527V1.97729H69.755ZM66.7912 15.1482C65.0641 15.1482 63.8274 13.6996 63.8274 11.9167C63.8274 10.1116 65.0428 8.6853 66.7912 8.6853C68.5183 8.6853 69.755 10.1339 69.755 11.9167C69.755 13.6996 68.5183 15.1482 66.7912 15.1482ZM74.1261 3.02473C73.7849 3.02473 73.4864 3.15844 73.2518 3.40358C73.0173 3.64872 72.8894 3.98301 72.8894 4.33958C72.8894 4.67387 73.0173 5.00815 73.2518 5.2533C73.4864 5.49844 73.8062 5.63215 74.1261 5.63215C74.4672 5.63215 74.7657 5.49844 75.0216 5.2533C75.2561 5.00815 75.3841 4.67387 75.3841 4.33958C75.3841 3.98301 75.2561 3.64872 75.0216 3.40358C74.7871 3.15844 74.4459 3.02473 74.1261 3.02473Z" fill="black"/>
</svg>
