<svg width="129" height="28" viewBox="0 0 129 28" fill="none" xmlns="http://www.w3.org/2000/svg">
<path d="M15.6584 13.1754C14.6989 12.1725 13.4195 11.5931 12.0549 11.5262H9.30431V15.9834L11.0527 17.8331V13.3759H11.9056C13.5474 13.3982 14.976 14.5571 15.3812 16.2285C15.7863 17.8777 15.0827 19.6382 13.6541 20.4851C12.2255 21.3319 10.4344 21.0868 9.28299 19.8611L3.52596 13.8439L9.28299 7.8268C10.3704 6.71252 11.9909 6.40052 13.3769 7.06909C14.7628 7.73766 15.5944 9.23081 15.4878 10.8131V10.8354L17.023 12.1279L17.0443 12.0611C17.7266 9.58737 16.7245 6.95766 14.5922 5.6428C12.4813 4.32795 9.7734 4.7068 8.04629 6.51195L1.03125 13.8217L8.02497 21.1314C10.1359 23.3377 13.5474 23.3377 15.6584 21.1314C17.7693 18.9474 17.7693 15.3817 15.6584 13.1754Z" fill="#23A994"/>
<path d="M60.0938 10.9916V11.8384C59.2196 11.1476 58.1748 10.791 57.0661 10.791C54.2942 10.791 52.2046 12.975 52.2046 15.9167C52.2046 18.8584 54.2728 21.0424 57.0661 21.0424C58.1535 21.0647 59.2196 20.6859 60.0938 19.995V20.8419H61.9275V11.0139H60.0938V10.9916ZM57.0661 19.1482C55.339 19.1482 54.1023 17.6996 54.1023 15.9167C54.1023 14.1116 55.3176 12.6853 57.0661 12.6853C58.7932 12.6853 60.0299 14.1339 60.0299 15.9167C60.0299 17.6996 58.8145 19.1482 57.0661 19.1482ZM38.1745 10.7687C40.9464 10.7687 43.036 12.9527 43.036 15.8944C43.036 18.8139 40.9677 20.9979 38.1745 20.9979C35.3813 20.9979 33.313 18.8139 33.313 15.8944C33.313 12.975 35.3813 10.7687 38.1745 10.7687ZM38.1745 19.1259C39.9016 19.1259 41.1383 17.6773 41.1383 15.8944C41.1383 14.0893 39.9229 12.663 38.1745 12.663C36.4474 12.663 35.2107 14.1116 35.2107 15.8944C35.2107 17.6996 36.4261 19.1259 38.1745 19.1259ZM53.2707 20.7973H50.7333L46.0851 16.0059V20.8196H44.1874V5.97729H46.0851V14.7579L50.0084 10.9916H52.6737L47.9828 15.4264L53.2707 20.7973ZM74.1666 10.9916H76.0642V20.7973H74.1666V10.9916ZM82.8447 12.7521C82.6102 12.6853 82.3543 12.663 82.0985 12.663C81.1176 12.663 80.0728 13.3761 79.5611 14.3121V20.7973H77.6634V10.9916H79.4971V12.1059C79.9662 11.4373 80.9471 10.7687 82.3117 10.7687C82.5675 10.7687 82.8021 10.791 83.058 10.8356L82.8447 12.7521ZM84.7851 16.3179C84.8917 17.9893 86.235 19.3042 87.8342 19.2819C89.2414 19.2819 89.9877 18.5687 90.5421 17.9447L91.7788 19.1704C91.0751 20.1064 89.7318 21.0202 87.8342 21.0202C85.1049 21.0202 82.9727 18.8584 82.9727 15.8944C82.9727 12.9304 84.8917 10.7687 87.557 10.7687C90.1796 10.7687 92.0773 12.975 92.0773 15.8944C92.0773 16.0282 92.0773 16.1841 92.056 16.3179H84.7851ZM84.9343 14.6241H90.0517C89.7745 13.3761 88.6871 12.4847 87.5783 12.4847C86.3416 12.507 85.2542 13.3761 84.9343 14.6241ZM102.184 20.7973H99.6467L94.9985 16.0059V20.8196H93.1008V5.97729H94.9985V14.7579L98.9218 10.9916H101.608L96.9175 15.4264L102.184 20.7973ZM104.508 12.7521H107.515V10.9693H104.508V8.25044H102.611V17.967C102.611 19.1259 103.272 20.1733 104.295 20.5967C104.338 20.619 104.38 20.619 104.423 20.6413C104.935 20.8641 105.468 20.9756 106.022 20.9756C106.513 20.9756 107.024 20.9087 107.493 20.775L107.11 18.9699C106.768 19.059 106.427 19.1036 106.065 19.1036C106.001 19.1036 105.915 19.1036 105.852 19.0813C105.702 19.059 105.553 19.0367 105.404 18.9921C105.148 18.9253 104.935 18.7693 104.764 18.5687C104.53 18.279 104.487 17.8333 104.487 17.3207L104.508 12.7521ZM109.839 18.0784C110.606 18.0784 111.246 18.7247 111.246 19.5493C111.246 20.3739 110.628 21.0202 109.839 21.0202C109.071 21.0202 108.432 20.3739 108.432 19.5493C108.432 19.1704 108.581 18.7916 108.837 18.5019C109.114 18.2344 109.455 18.0784 109.839 18.0784ZM113.144 18.1899C114.018 18.903 114.977 19.2819 115.916 19.2819C116.726 19.2819 117.557 18.8139 117.557 18.0562C117.557 16.9196 116.001 16.875 114.615 16.3847C113.485 15.9836 112.461 15.2259 112.461 13.8664C112.461 11.7493 114.253 10.791 115.937 10.791C117.323 10.791 118.325 11.259 119.05 11.883L118.069 13.3093C117.493 12.819 116.79 12.5516 116.044 12.5293C115.127 12.5293 114.338 12.9973 114.338 13.755C114.338 14.4236 115.084 14.6464 116.022 14.9139C117.493 15.315 119.434 16.0059 119.434 18.0339C119.434 19.8836 117.771 21.0424 115.937 21.0424C114.551 21.0647 113.208 20.5967 112.142 19.683L113.144 18.1899ZM121.715 16.3624C121.822 18.0339 123.144 19.3264 124.743 19.3264C126.15 19.3264 126.897 18.6133 127.43 17.9893L128.666 19.215C127.963 20.151 126.619 21.0647 124.7 21.0647C121.971 21.0647 119.839 18.903 119.839 15.939C119.839 12.9973 121.758 10.8133 124.423 10.8133C127.046 10.8133 128.944 13.0196 128.944 15.939C128.944 16.0727 128.944 16.2064 128.922 16.3624H121.715ZM121.886 14.691H127.003C126.726 13.443 125.639 12.5516 124.53 12.5516C123.272 12.5516 122.184 13.443 121.886 14.691ZM27.7052 10.791C26.6391 10.7687 25.5943 11.1253 24.7414 11.7939V5.99958H22.8438V20.8196H24.6775L24.6561 19.9727C25.5304 20.6859 26.5965 21.0647 27.7052 21.0424C30.4771 21.0424 32.5667 18.8584 32.5667 15.9167C32.5667 12.975 30.4985 10.791 27.7052 10.791ZM27.7052 12.663C29.4537 12.663 30.669 14.1116 30.669 15.8944C30.669 17.6996 29.4537 19.1259 27.7052 19.1259C25.9568 19.1259 24.7414 17.6773 24.7414 15.8944C24.7628 14.1116 25.9781 12.663 27.7052 12.663ZM70.755 5.97729V11.7716C69.9021 11.103 68.8573 10.7687 67.7912 10.7687C65.0193 10.7687 62.951 12.975 62.951 15.8944C62.951 18.8139 65.0193 21.0202 67.8125 21.0202C68.8999 21.0424 69.9874 20.6636 70.8403 19.9504L70.819 20.7973H72.6527V5.97729H70.755ZM67.7912 19.1482C66.0641 19.1482 64.8274 17.6996 64.8274 15.9167C64.8274 14.1116 66.0428 12.6853 67.7912 12.6853C69.5183 12.6853 70.755 14.1339 70.755 15.9167C70.755 17.6996 69.5183 19.1482 67.7912 19.1482ZM75.1261 7.02473C74.7849 7.02473 74.4864 7.15844 74.2518 7.40358C74.0173 7.64872 73.8894 7.98301 73.8894 8.33958C73.8894 8.67387 74.0173 9.00815 74.2518 9.2533C74.4864 9.49844 74.8062 9.63215 75.1261 9.63215C75.4672 9.63215 75.7657 9.49844 76.0216 9.2533C76.2561 9.00815 76.3841 8.67387 76.3841 8.33958C76.3841 7.98301 76.2561 7.64872 76.0216 7.40358C75.7871 7.15844 75.4459 7.02473 75.1261 7.02473Z" fill="black"/>
</svg>
