<svg width="88" height="27" viewBox="0 0 88 27" fill="none" xmlns="http://www.w3.org/2000/svg">
<path d="M8.88225 0.755568C6.47088 1.03929 4.19809 2.2842 2.64594 4.17763C0.655865 6.58639 -0.0869488 9.69577 0.594888 12.7067C1.27118 15.7003 3.44973 18.3291 6.26023 19.545C9.43105 20.9231 12.8347 20.4252 15.6895 18.1612L15.9778 17.9353V17.0958V16.2562L15.7228 16.5573C15.4789 16.8352 14.7749 17.4374 14.3979 17.6864C12.5464 18.9023 10.318 19.4235 8.53302 19.0413C7.08065 18.7402 5.7835 18.0975 4.55287 17.0726C3.05615 15.8277 2.04171 14.0906 1.60933 12.0119C1.56498 11.7919 1.53726 11.2707 1.54281 10.5933C1.54281 9.71314 1.56498 9.42363 1.66476 8.95461C2.35769 5.67731 4.66374 3.0601 7.63499 2.1684C8.40552 1.93679 8.66606 1.89626 9.52529 1.8673C10.1683 1.84414 10.5009 1.85572 10.9333 1.931C12.6407 2.23209 14.215 3.04852 15.429 4.27027L15.9778 4.81456V3.98655V3.15275L15.5842 2.83428C13.583 1.20142 11.2493 0.477634 8.88225 0.755568Z" fill="#636363"/>
<path d="M39.815 4.62932C39.815 7.17705 39.7984 8.32931 39.7596 8.30615C39.6431 8.23088 38.7285 8.10349 38.3183 8.10349C35.5189 8.10349 33.1407 10.1475 32.5753 13.0252C32.4478 13.6737 32.4534 14.8029 32.5809 15.4282C33.0465 17.7212 34.6929 19.5277 36.8714 20.1299C37.3426 20.2631 37.5089 20.2805 38.2906 20.2805C38.8283 20.2747 39.3105 20.2457 39.5101 20.1994L39.8427 20.1183V19.5683V19.0182L40.3361 18.775C41.7829 18.0454 42.6975 16.8352 43.008 15.2255C43.1188 14.6465 43.0911 13.4248 42.9525 12.9152C42.559 11.4329 41.6554 10.2922 40.3749 9.65529C40.1143 9.5279 39.8871 9.4121 39.876 9.40052C39.8538 9.37736 39.8593 8.38722 39.8871 8.35826C39.8981 8.34668 40.0811 8.3988 40.2917 8.47407C41.4392 8.87939 42.4703 9.69003 43.141 10.7149C44.5158 12.811 44.5213 15.5961 43.1466 17.7096C42.5202 18.6708 41.5445 19.4582 40.4525 19.8867C40.2418 19.9736 40.0534 20.0546 40.0423 20.0662C40.0312 20.0778 41.417 20.0894 43.1299 20.0894H46.2453V17.2V14.3107L48.5625 14.2817C50.8352 14.2586 50.8851 14.2586 51.4284 14.108C51.7333 14.027 52.1823 13.8706 52.4317 13.7606L52.8808 13.5637L52.914 14.0733C53.0304 15.7293 53.5959 17.0726 54.638 18.1496C57.1325 20.7205 62.2047 21.1374 65.4199 19.0413C65.6195 18.9082 66.002 18.6071 66.2736 18.3697L66.7559 17.947V19.0182V20.0894H69.5553H72.3491L72.3658 16.5978L72.3824 13.1121L72.5321 12.7763C72.7427 12.313 73.1917 11.8556 73.5687 11.7224C73.9401 11.595 74.4501 11.6298 74.7716 11.7977C75.2927 12.0756 75.7029 12.7068 75.7916 13.3784C75.8193 13.5811 75.847 15.1734 75.847 16.9163V20.0894H78.6187H81.3904L81.396 15.9899C81.4015 11.016 81.396 11.0102 81.3294 10.5065C81.2407 9.85216 81.0135 9.09363 80.7363 8.53776C80.3704 7.79661 79.7163 7.11335 79.0622 6.78331C78.3194 6.41852 77.9591 6.34325 76.928 6.33745C75.9579 6.33745 75.5754 6.41852 74.8991 6.77173C74.5166 6.98018 73.8625 7.51867 73.4911 7.93557C73.3414 8.10928 73.1086 8.37564 72.9755 8.52618C72.8425 8.67673 72.715 8.78675 72.6928 8.77517C72.6596 8.752 72.7704 7.54183 72.8813 6.81226L72.909 6.59802H69.8324H66.7559V7.90083V9.20944L66.4122 8.82149C64.9875 7.22337 62.7868 6.31429 60.3532 6.3085C58.79 6.3085 57.3432 6.69066 56.1514 7.43182C55.913 7.57658 55.7079 7.69817 55.7023 7.69817C55.6968 7.69817 55.6857 7.54762 55.6746 7.36234C55.658 6.83542 55.5083 5.97267 55.3309 5.42838C54.5881 3.06594 52.7976 1.601 50.0592 1.08566C49.3995 0.964069 49.2277 0.958279 44.5989 0.940908L39.815 0.917747V4.62932ZM48.3185 6.33745C48.7398 6.488 48.9893 6.69066 49.1556 7.01492C49.2886 7.2639 49.3108 7.37971 49.3108 7.75029C49.3053 8.96045 48.5569 9.49316 46.8551 9.49316H46.2453V7.83714V6.17533L47.1489 6.20428C47.7975 6.22744 48.1245 6.26218 48.3185 6.33745ZM39.3105 9.2905C39.5378 9.33682 39.754 9.40631 39.7984 9.44105C39.8593 9.49316 39.8704 10.3791 39.8704 14.218C39.8704 18.8097 39.8704 18.9313 39.7651 18.9892C39.2828 19.2556 37.8859 19.3193 37.132 19.1108C36.1286 18.8329 35.2749 18.2597 34.6596 17.4548C34.1386 16.7658 33.8281 16.0767 33.6563 15.1966C33.2405 13.1121 34.1829 10.906 35.9568 9.78847C36.3393 9.55106 37.0987 9.27313 37.5588 9.20365C38.0078 9.13995 38.795 9.1747 39.3105 9.2905ZM60.902 9.81163C61.6338 10.0143 62.1715 10.6744 62.2934 11.5371L62.3322 11.8093H60.575H58.8122L58.8454 11.4734C58.9231 10.5817 59.4164 9.93322 60.1204 9.78268C60.4697 9.71319 60.5473 9.71898 60.902 9.81163ZM66.7559 15.0518V15.6309H64.5219H62.2823L62.2158 15.8741C62.1105 16.2331 61.5506 16.7947 61.1681 16.9279C60.7468 17.0784 60.1648 17.0379 59.7989 16.841C59.2778 16.5573 58.9286 15.8856 58.8399 15.0055C58.8122 14.7855 58.8066 14.577 58.8177 14.5365C58.8344 14.4902 59.8931 14.4728 62.7979 14.4728H66.7559V15.0518Z" fill="#636363"/>
<path d="M85.491 1.76327C85.1252 1.88487 84.7815 2.21492 84.5986 2.62603C84.1052 3.70881 84.7759 4.92477 85.9123 5.02321C86.3669 5.05795 86.7438 4.92477 87.0931 4.59472C87.4756 4.23573 87.6197 3.89989 87.6197 3.3556C87.6197 3.02556 87.5864 2.85764 87.4922 2.65498C87.3425 2.32493 87.0376 1.99489 86.7383 1.83276C86.45 1.68221 85.8347 1.64747 85.491 1.76327ZM86.6884 2.2844C87.0376 2.51601 87.2261 2.88659 87.2261 3.34402C87.2261 4.05623 86.8048 4.53682 86.1341 4.61209C85.8126 4.64684 85.4134 4.50208 85.164 4.26468C84.726 3.84199 84.715 2.94449 85.1473 2.4639C85.5298 2.04121 86.184 1.96593 86.6884 2.2844Z" fill="#636363"/>
<path d="M85.5113 2.47533C85.3839 2.4927 85.3839 2.50428 85.3839 3.36125V4.224H85.5779H85.7719V3.84763C85.7719 3.49442 85.7774 3.47126 85.8994 3.47126C85.9936 3.47126 86.0601 3.55233 86.2098 3.84763C86.3872 4.21821 86.3983 4.224 86.6145 4.224C86.8307 4.224 86.8362 4.21821 86.7586 4.09082C86.5424 3.73761 86.426 3.52337 86.4426 3.51179C86.4537 3.506 86.5369 3.45968 86.6311 3.41336C86.8917 3.27439 86.9305 2.7359 86.6921 2.56798C86.5757 2.4927 85.8162 2.42901 85.5113 2.47533ZM86.426 2.82854C86.4704 2.8517 86.4925 2.93856 86.4814 3.01383C86.4648 3.14122 86.4371 3.1528 86.1211 3.17017L85.7719 3.18754V2.97909V2.77643H86.0657C86.2209 2.77643 86.3872 2.79959 86.426 2.82854Z" fill="#636363"/>
<path d="M19.7189 8.17876C18.9982 8.37563 18.4162 8.90834 18.0171 9.72477L17.9228 9.92743L17.9173 9.72477C17.9173 9.61475 17.9062 9.26155 17.9006 8.94308L17.8896 8.36405L17.5292 8.34668C17.3297 8.3351 17.0858 8.34668 16.986 8.36405L16.8086 8.39879L16.8197 14.2296L16.8363 20.0604H17.3629H17.8896L17.9228 15.8914C17.945 13.0831 17.9782 11.6298 18.0171 11.4445C18.272 10.3212 18.6324 9.70161 19.2033 9.40051C19.3475 9.32524 19.6524 9.23259 19.8685 9.19206C20.2566 9.13416 20.5559 9.17469 20.9384 9.35419C20.9939 9.37735 21.5205 8.5146 21.5205 8.39879C21.5205 8.20192 20.2233 8.04559 19.7189 8.17876Z" fill="#636363"/>
<path d="M22.0237 8.37566C22.0237 8.39303 22.2066 8.81572 22.4339 9.31368C22.6611 9.81165 23.3984 11.4387 24.0747 12.9384C25.2887 15.6193 25.577 16.2504 25.9317 17.0495C26.1535 17.5533 26.4694 18.2539 26.9684 19.3367C27.179 19.7999 27.3564 20.2168 27.3564 20.2631C27.3619 20.3268 25.8652 24.0847 25.4273 25.1038C25.3885 25.2022 25.2388 25.567 25.0947 25.9144C24.9561 26.2619 24.8064 26.6324 24.7621 26.7367L24.6789 26.9277L25.2444 26.9104L25.8098 26.893L26.0038 26.4298C26.1091 26.175 26.3475 25.5728 26.5415 25.098C26.8464 24.3337 27.5338 22.6313 28.842 19.4235C29.0471 18.914 29.6957 17.3101 30.2833 15.8625C30.8709 14.4149 31.7689 12.1915 32.2845 10.9292C32.8 9.66689 33.2324 8.56674 33.2546 8.48567L33.2878 8.34671L32.7612 8.3525C32.4674 8.35829 32.2235 8.37566 32.2124 8.39303C32.1958 8.4104 32.035 8.79835 31.8521 9.26157C31.4973 10.1301 31.1093 11.0913 29.7955 14.3281C29.3686 15.3761 28.781 16.8237 28.4928 17.5417C28.199 18.2539 27.944 18.8503 27.9163 18.8561C27.8886 18.8677 27.8276 18.775 27.7721 18.6592C27.689 18.4565 26.9296 16.76 26.3752 15.544C26.2477 15.2545 25.6657 13.9691 25.0836 12.6778C24.5071 11.3866 23.853 9.94482 23.6368 9.47002C23.4206 8.99522 23.2432 8.5899 23.2432 8.56674C23.2432 8.54358 23.1988 8.48567 23.149 8.43935C23.0769 8.36987 22.9161 8.34671 22.5392 8.34671C22.2565 8.34671 22.0237 8.35829 22.0237 8.37566Z" fill="#636363"/>
</svg>
