<?xml version="1.0" encoding="UTF-8"?>
<svg id="Lager_1" xmlns="http://www.w3.org/2000/svg" version="1.1" viewBox="0 0 382 132">
  <!-- Generator: Adobe Illustrator 29.8.1, SVG Export Plug-In . SVG Version: 2.1.1 Build 2)  -->
  <path d="M46.1,40.1h-22.1v20.3h19.9v2h-19.9v23.8h-2.3v-48.3h24.4v2Z"/>
  <path d="M55.5,68.5v17.8h-2.2v-34.2h2.2v9.7c.7-2.3,2.2-4.5,4.2-6.6,2.5-2.5,5.1-3.8,7.8-3.8s.8,0,1.4.1v2.2h-1.6c-2.9,0-5.6,1.6-8.1,4.9s-3.8,6.6-3.8,9.9Z"/>
  <path d="M96.3,86.3h-1.7l-.5-4.5c-3.8,3.5-7.6,5.2-11.5,5.2s-5.3-.8-7.1-2.4c-1.8-1.6-2.7-3.7-2.7-6.5s.6-3.8,1.7-5.2c1.4-1.7,3.7-3.1,7.1-4.3l10.3-3.7c.9-.3,1.4-.6,1.7-.9.3-.3.4-.9.4-1.8v-1.8c0-1.7-.5-3.2-1.5-4.5-1.5-1.8-3.8-2.7-7-2.7s-7.4,1.3-10.9,3.9v-2.4c3.6-2.3,7.4-3.5,11.1-3.5s6.4.9,8.2,2.8c1.6,1.7,2.4,3.9,2.4,6.8v25.4ZM91.6,67l-8.8,3.2c-2.9,1-4.9,2.2-6,3.4-1.1,1.2-1.6,2.7-1.6,4.4s.6,3.7,1.8,4.9c1.3,1.4,3.2,2.1,5.7,2.1,3.9,0,7.7-1.9,11.4-5.6v-13.6c-.4.4-1.3.7-2.5,1.2Z"/>
  <path d="M127.5,54.8v2.6c-3.1-2.6-6.2-4-9.3-4s-6.8,1.6-9,4.9c-1.9,2.9-2.8,6.5-2.8,10.9s1,8.4,3.1,11.3c2.2,3,5.1,4.5,9,4.5s6.4-1.3,9.5-3.8v2.6c-3,2.2-6.2,3.3-9.6,3.3-4.8,0-8.5-2-11.1-5.9-2.2-3.2-3.2-7.2-3.2-11.9s1.2-9.1,3.5-12.4c2.6-3.7,6.2-5.5,10.8-5.5s6.2,1.1,9.2,3.4Z"/>
  <path d="M137,80v-26.1h-6v-1.8h6v-9l2.2-1.1v10h7.8v1.8h-7.8v24.4c0,2.5.2,4.2.7,5,.7,1.1,2,1.7,4,1.7s2.4-.2,3.5-.6v2.1c-1.1.3-2.3.5-3.6.5-4.5,0-6.7-2.3-6.7-7Z"/>
  <path d="M156.3,46.8h-2.8v-4.3h2.8v4.3ZM155.9,86.3h-2.2v-34.2h2.2v34.2Z"/>
  <path d="M192.2,69.2c0,5.3-1.2,9.5-3.7,12.8-2.5,3.4-6,5.1-10.3,5.1s-7.9-1.7-10.4-5.2c-2.4-3.3-3.6-7.5-3.6-12.6s1.3-9.6,3.8-12.9c2.5-3.3,5.9-5,10.3-5s7.8,1.7,10.3,5.1c2.5,3.2,3.7,7.5,3.7,12.7ZM189.8,69.2c0-4.1-.9-7.6-2.8-10.6-2.2-3.5-5.1-5.2-8.9-5.2s-6.7,1.7-8.9,5.2c-1.8,2.9-2.8,6.4-2.8,10.6s.9,7.6,2.7,10.5c2.2,3.5,5.2,5.3,9,5.3s6.8-1.8,9-5.4c1.8-3,2.6-6.4,2.6-10.4Z"/>
  <path d="M225,86.3h-2.2v-23.8c0-6.1-2.4-9.1-7.1-9.1s-7.5,1.9-13.1,5.8v27.1h-2.2v-34.2h2.2v5c5.2-3.8,9.7-5.7,13.3-5.7,6.1,0,9.1,3.6,9.1,10.9v24.1Z"/>
  <path d="M280.3,41.2v3.2c-3.5-3.4-7.7-5.1-12.4-5.1s-10.4,2.5-13.5,7.4c-2.5,4.1-3.8,9.2-3.8,15.3s1.1,10.5,3.2,14.5c2.9,5.7,7.6,8.5,14,8.5s9.3-1.6,13.2-4.9v2.8c-3.8,2.8-8.1,4.2-13,4.2-7.1,0-12.4-3-15.9-8.9-2.6-4.5-4-9.9-4-16.1s1.4-12.2,4.3-16.7c3.6-5.6,8.7-8.4,15.5-8.4s8.6,1.4,12.3,4.1Z"/>
  <path d="M325,62.1c0,7.1-1.6,13-4.9,17.7-3.5,5-8.1,7.4-14,7.4s-10.6-2.5-14.2-7.6c-3.2-4.7-4.9-10.5-4.9-17.5s1.6-13,4.9-17.6c3.5-5,8.2-7.4,14-7.4s10.3,2.4,13.9,7.1c3.4,4.7,5.1,10.6,5.1,17.8ZM322.5,62.1c0-5.9-1.2-11-3.6-15.1-3-5.1-7.3-7.6-12.9-7.6s-9.8,2.5-12.7,7.4c-2.5,4.2-3.8,9.4-3.8,15.5s1.2,10.8,3.6,15c2.9,5.2,7.3,7.8,13,7.8s9.8-2.5,12.8-7.5c2.5-4.2,3.7-9.3,3.7-15.5Z"/>
  <path d="M360,86.3h-27.9c.7-4,1.7-7.2,3.2-9.5,1.5-2.5,4.2-5.4,8.2-8.8,5.4-4.6,8.8-7.8,10.3-9.6,2.2-2.7,3.2-5.5,3.2-8.6s-1.1-5.9-3.2-7.9c-1.9-1.8-4.4-2.7-7.3-2.7s-8.7,2-13.7,5.9v-2.5c4.9-3.6,9.4-5.5,13.5-5.5s7.3,1.2,9.7,3.7c2.2,2.3,3.4,5.2,3.4,8.7s-1.2,6.6-3.7,9.7c-1.7,2.2-5,5.4-9.8,9.5-3.5,3-5.9,5.3-7.2,7-1.8,2.4-3.1,5.2-3.8,8.6h25.2v2Z"/>
</svg>