<svg width="80" height="26" viewBox="0 0 80 26" fill="none" xmlns="http://www.w3.org/2000/svg">
<path d="M34.1234 13.7384C34.1234 17.4028 31.1485 20.103 27.4975 20.103C23.8465 20.103 20.8716 17.4028 20.8716 13.7384C20.8716 10.0481 23.8465 7.37366 27.4975 7.37366C31.1485 7.37366 34.1234 10.0481 34.1234 13.7384ZM31.2229 13.7384C31.2229 11.4484 29.4987 9.88166 27.4975 9.88166C25.4963 9.88166 23.7721 11.4484 23.7721 13.7384C23.7721 16.0053 25.4963 17.595 27.4975 17.595C29.4987 17.595 31.2229 16.0024 31.2229 13.7384Z" fill="#EA4335"/>
<path d="M48.412 13.7384C48.412 17.4028 45.437 20.103 41.7861 20.103C38.1351 20.103 35.1602 17.4028 35.1602 13.7384C35.1602 10.051 38.1351 7.37366 41.7861 7.37366C45.437 7.37366 48.412 10.0481 48.412 13.7384ZM45.5115 13.7384C45.5115 11.4484 43.7873 9.88166 41.7861 9.88166C39.7849 9.88166 38.0607 11.4484 38.0607 13.7384C38.0607 16.0053 39.7849 17.595 41.7861 17.595C43.7873 17.595 45.5115 16.0024 45.5115 13.7384Z" fill="#FBBC05"/>
<path d="M62.0992 7.75818V19.1848C62.0992 23.8851 59.2225 25.8049 55.8217 25.8049C52.6204 25.8049 50.6937 23.7417 49.9671 22.0544L52.4924 21.0414C52.9421 22.0773 54.0439 23.2997 55.8187 23.2997C57.9956 23.2997 59.3446 22.0056 59.3446 19.5693V18.6539H59.2434C58.5942 19.4258 57.3434 20.1002 55.7651 20.1002C52.4626 20.1002 49.437 17.3282 49.437 13.7613C49.437 10.1686 52.4626 7.37366 55.7651 7.37366C57.3405 7.37366 58.5912 8.048 59.2434 8.79696H59.3446V7.76105H62.0992V7.75818ZM59.5501 13.7613C59.5501 11.5202 57.9986 9.88166 56.0242 9.88166C54.023 9.88166 52.3465 11.5202 52.3465 13.7613C52.3465 15.9795 54.023 17.595 56.0242 17.595C57.9986 17.595 59.5501 15.9795 59.5501 13.7613Z" fill="#4285F4"/>
<path d="M66.643 1.06079V19.713H63.814V1.06079H66.643Z" fill="#34A853"/>
<path d="M77.6838 15.8334L79.9351 17.2797C79.2085 18.3156 77.4575 20.1005 74.4319 20.1005C70.6797 20.1005 67.8774 17.3055 67.8774 13.7358C67.8774 9.95083 70.7035 7.37109 74.1073 7.37109C77.5349 7.37109 79.2115 9.99962 79.7594 11.42L80.0602 12.1432L71.2306 15.667C71.9066 16.944 72.9578 17.5954 74.4319 17.5954C75.909 17.5954 76.9334 16.8952 77.6838 15.8334ZM70.7541 13.5435L76.6564 11.1819C76.3318 10.387 75.3551 9.83318 74.2056 9.83318C72.7315 9.83318 70.6797 11.0872 70.7541 13.5435Z" fill="#EA4335"/>
<path d="M10.1578 12.0828V9.38258H19.6009C19.6932 9.85319 19.7408 10.4099 19.7408 11.0125C19.7408 13.0384 19.1661 15.5435 17.3138 17.3284C15.5121 19.1362 13.2102 20.1004 10.1608 20.1004C4.50865 20.1004 -0.244141 15.6641 -0.244141 10.2176C-0.244141 4.77119 4.50865 0.334839 10.1608 0.334839C13.2876 0.334839 15.5151 1.5171 17.1887 3.05806L15.2114 4.96345C14.0113 3.87875 12.3853 3.0351 10.1578 3.0351C6.03038 3.0351 2.80229 6.2404 2.80229 10.2176C2.80229 14.1948 6.03038 17.4001 10.1578 17.4001C12.835 17.4001 14.3597 16.3642 15.3364 15.423C16.1286 14.6597 16.6497 13.5693 16.8552 12.08L10.1578 12.0828Z" fill="#4285F4"/>
</svg>
