<svg width="56" height="20" viewBox="0 0 56 20" fill="none" xmlns="http://www.w3.org/2000/svg">
<g clip-path="url(#clip0_4862_379848)">
<path d="M24.0129 11.2416C24.0129 13.8591 21.9194 15.7879 19.3502 15.7879C16.781 15.7879 14.6875 13.8591 14.6875 11.2416C14.6875 8.60575 16.781 6.69543 19.3502 6.69543C21.9194 6.69543 24.0129 8.60575 24.0129 11.2416ZM21.9718 11.2416C21.9718 9.60599 20.7584 8.48686 19.3502 8.48686C17.9419 8.48686 16.7286 9.60599 16.7286 11.2416C16.7286 12.8609 17.9419 13.9964 19.3502 13.9964C20.7584 13.9964 21.9718 12.8589 21.9718 11.2416Z" fill="#EA4335"/>
<path d="M34.0676 11.2416C34.0676 13.8591 31.9741 15.7879 29.4049 15.7879C26.8357 15.7879 24.7422 13.8591 24.7422 11.2416C24.7422 8.60779 26.8357 6.69543 29.4049 6.69543C31.9741 6.69543 34.0676 8.60575 34.0676 11.2416ZM32.0265 11.2416C32.0265 9.60599 30.8131 8.48686 29.4049 8.48686C27.9966 8.48686 26.7833 9.60599 26.7833 11.2416C26.7833 12.8609 27.9966 13.9964 29.4049 13.9964C30.8131 13.9964 32.0265 12.8589 32.0265 11.2416Z" fill="#FBBC05"/>
<path d="M43.6995 6.97009V15.132C43.6995 18.4893 41.6752 19.8606 39.282 19.8606C37.0292 19.8606 35.6734 18.3869 35.1621 17.1816L36.9391 16.4581C37.2556 17.198 38.0309 18.0712 39.2799 18.0712C40.8118 18.0712 41.7611 17.1468 41.7611 15.4066V14.7528H41.6898C41.233 15.3041 40.3528 15.7858 39.2422 15.7858C36.9182 15.7858 34.7891 13.8058 34.7891 11.258C34.7891 8.69183 36.9182 6.69543 39.2422 6.69543C40.3508 6.69543 41.2309 7.17711 41.6898 7.71208H41.7611V6.97214H43.6995V6.97009ZM41.9057 11.258C41.9057 9.65724 40.8139 8.48686 39.4245 8.48686C38.0163 8.48686 36.8365 9.65724 36.8365 11.258C36.8365 12.8425 38.0163 13.9964 39.4245 13.9964C40.8139 13.9964 41.9057 12.8425 41.9057 11.258Z" fill="#4285F4"/>
<path d="M46.8971 2.18628V15.5093H44.9062V2.18628H46.8971Z" fill="#34A853"/>
<path d="M54.6664 12.7381L56.2507 13.7712C55.7393 14.5111 54.5071 15.786 52.378 15.786C49.7376 15.786 47.7656 13.7896 47.7656 11.2398C47.7656 8.53627 49.7543 6.6936 52.1496 6.6936C54.5616 6.6936 55.7414 8.57112 56.127 9.58572L56.3387 10.1022L50.1253 12.6193C50.601 13.5314 51.3407 13.9966 52.378 13.9966C53.4174 13.9966 54.1383 13.4965 54.6664 12.7381ZM49.79 11.1025L53.9434 9.41559C53.715 8.84783 53.0276 8.45224 52.2188 8.45224C51.1814 8.45224 49.7376 9.34795 49.79 11.1025V11.1025Z" fill="#EA4335"/>
<path d="M7.14802 10.0592V8.1304H13.7931C13.8581 8.46654 13.8916 8.86418 13.8916 9.29462C13.8916 10.7417 13.4872 12.5311 12.1837 13.806C10.9159 15.0973 9.29599 15.786 7.15011 15.786C3.17268 15.786 -0.171875 12.6172 -0.171875 8.72685C-0.171875 4.83654 3.17268 1.66772 7.15011 1.66772C9.35048 1.66772 10.918 2.5122 12.0957 3.61288L10.7042 4.97387C9.85971 4.19909 8.71552 3.59648 7.14802 3.59648C4.24353 3.59648 1.97191 5.88599 1.97191 8.72685C1.97191 11.5677 4.24353 13.8572 7.14802 13.8572C9.03195 13.8572 10.1049 13.1173 10.7922 12.445C11.3497 11.8998 11.7164 11.1209 11.861 10.0571L7.14802 10.0592V10.0592Z" fill="#4285F4"/>
</g>
<defs>
<clipPath id="clip0_4862_379848">
<rect width="56" height="20" fill="white"/>
</clipPath>
</defs>
</svg>
