<svg width="68" height="24" viewBox="0 0 68 24" fill="none" xmlns="http://www.w3.org/2000/svg">
<g clip-path="url(#clip0_4862_379849)">
<path d="M29.0699 13.49C29.0699 16.6309 26.5356 18.9455 23.4256 18.9455C20.3155 18.9455 17.7812 16.6309 17.7812 13.49C17.7812 10.3269 20.3155 8.03455 23.4256 8.03455C26.5356 8.03455 29.0699 10.3269 29.0699 13.49ZM26.599 13.49C26.599 11.5272 25.1303 10.1843 23.4256 10.1843C21.7208 10.1843 20.2521 11.5272 20.2521 13.49C20.2521 15.4331 21.7208 16.7957 23.4256 16.7957C25.1303 16.7957 26.599 15.4306 26.599 13.49Z" fill="#EA4335"/>
<path d="M41.2417 13.49C41.2417 16.6309 38.7075 18.9455 35.5974 18.9455C32.4874 18.9455 29.9531 16.6309 29.9531 13.49C29.9531 10.3294 32.4874 8.03455 35.5974 8.03455C38.7075 8.03455 41.2417 10.3269 41.2417 13.49ZM38.7709 13.49C38.7709 11.5272 37.3021 10.1843 35.5974 10.1843C33.8927 10.1843 32.4239 11.5272 32.4239 13.49C32.4239 15.4331 33.8927 16.7957 35.5974 16.7957C37.3021 16.7957 38.7709 15.4306 38.7709 13.49Z" fill="#FBBC05"/>
<path d="M52.8957 8.36414V18.1584C52.8957 22.1872 50.4452 23.8327 47.5482 23.8327C44.8212 23.8327 43.1799 22.0643 42.5609 20.618L44.7121 19.7498C45.0951 20.6377 46.0338 21.6855 47.5457 21.6855C49.4 21.6855 50.5492 20.5762 50.5492 18.488V17.7033H50.4629C49.9099 18.365 48.8445 18.943 47.5 18.943C44.6867 18.943 42.1094 16.567 42.1094 13.5097C42.1094 10.4302 44.6867 8.03455 47.5 8.03455C48.8419 8.03455 49.9074 8.61256 50.4629 9.25452H50.5492V8.3666H52.8957V8.36414ZM50.7242 13.5097C50.7242 11.5887 49.4026 10.1843 47.7207 10.1843C46.016 10.1843 44.5878 11.5887 44.5878 13.5097C44.5878 15.411 46.016 16.7957 47.7207 16.7957C49.4026 16.7957 50.7242 15.411 50.7242 13.5097Z" fill="#4285F4"/>
<path d="M56.7693 2.62354V18.6111H54.3594V2.62354H56.7693Z" fill="#34A853"/>
<path d="M66.1739 15.2858L68.0917 16.5254C67.4727 17.4134 65.9811 18.9433 63.4037 18.9433C60.2074 18.9433 57.8203 16.5476 57.8203 13.4878C57.8203 10.2436 60.2277 8.03235 63.1272 8.03235C66.047 8.03235 67.4752 10.2854 67.942 11.5029L68.1982 12.1227L60.6767 15.1431C61.2526 16.2377 62.148 16.796 63.4037 16.796C64.662 16.796 65.5346 16.1959 66.1739 15.2858ZM60.2708 13.323L65.2987 11.2987C65.0222 10.6174 64.1901 10.1427 63.2109 10.1427C61.9552 10.1427 60.2074 11.2176 60.2708 13.323V13.323Z" fill="#EA4335"/>
<path d="M8.64998 12.0709V9.75643H16.6941C16.7727 10.1598 16.8133 10.637 16.8133 11.1535C16.8133 12.89 16.3237 15.0372 14.7458 16.5671C13.2111 18.1167 11.2502 18.9431 8.65252 18.9431C3.83774 18.9431 -0.210938 15.1405 -0.210938 10.4722C-0.210938 5.8038 3.83774 2.00122 8.65252 2.00122C11.3161 2.00122 13.2136 3.01459 14.6393 4.33541L12.9549 5.9686C11.9326 5.03886 10.5475 4.31573 8.64998 4.31573C5.13403 4.31573 2.38417 7.06313 2.38417 10.4722C2.38417 13.8812 5.13403 16.6286 8.64998 16.6286C10.9305 16.6286 12.2294 15.7407 13.0614 14.9339C13.7362 14.2797 14.1801 13.345 14.3552 12.0685L8.64998 12.0709V12.0709Z" fill="#4285F4"/>
</g>
<defs>
<clipPath id="clip0_4862_379849">
<rect width="68" height="24" fill="white"/>
</clipPath>
</defs>
</svg>
