<?xml version="1.0" encoding="UTF-8"?>
<svg id="Lager_1" xmlns="http://www.w3.org/2000/svg" version="1.1" viewBox="0 0 382 132">
  <!-- Generator: Adobe Illustrator 30.3.0, SVG Export Plug-In . SVG Version: 2.1.3 Build 182)  -->
  <path d="M111.3,33.9v26.4h30.6v-26.4h8.2v63.2h-8.2v-29.6h-30.6v29.6h-8.2v-63.2h8.2Z"/>
  <path d="M172.4,33.9v63.2h-8.2v-63.2h8.2Z"/>
  <path d="M186.7,33.9h34v6.8h-25.9v21h23.9v6.7h-23.9v28.6h-8.2v-63.2Z"/>
  <path d="M240.5,33.9v37.4c0,14.2,6.3,20.2,14.7,20.2s15.4-6.2,15.4-20.2v-37.4h8.2v36.8c0,19.4-10.2,27.4-23.9,27.4s-22.7-7.4-22.7-27v-37.2h8.2Z"/>
</svg>