<svg width="382" height="132" viewBox="0 0 382 132" fill="none" xmlns="http://www.w3.org/2000/svg">
<path d="M203.273 16.4884C176.37 16.4884 154.56 38.4316 154.56 65.5C154.56 70.2985 155.245 74.9331 156.521 79.3117L153.194 80.2929C151.826 75.599 151.093 70.6341 151.093 65.5C151.093 36.5051 174.455 13 203.273 13C223.716 13 241.409 24.8281 249.968 42.0453L246.867 43.6058C238.873 27.5243 222.352 16.4884 203.273 16.4884Z" fill="#545454"/>
<path d="M163.374 93.6258C172.189 106.26 186.773 114.512 203.273 114.512C211.365 114.512 218.992 112.528 225.703 109.019L227.302 112.114C220.108 115.875 211.935 118 203.273 118C185.596 118 169.972 109.154 160.537 95.63L163.374 93.6258Z" fill="#545454"/>
<path fill-rule="evenodd" clip-rule="evenodd" d="M267.761 41.6047C254.644 41.6047 244.011 52.303 244.011 65.5C244.011 78.697 254.644 89.3953 267.761 89.3953C280.877 89.3953 291.511 78.697 291.511 65.5C291.511 52.303 280.877 41.6047 267.761 41.6047ZM247.478 65.5C247.478 54.2295 256.559 45.093 267.761 45.093C278.963 45.093 288.043 54.2295 288.043 65.5C288.043 76.7705 278.963 85.907 267.761 85.907C256.559 85.907 247.478 76.7705 247.478 65.5Z" fill="#545454"/>
<path d="M135.144 42.3023H138.612V70.3837C138.612 79.0533 145.597 86.0814 154.214 86.0814C162.808 86.0814 169.815 78.9015 169.815 70.2093V42.3023H173.283V71.2558H173.255C172.715 81.3563 164.417 89.5698 154.214 89.5698C143.972 89.5698 135.617 81.4472 135.164 71.2558H135.144V42.3023Z" fill="#545454"/>
<path d="M188.119 41.9535L194.779 31.6628L180.39 45.4419H217.637L180.391 89.5698H217.637L211.594 99.5116L226.007 86.0814H188.761L226.007 41.9535H188.119Z" fill="#545454"/>
<path d="M240.446 113.969C239.112 113.969 237.829 113.754 236.597 113.324C235.383 112.876 234.442 112.308 233.775 111.62L234.519 110.148C235.152 110.768 235.999 111.293 237.059 111.723C238.137 112.136 239.266 112.343 240.446 112.343C241.575 112.343 242.49 112.205 243.191 111.93C243.91 111.637 244.431 111.25 244.756 110.768C245.098 110.286 245.269 109.753 245.269 109.167C245.269 108.462 245.064 107.894 244.654 107.464C244.26 107.034 243.739 106.698 243.089 106.457C242.439 106.199 241.72 105.975 240.933 105.786C240.147 105.597 239.36 105.399 238.573 105.192C237.786 104.968 237.059 104.676 236.392 104.314C235.742 103.953 235.212 103.48 234.802 102.895C234.408 102.292 234.211 101.509 234.211 100.546C234.211 99.6507 234.442 98.8333 234.904 98.0933C235.383 97.3361 236.11 96.7338 237.085 96.2863C238.06 95.8217 239.308 95.5893 240.831 95.5893C241.84 95.5893 242.841 95.7356 243.833 96.0282C244.825 96.3035 245.68 96.6907 246.398 97.1898L245.757 98.7128C244.987 98.1965 244.166 97.8179 243.294 97.577C242.439 97.3361 241.609 97.2156 240.805 97.2156C239.728 97.2156 238.838 97.3619 238.137 97.6545C237.436 97.947 236.914 98.3428 236.572 98.8419C236.247 99.3238 236.084 99.8745 236.084 100.494C236.084 101.2 236.281 101.767 236.674 102.198C237.085 102.628 237.615 102.964 238.265 103.204C238.932 103.445 239.659 103.66 240.446 103.85C241.233 104.039 242.011 104.246 242.781 104.469C243.567 104.693 244.286 104.986 244.936 105.347C245.603 105.691 246.133 106.156 246.527 106.741C246.937 107.326 247.142 108.092 247.142 109.038C247.142 109.916 246.903 110.734 246.424 111.491C245.945 112.231 245.209 112.833 244.217 113.298C243.242 113.745 241.985 113.969 240.446 113.969Z" fill="#545454"/>
<path d="M256.471 113.814V107.572L249.287 95.7442H251.314L257.471 105.88L263.629 95.7442H265.527L258.344 107.572V113.814H256.471Z" fill="#545454"/>
<path d="M270.482 113.324C271.714 113.754 272.996 113.969 274.331 113.969C275.87 113.969 277.127 113.745 278.102 113.298C279.094 112.833 279.83 112.231 280.309 111.491C280.787 110.734 281.027 109.916 281.027 109.038C281.027 108.092 280.822 107.326 280.411 106.741C280.018 106.156 279.488 105.691 278.82 105.347C278.17 104.986 277.452 104.693 276.665 104.469C275.896 104.246 275.117 104.039 274.331 103.85C273.544 103.66 272.817 103.445 272.15 103.204C271.5 102.964 270.97 102.628 270.559 102.198C270.166 101.767 269.969 101.2 269.969 100.494C269.969 99.8745 270.131 99.3238 270.456 98.8419C270.799 98.3428 271.32 97.947 272.021 97.6545C272.723 97.3619 273.612 97.2156 274.69 97.2156C275.494 97.2156 276.323 97.3361 277.178 97.577C278.051 97.8179 278.872 98.1965 279.641 98.7128L280.283 97.1898C279.564 96.6907 278.709 96.3035 277.717 96.0282C276.725 95.7356 275.725 95.5893 274.715 95.5893C273.193 95.5893 271.945 95.8217 270.97 96.2863C269.995 96.7338 269.268 97.3361 268.789 98.0933C268.327 98.8333 268.096 99.6507 268.096 100.546C268.096 101.509 268.293 102.292 268.686 102.895C269.097 103.48 269.627 103.953 270.277 104.314C270.944 104.676 271.671 104.968 272.458 105.192C273.244 105.399 274.031 105.597 274.818 105.786C275.605 105.975 276.323 106.199 276.973 106.457C277.623 106.698 278.145 107.034 278.538 107.464C278.949 107.894 279.154 108.462 279.154 109.167C279.154 109.753 278.983 110.286 278.641 110.768C278.316 111.25 277.794 111.637 277.076 111.93C276.375 112.205 275.459 112.343 274.331 112.343C273.15 112.343 272.021 112.136 270.944 111.723C269.883 111.293 269.037 110.768 268.404 110.148L267.66 111.62C268.327 112.308 269.268 112.876 270.482 113.324Z" fill="#545454"/>
<path d="M289.685 113.814V97.3963H283.374V95.7442H297.895V97.3963H291.584V113.814H289.685Z" fill="#545454"/>
<path d="M304.11 105.45V112.162H314.911V113.814H302.211V95.7442H314.526V97.3963H304.11V103.824H313.397V105.45H304.11Z" fill="#545454"/>
<path d="M318.348 113.814V95.7442H319.913L327.71 109.131L335.435 95.7442H337V113.814H335.178V99.361L328.123 111.517H327.225L320.169 99.4437V113.814H318.348Z" fill="#545454"/>
<path d="M48.4671 42.3023H45V88.6977H48.4671V42.3023Z" fill="#545454"/>
<path d="M58.1362 42.3023H58.175V42.3518L90.0722 83.0656V42.3023H93.5393V88.6977H90.0722V88.6961L90.0702 88.6978L58.175 47.9866V88.6977H54.7079V42.3023H58.1339L58.1353 42.3012L58.1362 42.3023Z" fill="#545454"/>
<path d="M301.218 42.3023H301.18L301.179 42.3012L301.177 42.3023H297.751V88.6977H301.218V47.9866L333.114 88.6978L333.116 88.6961V88.6977H336.583V42.3023H333.116V83.0656L301.218 42.3518V42.3023Z" fill="#545454"/>
<path d="M99.7801 42.3023H128.557V45.7907H103.247V64.6279H125.783V68.1163H103.247V88.6977H99.7801V42.3023Z" fill="#545454"/>
<path d="M238.117 42.3023H234.65V88.6977H238.117V42.3023Z" fill="#545454"/>
</svg>
