<svg width="85" height="26" viewBox="0 0 85 26" fill="none" xmlns="http://www.w3.org/2000/svg">
<path d="M57.8538 21.8123H58.2737V22.239H57.8538V23.5635C57.8538 23.6812 57.8538 23.7107 58.0638 23.7107H58.2737V24.1374H57.9518C57.5879 24.1374 57.406 24.0492 57.406 23.5929V22.239H57.0421V21.8123H57.406V21.15H57.8538M60.1631 22.9749C60.1631 22.5039 59.9112 22.1802 59.5613 22.1802C59.1974 22.1802 58.9595 22.5039 58.9595 22.9749C58.9595 23.4458 59.1974 23.7695 59.5613 23.7695C59.9112 23.7695 60.1631 23.4458 60.1631 22.9749ZM59.5473 21.7534C60.2051 21.7534 60.6249 22.239 60.6249 22.9749C60.6249 23.7107 60.2051 24.1963 59.5473 24.1963C58.8895 24.1963 58.4696 23.7254 58.4696 22.9749C58.4696 22.239 58.8895 21.7534 59.5473 21.7534ZM64.2917 22.2832H62.8502V20.9587H62.3604V24.1374H62.8502V22.7247H64.2917V24.1374H64.7816V20.9587H64.2917M43.2426 22.7247H44.7541V22.2832H43.2426V21.4149H44.8661V20.9734H42.7528V24.1522H44.8801V23.7107H43.2426M50.3663 22.1507V21.8123H49.9464V24.1374H50.3943V23.0926C50.3943 22.5039 50.6182 22.239 51.108 22.239H51.164V21.7534H51.122C50.7721 21.7534 50.5342 21.8711 50.3663 22.1507ZM48.5329 22.1802C48.197 22.1802 48.029 22.4304 47.987 22.71H49.0927C49.0507 22.4009 48.8268 22.1802 48.5329 22.1802ZM48.5609 21.7534C48.8408 21.7534 49.0647 21.8564 49.2466 22.0477C49.4706 22.2832 49.5825 22.6805 49.5685 23.0926V23.1367H47.987C47.987 23.3133 48.043 23.4752 48.155 23.5929C48.267 23.7107 48.4069 23.7695 48.6029 23.7695C48.7988 23.7695 49.0367 23.696 49.1067 23.3722L49.1207 23.328H49.5685L49.5545 23.3869C49.4566 23.902 49.1067 24.1816 48.6029 24.1816C47.9451 24.1816 47.5672 23.7401 47.5392 22.9601C47.5112 22.2685 47.9451 21.7534 48.5609 21.7534ZM54.6769 23.5341L54.0891 21.8123H53.5852L54.4389 24.0786L54.299 24.4318C54.229 24.5642 54.173 24.6084 54.0611 24.6084C54.0191 24.6084 53.9631 24.5937 53.9071 24.5789L53.8092 24.5495V24.991L53.8371 25.0057C53.9071 25.0351 53.9911 25.0499 54.0891 25.0499C54.4529 25.0499 54.5929 24.8291 54.7469 24.4171L55.6985 21.827H55.2227M52.2976 23.7401C52.7315 23.7401 52.8715 23.3281 52.8715 22.9307C52.8715 22.5628 52.7315 22.1802 52.3256 22.1802C51.7938 22.1802 51.7518 22.7541 51.7518 22.9454C51.7518 23.1809 51.8078 23.7401 52.2976 23.7401ZM52.8855 21.8123H53.3053V23.902C53.3053 24.6672 52.9554 25.0499 52.2697 25.0499C51.8498 25.0499 51.3739 24.8733 51.346 24.3435V24.2846H51.7938V24.3288C51.8078 24.5789 52.1157 24.6378 52.2976 24.6378C52.6755 24.6378 52.8715 24.3729 52.8855 23.8726C52.7455 24.0492 52.5216 24.1669 52.2697 24.1669C51.5839 24.1669 51.276 23.5782 51.276 22.9896C51.276 22.4304 51.5419 21.7681 52.2976 21.7681C52.5356 21.7681 52.7455 21.8564 52.8855 22.033V21.8123ZM46.3356 21.7534C46.0557 21.7534 45.8457 21.8564 45.6918 22.0477V21.7976H45.2719V24.1227H45.7198V22.8277C45.7198 22.4304 45.9297 22.1802 46.2936 22.1802C46.5315 22.1802 46.6715 22.3273 46.6715 22.5775V24.1374H47.1193V22.6217C47.1193 22.0477 46.8534 21.7534 46.3356 21.7534ZM81.6741 22.1802C81.3382 22.1802 81.1703 22.4304 81.1283 22.71H82.2339C82.1919 22.4009 81.968 22.1802 81.6741 22.1802ZM81.6881 21.7534C81.968 21.7534 82.1919 21.8564 82.3739 22.0477C82.5978 22.2832 82.7098 22.6805 82.6958 23.0926V23.1367H81.1143C81.1143 23.3133 81.1703 23.4752 81.2822 23.5929C81.3942 23.7107 81.5341 23.7695 81.7301 23.7695C81.996 23.7695 82.1779 23.6371 82.2339 23.3722L82.2479 23.328H82.6958L82.6818 23.3869C82.5838 23.902 82.2339 24.1816 81.7301 24.1816C81.0723 24.1816 80.6944 23.7401 80.6664 22.9601C80.6524 22.2685 81.0863 21.7534 81.6881 21.7534ZM71.5554 21.1353H71.1075V21.7976H70.7437V22.2243H71.1075V23.5929C71.1075 24.0492 71.2895 24.1374 71.6534 24.1374H71.9613V23.7107H71.7513C71.5414 23.7107 71.5414 23.6812 71.5414 23.5635V22.239H71.9613V21.8123H71.5414M73.4028 21.7534C73.1929 21.7534 72.9409 21.827 72.773 22.0183V20.9587H72.3251V24.1374H72.773V22.8277C72.773 22.4304 72.9829 22.1802 73.3468 22.1802C73.5847 22.1802 73.7247 22.3273 73.7247 22.5775V24.1374H74.1725V22.6217C74.1865 22.0477 73.9346 21.7534 73.4028 21.7534ZM79.7427 22.1507V21.8123H79.3229V24.1374H79.7707V23.0926C79.7707 22.5039 79.9946 22.239 80.4845 22.239H80.5405V21.7534H80.4985C80.1486 21.7534 79.9107 21.8711 79.7427 22.1507ZM76.1599 23.2692C76.1179 23.5929 75.922 23.7695 75.6281 23.7695C75.2082 23.7695 75.0542 23.3722 75.0542 23.0043C75.0542 22.6364 75.1662 22.1802 75.6561 22.1802C75.908 22.1802 76.0759 22.3273 76.1319 22.5775L76.1459 22.6217H76.5937V22.5628C76.5518 22.0477 76.1879 21.7534 75.6281 21.7534C74.9843 21.7534 74.5784 22.2243 74.5784 23.0043C74.5784 23.7401 74.9703 24.1963 75.6141 24.1963C76.1599 24.1963 76.5098 23.8578 76.5937 23.2839L76.6077 23.225H76.1459M77.7274 23.7695C78.1612 23.7695 78.3292 23.4899 78.3292 23.3133V23.0337C78.2312 23.0779 78.0913 23.0926 77.9513 23.122C77.8813 23.1367 77.8253 23.1367 77.7554 23.1515C77.4755 23.1956 77.3635 23.2986 77.3635 23.5046C77.3635 23.7254 77.5874 23.7695 77.7274 23.7695ZM78.833 23.7695C78.847 23.7695 78.875 23.7695 78.917 23.7548L78.987 23.7254V24.108L78.959 24.1227C78.889 24.1669 78.805 24.1963 78.6791 24.1963C78.4971 24.1963 78.3852 24.0933 78.3432 23.9167C78.1612 24.108 77.9233 24.1963 77.6434 24.1963C77.1816 24.1963 76.9016 23.9461 76.9016 23.5194C76.9016 22.9749 77.2795 22.8571 77.6574 22.7835C77.7414 22.7688 77.8253 22.7541 77.8953 22.7394C78.1752 22.6952 78.3292 22.6658 78.3292 22.5039C78.3292 22.2832 78.2032 22.1802 77.9093 22.1802C77.5874 22.1802 77.4475 22.2979 77.4335 22.5481V22.5922H76.9856V22.5334C76.9996 22.0183 77.3355 21.7387 77.9233 21.7387C78.1332 21.7387 78.763 21.7387 78.763 22.4009V23.5488C78.763 23.7695 78.777 23.7695 78.833 23.7695ZM68.3924 23.7695C68.7983 23.7695 68.9942 23.5046 68.9942 23.3133V23.0337C68.8962 23.0779 68.7563 23.0926 68.6163 23.122C68.5604 23.1367 68.4904 23.1367 68.4204 23.1515C68.1545 23.1956 68.0425 23.2986 68.0425 23.5046C68.0285 23.7254 68.2525 23.7695 68.3924 23.7695ZM69.4841 23.7695C69.4981 23.7695 69.526 23.7695 69.568 23.7548L69.638 23.7254V24.108L69.61 24.1227C69.54 24.1669 69.4561 24.1963 69.3301 24.1963C69.1482 24.1963 69.0362 24.0933 68.9942 23.9167C68.8123 24.108 68.5744 24.1963 68.2944 24.1963C67.8326 24.1963 67.5527 23.9461 67.5527 23.5194C67.5527 22.9749 67.9306 22.8571 68.3084 22.7835C68.3924 22.7688 68.4764 22.7541 68.5464 22.7394C68.8263 22.6952 68.9802 22.6658 68.9802 22.5039C68.9802 22.2832 68.8543 22.1802 68.5604 22.1802C68.2385 22.1802 68.0985 22.2979 68.0845 22.5481V22.5922H67.6367V22.5334C67.6507 22.0183 67.9865 21.7387 68.5744 21.7387C68.7843 21.7387 69.4141 21.7387 69.4141 22.4009V23.5488C69.4281 23.7695 69.4421 23.7695 69.4841 23.7695ZM66.2651 22.1802C65.9292 22.1802 65.7473 22.4304 65.7193 22.71H66.8249C66.7829 22.4009 66.559 22.1802 66.2651 22.1802ZM66.2931 21.7534C66.573 21.7534 66.7969 21.8564 66.9789 22.0477C67.2028 22.2832 67.3148 22.6805 67.3008 23.0926V23.1367H65.7193C65.7193 23.3133 65.7753 23.4752 65.8872 23.5929C65.9992 23.7107 66.1391 23.7695 66.3351 23.7695C66.531 23.7695 66.7689 23.696 66.8389 23.3722L66.8529 23.328H67.3008L67.2868 23.3869C67.1888 23.902 66.8389 24.1816 66.3351 24.1816C65.6773 24.1816 65.2994 23.7401 65.2714 22.9601C65.2434 22.2685 65.6913 21.7534 66.2931 21.7534ZM70.0019 24.1374H70.4497V20.9587H70.0019V24.1374ZM73.8506 5.43299C73.4588 5.43299 73.1369 5.77147 73.1369 6.18352C73.1369 6.59558 73.4588 6.93406 73.8506 6.93406C74.2425 6.93406 74.5644 6.59558 74.5644 6.18352C74.5644 5.77147 74.2425 5.43299 73.8506 5.43299ZM39.9677 13.8507C39.9677 16.0435 38.82 17.471 37.0286 17.471C34.9713 17.471 34.7334 15.8816 34.7334 14.6748V8.92076H33.8796V14.5571C33.8796 15.5725 33.8796 18.2803 37.0146 18.2803C38.3022 18.2803 39.4218 17.5887 39.9677 16.5291V18.0596H40.8214V8.90605H39.9677M26.602 5.43299H25.6503V18.0596H33.2778V17.1619H26.602M79.6867 12.953C79.6028 12.9383 79.5048 12.9089 79.4208 12.8942C78.1612 12.6146 76.9576 12.3497 76.9576 11.1135C76.9576 10.3335 77.5734 9.50942 79.2809 9.50942C80.1626 9.50942 81.6601 9.78903 81.6741 11.6727V11.7904H82.5278V11.6727C82.5278 9.75959 81.3802 8.71474 79.2809 8.71474C77.2935 8.71474 76.1039 9.61243 76.1039 11.1282C76.1039 13.1443 77.8393 13.5123 79.1129 13.7772L79.3369 13.8213C80.7224 14.1156 81.926 14.3658 81.926 15.705C81.926 16.2348 81.6741 17.4857 79.3509 17.4857C77.8113 17.4857 76.7477 16.5144 76.6637 14.9986L76.6497 14.8809H75.81V14.9986C75.852 17.0295 77.2095 18.2951 79.3509 18.2951C80.1486 18.2951 82.7797 18.1038 82.7797 15.705C82.7797 13.7183 81.3802 13.2915 79.6867 12.953ZM71.4714 18.0596V12.4232C71.4714 11.4078 71.4714 8.70002 68.3364 8.70002C67.0489 8.70002 65.9292 9.39168 65.3834 10.4513V8.90605H64.5297V18.0596H65.3834V13.1149C65.3834 10.9222 66.531 9.4947 68.3224 9.4947C70.3798 9.4947 70.6177 11.0841 70.6177 12.2908V18.0449M59.2114 9.50942C57.448 9.50942 56.3843 11.1871 56.2164 12.8795H62.1924C62.1225 11.1871 61.0868 9.50942 59.2114 9.50942ZM62.9762 14.9545C62.6403 17.0736 61.2687 18.2803 59.2114 18.2803C58.1477 18.2803 57.224 17.8977 56.5523 17.1766C55.7685 16.3378 55.3487 15.0869 55.3627 13.6447C55.3487 12.0848 55.8105 10.6867 56.6502 9.78903C57.308 9.08264 58.2037 8.70002 59.2114 8.70002C60.317 8.70002 61.2547 9.08264 61.9265 9.81846C62.7243 10.6867 63.1161 12.0259 63.0462 13.5711V13.6889H56.2164C56.2164 14.8809 56.5803 15.9404 57.224 16.6174C57.7419 17.1766 58.4277 17.4562 59.2254 17.4562C60.7649 17.4562 61.8565 16.4997 62.1504 14.8956L62.1644 14.7926H63.0182L62.9762 14.9545ZM54.187 18.0596V11.8493C54.187 9.84789 53.1794 8.70002 51.4159 8.70002C50.1703 8.70002 49.2886 9.25924 48.7428 10.4071C48.4629 9.53885 47.6652 8.70002 46.1536 8.70002C45.062 8.70002 44.0403 9.36225 43.5785 10.2894V8.90605H42.7248V18.0596H43.5785V12.6734C43.5785 10.3482 45.118 9.50942 46.1536 9.50942C46.7135 9.50942 48.029 9.73016 48.029 11.8346V18.0596H48.8828V12.6734C48.8828 10.7162 49.8624 9.50942 51.4299 9.50942C52.0037 9.50942 53.3473 9.73016 53.3473 11.8346V18.0596M73.4168 18.0596H74.2705V8.90605H73.4168V18.0596ZM84.1793 7.44913C84.2353 7.30197 84.2633 7.1548 84.2633 6.99292C84.2633 6.83104 84.2353 6.66917 84.1793 6.53672C84.1233 6.40427 84.0533 6.27182 83.9554 6.16881C83.8574 6.0658 83.7454 5.99221 83.6195 5.93335C83.4935 5.87448 83.3536 5.84505 83.2136 5.84505C83.0736 5.84505 82.9337 5.87448 82.8077 5.93335C82.6818 5.99221 82.5698 6.0658 82.4718 6.16881C82.3739 6.27182 82.3039 6.38955 82.2479 6.53672C82.1919 6.68388 82.1639 6.83104 82.1639 6.99292C82.1639 7.1548 82.1919 7.31668 82.2479 7.44913C82.3039 7.59629 82.3739 7.71402 82.4718 7.81704C82.5698 7.92005 82.6818 7.99364 82.8077 8.0525C82.9337 8.11137 83.0736 8.1408 83.2136 8.1408C83.3536 8.1408 83.4935 8.11137 83.6195 8.0525C83.7454 7.99364 83.8574 7.92005 83.9554 7.81704C84.0533 7.71402 84.1233 7.59629 84.1793 7.44913ZM84.5292 6.38955C84.6131 6.56615 84.6411 6.77218 84.6411 6.99292C84.6411 7.21367 84.5991 7.4197 84.5292 7.59629C84.4452 7.77289 84.3472 7.93477 84.2213 8.0525C84.0953 8.18495 83.9414 8.27325 83.7594 8.34683C83.5915 8.42041 83.4095 8.44984 83.2136 8.44984C83.0177 8.44984 82.8497 8.42041 82.6678 8.34683C82.4998 8.27325 82.3459 8.18495 82.2059 8.0525C82.08 7.92005 81.968 7.77289 81.898 7.59629C81.814 7.4197 81.7861 7.21367 81.7861 6.99292C81.7861 6.77218 81.828 6.56615 81.898 6.38955C81.982 6.21296 82.08 6.05108 82.2059 5.93335C82.3319 5.8009 82.4858 5.7126 82.6678 5.63902C82.8357 5.56544 83.0177 5.53601 83.2136 5.53601C83.4095 5.53601 83.5775 5.56544 83.7594 5.63902C83.9274 5.7126 84.0813 5.8009 84.2213 5.93335C84.3472 6.06579 84.4452 6.21296 84.5292 6.38955ZM83.2416 6.86048C83.3256 6.86048 83.4095 6.84576 83.4655 6.81633C83.5215 6.78689 83.5495 6.72803 83.5495 6.62501C83.5495 6.58087 83.5355 6.55143 83.5215 6.522C83.5075 6.49257 83.4795 6.47785 83.4515 6.46314C83.4235 6.44842 83.3815 6.4337 83.3536 6.4337C83.3116 6.4337 83.2836 6.41899 83.2416 6.41899H82.9757V6.84576M83.6055 7.0665C83.5495 7.08122 83.5075 7.09594 83.4515 7.09594L83.8714 7.81704H83.5495L83.1716 7.11065H82.9757V7.81704H82.6678V6.18352H83.2556C83.4515 6.18352 83.6055 6.21296 83.7034 6.28654C83.8154 6.36012 83.8574 6.47785 83.8574 6.66916C83.8574 6.74275 83.8434 6.81633 83.8294 6.86048C83.8014 6.91934 83.7734 6.96349 83.7454 6.99292C83.7034 7.02236 83.6615 7.03707 83.6055 7.0665ZM11.8508 0.694336C9.63952 0.694336 7.40025 1.386 5.44088 2.8282C0.374532 6.55143 -0.857067 13.8949 2.69778 19.2222C4.88107 22.4892 8.35194 24.2405 11.8788 24.2405C14.0901 24.2405 16.3293 23.5488 18.2887 22.1066C18.4007 22.033 18.4986 21.9447 18.5966 21.8711C18.3307 21.8711 18.0368 21.8711 17.7149 21.8711C14.384 21.8711 8.50589 21.5621 8.50589 14.8514V5.53601H11.8928C11.8928 5.53601 11.8928 14.8514 11.8928 14.925C11.8928 19.3546 14.8038 20.6644 17.1691 20.6644C18.3727 20.6644 19.4363 20.3259 19.8982 19.8844C20.9618 18.8543 20.9758 17.9419 20.9758 14.925V5.59487C18.7785 2.40143 15.3357 0.694336 11.8508 0.694336Z" fill="#636363"/>
</svg>
