<svg width="92" height="21" viewBox="0 0 92 21" fill="none" xmlns="http://www.w3.org/2000/svg">
<path fill-rule="evenodd" clip-rule="evenodd" d="M74.9051 6.29736C75.2567 6.91364 75.3718 7.61482 75.4098 8.40309L75.4597 9.45375V16.8007L75.5107 17.8524C75.6128 19.5701 76.8599 20.8401 78.5639 20.9482L79.594 21V9.45375L79.645 8.40309C79.6873 7.62364 79.8013 6.90923 80.1584 6.28854C80.5222 5.65189 81.0446 5.12369 81.673 4.75696C82.3014 4.39022 83.0138 4.19787 83.7385 4.19921C84.4632 4.20055 85.1749 4.39554 85.802 4.76459C86.4291 5.13365 86.9495 5.66378 87.3111 6.30177C87.6628 6.91805 87.7724 7.63246 87.8147 8.40309L87.8657 9.45044V16.8007L87.9168 17.8524C88.0231 19.5789 89.2605 20.849 90.97 20.9482L92 21V8.40309C92 6.17561 91.1291 4.03931 89.5787 2.46394C88.0284 0.888562 85.9255 0.00308491 83.7326 0.00220791C82.5588 0.000950608 81.3984 0.254129 80.3287 0.74483C79.259 1.23553 78.3047 1.95245 77.5296 2.8477C76.7541 1.95281 75.7997 1.23606 74.7301 0.74521C73.6605 0.254364 72.5002 0.000695103 71.3265 0.00110522C69.6094 0.00110522 68.0161 0.530295 66.6963 1.44425C65.8909 0.531397 64.0891 0.00110522 63.0548 0.00110522V21L64.0891 20.9482C65.8193 20.8324 67.0696 19.5965 67.1369 17.8524L67.1923 16.8007V9.45375L67.2433 8.40309C67.2867 7.61041 67.3952 6.91364 67.748 6.29295C68.1122 5.6567 68.6343 5.12862 69.2622 4.76144C69.8902 4.39426 70.602 4.20082 71.3265 4.20044C72.0517 4.2006 72.764 4.39442 73.3921 4.76247C74.0202 5.13051 74.5419 5.65984 74.9051 6.29736V6.29736ZM4.13426 20.9493L5.16864 21H20.6735L20.6224 19.9526C20.4824 18.2262 19.2787 16.9649 17.5736 16.8525L16.5392 16.8007H7.23739L19.6391 4.19934L19.5881 3.15309C19.5078 1.40897 18.253 0.148838 16.5392 0.0529213L15.5048 0.00551504L0 0.00110522L0.0510134 1.05177C0.186687 2.76171 1.40775 4.0494 3.09879 4.14863L4.13426 4.20044H13.4361L1.03438 16.8018L1.08539 17.8524C1.18742 19.5833 2.41717 20.8368 4.13426 20.9482V20.9493ZM58.9965 3.07481C59.9565 4.04976 60.7181 5.20725 61.2377 6.48118C61.7572 7.75511 62.0247 9.12053 62.0247 10.4995C62.0247 11.8784 61.7572 13.2438 61.2377 14.5177C60.7181 15.7917 59.9565 16.9491 58.9965 17.9241C57.0569 19.8926 54.4272 20.9984 51.6853 20.9984C48.9434 20.9984 46.3137 19.8926 44.3741 17.9241C40.3375 13.824 40.3375 7.17493 44.3741 3.07481C45.3332 2.1002 46.472 1.32703 47.7253 0.799448C48.9787 0.27187 50.3221 0.000217641 51.6788 2.53107e-06C53.0377 -0.000955774 54.3834 0.270218 55.6391 0.798012C56.8947 1.32581 58.0356 2.09987 58.9965 3.07592V3.07481ZM56.0714 6.0482C57.234 7.23007 57.8872 8.83251 57.8872 10.5033C57.8872 12.1741 57.234 13.7765 56.0714 14.9584C54.9078 16.1394 53.3302 16.8028 51.6853 16.8028C50.0404 16.8028 48.4628 16.1394 47.2992 14.9584C46.1365 13.7765 45.4834 12.1741 45.4834 10.5033C45.4834 8.83251 46.1365 7.23007 47.2992 6.0482C48.4628 4.86721 50.0404 4.20381 51.6853 4.20381C53.3302 4.20381 54.9078 4.86721 56.0714 6.0482V6.0482ZM29.984 2.53107e-06C31.3407 0.000362429 32.6842 0.272188 33.9375 0.799957C35.1909 1.32773 36.3296 2.1011 37.2886 3.07592C41.3263 7.17493 41.3263 13.8251 37.2886 17.9241C35.349 19.8926 32.7193 20.9984 29.9774 20.9984C27.2356 20.9984 24.6058 19.8926 22.6662 17.9241C18.6297 13.824 18.6297 7.17493 22.6662 3.07481C23.6254 2.1002 24.7642 1.32703 26.0175 0.799448C27.2708 0.27187 28.6142 0.000217641 29.9709 2.53107e-06H29.984ZM34.3635 6.04599C35.5265 7.22792 36.1799 8.83059 36.1799 10.5017C36.1799 12.1727 35.5265 13.7754 34.3635 14.9573C33.1999 16.1383 31.6223 16.8017 29.9774 16.8017C28.3325 16.8017 26.7549 16.1383 25.5914 14.9573C24.4287 13.7754 23.7756 12.173 23.7756 10.5022C23.7756 8.83141 24.4287 7.22897 25.5914 6.04709C26.7549 4.86611 28.3325 4.20271 29.9774 4.20271C31.6223 4.20271 33.1999 4.86611 34.3635 6.04709V6.04599Z" fill="white"/>
</svg>
